<?xml version="1.0" encoding="UTF-8" standalone="no"?>
<!-- Created with Inkscape (http://www.inkscape.org/) -->

<svg
   xmlns:dc="http://purl.org/dc/elements/1.1/"
   xmlns:cc="http://creativecommons.org/ns#"
   xmlns:rdf="http://www.w3.org/1999/02/22-rdf-syntax-ns#"
   xmlns:svg="http://www.w3.org/2000/svg"
   xmlns="http://www.w3.org/2000/svg"
   version="1.1"
   width="640"
   height="480"
   id="svg3205">
  <metadata
     id="metadata3211">
    <rdf:RDF>
      <cc:Work
         rdf:about="">
        <dc:format>image/svg+xml</dc:format>
        <dc:type
           rdf:resource="http://purl.org/dc/dcmitype/StillImage" />
        <dc:title></dc:title>
      </cc:Work>
    </rdf:RDF>
  </metadata>
  <defs
     id="defs3209" />
  <path
     d="m 261,475.59908 c 0,-0.7705 1.95415,-4.033 4.34256,-7.25 2.38841,-3.21699 5.18544,-7.31158 6.21561,-9.09908 1.03018,-1.7875 2.17474,-3.25 2.54347,-3.25 0.36874,0 2.58369,-3.2625 4.92211,-7.25 2.33843,-3.9875 5.04145,-8.15 6.00672,-9.25 6.30884,-7.18943 33.90698,-59.2755 43.44823,-82 2.07834,-4.95 4.35877,-10.35 5.06763,-12 2.17872,-5.07136 7.18668,-17.80721 8.45418,-21.5 0.66073,-1.925 1.55884,-4.4 1.9958,-5.5 2.72746,-6.86612 9.58637,-29.82898 13.88936,-46.5 5.68122,-22.01071 7.98432,-32.91386 11.51214,-54.5 6.57639,-40.2398 7.58361,-59.30648 7.59379,-143.75 0.008,-62.928548 0.16307,-69.75 1.58997,-69.75 1.43266,0 1.54015,7.602592 1.14171,80.75 -0.36016,66.12195 -0.74092,83.55222 -2.10185,96.21887 -1.85601,17.27453 -6.19482,48.12982 -7.73836,55.03113 -0.55355,2.475 -1.40206,6.3 -1.88557,8.5 -3.59921,16.37666 -6.28462,27.66435 -7.49405,31.5 -0.78041,2.475 -2.13986,7.425 -3.02102,11 -0.88116,3.575 -2.64267,9.65 -3.91447,13.5 -1.27179,3.85 -3.06223,9.475 -3.97875,12.5 -0.91652,3.025 -2.07637,6.4 -2.57744,7.5 -0.50107,1.1 -1.63021,4.21657 -2.50919,6.92571 -0.87899,2.70914 -2.52283,7.20914 -3.65297,10 -1.13015,2.79086 -3.41723,8.44929 -5.0824,12.57429 -3.59801,8.91309 -5.54348,13.15649 -14.21255,31 -3.60735,7.425 -6.55789,13.80573 -6.55674,14.1794 0.002,0.74484 -19.97238,35.55527 -24.60956,42.88781 -1.5886,2.51196 -4.68836,7.40908 -6.88836,10.88247 -2.2,3.4734 -5.15497,7.71816 -6.5666,9.4328 -1.41163,1.71463 -3.63871,4.91752 -4.94907,7.11752 C 266.74477,474.29686 261,479.57865 261,475.59908 z M 365.66228,246.75 c -0.27741,-0.6875 -0.50439,-0.125 -0.50439,1.25 0,1.375 0.22698,1.9375 0.50439,1.25 0.27741,-0.6875 0.27741,-1.8125 0,-2.5 z m 2.02083,-8.9375 c -0.31922,-0.79773 -0.55618,-0.56078 -0.60416,0.60417 -0.0434,1.05416 0.19293,1.64479 0.52522,1.3125 0.33229,-0.3323 0.36781,-1.1948 0.0789,-1.91667 z m 3.97917,-24.0625 c -0.27741,-0.6875 -0.50439,-0.125 -0.50439,1.25 0,1.375 0.22698,1.9375 0.50439,1.25 0.27741,-0.6875 0.27741,-1.8125 0,-2.5 z m 1,-6 c -0.27741,-0.6875 -0.50439,-0.125 -0.50439,1.25 0,1.375 0.22698,1.9375 0.50439,1.25 0.27741,-0.6875 0.27741,-1.8125 0,-2.5 z m 1.02705,-7.5 c -0.25153,-0.9625 -0.45733,-0.175 -0.45733,1.75 0,1.925 0.2058,2.7125 0.45733,1.75 0.25152,-0.9625 0.25152,-2.5375 0,-3.5 z m 1,-8 c -0.25153,-0.9625 -0.45733,-0.175 -0.45733,1.75 0,1.925 0.2058,2.7125 0.45733,1.75 0.25152,-0.9625 0.25152,-2.5375 0,-3.5 z m 1.0164,-9.5 c -0.23835,-1.2375 -0.43337,-0.225 -0.43337,2.25 0,2.475 0.19502,3.4875 0.43337,2.25 0.23836,-1.2375 0.23836,-3.2625 0,-4.5 z m 1.01052,-11.5 c -0.22912,-1.5125 -0.41659,-0.275 -0.41659,2.75 0,3.025 0.18747,4.2625 0.41659,2.75 0.22913,-1.5125 0.22913,-3.9875 0,-5.5 z m 1.01222,-17 c -0.21575,-2.0625 -0.39226,-0.375 -0.39226,3.75 0,4.125 0.17651,5.8125 0.39226,3.75 0.21574,-2.0625 0.21574,-5.4375 0,-7.5 z M 378.74968,41.823568 C 378.5982,21.845606 378.47419,37.9 378.47409,77.5 c -9e-5,39.6 0.12385,55.94561 0.27542,36.32357 0.15158,-19.622039 0.15165,-52.022039 1.7e-4,-72.000002 z"
     id="path3215"
     style="fill:#000000" />
</svg>
