<?xml version="1.0" encoding="UTF-8" standalone="no"?>
<!-- Created with Inkscape (http://www.inkscape.org/) -->

<svg
   xmlns:dc="http://purl.org/dc/elements/1.1/"
   xmlns:cc="http://creativecommons.org/ns#"
   xmlns:rdf="http://www.w3.org/1999/02/22-rdf-syntax-ns#"
   xmlns:svg="http://www.w3.org/2000/svg"
   xmlns="http://www.w3.org/2000/svg"
   version="1.1"
   width="640"
   height="480"
   id="svg3095">
  <metadata
     id="metadata3101">
    <rdf:RDF>
      <cc:Work
         rdf:about="">
        <dc:format>image/svg+xml</dc:format>
        <dc:type
           rdf:resource="http://purl.org/dc/dcmitype/StillImage" />
        <dc:title></dc:title>
      </cc:Work>
    </rdf:RDF>
  </metadata>
  <defs
     id="defs3099" />
  <path
     d="M 120.5,433.47729 C 102.02538,431.9251 98.425096,430.98451 92.237695,426.09365 83.618251,419.28037 78.38187,411.2017 75.972651,401 c -1.893173,-8.01654 -1.756762,-31.28048 0.275591,-47 2.299535,-17.78607 4.571113,-37.13528 5.811253,-49.5 0.551632,-5.5 1.421011,-12.475 1.931954,-15.5 0.510943,-3.025 1.66513,-10.9 2.564859,-17.5 2.108124,-15.46422 4.049931,-27.86491 6.028663,-38.5 0.869816,-4.675 2.165808,-11.875 2.879982,-16 2.148275,-12.40822 7.419327,-39.11909 8.903707,-45.11923 l 1.39014,-5.61923 -3.1294,-1.05345 C 93.864758,162.25764 75.793214,155.5742 70.5,153.32558 c -6.348064,-2.69672 -9.730192,-4.09559 -13,-5.37688 -5.667137,-2.22071 -14.456131,-6.70592 -18,-9.18579 -2.2,-1.53948 -6.361421,-4.40897 -9.247603,-6.37663 C 17.477081,123.67666 5.0193566,108.95056 3.4785338,100.73727 3.0874383,98.652549 3.3242031,95.520274 4.0395603,93.315179 6.021948,87.204453 21.954604,70 25.631222,70 c 0.405531,0 2.592152,-0.897904 4.859157,-1.995343 2.267005,-1.097438 8.371581,-2.655819 13.565724,-3.463069 C 49.250246,63.734338 58.675,62.159511 65,61.041971 c 29.36055,-5.187603 75.41525,-11.001616 97,-12.245423 36.38638,-2.096742 149.92675,-1.477487 206,1.123533 90.73171,4.208693 124.72686,6.068398 136.5,7.467235 23.25143,2.762643 46.24968,8.954321 75.5,20.326408 23.304,9.060244 29.93518,13.894146 39.48921,28.786276 3.17567,4.95 6.51148,10.125 7.41291,11.5 9.33317,14.23638 11.69532,31.88111 6.53353,48.80398 -4.65282,15.25421 -23.37167,39.20622 -34.46155,44.09584 -2.48924,1.09753 -11.93924,3.33233 -21,4.96621 -9.06075,1.63389 -17.74089,3.45744 -19.2892,4.05234 -1.5483,0.5949 -4.7358,1.08163 -7.08333,1.08163 -2.34753,0 -4.49641,0.22818 -4.7753,0.50706 -0.27888,0.27888 -0.16846,2.41638 0.24539,4.75 5.08439,28.67026 7.78156,51.69325 9.92772,84.74294 1.2505,19.257 2.87211,36.59664 4.05427,43.35182 3.24289,18.53071 4.12277,28.02024 3.77916,40.75844 -0.35156,13.03335 -0.48732,13.7837 -3.20292,17.70231 -3.88519,5.60633 -12.44782,13.54374 -17.25764,15.99752 -5.25471,2.68076 -12.33306,3.80594 -33.12225,5.26514 -23.99674,1.68433 -58.80277,-0.72412 -66.27018,-4.58567 -4.09452,-2.11735 -12.93267,-10.46287 -15.80897,-14.92778 -3.94859,-6.12944 -5.04468,-10.02093 -6.21398,-22.06178 -1.07264,-11.04543 -0.97288,-13.30147 1.52554,-34.5 0.74545,-6.325 1.8751,-16.675 2.51033,-23 4.44795,-44.28854 7.54134,-67.61248 14.22302,-107.24053 0.62509,-3.70729 0.89973,-6.97731 0.61033,-7.26672 -0.642,-0.64199 -22.50019,-4.29935 -32.82609,-5.49252 -6.97424,-0.80588 -48.25201,-6.67316 -63,-8.9549 -10.16068,-1.57202 -33.34386,-3.85787 -46.10899,-4.54634 -14.89084,-0.80311 -56.42696,-8.51441 -77.89101,-14.4607 -9.17972,-2.5431 -31.07772,-7.29391 -31.53094,-6.84069 -0.2808,0.28081 0.66891,6.98872 2.11049,14.90648 3.79593,20.84897 5.79916,32.59257 9.8759,57.89592 6.8395,42.45109 7.0284,43.77995 10.09282,71 0.89782,7.975 2.4917,21.475 3.54195,30 1.05024,8.525 1.90694,19.55 1.90376,24.5 -0.007,11.03792 -2.37078,27.37365 -4.59456,31.75335 -4.36931,8.6053 -15.55312,18.90313 -22.58621,20.79695 -5.3738,1.44701 -36.07008,3.93721 -46.81321,3.79766 -4.675,-0.0607 -15.25,-0.67753 -23.5,-1.37067 z m 30.25,-0.21233 c -2.6125,-0.206 -6.8875,-0.206 -9.5,0 -2.6125,0.206 -0.475,0.37454 4.75,0.37454 5.225,0 7.3625,-0.16854 4.75,-0.37454 z m 348,0 c -2.6125,-0.206 -6.8875,-0.206 -9.5,0 -2.6125,0.206 -0.475,0.37454 4.75,0.37454 5.225,0 7.3625,-0.16854 4.75,-0.37454 z m -365.98209,-0.97949 c -1.50265,-0.22817 -4.20265,-0.23276 -6,-0.0102 -1.79735,0.22256 -0.56791,0.40925 2.73209,0.41486 3.3,0.006 4.77056,-0.17648 3.26791,-0.40466 z m 33,0 c -1.50265,-0.22817 -4.20265,-0.23276 -6,-0.0102 -1.79735,0.22256 -0.56791,0.40925 2.73209,0.41486 3.3,0.006 4.77056,-0.17648 3.26791,-0.40466 z m 315,0 c -1.50265,-0.22817 -4.20265,-0.23276 -6,-0.0102 -1.79735,0.22256 -0.56791,0.40925 2.73209,0.41486 3.3,0.006 4.77056,-0.17648 3.26791,-0.40466 z m 33,0 c -1.50265,-0.22817 -4.20265,-0.23276 -6,-0.0102 -1.79735,0.22256 -0.56791,0.40925 2.73209,0.41486 3.3,0.006 4.77056,-0.17648 3.26791,-0.40466 z m -394,-1 c -1.50265,-0.22817 -4.20265,-0.23276 -6,-0.0102 -1.79735,0.22256 -0.56791,0.40925 2.73209,0.41486 3.3,0.006 4.77056,-0.17648 3.26791,-0.40466 z m 47.85754,-0.7342 c 20.67441,-1.6987 23.84334,-2.48288 30.13686,-7.45762 10.06823,-7.95848 13.73569,-14.43886 15.75574,-27.8403 1.94637,-12.91263 1.86184,-20.66771 -0.42783,-39.25335 -1.05025,-8.525 -2.64413,-22.025 -3.54195,-30 -3.06442,-27.22005 -3.25332,-28.54891 -10.09282,-71 -1.99379,-12.375 -4.44661,-27.225 -5.4507,-33 -3.35353,-19.28785 -7.90367,-44.45011 -8.86075,-49 -0.52062,-2.475 -1.44989,-6.975 -2.06504,-10 -2.31756,-11.39658 -9.39094,-34.75805 -12.61613,-41.66774 -1.57491,-3.37409 -6.30602,-7.85296 -9.20743,-8.71653 -11.05286,-3.28974 -15.05939,-3.57379 -23.90281,-1.69463 -10.56381,2.24472 -12.32427,3.878 -14.79042,13.72189 -0.94483,3.77135 -4.59178,15.85701 -8.10433,26.85701 -8.5952,26.91696 -10.02419,32.94726 -15.995299,67.5 -0.712847,4.125 -2.007754,11.325 -2.87757,16 -1.978732,10.63509 -3.920539,23.03578 -6.028663,38.5 -0.899729,6.6 -2.053916,14.475 -2.564859,17.5 -0.510943,3.025 -1.380322,10 -1.931954,15.5 -1.214527,12.10935 -3.46181,31.2936 -5.798532,49.5 -1.986253,15.47575 -2.103261,35.27444 -0.254865,43.12527 2.339786,9.93794 7.264691,17.66871 15.306139,24.02648 6.108973,4.82991 9.751653,5.77659 28.187763,7.32554 20.2617,1.70233 25.20847,1.71044 45.12545,0.074 z m 11.14246,0.7342 c -1.50265,-0.22817 -4.20265,-0.23276 -6,-0.0102 -1.79735,0.22256 -0.56791,0.40925 2.73209,0.41486 3.3,0.006 4.77056,-0.17648 3.26791,-0.40466 z m 289,0 c -1.50265,-0.22817 -4.20265,-0.23276 -6,-0.0102 -1.79735,0.22256 -0.56791,0.40925 2.73209,0.41486 3.3,0.006 4.77056,-0.17648 3.26791,-0.40466 z m 47.75491,-0.76446 c 19.6288,-1.61487 22.57595,-2.21677 28.84585,-5.89118 4.33284,-2.53921 11.87274,-10.01625 15.16068,-15.03427 3.74041,-5.7086 3.16125,-26.78676 -1.46028,-53.14622 -1.21828,-6.94857 -2.7957,-23.79429 -4.06857,-43.44934 -2.06591,-31.90096 -5.87306,-65.73677 -8.94519,-79.5 -0.49107,-2.2 -1.41596,-6.7 -2.05531,-10 -0.63935,-3.3 -1.55389,-7.8 -2.03233,-10 -2.39219,-11.00019 -3.21708,-14.95922 -5.50204,-26.40665 -2.41743,-12.11111 -4.6525,-20.11348 -12.45495,-44.59335 -2.10361,-6.6 -4.58012,-14.99526 -5.50335,-18.65614 -2.24097,-8.88603 -4.31958,-10.68303 -14.97667,-12.94757 -8.23094,-1.74901 -8.82945,-1.74921 -17.03494,-0.006 -4.67736,0.9939 -9.41371,2.63011 -10.52523,3.63603 -1.11152,1.00591 -2.9273,5.01141 -4.03506,8.90111 -2.72662,9.57396 -10.88791,35.59231 -11.94228,38.07218 -1.17592,2.76575 -3.70115,11.3792 -4.3976,15 -0.31737,1.65 -1.76,8.85 -3.20585,16 -4.1104,20.3267 -7.55603,39.26194 -10.91814,60 -3.34248,20.61689 -7.15357,50.56151 -9.48172,74.5 -1.36134,13.99758 -2.74854,26.90065 -4.43637,41.26493 -1.60389,13.64984 -0.85125,29.5672 1.73697,36.73507 3.58266,9.92188 14.41817,20.76443 23.09011,23.10512 4.28338,1.15616 29.65799,3.53522 40.14227,3.76366 3.31255,0.0722 14.11255,-0.53433 24,-1.34777 z m 11.24509,0.76446 c -1.50265,-0.22817 -4.20265,-0.23276 -6,-0.0102 -1.79735,0.22256 -0.56791,0.40925 2.73209,0.41486 3.3,0.006 4.77056,-0.17648 3.26791,-0.40466 z M 108.25,430.33772 c -0.6875,-0.27741 -1.8125,-0.27741 -2.5,0 -0.6875,0.27741 -0.125,0.50439 1.25,0.50439 1.375,0 1.9375,-0.22698 1.25,-0.50439 z m 78,0 c -0.6875,-0.27741 -1.8125,-0.27741 -2.5,0 -0.6875,0.27741 -0.125,0.50439 1.25,0.50439 1.375,0 1.9375,-0.22698 1.25,-0.50439 z m 270,0 c -0.6875,-0.27741 -1.8125,-0.27741 -2.5,0 -0.6875,0.27741 -0.125,0.50439 1.25,0.50439 1.375,0 1.9375,-0.22698 1.25,-0.50439 z m 78,0 c -0.6875,-0.27741 -1.8125,-0.27741 -2.5,0 -0.6875,0.27741 -0.125,0.50439 1.25,0.50439 1.375,0 1.9375,-0.22698 1.25,-0.50439 z M 92,423.68709 c 0,-0.1721 -1.4625,-1.6346 -3.25,-3.25 L 85.5,417.5 l 2.937091,3.25 C 91.174872,423.77946 92,424.45965 92,423.68709 z M 204,420.5 c 1.86578,-1.925 3.16733,-3.5 2.89233,-3.5 -0.275,0 -2.02655,1.575 -3.89233,3.5 -1.86578,1.925 -3.16733,3.5 -2.89233,3.5 0.275,0 2.02655,-1.575 3.89233,-3.5 z m 236,3.20295 c 0,-0.16338 -1.9125,-2.07588 -4.25,-4.25 L 431.5,415.5 l 3.95295,4.25 c 3.6762,3.95246 4.54705,4.70953 4.54705,3.95295 z m 118,-8.41116 c 0,-0.75088 -0.89783,0.043 -5.04179,4.45821 l -4.45821,4.75 4.75,-4.45821 c 2.6125,-2.45201 4.75,-4.58951 4.75,-4.75 z m 4.68311,-9.47929 c -0.31922,-0.79773 -0.55618,-0.56078 -0.60416,0.60417 -0.0434,1.05416 0.19293,1.64479 0.52522,1.3125 0.33229,-0.33229 0.36781,-1.1948 0.0789,-1.91667 z M 425.66228,399.75 c -0.27741,-0.6875 -0.50439,-0.125 -0.50439,1.25 0,1.375 0.22698,1.9375 0.50439,1.25 0.27741,-0.6875 0.27741,-1.8125 0,-2.5 z m 138.07812,-15 c -0.19527,-3.4375 -0.35504,-0.625 -0.35504,6.25 0,6.875 0.15977,9.6875 0.35504,6.25 0.19527,-3.4375 0.19527,-9.0625 0,-12.5 z m -349.07812,14 c -0.27741,-0.6875 -0.50439,-0.125 -0.50439,1.25 0,1.375 0.22698,1.9375 0.50439,1.25 0.27741,-0.6875 0.27741,-1.8125 0,-2.5 z M 76.717581,390.26375 C 76.487727,388.74369 76.293522,389.75 76.286014,392.5 c -0.0075,2.75 0.180555,3.99369 0.417917,2.76375 0.237362,-1.22994 0.243505,-3.47994 0.01365,-5 z M 424.71625,389.25 c -0.22912,-1.5125 -0.41659,-0.275 -0.41659,2.75 0,3.025 0.18747,4.2625 0.41659,2.75 0.22913,-1.5125 0.22913,-3.9875 0,-5.5 z m -209.02692,2 c -0.25153,-0.9625 -0.45733,-0.175 -0.45733,1.75 0,1.925 0.2058,2.7125 0.45733,1.75 0.25152,-0.9625 0.25152,-2.5375 0,-3.5 z m 1.04791,-18.5 c -0.202,-2.8875 -0.36728,-0.525 -0.36728,5.25 0,5.775 0.16528,8.1375 0.36728,5.25 0.202,-2.8875 0.202,-7.6125 0,-10.5 z m -141.008772,2.5 c -0.215744,-2.0625 -0.392262,-0.375 -0.392262,3.75 0,4.125 0.176518,5.8125 0.392262,3.75 0.215745,-2.0625 0.215745,-5.4375 0,-7.5 z m 347.978792,4.51166 c -0.23919,-1.24391 -0.44398,-0.46166 -0.45508,1.73834 -0.0111,2.2 0.18461,3.21775 0.4349,2.26166 0.25029,-0.95609 0.25937,-2.75609 0.0202,-4 z M 562.68933,372.25 c -0.25153,-0.9625 -0.45733,-0.175 -0.45733,1.75 0,1.925 0.2058,2.7125 0.45733,1.75 0.25152,-0.9625 0.25152,-2.5375 0,-3.5 z m -137.9836,-2.5 c -0.23835,-1.2375 -0.43337,-0.225 -0.43337,2.25 0,2.475 0.19502,3.4875 0.43337,2.25 0.23836,-1.2375 0.23836,-3.2625 0,-4.5 z m -348.016404,-4.5 c -0.251528,-0.9625 -0.457323,-0.175 -0.457323,1.75 0,1.925 0.205795,2.7125 0.457323,1.75 0.251527,-0.9625 0.251527,-2.5375 0,-3.5 z m 485.003664,0.019 c -0.25354,-0.97297 -0.47766,-0.41903 -0.49804,1.23097 -0.0204,1.65 0.18706,2.44606 0.46099,1.76903 0.27392,-0.67703 0.29059,-2.02703 0.0371,-3 z M 215.68933,361.25 c -0.25153,-0.9625 -0.45733,-0.175 -0.45733,1.75 0,1.925 0.2058,2.7125 0.45733,1.75 0.25152,-0.9625 0.25152,-2.5375 0,-3.5 z m 210,0 c -0.25153,-0.9625 -0.45733,-0.175 -0.45733,1.75 0,1.925 0.2058,2.7125 0.45733,1.75 0.25152,-0.9625 0.25152,-2.5375 0,-3.5 z m -348.000004,-4 c -0.251528,-0.9625 -0.457323,-0.175 -0.457323,1.75 0,1.925 0.205795,2.7125 0.457323,1.75 0.251527,-0.9625 0.251527,-2.5375 0,-3.5 z m 137.017934,-4.48834 c -0.23919,-1.24391 -0.44398,-0.46166 -0.45508,1.73834 -0.0111,2.2 0.18461,3.21775 0.4349,2.26166 0.25029,-0.95609 0.25937,-2.75609 0.0202,-4 z M 426.68933,353.25 c -0.25153,-0.9625 -0.45733,-0.175 -0.45733,1.75 0,1.925 0.2058,2.7125 0.45733,1.75 0.25152,-0.9625 0.25152,-2.5375 0,-3.5 z m 133.00366,1.01903 c -0.25354,-0.97297 -0.47766,-0.41903 -0.49804,1.23097 -0.0204,1.65 0.18706,2.44606 0.46099,1.76903 0.27392,-0.67703 0.29059,-2.02703 0.0371,-3 z M 78.705733,347.75 c -0.238353,-1.2375 -0.433369,-0.225 -0.433369,2.25 0,2.475 0.195016,3.4875 0.433369,2.25 0.238353,-1.2375 0.238353,-3.2625 0,-4.5 z m 479.983597,-1.5 c -0.25153,-0.9625 -0.45733,-0.175 -0.45733,1.75 0,1.925 0.2058,2.7125 0.45733,1.75 0.25152,-0.9625 0.25152,-2.5375 0,-3.5 z m -130.97175,-2.98625 c -0.22985,-1.52006 -0.42406,-0.51375 -0.43157,2.23625 -0.007,2.75 0.18056,3.99369 0.41792,2.76375 0.23736,-1.22994 0.24351,-3.47994 0.0136,-5 z m -214.02459,2.00528 c -0.25354,-0.97297 -0.47766,-0.41903 -0.49804,1.23097 -0.0204,1.65 0.18706,2.44606 0.46099,1.76903 0.27392,-0.67703 0.29059,-2.02703 0.0371,-3 z m -133.999999,-5 C 79.439447,339.29606 79.215328,339.85 79.194949,341.5 c -0.02038,1.65 0.187065,2.44606 0.460988,1.76903 0.273923,-0.67703 0.290597,-2.02703 0.03705,-3 z m 478.024589,-4.00528 c -0.22985,-1.52006 -0.42406,-0.51375 -0.43157,2.23625 -0.008,2.75 0.18056,3.99369 0.41792,2.76375 0.23736,-1.22994 0.24351,-3.47994 0.0136,-5 z M 212.70573,335.75 c -0.23835,-1.2375 -0.43337,-0.225 -0.43337,2.25 0,2.475 0.19502,3.4875 0.43337,2.25 0.23836,-1.2375 0.23836,-3.2625 0,-4.5 z m 215.9836,-1.5 c -0.25153,-0.9625 -0.45733,-0.175 -0.45733,1.75 0,1.925 0.2058,2.7125 0.45733,1.75 0.25152,-0.9625 0.25152,-2.5375 0,-3.5 z m -347.983597,-3.5 c -0.238353,-1.2375 -0.433369,-0.225 -0.433369,2.25 0,2.475 0.195016,3.4875 0.433369,2.25 0.238353,-1.2375 0.238353,-3.2625 0,-4.5 z m 130.983597,-3.5 c -0.25153,-0.9625 -0.45733,-0.175 -0.45733,1.75 0,1.925 0.2058,2.7125 0.45733,1.75 0.25152,-0.9625 0.25152,-2.5375 0,-3.5 z m 345.0354,-3.48209 c -0.22256,-1.79735 -0.40925,-0.56791 -0.41486,2.73209 -0.006,3.3 0.17648,4.77056 0.40466,3.26791 0.22817,-1.50265 0.23276,-4.20265 0.0102,-6 z M 429.71625,323.25 c -0.22912,-1.5125 -0.41659,-0.275 -0.41659,2.75 0,3.025 0.18747,4.2625 0.41659,2.75 0.22913,-1.5125 0.22913,-3.9875 0,-5.5 z m -348.026924,-1 c -0.251528,-0.9625 -0.457323,-0.175 -0.457323,1.75 0,1.925 0.205795,2.7125 0.457323,1.75 0.251527,-0.9625 0.251527,-2.5375 0,-3.5 z m 129.000004,-3 c -0.25153,-0.9625 -0.45733,-0.175 -0.45733,1.75 0,1.925 0.2058,2.7125 0.45733,1.75 0.25152,-0.9625 0.25152,-2.5375 0,-3.5 z m -128.000004,-5 c -0.251528,-0.9625 -0.457323,-0.175 -0.457323,1.75 0,1.925 0.205795,2.7125 0.457323,1.75 0.251527,-0.9625 0.251527,-2.5375 0,-3.5 z m 348.000004,0 c -0.25153,-0.9625 -0.45733,-0.175 -0.45733,1.75 0,1.925 0.2058,2.7125 0.45733,1.75 0.25152,-0.9625 0.25152,-2.5375 0,-3.5 z m 125.03914,-6 c -0.21575,-2.0625 -0.39226,-0.375 -0.39226,3.75 0,4.125 0.17651,5.8125 0.39226,3.75 0.21574,-2.0625 0.21574,-5.4375 0,-7.5 z m -346.01089,1.01375 c -0.22985,-1.52006 -0.42406,-0.51375 -0.43157,2.23625 -0.007,2.75 0.18056,3.99369 0.41792,2.76375 0.23736,-1.22994 0.24351,-3.47994 0.0136,-5 z m -125.999999,-5 C 83.487727,302.74369 83.293522,303.75 83.286014,306.5 c -0.0075,2.75 0.180555,3.99369 0.417917,2.76375 0.237362,-1.22994 0.243505,-3.47994 0.01365,-5 z m 347.989679,1.49791 c -0.23919,-1.24391 -0.44398,-0.46166 -0.45508,1.73834 -0.0111,2.2 0.18461,3.21775 0.4349,2.26166 0.25029,-0.95609 0.25937,-2.75609 0.0202,-4 z M 208.68933,300.25 c -0.25153,-0.9625 -0.45733,-0.175 -0.45733,1.75 0,1.925 0.2058,2.7125 0.45733,1.75 0.25152,-0.9625 0.25152,-2.5375 0,-3.5 z m 346.0354,-5.48209 c -0.22256,-1.79735 -0.40925,-0.56791 -0.41486,2.73209 -0.006,3.3 0.17648,4.77056 0.40466,3.26791 0.22817,-1.50265 0.23276,-4.20265 0.0102,-6 z m -122.01747,1.99375 c -0.23919,-1.24391 -0.44398,-0.46166 -0.45508,1.73834 -0.0111,2.2 0.18461,3.21775 0.4349,2.26166 0.25029,-0.95609 0.25937,-2.75609 0.0202,-4 z M 84.689326,295.25 c -0.251528,-0.9625 -0.457323,-0.175 -0.457323,1.75 0,1.925 0.205795,2.7125 0.457323,1.75 0.251527,-0.9625 0.251527,-2.5375 0,-3.5 z m 122.993784,-0.4375 c -0.31922,-0.79773 -0.55618,-0.56078 -0.60416,0.60417 -0.0434,1.05416 0.19292,1.64479 0.52522,1.3125 0.33229,-0.33229 0.36781,-1.1948 0.0789,-1.91667 z M 433.68933,288.25 c -0.25153,-0.9625 -0.45733,-0.175 -0.45733,1.75 0,1.925 0.2058,2.7125 0.45733,1.75 0.25152,-0.9625 0.25152,-2.5375 0,-3.5 z m -348.006216,1.5625 c -0.319226,-0.79773 -0.556183,-0.56078 -0.604167,0.60417 -0.04342,1.05416 0.192928,1.64479 0.52522,1.3125 0.332291,-0.33229 0.367818,-1.1948 0.07895,-1.91667 z M 206.68933,287.25 c -0.25153,-0.9625 -0.45733,-0.175 -0.45733,1.75 0,1.925 0.2058,2.7125 0.45733,1.75 0.25152,-0.9625 0.25152,-2.5375 0,-3.5 z m 347.02825,-3.98625 c -0.22985,-1.52006 -0.42406,-0.51375 -0.43157,2.23625 -0.008,2.75 0.18056,3.99369 0.41792,2.76375 0.23736,-1.22994 0.24351,-3.47994 0.0136,-5 z M 86.707261,281.76166 C 86.468068,280.51775 86.263283,281.3 86.252183,283.5 c -0.0111,2.2 0.184605,3.21775 0.434897,2.26166 0.250293,-0.95609 0.259374,-2.75609 0.02018,-4 z m 347.985729,-0.49263 c -0.25354,-0.97297 -0.47766,-0.41903 -0.49804,1.23097 -0.0204,1.65 0.18706,2.44606 0.46099,1.76903 0.27392,-0.67703 0.29059,-2.02703 0.0371,-3 z M 205.66228,280.75 c -0.27741,-0.6875 -0.50439,-0.125 -0.50439,1.25 0,1.375 0.22698,1.9375 0.50439,1.25 0.27741,-0.6875 0.27741,-1.8125 0,-2.5 z m 347.04345,-8 c -0.23835,-1.2375 -0.43337,-0.225 -0.43337,2.25 0,2.475 0.19502,3.4875 0.43337,2.25 0.23836,-1.2375 0.23836,-3.2625 0,-4.5 z m -465.043449,2 c -0.277413,-0.6875 -0.504386,-0.125 -0.504386,1.25 0,1.375 0.226973,1.9375 0.504386,1.25 0.277412,-0.6875 0.277412,-1.8125 0,-2.5 z m 116.999999,0 c -0.27741,-0.6875 -0.50439,-0.125 -0.50439,1.25 0,1.375 0.22698,1.9375 0.50439,1.25 0.27741,-0.6875 0.27741,-1.8125 0,-2.5 z m 231.04498,-1.98834 c -0.23919,-1.24391 -0.44398,-0.46166 -0.45508,1.73834 -0.0111,2.2 0.18461,3.21775 0.4349,2.26166 0.25029,-0.95609 0.25937,-2.75609 0.0202,-4 z M 88.662281,268.75 c -0.277413,-0.6875 -0.504386,-0.125 -0.504386,1.25 0,1.375 0.226973,1.9375 0.504386,1.25 0.277412,-0.6875 0.277412,-1.8125 0,-2.5 z m 114.999999,0 c -0.27741,-0.6875 -0.50439,-0.125 -0.50439,1.25 0,1.375 0.22698,1.9375 0.50439,1.25 0.27741,-0.6875 0.27741,-1.8125 0,-2.5 z m 233,-3 c -0.27741,-0.6875 -0.50439,-0.125 -0.50439,1.25 0,1.375 0.22698,1.9375 0.50439,1.25 0.27741,-0.6875 0.27741,-1.8125 0,-2.5 z m 115.04345,-3 c -0.23835,-1.2375 -0.43337,-0.225 -0.43337,2.25 0,2.475 0.19502,3.4875 0.43337,2.25 0.23836,-1.2375 0.23836,-3.2625 0,-4.5 z m -461.999997,-3 c -0.238353,-1.2375 -0.433369,-0.225 -0.433369,2.25 0,2.475 0.195016,3.4875 0.433369,2.25 0.238353,-1.2375 0.238353,-3.2625 0,-4.5 z m 112.987257,2.51903 c -0.25354,-0.97297 -0.47766,-0.41903 -0.49804,1.23097 -0.0204,1.65 0.18706,2.44606 0.46099,1.76903 0.27392,-0.67703 0.29059,-2.02703 0.0371,-3 z m 235,-3 c -0.25354,-0.97297 -0.47766,-0.41903 -0.49804,1.23097 -0.0204,1.65 0.18706,2.44606 0.46099,1.76903 0.27392,-0.67703 0.29059,-2.02703 0.0371,-3 z M 201.66228,255.75 c -0.27741,-0.6875 -0.50439,-0.125 -0.50439,1.25 0,1.375 0.22698,1.9375 0.50439,1.25 0.27741,-0.6875 0.27741,-1.8125 0,-2.5 z m 349,0 c -0.27741,-0.6875 -0.50439,-0.125 -0.50439,1.25 0,1.375 0.22698,1.9375 0.50439,1.25 0.27741,-0.6875 0.27741,-1.8125 0,-2.5 z m -459.999999,-3 c -0.277413,-0.6875 -0.504386,-0.125 -0.504386,1.25 0,1.375 0.226973,1.9375 0.504386,1.25 0.277412,-0.6875 0.277412,-1.8125 0,-2.5 z m 347.999999,0 c -0.27741,-0.6875 -0.50439,-0.125 -0.50439,1.25 0,1.375 0.22698,1.9375 0.50439,1.25 0.27741,-0.6875 0.27741,-1.8125 0,-2.5 z m -237.96929,-3.48097 c -0.25354,-0.97297 -0.47766,-0.41903 -0.49804,1.23097 -0.0204,1.65 0.18706,2.44606 0.46099,1.76903 0.27392,-0.67703 0.29059,-2.02703 0.0371,-3 z m 349,0 c -0.25354,-0.97297 -0.47766,-0.41903 -0.49804,1.23097 -0.0204,1.65 0.18706,2.44606 0.46099,1.76903 0.27392,-0.67703 0.29059,-2.02703 0.0371,-3 z m -457.999999,-3 C 91.439447,245.29606 91.215328,245.85 91.194949,247.5 c -0.02038,1.65 0.187065,2.44606 0.460988,1.76903 0.273923,-0.67703 0.290597,-2.02703 0.03705,-3 z m 347.999999,0 c -0.25354,-0.97297 -0.47766,-0.41903 -0.49804,1.23097 -0.0204,1.65 0.18706,2.44606 0.46099,1.76903 0.27392,-0.67703 0.29059,-2.02703 0.0371,-3 z M 199.66228,242.75 c -0.27741,-0.6875 -0.50439,-0.125 -0.50439,1.25 0,1.375 0.22698,1.9375 0.50439,1.25 0.27741,-0.6875 0.27741,-1.8125 0,-2.5 z m 349,0 c -0.27741,-0.6875 -0.50439,-0.125 -0.50439,1.25 0,1.375 0.22698,1.9375 0.50439,1.25 0.27741,-0.6875 0.27741,-1.8125 0,-2.5 z m -108,-3 c -0.27741,-0.6875 -0.50439,-0.125 -0.50439,1.25 0,1.375 0.22698,1.9375 0.50439,1.25 0.27741,-0.6875 0.27741,-1.8125 0,-2.5 z M 93.692991,236.26903 C 93.439447,235.29606 93.215328,235.85 93.194949,237.5 c -0.02038,1.65 0.187065,2.44606 0.460988,1.76903 0.273923,-0.67703 0.290597,-2.02703 0.03705,-3 z m 104.999999,0 c -0.25354,-0.97297 -0.47766,-0.41903 -0.49804,1.23097 -0.0204,1.65 0.18706,2.44606 0.46099,1.76903 0.27392,-0.67703 0.29059,-2.02703 0.0371,-3 z m 349,0 c -0.25354,-0.97297 -0.47766,-0.41903 -0.49804,1.23097 -0.0204,1.65 0.18706,2.44606 0.46099,1.76903 0.27392,-0.67703 0.29059,-2.02703 0.0371,-3 z M 94.662281,229.75 c -0.277413,-0.6875 -0.504386,-0.125 -0.504386,1.25 0,1.375 0.226973,1.9375 0.504386,1.25 0.277412,-0.6875 0.277412,-1.8125 0,-2.5 z m 347.999999,0 c -0.27741,-0.6875 -0.50439,-0.125 -0.50439,1.25 0,1.375 0.22698,1.9375 0.50439,1.25 0.27741,-0.6875 0.27741,-1.8125 0,-2.5 z m -245.96929,-3.48097 c -0.25354,-0.97297 -0.47766,-0.41903 -0.49804,1.23097 -0.0204,1.65 0.18706,2.44606 0.46099,1.76903 0.27392,-0.67703 0.29059,-2.02703 0.0371,-3 z m 349,0 c -0.25354,-0.97297 -0.47766,-0.41903 -0.49804,1.23097 -0.0204,1.65 0.18706,2.44606 0.46099,1.76903 0.27392,-0.67703 0.29059,-2.02703 0.0371,-3 z m -102,-3 c -0.25354,-0.97297 -0.47766,-0.41903 -0.49804,1.23097 -0.0204,1.65 0.18706,2.44606 0.46099,1.76903 0.27392,-0.67703 0.29059,-2.02703 0.0371,-3 z m -346.999999,-3 C 96.439447,219.29606 96.215328,219.85 96.194949,221.5 c -0.02038,1.65 0.187065,2.44606 0.460988,1.76903 0.273923,-0.67703 0.290597,-2.02703 0.03705,-3 z M 195.66228,219.75 c -0.27741,-0.6875 -0.50439,-0.125 -0.50439,1.25 0,1.375 0.22698,1.9375 0.50439,1.25 0.27741,-0.6875 0.27741,-1.8125 0,-2.5 z M 553.25,219.29427 c -1.2375,-0.23836 -3.2625,-0.23836 -4.5,0 -1.2375,0.23835 -0.225,0.43337 2.25,0.43337 2.475,0 3.4875,-0.19502 2.25,-0.43337 z M 543.66228,215.75 c -0.27741,-0.6875 -0.50439,-0.125 -0.50439,1.25 0,1.375 0.22698,1.9375 0.50439,1.25 0.27741,-0.6875 0.27741,-1.8125 0,-2.5 z m -105.39325,1.59406 c -0.67703,-0.27392 -2.02703,-0.29059 -3,-0.0371 -0.97297,0.25354 -0.41903,0.47766 1.23097,0.49804 1.65,0.0204 2.44606,-0.18706 1.76903,-0.46099 z m 118.41587,-0.42569 c 1.54831,-0.5949 10.19921,-2.41319 19.22424,-4.04066 9.02503,-1.62747 18.55666,-3.88287 21.18141,-5.01201 4.76944,-2.05176 14.61266,-11.30567 18.4716,-17.3657 1.05069,-1.65 2.40483,-3.45 3.0092,-4 3.53961,-3.2212 9.6215,-14.34303 11.8643,-21.69602 4.82792,-15.82826 2.64391,-30.80514 -6.53353,-44.80398 -0.90143,-1.375 -4.1819,-6.44658 -7.28994,-11.27017 C 607.18882,94.104984 601.1225,89.703407 578,80.713724 548.74968,69.341637 525.75143,63.149959 502.5,60.387316 490.71134,58.986635 456.32528,57.106436 366,52.923619 309.96014,50.328504 200.11228,49.715601 164,51.796548 142.41525,53.040355 96.36055,58.854368 67,64.041971 60.675,65.159511 51.250246,66.734338 46.056103,67.541588 37.779367,68.82792 33.993553,70.044245 25.5,74.145956 22.358205,75.663194 20.897474,77.023868 14.384568,84.5 7.9535848,91.882094 5.7718792,96.354567 6.7348609,100.18182 c 1.8658287,7.41549 13.9472051,21.15658 25.8875251,29.44389 2.682688,1.86195 6.677614,4.63271 8.877614,6.15723 3.555613,2.46392 12.432408,6.98406 18,9.16576 1.1,0.43104 3.125,1.25533 4.5,1.83176 10.978016,4.60223 20.133267,8.20585 23.5,9.2499 2.2,0.68224 7.330243,2.55177 11.40054,4.1545 4.0703,1.60273 7.70919,2.5543 8.08643,2.1146 0.92644,-1.07984 10.41888,-31.05863 12.60205,-39.79946 2.55829,-10.24275 5.34343,-12.67366 17.13271,-14.95368 7.98469,-1.54421 10.13098,-1.61625 16,-0.53699 11.73226,2.15747 17.65108,5.70869 20.81819,12.49067 4.07339,8.72267 11.34489,34.56096 14.98606,53.25094 0.43732,2.24478 1.30506,3.39482 2.80368,3.71582 7.23576,1.54987 29.73187,6.76706 32.67034,7.57674 21.78035,6.00148 63.0083,13.65282 77.89101,14.45549 12.76513,0.68847 35.94831,2.97432 46.10899,4.54634 14.74799,2.28174 56.02576,8.14902 63,8.9549 4.125,0.47665 13.09291,1.79118 19.9287,2.92117 6.83578,1.13 12.49621,1.94745 12.57872,1.81657 0.0825,-0.13088 0.65965,-3.38797 1.28254,-7.23797 1.1034,-6.82012 3.91774,-21.40555 6.27105,-32.5 1.31214,-6.18599 3.65279,-14.49097 4.93214,-17.5 1.05597,-2.48364 9.21102,-28.48405 11.9699,-38.16312 2.73482,-9.59468 5.09158,-11.51667 16.94502,-13.81902 8.69709,-1.68928 9.48872,-1.68891 18.22868,0.009 11.99304,2.32947 14.95671,4.76081 17.34733,14.23143 0.93602,3.70811 3.42299,12.14201 5.5266,18.74201 7.80245,24.47987 10.03752,32.48224 12.45495,44.59335 1.36203,6.82366 2.92104,14.43165 3.46447,16.90665 0.54342,2.475 1.55879,7.0875 2.25636,10.25 l 1.26831,5.75 4.20752,0 c 2.31413,0 5.47431,-0.48673 7.02261,-1.08163 z M 97.692991,213.26903 C 97.439447,212.29606 97.215328,212.85 97.194949,214.5 c -0.02038,1.65 0.187065,2.44606 0.460988,1.76903 0.273923,-0.67703 0.290597,-2.02703 0.03705,-3 z m 96.999999,0 c -0.25354,-0.97297 -0.47766,-0.41903 -0.49804,1.23097 -0.0204,1.65 0.18706,2.44606 0.46099,1.76903 0.27392,-0.67703 0.29059,-2.02703 0.0371,-3 z M 431.25,216.33772 c -0.6875,-0.27741 -1.8125,-0.27741 -2.5,0 -0.6875,0.27741 -0.125,0.50439 1.25,0.50439 1.375,0 1.9375,-0.22698 1.25,-0.50439 z m 14.44299,-3.06869 c -0.25354,-0.97297 -0.47766,-0.41903 -0.49804,1.23097 -0.0204,1.65 0.18706,2.44606 0.46099,1.76903 0.27392,-0.67703 0.29059,-2.02703 0.0371,-3 z M 566.25,216.33772 c -0.6875,-0.27741 -1.8125,-0.27741 -2.5,0 -0.6875,0.27741 -0.125,0.50439 1.25,0.50439 1.375,0 1.9375,-0.22698 1.25,-0.50439 z m -141,-1 c -0.6875,-0.27741 -1.8125,-0.27741 -2.5,0 -0.6875,0.27741 -0.125,0.50439 1.25,0.50439 1.375,0 1.9375,-0.22698 1.25,-0.50439 z m 146.47917,0.0581 c -0.33229,-0.33229 -1.1948,-0.36781 -1.91667,-0.0789 -0.79773,0.31922 -0.56078,0.55618 0.60417,0.60416 1.05416,0.0434 1.64479,-0.19293 1.3125,-0.52522 z M 419.25,214.33772 c -0.6875,-0.27741 -1.8125,-0.27741 -2.5,0 -0.6875,0.27741 -0.125,0.50439 1.25,0.50439 1.375,0 1.9375,-0.22698 1.25,-0.50439 z m 158,0 c -0.6875,-0.27741 -1.8125,-0.27741 -2.5,0 -0.6875,0.27741 -0.125,0.50439 1.25,0.50439 1.375,0 1.9375,-0.22698 1.25,-0.50439 z m -164.98625,-1.04165 c -1.22994,-0.23736 -3.47994,-0.24351 -5,-0.0136 -1.52006,0.22985 -0.51375,0.42406 2.23625,0.43157 2.75,0.007 3.99369,-0.18056 2.76375,-0.41792 z m 170.98625,0.0417 c -0.6875,-0.27741 -1.8125,-0.27741 -2.5,0 -0.6875,0.27741 -0.125,0.50439 1.25,0.50439 1.375,0 1.9375,-0.22698 1.25,-0.50439 z m 5.47917,-0.94189 c -0.33229,-0.33229 -1.1948,-0.36781 -1.91667,-0.0789 -0.79773,0.31922 -0.56078,0.55618 0.60417,0.60416 1.05416,0.0434 1.64479,-0.19293 1.3125,-0.52522 z M 397.75,211.31067 c -0.9625,-0.25152 -2.5375,-0.25152 -3.5,0 -0.9625,0.25153 -0.175,0.45733 1.75,0.45733 1.925,0 2.7125,-0.2058 1.75,-0.45733 z m -7.48097,-0.96661 c -0.67703,-0.27392 -2.02703,-0.29059 -3,-0.0371 -0.97297,0.25354 -0.41903,0.47766 1.23097,0.49804 1.65,0.0204 2.44606,-0.18706 1.76903,-0.46099 z M 383.25,209.33772 c -0.6875,-0.27741 -1.8125,-0.27741 -2.5,0 -0.6875,0.27741 -0.125,0.50439 1.25,0.50439 1.375,0 1.9375,-0.22698 1.25,-0.50439 z M 446.66228,206.75 c -0.27741,-0.6875 -0.50439,-0.125 -0.50439,1.25 0,1.375 0.22698,1.9375 0.50439,1.25 0.27741,-0.6875 0.27741,-1.8125 0,-2.5 z m 95,0 c -0.27741,-0.6875 -0.50439,-0.125 -0.50439,1.25 0,1.375 0.22698,1.9375 0.50439,1.25 0.27741,-0.6875 0.27741,-1.8125 0,-2.5 z m -164.39325,1.59406 c -0.67703,-0.27392 -2.02703,-0.29059 -3,-0.0371 -0.97297,0.25354 -0.41903,0.47766 1.23097,0.49804 1.65,0.0204 2.44606,-0.18706 1.76903,-0.46099 z M 369.75,207.31067 c -0.9625,-0.25152 -2.5375,-0.25152 -3.5,0 -0.9625,0.25153 -0.175,0.45733 1.75,0.45733 1.925,0 2.7125,-0.2058 1.75,-0.45733 z M 99.662281,203.75 c -0.277413,-0.6875 -0.504386,-0.125 -0.504386,1.25 0,1.375 0.226973,1.9375 0.504386,1.25 0.277412,-0.6875 0.277412,-1.8125 0,-2.5 z m 92.999999,0 c -0.27741,-0.6875 -0.50439,-0.125 -0.50439,1.25 0,1.375 0.22698,1.9375 0.50439,1.25 0.27741,-0.6875 0.27741,-1.8125 0,-2.5 z M 362.25,206.33772 c -0.6875,-0.27741 -1.8125,-0.27741 -2.5,0 -0.6875,0.27741 -0.125,0.50439 1.25,0.50439 1.375,0 1.9375,-0.22698 1.25,-0.50439 z M 609,201.5 c 2.98742,-3.025 5.20668,-5.5 4.93168,-5.5 -0.275,0 -2.94426,2.475 -5.93168,5.5 -2.98742,3.025 -5.20668,5.5 -4.93168,5.5 0.275,0 2.94426,-2.475 5.93168,-5.5 z m -253.23834,3.81292 c -0.95609,-0.25029 -2.75609,-0.25937 -4,-0.0202 -1.24391,0.23919 -0.46166,0.44398 1.73834,0.45508 2.2,0.0111 3.21775,-0.18461 2.26166,-0.4349 z m -8.03249,-0.91709 c -0.33229,-0.33229 -1.1948,-0.36781 -1.91667,-0.0789 -0.79773,0.31922 -0.56078,0.55618 0.60417,0.60416 1.05416,0.0434 1.64479,-0.19293 1.3125,-0.52522 z m -5.96751,-1.08291 c -0.95609,-0.25029 -2.75609,-0.25937 -4,-0.0202 -1.24391,0.23919 -0.46166,0.44398 1.73834,0.45508 2.2,0.0111 3.21775,-0.18461 2.26166,-0.4349 z m -9,-1 c -0.95609,-0.25029 -2.75609,-0.25937 -4,-0.0202 -1.24391,0.23919 -0.46166,0.44398 1.73834,0.45508 2.2,0.0111 3.21775,-0.18461 2.26166,-0.4349 z m -9,-1 c -0.95609,-0.25029 -2.75609,-0.25937 -4,-0.0202 -1.24391,0.23919 -0.46166,0.44398 1.73834,0.45508 2.2,0.0111 3.21775,-0.18461 2.26166,-0.4349 z M 100.66228,197.75 c -0.27741,-0.6875 -0.50439,-0.125 -0.50439,1.25 0,1.375 0.22698,1.9375 0.50439,1.25 0.27741,-0.6875 0.27741,-1.8125 0,-2.5 z m 91,0 c -0.27741,-0.6875 -0.50439,-0.125 -0.50439,1.25 0,1.375 0.22698,1.9375 0.50439,1.25 0.27741,-0.6875 0.27741,-1.8125 0,-2.5 z M 312.25,200.26779 c -2.3375,-0.21053 -6.1625,-0.21053 -8.5,0 -2.3375,0.21054 -0.425,0.3828 4.25,0.3828 4.675,0 6.5875,-0.17226 4.25,-0.3828 z M 448.66228,197.75 c -0.27741,-0.6875 -0.50439,-0.125 -0.50439,1.25 0,1.375 0.22698,1.9375 0.50439,1.25 0.27741,-0.6875 0.27741,-1.8125 0,-2.5 z m 91,0 c -0.27741,-0.6875 -0.50439,-0.125 -0.50439,1.25 0,1.375 0.22698,1.9375 0.50439,1.25 0.27741,-0.6875 0.27741,-1.8125 0,-2.5 z M 295.75,199.28375 c -1.5125,-0.22913 -3.9875,-0.22913 -5.5,0 -1.5125,0.22912 -0.275,0.41659 2.75,0.41659 3.025,0 4.2625,-0.18747 2.75,-0.41659 z m -10.02083,-0.88792 c -0.33229,-0.33229 -1.1948,-0.36781 -1.91667,-0.0789 -0.79773,0.31922 -0.56078,0.55618 0.60417,0.60416 1.05416,0.0434 1.64479,-0.19293 1.3125,-0.52522 z M 280.25,197.33772 c -0.6875,-0.27741 -1.8125,-0.27741 -2.5,0 -0.6875,0.27741 -0.125,0.50439 1.25,0.50439 1.375,0 1.9375,-0.22698 1.25,-0.50439 z m -6,-1 c -0.6875,-0.27741 -1.8125,-0.27741 -2.5,0 -0.6875,0.27741 -0.125,0.50439 1.25,0.50439 1.375,0 1.9375,-0.22698 1.25,-0.50439 z m -6,-1 c -0.6875,-0.27741 -1.8125,-0.27741 -2.5,0 -0.6875,0.27741 -0.125,0.50439 1.25,0.50439 1.375,0 1.9375,-0.22698 1.25,-0.50439 z M 101.68311,192.8125 c -0.31922,-0.79773 -0.55618,-0.56078 -0.60416,0.60417 -0.0434,1.05416 0.19292,1.64479 0.52522,1.3125 0.33229,-0.3323 0.36781,-1.1948 0.0789,-1.91667 z m 88.97917,-1.0625 c -0.27741,-0.6875 -0.50439,-0.125 -0.50439,1.25 0,1.375 0.22698,1.9375 0.50439,1.25 0.27741,-0.6875 0.27741,-1.8125 0,-2.5 z m 72.06689,2.64583 c -0.33229,-0.33229 -1.1948,-0.36781 -1.91667,-0.0789 -0.79773,0.31922 -0.56078,0.55618 0.60417,0.60416 1.05416,0.0434 1.64479,-0.19293 1.3125,-0.52522 z m 186.95394,-1.58333 c -0.31922,-0.79773 -0.55618,-0.56078 -0.60416,0.60417 -0.0434,1.05416 0.19293,1.64479 0.52522,1.3125 0.33229,-0.3323 0.36781,-1.1948 0.0789,-1.91667 z m 88.97917,-1.0625 c -0.27741,-0.6875 -0.50439,-0.125 -0.50439,1.25 0,1.375 0.22698,1.9375 0.50439,1.25 0.27741,-0.6875 0.27741,-1.8125 0,-2.5 z m -287.93311,-0.35417 c -0.3323,-0.33229 -1.1948,-0.36781 -1.91667,-0.0789 -0.79773,0.31922 -0.56078,0.55618 0.60417,0.60416 1.05416,0.0434 1.64479,-0.19293 1.3125,-0.52522 z M 102.68311,187.8125 c -0.31922,-0.79773 -0.55618,-0.56078 -0.60416,0.60417 -0.0434,1.05416 0.19292,1.64479 0.52522,1.3125 0.33229,-0.3323 0.36781,-1.1948 0.0789,-1.91667 z m 139.04606,1.58333 c -0.3323,-0.33229 -1.1948,-0.36781 -1.91667,-0.0789 -0.79773,0.31922 -0.56078,0.55618 0.60417,0.60416 1.05416,0.0434 1.64479,-0.19293 1.3125,-0.52522 z m 208.95394,-1.58333 c -0.31922,-0.79773 -0.55618,-0.56078 -0.60416,0.60417 -0.0434,1.05416 0.19293,1.64479 0.52522,1.3125 0.33229,-0.3323 0.36781,-1.1948 0.0789,-1.91667 z m -261,-1 c -0.31922,-0.79773 -0.55618,-0.56078 -0.60416,0.60417 -0.0434,1.05416 0.19292,1.64479 0.52522,1.3125 0.33229,-0.3323 0.36781,-1.1948 0.0789,-1.91667 z m 43.04606,0.58333 c -0.3323,-0.33229 -1.1948,-0.36781 -1.91667,-0.0789 -0.79773,0.31922 -0.56078,0.55618 0.60417,0.60416 1.05416,0.0434 1.64479,-0.19293 1.3125,-0.52522 z m -5,-1 c -0.3323,-0.33229 -1.1948,-0.36781 -1.91667,-0.0789 -0.79773,0.31922 -0.56078,0.55618 0.60417,0.60416 1.05416,0.0434 1.64479,-0.19293 1.3125,-0.52522 z M 103.66228,181.75 c -0.27741,-0.6875 -0.50439,-0.125 -0.50439,1.25 0,1.375 0.22698,1.9375 0.50439,1.25 0.27741,-0.6875 0.27741,-1.8125 0,-2.5 z M 220.25,184.33772 c -0.6875,-0.27741 -1.8125,-0.27741 -2.5,0 -0.6875,0.27741 -0.125,0.50439 1.25,0.50439 1.375,0 1.9375,-0.22698 1.25,-0.50439 z M 451.66228,181.75 c -0.27741,-0.6875 -0.50439,-0.125 -0.50439,1.25 0,1.375 0.22698,1.9375 0.50439,1.25 0.27741,-0.6875 0.27741,-1.8125 0,-2.5 z m 85.02083,1.0625 c -0.31922,-0.79773 -0.55618,-0.56078 -0.60416,0.60417 -0.0434,1.05416 0.19293,1.64479 0.52522,1.3125 0.33229,-0.3323 0.36781,-1.1948 0.0789,-1.91667 z m -347.99012,-2.54347 c -0.25354,-0.97297 -0.47766,-0.41903 -0.49804,1.23097 -0.0204,1.65 0.18706,2.44606 0.46099,1.76903 0.27392,-0.67703 0.29059,-2.02703 0.0371,-3 z m 10.03618,-0.8732 c -0.3323,-0.33229 -1.1948,-0.36781 -1.91667,-0.0789 -0.79773,0.31922 -0.56078,0.55618 0.60417,0.60416 1.05416,0.0434 1.64479,-0.19293 1.3125,-0.52522 z m 336.95394,-1.58333 c -0.31922,-0.79773 -0.55618,-0.56078 -0.60416,0.60417 -0.0434,1.05416 0.19293,1.64479 0.52522,1.3125 0.33229,-0.3323 0.36781,-1.1948 0.0789,-1.91667 z m -341.95394,0.58333 c -0.3323,-0.33229 -1.1948,-0.36781 -1.91667,-0.0789 -0.79773,0.31922 -0.56078,0.55618 0.60417,0.60416 1.05416,0.0434 1.64479,-0.19293 1.3125,-0.52522 z M 453.66228,172.75 c -0.27741,-0.6875 -0.50439,-0.125 -0.50439,1.25 0,1.375 0.22698,1.9375 0.50439,1.25 0.27741,-0.6875 0.27741,-1.8125 0,-2.5 z m -267,-3 c -0.27741,-0.6875 -0.50439,-0.125 -0.50439,1.25 0,1.375 0.22698,1.9375 0.50439,1.25 0.27741,-0.6875 0.27741,-1.8125 0,-2.5 z m -79.97917,0.0625 c -0.31922,-0.79773 -0.55618,-0.56078 -0.60416,0.60417 -0.0434,1.05416 0.19292,1.64479 0.52522,1.3125 0.33229,-0.3323 0.36781,-1.1948 0.0789,-1.91667 z m 77.97917,-9.0625 c -0.27741,-0.6875 -0.50439,-0.125 -0.50439,1.25 0,1.375 0.22698,1.9375 0.50439,1.25 0.27741,-0.6875 0.27741,-1.8125 0,-2.5 z m 450.06993,-15 c -0.21054,-2.3375 -0.3828,-0.425 -0.3828,4.25 0,4.675 0.17226,6.5875 0.3828,4.25 0.21053,-2.3375 0.21053,-6.1625 0,-8.5 z m -1.06993,-9 c -0.27741,-0.6875 -0.50439,-0.125 -0.50439,1.25 0,1.375 0.22698,1.9375 0.50439,1.25 0.27741,-0.6875 0.27741,-1.8125 0,-2.5 z M 38,135.62244 c 0,-0.20765 -0.7875,-0.99515 -1.75,-1.75 -1.586056,-1.24387 -1.621426,-1.2085 -0.377555,0.37756 C 37.178814,135.91575 38,136.44548 38,135.62244 z m 81.68311,-6.80994 c -0.31922,-0.79773 -0.55618,-0.56078 -0.60416,0.60417 -0.0434,1.05416 0.19292,1.64479 0.52522,1.3125 0.33229,-0.3323 0.36781,-1.1948 0.0789,-1.91667 z m 348,0 c -0.31922,-0.79773 -0.55618,-0.56078 -0.60416,0.60417 -0.0434,1.05416 0.19293,1.64479 0.52522,1.3125 0.33229,-0.3323 0.36781,-1.1948 0.0789,-1.91667 z m 53,-1 c -0.31922,-0.79773 -0.55618,-0.56078 -0.60416,0.60417 -0.0434,1.05416 0.19293,1.64479 0.52522,1.3125 0.33229,-0.3323 0.36781,-1.1948 0.0789,-1.91667 z M 19,120.68709 c 0,-0.1721 -1.4625,-1.6346 -3.25,-3.25 L 12.5,114.5 l 2.937091,3.25 C 18.174872,120.77946 19,121.45965 19,120.68709 z m 152,-3.01278 c 0,-0.17912 -1.2375,-1.41662 -2.75,-2.75 L 165.5,112.5 l 2.42431,2.75 C 170.1902,117.82029 171,118.45859 171,117.67431 z m 346,-2.01932 c 0,-0.18976 -1.0125,-1.20226 -2.25,-2.25 L 512.5,111.5 l 1.90499,2.25 C 516.19521,115.86444 517,116.45524 517,115.65499 z M 126.12756,113.25 c 1.24387,-1.58606 1.2085,-1.62143 -0.37756,-0.37756 -0.9625,0.75485 -1.75,1.54235 -1.75,1.75 0,0.82304 0.82119,0.29331 2.12756,-1.37244 z m 348,0 c 1.24387,-1.58606 1.2085,-1.62143 -0.37756,-0.37756 -0.9625,0.75485 -1.75,1.54235 -1.75,1.75 0,0.82304 0.82119,0.29331 2.12756,-1.37244 z m -337.39839,-3.85417 c -0.3323,-0.33229 -1.1948,-0.36781 -1.91667,-0.0789 -0.79773,0.31922 -0.56078,0.55618 0.60417,0.60416 1.05416,0.0434 1.64479,-0.19292 1.3125,-0.52522 z m 348,0 c -0.33229,-0.33229 -1.1948,-0.36781 -1.91667,-0.0789 -0.79773,0.31922 -0.56078,0.55618 0.60417,0.60416 1.05416,0.0434 1.64479,-0.19292 1.3125,-0.52522 z m 21,0 c -0.33229,-0.33229 -1.1948,-0.36781 -1.91667,-0.0789 -0.79773,0.31922 -0.56078,0.55618 0.60417,0.60416 1.05416,0.0434 1.64479,-0.19292 1.3125,-0.52522 z M 147.25,107.33772 c -0.6875,-0.27741 -1.8125,-0.27741 -2.5,0 -0.6875,0.27741 -0.125,0.50439 1.25,0.50439 1.375,0 1.9375,-0.22698 1.25,-0.50439 z m 348,0 c -0.6875,-0.27741 -1.8125,-0.27741 -2.5,0 -0.6875,0.27741 -0.125,0.50439 1.25,0.50439 1.375,0 1.9375,-0.22698 1.25,-0.50439 z M 9.5,88 c 0.995486,-1.1 1.584975,-2 1.309975,-2 C 10.534975,86 9.4954863,86.9 8.5,88 7.5045137,89.1 6.9150249,90 7.1900249,90 7.4650249,90 8.5045137,89.1 9.5,88 z M 15.562909,80.75 18.5,77.5 15.25,80.437091 C 12.220545,83.174872 11.540348,84 12.312909,84 c 0.1721,0 1.6346,-1.4625 3.25,-3.25 z M 43.25,66.337719 c -0.6875,-0.277412 -1.8125,-0.277412 -2.5,0 -0.6875,0.277413 -0.125,0.504386 1.25,0.504386 1.375,0 1.9375,-0.226973 1.25,-0.504386 z m 7.5,-1.027045 c -0.9625,-0.251527 -2.5375,-0.251527 -3.5,0 -0.9625,0.251528 -0.175,0.457323 1.75,0.457323 1.925,0 2.7125,-0.205795 1.75,-0.457323 z m 484.97917,-0.914841 c -0.33229,-0.332291 -1.1948,-0.367818 -1.91667,-0.07895 -0.79773,0.319226 -0.56078,0.556183 0.60417,0.604167 1.05416,0.04342 1.64479,-0.192928 1.3125,-0.52522 z M 61.25,63.337719 c -0.6875,-0.277412 -1.8125,-0.277412 -2.5,0 -0.6875,0.277413 -0.125,0.504386 1.25,0.504386 1.375,0 1.9375,-0.226973 1.25,-0.504386 z m 469.47917,0.05811 c -0.33229,-0.332291 -1.1948,-0.367818 -1.91667,-0.07895 -0.79773,0.319226 -0.56078,0.556183 0.60417,0.604167 1.05416,0.04342 1.64479,-0.192928 1.3125,-0.52522 z M 67.25,62.337719 c -0.6875,-0.277412 -1.8125,-0.277412 -2.5,0 -0.6875,0.277413 -0.125,0.504386 1.25,0.504386 1.375,0 1.9375,-0.226973 1.25,-0.504386 z m 6,-1 c -0.6875,-0.277412 -1.8125,-0.277412 -2.5,0 -0.6875,0.277413 -0.125,0.504386 1.25,0.504386 1.375,0 1.9375,-0.226973 1.25,-0.504386 z m 448.47917,0.05811 c -0.33229,-0.332291 -1.1948,-0.367818 -1.91667,-0.07895 -0.79773,0.319226 -0.56078,0.556183 0.60417,0.604167 1.05416,0.04342 1.64479,-0.192928 1.3125,-0.52522 z M 79.25,60.337719 c -0.6875,-0.277412 -1.8125,-0.277412 -2.5,0 -0.6875,0.277413 -0.125,0.504386 1.25,0.504386 1.375,0 1.9375,-0.226973 1.25,-0.504386 z m 7.019032,-0.993656 c -0.677033,-0.273923 -2.027033,-0.290597 -3,-0.03705 -0.972968,0.25354 -0.419032,0.477659 1.230968,0.498038 1.65,0.02038 2.446064,-0.187065 1.769032,-0.460988 z M 511.25,59.294267 c -1.2375,-0.238353 -3.2625,-0.238353 -4.5,0 -1.2375,0.238353 -0.225,0.433369 2.25,0.433369 2.475,0 3.4875,-0.195016 2.25,-0.433369 z M 93.269032,58.344063 c -0.677033,-0.273923 -2.027033,-0.290597 -3,-0.03705 -0.972968,0.25354 -0.419032,0.477659 1.230968,0.498038 1.65,0.02038 2.446064,-0.187065 1.769032,-0.460988 z M 501.76166,58.31292 c -0.95609,-0.250293 -2.75609,-0.259374 -4,-0.02018 -1.24391,0.239193 -0.46166,0.443978 1.73834,0.455078 2.2,0.0111 3.21775,-0.184605 2.26166,-0.434897 z M 100.26903,57.344063 C 99.591999,57.07014 98.241999,57.053466 97.269032,57.307009 96.296064,57.560553 96.85,57.784672 98.5,57.805051 c 1.65,0.02038 2.44606,-0.187065 1.76903,-0.460988 z M 492.25,57.294267 c -1.2375,-0.238353 -3.2625,-0.238353 -4.5,0 -1.2375,0.238353 -0.225,0.433369 2.25,0.433369 2.475,0 3.4875,-0.195016 2.25,-0.433369 z M 107.26903,56.344063 c -0.67703,-0.273923 -2.02703,-0.290597 -3,-0.03705 -0.97297,0.253544 -0.41903,0.477663 1.23097,0.498042 1.65,0.02038 2.44606,-0.187065 1.76903,-0.460988 z M 479.25,56.262758 c -2.8875,-0.202002 -7.6125,-0.202002 -10.5,0 -2.8875,0.202003 -0.525,0.367277 5.25,0.367277 5.775,0 8.1375,-0.165274 5.25,-0.367277 z M 114.26903,55.344063 c -0.67703,-0.273923 -2.02703,-0.290597 -3,-0.03705 -0.97297,0.253544 -0.41903,0.477663 1.23097,0.498042 1.65,0.02038 2.44606,-0.187065 1.76903,-0.460988 z m 343.51449,-0.07773 c -2.59406,-0.205246 -7.09406,-0.207376 -10,-0.0047 -2.90594,0.202641 -0.78352,0.37057 4.71648,0.373173 5.5,0.0026 7.87758,-0.163194 5.28352,-0.368439 z m -336.51449,-0.92227 c -0.67703,-0.273923 -2.02703,-0.290597 -3,-0.03705 -0.97297,0.253544 -0.41903,0.477663 1.23097,0.498042 1.65,0.02038 2.44606,-0.187065 1.76903,-0.460988 z m 315.01748,-0.08004 c -2.86742,-0.201306 -7.81742,-0.203152 -11,-0.0041 -3.18258,0.19905 -0.83651,0.363755 5.21349,0.366011 6.05,0.0023 8.65393,-0.160603 5.78651,-0.361909 z m -308.01748,-0.91996 c -0.67703,-0.273923 -2.02703,-0.290597 -3,-0.03705 -0.97297,0.253544 -0.41903,0.477663 1.23097,0.498042 1.65,0.02038 2.44606,-0.187065 1.76903,-0.460988 z m 286.45867,-0.07386 c -2.07477,-0.216476 -5.22477,-0.212846 -7,0.0081 -1.77524,0.220912 -0.0777,0.398028 3.7723,0.393592 3.85,-0.0044 5.30246,-0.185183 3.2277,-0.401658 z M 135.75,52.310674 c -0.9625,-0.251527 -2.5375,-0.251527 -3.5,0 -0.9625,0.251528 -0.175,0.457323 1.75,0.457323 1.925,0 2.7125,-0.205795 1.75,-0.457323 z m 262,-0.04966 c -3.1625,-0.198451 -8.3375,-0.198451 -11.5,0 -3.1625,0.19845 -0.575,0.360819 5.75,0.360819 6.325,0 8.9125,-0.162369 5.75,-0.360819 z m -249.5,-0.984408 c -1.7875,-0.221826 -4.7125,-0.221826 -6.5,0 -1.7875,0.221827 -0.325,0.403322 3.25,0.403322 3.575,0 5.0375,-0.181495 3.25,-0.403322 z m 226.03651,-0.01258 c -2.86742,-0.201306 -7.81742,-0.203152 -11,-0.0041 -3.18258,0.19905 -0.83651,0.363755 5.21349,0.366011 6.05,0.0023 8.65393,-0.160603 5.78651,-0.361909 z M 167.78352,50.26633 c -2.59406,-0.205246 -7.09406,-0.207376 -10,-0.0047 -2.90594,0.202641 -0.78352,0.37057 4.71648,0.373173 5.5,0.0026 7.87758,-0.163194 5.28352,-0.368439 z M 350.75,50.261012 c -3.1625,-0.198451 -8.3375,-0.198451 -11.5,0 -3.1625,0.19845 -0.575,0.360819 5.75,0.360819 6.325,0 8.9125,-0.162369 5.75,-0.360819 z m -157,-1.002562 c -3.7125,-0.192407 -9.7875,-0.192407 -13.5,0 -3.7125,0.192406 -0.675,0.349829 6.75,0.349829 7.425,0 10.4625,-0.157423 6.75,-0.349829 z m 127.05735,-0.0047 c -6.43096,-0.173913 -17.23096,-0.174448 -24,-0.0012 -6.76904,0.17326 -1.50735,0.315553 11.69265,0.316207 13.2,6.54e-4 18.73831,-0.141104 12.30735,-0.315018 z m -57.49038,-1.002322 c -11.10067,-0.160815 -29.55067,-0.161026 -41,-4.7e-4 -11.44934,0.160556 -2.36697,0.292132 20.18303,0.292391 22.55,2.58e-4 31.91763,-0.131106 20.81697,-0.291921 z"
     id="path3105"
     style="fill:#000000" />
</svg>
