<?xml version="1.0" encoding="UTF-8" standalone="no"?>
<!-- Created with Inkscape (http://www.inkscape.org/) -->

<svg
   xmlns:dc="http://purl.org/dc/elements/1.1/"
   xmlns:cc="http://creativecommons.org/ns#"
   xmlns:rdf="http://www.w3.org/1999/02/22-rdf-syntax-ns#"
   xmlns:svg="http://www.w3.org/2000/svg"
   xmlns="http://www.w3.org/2000/svg"
   version="1.1"
   width="640"
   height="480"
   id="svg2985">
  <metadata
     id="metadata2991">
    <rdf:RDF>
      <cc:Work
         rdf:about="">
        <dc:format>image/svg+xml</dc:format>
        <dc:type
           rdf:resource="http://purl.org/dc/dcmitype/StillImage" />
        <dc:title></dc:title>
      </cc:Work>
    </rdf:RDF>
  </metadata>
  <defs
     id="defs2989" />
  <path
     d="m 150.5,253.94924 c -4.51215,-1.46295 -6.54836,-3.40434 -8.00017,-7.62765 L 141.18611,242.5 72.593053,242.24311 C 12.543545,242.01821 4,241.80024 4,240.49311 c 0,-1.30941 8.396966,-1.49502 68.25,-1.50866 l 68.25,-0.0156 2.37653,-4.84358 C 145.88946,227.98466 149.20325,226 156.44332,226 c 5.21506,0 5.92976,0.29209 9.59571,3.92158 2.57654,2.55092 3.96097,4.82278 3.96097,6.5 l 0,2.57842 138,0 c 122,0 138,0.17391 138,1.5 0,1.32609 -16,1.5 -138,1.5 -130.75939,0 -138.00035,0.0918 -138.00659,1.75 -0.008,2.23112 -3.09044,6.92924 -5.78283,8.81505 -2.70164,1.89231 -9.90148,2.61918 -13.71058,1.38419 z m 11.89389,-3.54337 c 3.23172,-2.21104 5.59264,-6.73692 5.59952,-10.73429 0.005,-3.13796 -0.70778,-4.53568 -3.95438,-7.75 C 160.8914,228.80525 159.33171,228 156.44332,228 c -4.95445,0 -8.63259,2.40427 -11.2449,7.35041 -1.87003,3.54069 -2.03822,4.70081 -1.14622,7.9061 2.26783,8.14913 11.57683,11.77766 18.34169,7.14936 z M 107.82303,240.25054 C 89.300699,240.09821 58.700699,240.09812 39.823032,240.25035 20.945364,240.40258 36.1,240.52722 73.5,240.52732 c 37.4,1.1e-4 52.84536,-0.12445 34.32303,-0.27678 z M 375.75,240.25011 c -37.8125,-0.14514 -99.6875,-0.14514 -137.5,0 -37.8125,0.14515 -6.875,0.2639 68.75,0.2639 75.625,0 106.5625,-0.11875 68.75,-0.2639 z M 497,240.5 c 0,-1.31905 8.44444,-1.5 70,-1.5 61.55556,0 70,0.18095 70,1.5 0,1.31905 -8.44444,1.5 -70,1.5 -61.55556,0 -70,-0.18095 -70,-1.5 z m 104.25,-0.24956 c -18.8375,-0.15218 -49.6625,-0.15218 -68.5,0 -18.8375,0.15218 -3.425,0.2767 34.25,0.2767 37.675,0 53.0875,-0.12452 34.25,-0.2767 z"
     id="path2995"
     style="fill:#000000" />
</svg>
