<?xml version="1.0" encoding="UTF-8" standalone="no"?>
<!-- Created with Inkscape (http://www.inkscape.org/) -->

<svg
   xmlns:dc="http://purl.org/dc/elements/1.1/"
   xmlns:cc="http://creativecommons.org/ns#"
   xmlns:rdf="http://www.w3.org/1999/02/22-rdf-syntax-ns#"
   xmlns:svg="http://www.w3.org/2000/svg"
   xmlns="http://www.w3.org/2000/svg"
   version="1.1"
   width="640"
   height="480"
   id="svg3401">
  <metadata
     id="metadata3407">
    <rdf:RDF>
      <cc:Work
         rdf:about="">
        <dc:format>image/svg+xml</dc:format>
        <dc:type
           rdf:resource="http://purl.org/dc/dcmitype/StillImage" />
        <dc:title></dc:title>
      </cc:Work>
    </rdf:RDF>
  </metadata>
  <defs
     id="defs3405" />
  <path
     d="m 319,420.61828 0,-56.38173 -8.75,-0.69563 c -18.79057,-1.49385 -33.22984,-5.92049 -50.06576,-15.3486 -9.79255,-5.48383 -21.61218,-13.97411 -24.74992,-17.77838 -0.81997,-0.99415 -10.15679,7.80125 -40.49525,38.14701 C 173.2528,390.25243 154.94486,408 154.25475,408 153.56464,408 153,407.43534 153,406.74519 c 0,-0.69014 17.55,-18.80048 39,-40.24519 21.45,-21.44471 39,-39.33005 39,-39.74519 0,-0.41515 -0.7875,-1.58266 -1.75,-2.59448 -6.10543,-6.41826 -20.25,-27.43818 -20.25,-30.09306 0,-0.45407 -1.19009,-3.42508 -2.64465,-6.60225 -3.65935,-7.99309 -7.09182,-21.94886 -8.53827,-34.71502 L 196.59907,242 140.29953,242 C 90.92217,242 84,241.81557 84,240.5 c 0,-1.31563 6.944444,-1.5 56.5,-1.5 l 56.5,0 0,-3.13067 c 0,-9.25463 5.20727,-33.79081 8.53165,-40.20037 0.80759,-1.55707 1.46835,-3.36879 1.46835,-4.02603 0,-1.6415 12.1707,-22.52223 15.11459,-25.93143 1.31198,-1.51935 4.06256,-4.66349 6.11241,-6.98698 L 231.954,154.5 192.477,114.99537 C 170.76465,93.267823 153,74.930323 153,74.24537 153,73.560416 153.56042,73 154.24537,73 c 0.68495,0 19.02245,17.759365 40.75,39.46526 l 39.50463,39.46525 4.80406,-4.21525 C 255.32922,133.65418 267.45078,127.29357 290,121.11332 c 6.46632,-1.77228 21.78164,-4.07948 27.25,-4.10512 1.64592,-0.008 1.75,-3.36847 1.75,-56.5082 0,-49.555556 0.18437,-56.5 1.5,-56.5 1.31559,0 1.5,6.928278 1.5,56.354505 l 0,56.354505 10.75,1.23113 c 15.10025,1.72934 30.07006,5.86335 40.75,11.25336 2.2,1.11031 6.25,3.15455 9,4.54276 2.75,1.38821 5.45,3.06668 6,3.72994 0.55,0.66325 2.8,2.36878 5,3.79005 2.2,1.42128 6.02482,4.41816 8.49959,6.65973 l 4.49959,4.07558 39.50504,-39.49578 C 467.73199,90.773101 486.06968,73 486.75463,73 487.43958,73 488,73.560416 488,74.24537 c 0,0.684953 -17.76569,19.022453 -39.47931,40.75 L 409.04137,154.5 413.0882,159 c 2.22576,2.475 4.8397,5.4 5.80875,6.5 2.94818,3.34654 12.83921,20.6238 15.4572,27 4.84811,11.80774 7.92141,24.83955 9.13844,38.75 l 0.67805,7.75 56.41468,0 C 550.06504,239 557,239.18439 557,240.5 c 0,1.31563 -6.94444,1.5 -56.5,1.5 -44.52896,0 -56.50174,0.26485 -56.5082,1.25 -0.005,0.6875 -0.47206,5.3 -1.03898,10.25 -1.93088,16.85908 -4.55395,26.57592 -10.66305,39.5 -6.43925,13.6225 -7.74412,15.62613 -17.95791,27.57437 l -5.19259,6.07436 39.43037,39.42089 C 470.25634,387.75111 488,406.05514 488,406.74525 488,407.43536 487.43536,408 486.74525,408 c -0.69011,0 -18.99157,-17.74109 -40.6699,-39.42464 l -39.41516,-39.42463 -6.5801,5.81785 c -6.83307,6.04152 -20.26484,14.45419 -29.83564,18.68685 -12.75838,5.64237 -25.03435,8.68789 -39.99445,9.92216 l -8.25,0.68066 0,56.37088 C 322,470.0699 321.81559,477 320.5,477 c -1.3156,0 -1.5,-6.9313 -1.5,-56.38172 z m 1.74922,-29.43928 c -0.1552,-15.22345 -0.28205,-2.479 -0.28191,28.321 1.5e-4,30.8 0.12713,43.25555 0.28217,27.679 0.15505,-15.57655 0.15493,-40.77655 -2.6e-4,-56 z M 194.50481,366.75 233.5,327.5 194.25,366.49519 C 157.76979,402.73858 154.55044,406 155.25481,406 c 0.14014,0 17.80264,-17.6625 39.25,-39.25 z M 486,405.74525 c 0,-0.14011 -17.8875,-18.02761 -39.75,-39.75 L 406.5,326.5 445.99525,366.25 C 482.70359,403.1951 486,406.44954 486,405.74525 z M 317.76166,362.31292 c -0.95609,-0.25029 -2.75609,-0.25937 -4,-0.0202 -1.24391,0.23919 -0.46166,0.44398 1.73834,0.45508 2.2,0.0111 3.21775,-0.18461 2.26166,-0.4349 z m 10,0 c -0.95609,-0.25029 -2.75609,-0.25937 -4,-0.0202 -1.24391,0.23919 -0.46166,0.44398 1.73834,0.45508 2.2,0.0111 3.21775,-0.18461 2.26166,-0.4349 z M 308.25,361.29427 c -1.2375,-0.23836 -3.2625,-0.23836 -4.5,0 -1.2375,0.23835 -0.225,0.43337 2.25,0.43337 2.475,0 3.4875,-0.19502 2.25,-0.43337 z m 29,0 c -1.2375,-0.23836 -3.2625,-0.23836 -4.5,0 -1.2375,0.23835 -0.225,0.43337 2.25,0.43337 2.475,0 3.4875,-0.19502 2.25,-0.43337 z m -38,-0.95655 c -0.6875,-0.27741 -1.8125,-0.27741 -2.5,0 -0.6875,0.27741 -0.125,0.50439 1.25,0.50439 1.375,0 1.9375,-0.22698 1.25,-0.50439 z M 344,358.47815 c 8.44536,-1.75025 16.09373,-4.21808 24.24445,-7.82272 6.62578,-2.93023 22.22112,-12.04081 25.72001,-15.02526 6.51652,-5.5584 21.14457,-20.84571 23.68792,-24.75549 1.56517,-2.40607 3.34819,-4.82468 3.96225,-5.37468 1.71734,-1.53817 8.98587,-16.56183 12.33705,-25.5 5.03146,-13.41976 7.73814,-35.35314 6.15669,-49.89016 -1.49671,-13.75799 -4.91302,-27.2803 -9.45756,-37.43459 -2.91828,-6.52056 -11.58151,-21.18678 -14.94993,-25.30912 -5.29127,-6.47558 -20.47887,-20.86332 -24.88503,-23.57446 -2.64872,-1.62977 -4.81742,-3.26212 -4.81935,-3.62744 -0.003,-0.5932 -2.34382,-1.87805 -14.9965,-8.23187 -10.18422,-5.11423 -25.45308,-9.29798 -40.01531,-10.9644 -15.60506,-1.78577 -31.77514,0.30639 -50.48469,6.53194 -25.84283,8.59912 -50.25652,29.37453 -64.89034,55.21998 C 212.52435,188.16899 210,193.12473 210,193.73264 c 0,0.6079 -0.66076,2.37925 -1.46835,3.93632 -3.80554,7.33727 -8.55114,31.28332 -8.51184,42.95037 0.043,12.77621 4.32291,33.54873 9.12097,44.26899 1.57257,3.51357 2.85922,6.75196 2.85922,7.19642 0,2.06137 8.35203,14.99691 16.30244,25.24904 7.83243,10.1 19.73161,19.88055 33.89496,27.86001 15.20482,8.56621 29.02588,13.05621 46.8026,15.2046 6.53326,0.78957 27.46619,-0.35889 35,-1.92024 z m 4.25,0.85957 c -0.6875,-0.27741 -1.8125,-0.27741 -2.5,0 -0.6875,0.27741 -0.125,0.50439 1.25,0.50439 1.375,0 1.9375,-0.22698 1.25,-0.50439 z M 248,338.62244 c 0,-0.20765 -0.7875,-0.99515 -1.75,-1.75 -1.58606,-1.24387 -1.62143,-1.2085 -0.37756,0.37756 1.30637,1.66575 2.12756,2.19548 2.12756,1.37244 z m -5,-3.96745 c 0,-0.18976 -1.0125,-1.20226 -2.25,-2.25 L 238.5,330.5 l 1.90499,2.25 C 242.19521,334.86444 243,335.45524 243,334.65499 z M 403,330.5 c 1.86578,-1.925 3.16733,-3.5 2.89233,-3.5 -0.275,0 -2.02655,1.575 -3.89233,3.5 -1.86578,1.925 -3.16733,3.5 -2.89233,3.5 0.275,0 2.02655,-1.575 3.89233,-3.5 z m 7.56291,-7.75 2.93709,-3.25 -3.25,2.93709 C 407.22054,325.17487 406.54035,326 407.31291,326 c 0.1721,0 1.6346,-1.4625 3.25,-3.25 z M 416.5,316 c 0.99549,-1.1 1.58498,-2 1.30998,-2 -0.275,0 -1.31449,0.9 -2.30998,2 -0.99549,1.1 -1.58498,2 -1.30998,2 0.275,0 1.31449,-0.9 2.30998,-2 z M 221,309.62244 c 0,-0.20765 -0.7875,-0.99515 -1.75,-1.75 -1.58606,-1.24387 -1.62143,-1.2085 -0.37756,0.37756 1.30637,1.66575 2.12756,2.19548 2.12756,1.37244 z M 439.66228,264.75 c -0.27741,-0.6875 -0.50439,-0.125 -0.50439,1.25 0,1.375 0.22698,1.9375 0.50439,1.25 0.27741,-0.6875 0.27741,-1.8125 0,-2.5 z m -239,-5 c -0.27741,-0.6875 -0.50439,-0.125 -0.50439,1.25 0,1.375 0.22698,1.9375 0.50439,1.25 0.27741,-0.6875 0.27741,-1.8125 0,-2.5 z m 240,-1 c -0.27741,-0.6875 -0.50439,-0.125 -0.50439,1.25 0,1.375 0.22698,1.9375 0.50439,1.25 0.27741,-0.6875 0.27741,-1.8125 0,-2.5 z m -240.97295,-6.5 c -0.25153,-0.9625 -0.45733,-0.175 -0.45733,1.75 0,1.925 0.2058,2.7125 0.45733,1.75 0.25152,-0.9625 0.25152,-2.5375 0,-3.5 z m 242.0164,-2.5 c -0.23835,-1.2375 -0.43337,-0.225 -0.43337,2.25 0,2.475 0.19502,3.4875 0.43337,2.25 0.23836,-1.2375 0.23836,-3.2625 0,-4.5 z m -242.99847,-5.98834 c -0.23919,-1.24391 -0.44398,-0.46166 -0.45508,1.73834 -0.0111,2.2 0.18461,3.21775 0.4349,2.26166 0.25029,-0.95609 0.25937,-2.75609 0.0202,-4 z M 442.66228,242.75 c -0.27741,-0.6875 -0.50439,-0.125 -0.50439,1.25 0,1.375 0.22698,1.9375 0.50439,1.25 0.27741,-0.6875 0.27741,-1.8125 0,-2.5 z M 169.821,240.25078 c -15.22345,-0.15519 -40.42345,-0.15531 -56,-2.6e-4 -15.57655,0.15504 -3.121,0.28202 27.679,0.28217 30.8,1.4e-4 43.54445,-0.12671 28.321,-0.28191 z m 358,0 c -15.22345,-0.15519 -40.42345,-0.15531 -56,-2.6e-4 -15.57655,0.15504 -3.121,0.28202 27.679,0.28217 30.8,1.4e-4 43.54445,-0.12671 28.321,-0.28191 z m -329.11374,-6.48912 c -0.23919,-1.24391 -0.44398,-0.46166 -0.45508,1.73834 -0.0111,2.2 0.18461,3.21775 0.4349,2.26166 0.25029,-0.95609 0.25937,-2.75609 0.0202,-4 z m 243.98573,1.50737 c -0.25354,-0.97297 -0.47766,-0.41903 -0.49804,1.23097 -0.0204,1.65 0.18706,2.44606 0.46099,1.76903 0.27392,-0.67703 0.29059,-2.02703 0.0371,-3 z M 441.70573,225.75 c -0.23835,-1.2375 -0.43337,-0.225 -0.43337,2.25 0,2.475 0.19502,3.4875 0.43337,2.25 0.23836,-1.2375 0.23836,-3.2625 0,-4.5 z m -242.01274,0.51903 c -0.25354,-0.97297 -0.47766,-0.41903 -0.49804,1.23097 -0.0204,1.65 0.18706,2.44606 0.46099,1.76903 0.27392,-0.67703 0.29059,-2.02703 0.0371,-3 z m 0.96929,-6.51903 c -0.27741,-0.6875 -0.50439,-0.125 -0.50439,1.25 0,1.375 0.22698,1.9375 0.50439,1.25 0.27741,-0.6875 0.27741,-1.8125 0,-2.5 z m 240,-1 c -0.27741,-0.6875 -0.50439,-0.125 -0.50439,1.25 0,1.375 0.22698,1.9375 0.50439,1.25 0.27741,-0.6875 0.27741,-1.8125 0,-2.5 z m -239,-5 c -0.27741,-0.6875 -0.50439,-0.125 -0.50439,1.25 0,1.375 0.22698,1.9375 0.50439,1.25 0.27741,-0.6875 0.27741,-1.8125 0,-2.5 z m 237.02083,-3.9375 c -0.31922,-0.79773 -0.55618,-0.56078 -0.60416,0.60417 -0.0434,1.05416 0.19293,1.64479 0.52522,1.3125 0.33229,-0.3323 0.36781,-1.1948 0.0789,-1.91667 z M 232.5,157 c 0.99549,-1.1 1.58498,-2 1.30998,-2 -0.275,0 -1.31449,0.9 -2.30998,2 -0.99549,1.1 -1.58498,2 -1.30998,2 0.275,0 1.31449,-0.9 2.30998,-2 z m 178.5,1.65499 c 0,-0.18976 -1.0125,-1.20226 -2.25,-2.25 L 406.5,154.5 l 1.90499,2.25 C 410.19521,158.86444 411,159.45524 411,158.65499 z M 447,114.5 C 468.71978,92.775 486.26551,75 485.99051,75 485.71551,75 467.71978,92.775 446,114.5 424.28022,136.225 406.73449,154 407.00949,154 407.28449,154 425.28022,136.225 447,114.5 z M 194.5,114 C 173.05529,92.55 155.28462,75 155.00962,75 c -0.275,0 17.04567,17.55 38.49038,39 21.44471,21.45 39.21538,39 39.49038,39 0.275,0 -17.04567,-17.55 -38.49038,-39 z m 44,37 c 0.99549,-1.1 1.58498,-2 1.30998,-2 -0.275,0 -1.31449,0.9 -2.30998,2 -0.99549,1.1 -1.58498,2 -1.30998,2 0.275,0 1.31449,-0.9 2.30998,-2 z M 399,147.65499 c 0,-0.18976 -1.0125,-1.20226 -2.25,-2.25 L 394.5,143.5 l 1.90499,2.25 C 398.19521,147.86444 399,148.45524 399,147.65499 z M 249.5,142 c 0.99549,-1.1 1.58498,-2 1.30998,-2 -0.275,0 -1.31449,0.9 -2.30998,2 -0.99549,1.1 -1.58498,2 -1.30998,2 0.275,0 1.31449,-0.9 2.30998,-2 z m 51.75,-21.66228 c -0.6875,-0.27741 -1.8125,-0.27741 -2.5,0 -0.6875,0.27741 -0.125,0.50439 1.25,0.50439 1.375,0 1.9375,-0.22698 1.25,-0.50439 z m 40.5,-0.0271 c -0.9625,-0.25152 -2.5375,-0.25152 -3.5,0 -0.9625,0.25153 -0.175,0.45733 1.75,0.45733 1.925,0 2.7125,-0.2058 1.75,-0.45733 z m -31.5,-1.0164 c -1.2375,-0.23836 -3.2625,-0.23836 -4.5,0 -1.2375,0.23835 -0.225,0.43337 2.25,0.43337 2.475,0 3.4875,-0.19502 2.25,-0.43337 z m 23.5,0.0164 c -0.9625,-0.25152 -2.5375,-0.25152 -3.5,0 -0.9625,0.25153 -0.175,0.45733 1.75,0.45733 1.925,0 2.7125,-0.2058 1.75,-0.45733 z m -15.48097,-0.96661 c -0.67703,-0.27392 -2.02703,-0.29059 -3,-0.037 -0.97297,0.25354 -0.41903,0.47766 1.23097,0.49804 1.65,0.0204 2.44606,-0.18706 1.76903,-0.46099 z m 8,0 c -0.67703,-0.27392 -2.02703,-0.29059 -3,-0.037 -0.97297,0.25354 -0.41903,0.47766 1.23097,0.49804 1.65,0.0204 2.44606,-0.18706 1.76903,-0.46099 z M 320.74922,33.179 c -0.1552,-15.22345 -0.28205,-2.479 -0.28191,28.321 1.5e-4,30.8 0.12713,43.25555 0.28217,27.679 0.15505,-15.57655 0.15493,-40.77655 -2.6e-4,-56 z"
     id="path3411"
     style="fill:#000000" />
</svg>
