<?xml version="1.0" encoding="UTF-8" standalone="no"?>
<!-- Created with Inkscape (http://www.inkscape.org/) -->

<svg
   xmlns:dc="http://purl.org/dc/elements/1.1/"
   xmlns:cc="http://creativecommons.org/ns#"
   xmlns:rdf="http://www.w3.org/1999/02/22-rdf-syntax-ns#"
   xmlns:svg="http://www.w3.org/2000/svg"
   xmlns="http://www.w3.org/2000/svg"
   version="1.1"
   width="640"
   height="480"
   id="svg3511">
  <metadata
     id="metadata3517">
    <rdf:RDF>
      <cc:Work
         rdf:about="">
        <dc:format>image/svg+xml</dc:format>
        <dc:type
           rdf:resource="http://purl.org/dc/dcmitype/StillImage" />
        <dc:title></dc:title>
      </cc:Work>
    </rdf:RDF>
  </metadata>
  <defs
     id="defs3515" />
  <path
     d="m 186,475.5 c 0,-1.29697 3.72222,-1.5 27.5,-1.5 l 27.5,0 0,-140.77827 0,-140.77827 23.5,-50.86912 C 277.425,113.59632 288,90.628282 288,90.534258 c 0,-0.09402 -1.61128,-1.940196 -3.58063,-4.102605 -9.42685,-10.351004 -12.80777,-19.419934 -12.87336,-34.53129 -0.0253,-5.8298 0.43248,-11.6798 1.01731,-13 8.89967,-20.090318 18.79087,-29.4476516 35.31598,-33.4098526 11.55337,-2.770132 22.02784,-1.6777601 32.46014,3.3852333 16.54643,8.0303023 26.15026,21.5136223 27.34091,38.3853793 0.84768,12.011646 -0.89524,20.696794 -5.8676,29.238877 -2.24109,3.85 -5.5993,8.602708 -7.46269,10.561574 l -3.38797,3.561575 23.51896,50.910161 23.51895,50.91015 0,27.77827 0,27.77827 28,0 28,0 0,30 c 0,26 -0.2,30 -1.5,30 -1.29825,0 -1.5,-3.83333 -1.5,-28.5 l 0,-28.5 -26.5,0 -26.5,0 0,111.5 0,111.5 27.5,0 c 23.77778,0 27.5,0.20303 27.5,1.5 0,1.32584 -15.5,1.5 -133.5,1.5 -118,0 -133.5,-0.17416 -133.5,-1.5 z m 42.30979,-0.24698 c -7.25462,-0.17063 -19.40462,-0.17107 -27,-9.7e-4 -7.59539,0.17009 -1.65979,0.3097 13.19021,0.31023 14.85,5.4e-4 21.0644,-0.13863 13.80979,-0.30926 z m 128.86616,-0.003 c -21.07823,-0.15081 -55.27823,-0.15074 -76,1.5e-4 -20.72177,0.15089 -3.47595,0.27427 38.32405,0.27419 41.8,-8e-5 58.75418,-0.12354 37.67595,-0.27434 z m 81.13384,0.003 c -7.25462,-0.17063 -19.40462,-0.17107 -27,-9.7e-4 -7.59539,0.17009 -1.65979,0.3097 13.19021,0.31023 14.85,5.4e-4 21.0644,-0.13863 13.80979,-0.30926 z M 242.74987,262.67181 c -0.14498,-38.5945 -0.26357,-6.72181 -0.26355,70.82819 3e-5,77.55 0.11864,109.12731 0.26359,70.17181 0.14495,-38.9555 0.14493,-102.4055 -4e-5,-141 z M 395,334.22339 395,194.44677 375.14769,151.47339 C 364.22893,127.83802 353.6608,104.964 351.66296,100.64222 l -3.63242,-7.857789 -3.26527,1.907661 c -6.9492,4.059916 -14.78174,5.810218 -25.76527,5.757658 -10.98326,-0.0526 -17.12277,-1.508511 -23.8232,-5.649534 -1.89199,-1.169295 -3.69257,-1.676203 -4.18086,-1.177016 -0.47171,0.48224 -11.23877,23.36641 -23.9268,50.8537 L 244,194.4538 244,334.2269 244,474 l 75.5,0 75.5,0 0,-139.77661 z m 1.74987,-27.39648 C 396.6031,275.84711 396.48298,300.9 396.48294,362.5 c -4e-5,61.6 0.12004,86.94711 0.26685,56.32691 0.14681,-30.6202 0.14685,-81.0202 8e-5,-112 z m 55.99822,-42.01641 c -0.16916,-7.87077 -0.30798,-1.7105 -0.30848,13.6895 -5.1e-4,15.4 0.1379,21.83973 0.30756,14.3105 0.16967,-7.52922 0.17008,-20.12922 9.2e-4,-28 z m -14.4383,-15.55748 c -7.25462,-0.17063 -19.40462,-0.17107 -27,-9.7e-4 -7.59539,0.17009 -1.65979,0.3097 13.19021,0.31023 14.85,5.4e-4 21.0644,-0.13863 13.80979,-0.30926 z m -41.5617,-42.44252 c -0.16916,-7.87077 -0.30798,-1.7105 -0.30848,13.6895 -5.1e-4,15.4 0.1379,21.83973 0.30756,14.3105 0.16967,-7.52922 0.17008,-20.12922 9.2e-4,-28 z M 323.25,99.276604 c -1.7875,-0.221826 -4.7125,-0.221826 -6.5,0 -1.7875,0.221827 -0.325,0.403322 3.25,0.403322 3.575,0 5.0375,-0.181495 3.25,-0.403322 z m -12,-0.938885 c -0.6875,-0.277412 -1.8125,-0.277412 -2.5,0 -0.6875,0.277413 -0.125,0.504386 1.25,0.504386 1.375,0 1.9375,-0.226973 1.25,-0.504386 z m 22.25,-2.75308 C 338.88851,93.796201 343.60271,91.45797 346,89.384676 356.47205,80.32793 362.26928,71.099567 364.0687,60.621871 367.64511,39.797061 357.97978,21.404696 338.5,11.966654 328.1705,6.9619667 320.25072,6.004308 309.83741,8.5007777 293.56334,12.402294 284.45097,21.018351 275.57486,40.897188 c -0.5887,1.318453 -1.04312,6.268453 -1.00981,11 0.16146,22.940896 15.03507,40.998781 37.43495,45.449372 4.53191,0.900437 16.41165,-0.07311 21.5,-1.761921 z M 285,83.654988 c 0,-0.189757 -1.0125,-1.202257 -2.25,-2.25 L 280.5,79.5 l 1.90499,2.25 C 284.19521,83.864445 285,84.455241 285,83.654988 z M 365.66228,60.75 c -0.27741,-0.6875 -0.50439,-0.125 -0.50439,1.25 0,1.375 0.22698,1.9375 0.50439,1.25 0.27741,-0.6875 0.27741,-1.8125 0,-2.5 z M 272.72473,49.767909 C 272.50217,47.970559 272.31548,49.2 272.30987,52.5 c -0.006,3.3 0.17648,4.770559 0.40466,3.267909 0.22817,-1.50265 0.23276,-4.20265 0.0102,-6 z M 366.7234,48.75 c -0.22183,-1.7875 -0.40333,-0.325 -0.40333,3.25 0,3.575 0.1815,5.0375 0.40333,3.25 0.22182,-1.7875 0.22182,-4.7125 0,-6.5 z m -93.06112,-7 c -0.27741,-0.6875 -0.50439,-0.125 -0.50439,1.25 0,1.375 0.22698,1.9375 0.50439,1.25 0.27741,-0.6875 0.27741,-1.8125 0,-2.5 z m 92,-1 c -0.27741,-0.6875 -0.50439,-0.125 -0.50439,1.25 0,1.375 0.22698,1.9375 0.50439,1.25 0.27741,-0.6875 0.27741,-1.8125 0,-2.5 z M 284.5,22 c 0.99549,-1.1 1.58498,-2 1.30998,-2 -0.275,0 -1.31449,0.9 -2.30998,2 -0.99549,1.1 -1.58498,2 -1.30998,2 0.275,0 1.31449,-0.9 2.30998,-2 z m 5.62756,-5.75 c 1.24387,-1.586056 1.2085,-1.621426 -0.37756,-0.377555 C 288.08425,17.178814 287.55452,18 288.37756,18 c 0.20765,0 0.99515,-0.7875 1.75,-1.75 z M 351,17.622445 c 0,-0.207656 -0.7875,-0.995156 -1.75,-1.75 C 347.66394,14.628574 347.62857,14.663944 348.87244,16.25 350.17881,17.915748 351,18.445479 351,17.622445 z M 330.25,6.3377193 c -0.6875,-0.2774123 -1.8125,-0.2774123 -2.5,0 -0.6875,0.2774123 -0.125,0.504386 1.25,0.504386 1.375,0 1.9375,-0.2269737 1.25,-0.504386 z m -7.48209,-1.0522456 c -1.50265,-0.2281741 -4.20265,-0.2327664 -6,-0.010205 -1.79735,0.2225614 -0.56791,0.4092494 2.73209,0.4148621 3.3,0.00561 4.77056,-0.1764829 3.26791,-0.4046571 z"
     id="path3521"
     style="fill:#000000" />
</svg>
