<?xml version="1.0" encoding="UTF-8" standalone="no"?>
<!-- Created with Inkscape (http://www.inkscape.org/) -->

<svg
   xmlns:dc="http://purl.org/dc/elements/1.1/"
   xmlns:cc="http://creativecommons.org/ns#"
   xmlns:rdf="http://www.w3.org/1999/02/22-rdf-syntax-ns#"
   xmlns:svg="http://www.w3.org/2000/svg"
   xmlns="http://www.w3.org/2000/svg"
   version="1.1"
   width="640"
   height="480"
   id="svg3905">
  <metadata
     id="metadata3911">
    <rdf:RDF>
      <cc:Work
         rdf:about="">
        <dc:format>image/svg+xml</dc:format>
        <dc:type
           rdf:resource="http://purl.org/dc/dcmitype/StillImage" />
        <dc:title></dc:title>
      </cc:Work>
    </rdf:RDF>
  </metadata>
  <defs
     id="defs3909" />
  <path
     d="M 319,359.5 319,242 201.5,242 C 97.722222,242 84,241.82482 84,240.5 84,239.17518 97.722222,239 201.5,239 l 117.5,0 0,-117.5 C 319,17.722222 319.17518,4 320.5,4 c 1.32482,0 1.5,13.722222 1.5,117.5 l 0,117.5 117.5,0 c 103.77778,0 117.5,0.17518 117.5,1.5 0,1.32482 -13.72222,1.5 -117.5,1.5 l -117.5,0 0,117.5 c 0,103.77778 -0.17518,117.5 -1.5,117.5 -1.32482,0 -1.5,-13.72222 -1.5,-117.5 z m 1.74988,-59.17282 c -0.1464,-32.35495 -0.26621,-6.17718 -0.26624,58.17282 -4e-5,64.35 0.11974,90.82223 0.26617,58.82718 0.14643,-31.99506 0.14646,-84.64506 7e-5,-117 z m -60.07706,-60.07706 c -32.35494,-0.14639 -85.00494,-0.14636 -117,7e-5 -31.99505,0.14643 -5.52282,0.26621 58.82718,0.26617 64.35,-3e-5 90.52777,-0.11984 58.17282,-0.26624 z m 236,0 c -32.35494,-0.14639 -85.00494,-0.14636 -117,7e-5 -31.99505,0.14643 -5.52282,0.26621 58.82718,0.26617 64.35,-3e-5 90.52777,-0.11984 58.17282,-0.26624 z M 320.74988,64.327175 C 320.60348,31.972229 320.48367,58.15 320.48364,122.5 c -4e-5,64.35 0.11974,90.82223 0.26617,58.82718 0.14643,-31.99506 0.14646,-84.645058 7e-5,-117.000005 z"
     id="path3915"
     style="fill:#000000" />
</svg>
