<?xml version="1.0" encoding="UTF-8" standalone="no"?>
<!-- Created with Inkscape (http://www.inkscape.org/) -->

<svg
   xmlns:dc="http://purl.org/dc/elements/1.1/"
   xmlns:cc="http://creativecommons.org/ns#"
   xmlns:rdf="http://www.w3.org/1999/02/22-rdf-syntax-ns#"
   xmlns:svg="http://www.w3.org/2000/svg"
   xmlns="http://www.w3.org/2000/svg"
   version="1.1"
   width="640"
   height="480"
   id="svg3795">
  <metadata
     id="metadata3801">
    <rdf:RDF>
      <cc:Work
         rdf:about="">
        <dc:format>image/svg+xml</dc:format>
        <dc:type
           rdf:resource="http://purl.org/dc/dcmitype/StillImage" />
        <dc:title></dc:title>
      </cc:Work>
    </rdf:RDF>
  </metadata>
  <defs
     id="defs3799" />
  <path
     d="M 193,455.49142 C 162.01006,451.67913 135.39124,442.49184 108.5,426.32686 77.668997,407.7936 53.801394,383.83469 35.741641,353.29016 25.282772,335.60104 22.558757,329.88081 15.126546,310 11.044456,299.0806 6.819764,279.2732 4.9953408,262.5 0.98234453,225.60571 8.4322358,180.87413 23.607007,150.74948 24.923153,148.13669 26,145.52548 26,144.94679 26,143.48135 37.483213,123.73317 41.598085,118.12208 51.989583,103.95213 56.547871,98.561053 66.600151,88.552199 72.705233,82.473489 79.414081,76.15 81.508702,74.5 83.603322,72.85 86.436464,70.4875 87.804574,69.25 89.172683,68.0125 90.610625,67 91,67 c 0.389375,0 1.904895,-1.109287 3.367822,-2.465082 3.55739,-3.296878 26.399928,-16.568144 36.218958,-21.042819 11.78944,-5.372623 32.59988,-12.163423 44.42246,-14.495806 32.2754,-6.367358 59.47486,-6.485134 88.99076,-0.385339 13.24073,2.736348 37.71046,10.372411 41.30392,12.889368 1.1776,0.824823 2.75852,1.499678 3.51316,1.499678 1.71833,0 35.56202,19.328382 39.66041,22.650355 1.66238,1.347452 6.39751,5.179093 10.52251,8.51476 8.32793,6.734352 23.90341,22.18281 28.51525,28.282695 1.64161,2.1713 3.98285,5.03397 5.20275,6.36149 1.2199,1.32753 2.48772,3.26351 2.81739,4.30219 0.32966,1.03868 0.97506,1.88851 1.43422,1.88851 0.45916,0 4.1893,5.7375 8.2892,12.75 9.73464,16.65021 12.67287,22.48917 17.23502,34.25 0.96008,2.475 2.10998,5.4 2.55534,6.5 1.43589,3.54655 4.85332,15.7681 6.85077,24.5 2.49029,10.88638 3.80964,20.67215 4.68511,34.75 l 0.6996,11.25 99.85768,0 C 625.23804,239 637,239.17668 637,240.5 c 0,1.32332 -11.76089,1.5 -99.84803,1.5 l -99.84804,0 -0.64844,10.5979 c -1.3159,21.50685 -6.4346,46.98634 -12.6367,62.9021 -13.31709,34.17421 -28.33475,57.05525 -53.16323,81 -13.99244,13.4944 -23.91121,21.10574 -39.61061,30.39587 -34.99413,20.70779 -70.40992,30.26263 -111.18137,29.99568 C 210.95361,456.8319 198.775,456.20184 193,455.49142 z m 37.2991,-0.23461 c -4.51049,-0.18486 -12.16049,-0.1858 -17,-0.002 -4.8395,0.1837 -1.1491,0.33495 8.2009,0.3361 9.35,10e-4 13.3096,-0.14916 8.7991,-0.33401 z M 201.25,454.29427 c -1.2375,-0.23836 -3.2625,-0.23836 -4.5,0 -1.2375,0.23835 -0.225,0.43337 2.25,0.43337 2.475,0 3.4875,-0.19502 2.25,-0.43337 z m 43.5,0.0164 c -0.9625,-0.25152 -2.5375,-0.25152 -3.5,0 -0.9625,0.25153 -0.175,0.45733 1.75,0.45733 1.925,0 2.7125,-0.2058 1.75,-0.45733 z m -53,-1 c -0.9625,-0.25152 -2.5375,-0.25152 -3.5,0 -0.9625,0.25153 -0.175,0.45733 1.75,0.45733 1.925,0 2.7125,-0.2058 1.75,-0.45733 z m 53.81358,-0.77096 c 24.25141,-3.23819 40.60593,-7.75424 61.27898,-16.92126 10.17661,-4.51259 33.70147,-17.72422 35.65744,-20.02531 0.55,-0.64705 2.6875,-2.20691 4.75,-3.46635 2.0625,-1.25945 3.75,-2.67288 3.75,-3.14096 0,-0.46808 0.92836,-1.1457 2.06302,-1.50583 2.2276,-0.70701 28.82755,-26.82044 32.93698,-32.33455 1.375,-1.845 3.13126,-4.01911 3.90279,-4.83136 1.93102,-2.03292 8.72591,-12.15695 13.89696,-20.70573 5.60861,-9.27218 11.91395,-22.49447 17.21904,-36.10836 3.71915,-9.54404 8.53941,-28.75415 10.66424,-42.5 2.14764,-13.89339 2.39311,-44.95759 0.46227,-58.5 -1.84124,-12.91401 -6.98714,-34.32101 -10.09613,-42 -0.44536,-1.1 -1.59526,-4.025 -2.55534,-6.5 -2.66945,-6.88163 -4.4829,-10.94497 -7.81015,-17.5 -4.33823,-8.54674 -15.85707,-27.93879 -16.82578,-28.3263 -0.44863,-0.17946 -1.80806,-2.09196 -3.02094,-4.25 -1.21288,-2.15803 -2.51258,-3.9237 -2.88821,-3.9237 -0.37564,0 -1.80283,-1.6875 -3.17154,-3.75 -1.36872,-2.0625 -6.94101,-8.256163 -12.38289,-13.763696 C 364.74188,83.729468 360.05895,79.580046 346.47749,68.636006 342.34065,65.302512 308.52084,46 306.81708,46 306.06244,46 304.48152,45.325145 303.30392,44.500322 299.71046,41.983365 275.24073,34.347302 262,31.610954 c -29.02368,-5.998072 -53.18936,-5.888508 -84.99076,0.385339 -12.17759,2.40242 -33.10317,9.28921 -45.13339,14.853785 C 98.507218,62.284739 66.371276,89.034749 45.532075,118.72278 40.996701,125.18398 29,145.67846 29,146.96523 c 0,0.56855 -1.076847,3.17146 -2.392993,5.78425 -4.788763,9.50656 -7.142332,15.82412 -11.455912,30.75052 -8.6971532,30.09499 -10.4081543,61.37313 -5.060008,92.5 4.678653,27.23034 12.730376,48.3652 28.741722,75.44375 13.796826,23.33333 29.46339,40.89925 52.855564,59.26355 22.131007,17.37421 56.469577,33.16835 84.311627,38.77942 22.1243,4.45876 49.90458,5.67797 69.56358,3.05299 z m 7.18642,0.77096 c -0.9625,-0.25152 -2.5375,-0.25152 -3.5,0 -0.9625,0.25153 -0.175,0.45733 1.75,0.45733 1.925,0 2.7125,-0.2058 1.75,-0.45733 z m -68.5,-0.97295 c -0.6875,-0.27741 -1.8125,-0.27741 -2.5,0 -0.6875,0.27741 -0.125,0.50439 1.25,0.50439 1.375,0 1.9375,-0.22698 1.25,-0.50439 z m 74.47917,0.0581 c -0.33229,-0.33229 -1.1948,-0.36781 -1.91667,-0.0789 -0.79773,0.31922 -0.56078,0.55618 0.60417,0.60416 1.05416,0.0434 1.64479,-0.19293 1.3125,-0.52522 z m 5.52083,-1.05811 c -0.6875,-0.27741 -1.8125,-0.27741 -2.5,0 -0.6875,0.27741 -0.125,0.50439 1.25,0.50439 1.375,0 1.9375,-0.22698 1.25,-0.50439 z m -90,-1 c -0.6875,-0.27741 -1.8125,-0.27741 -2.5,0 -0.6875,0.27741 -0.125,0.50439 1.25,0.50439 1.375,0 1.9375,-0.22698 1.25,-0.50439 z M 101,419.62244 c 0,-0.20765 -0.7875,-0.99515 -1.75,-1.75 -1.586056,-1.24387 -1.621426,-1.2085 -0.377555,0.37756 C 100.17881,419.91575 101,420.44548 101,419.62244 z M 86,408.65499 c 0,-0.18976 -1.0125,-1.20226 -2.25,-2.25 L 81.5,404.5 l 1.904988,2.25 C 85.195206,408.86444 86,409.45524 86,408.65499 z M 358.5,406 c 0.99549,-1.1 1.58498,-2 1.30998,-2 -0.275,0 -1.31449,0.9 -2.30998,2 -0.99549,1.1 -1.58498,2 -1.30998,2 0.275,0 1.31449,-0.9 2.30998,-2 z M 80,403.69617 c 0,-0.16711 -1.6875,-1.85461 -3.75,-3.75 L 72.5,396.5 l 3.446167,3.75 C 79.153784,403.74042 80,404.45979 80,403.69617 z M 371.5,394 c 3.26557,-3.3 5.71239,-6 5.43739,-6 -0.275,0 -3.17182,2.7 -6.43739,6 -3.26557,3.3 -5.71239,6 -5.43739,6 0.275,0 3.17182,-2.7 6.43739,-6 z M 63,386.65499 c 0,-0.18976 -1.0125,-1.20226 -2.25,-2.25 L 58.5,382.5 l 1.904988,2.25 C 62.195206,386.86444 63,387.45524 63,386.65499 z M 53,374.62244 c 0,-0.20765 -0.7875,-0.99515 -1.75,-1.75 -1.586056,-1.24387 -1.621426,-1.2085 -0.377555,0.37756 C 52.178814,374.91575 53,375.44548 53,374.62244 z m -6,-8 c 0,-0.20765 -0.7875,-0.99515 -1.75,-1.75 -1.586056,-1.24387 -1.621426,-1.2085 -0.377555,0.37756 C 46.178814,366.91575 47,367.44548 47,366.62244 z M 401.12756,358.25 c 1.24387,-1.58606 1.2085,-1.62143 -0.37756,-0.37756 -1.66575,1.30637 -2.19548,2.12756 -1.37244,2.12756 0.20765,0 0.99515,-0.7875 1.75,-1.75 z M 9.6622807,280.75 c -0.2774123,-0.6875 -0.504386,-0.125 -0.504386,1.25 0,1.375 0.2269737,1.9375 0.504386,1.25 0.2774123,-0.6875 0.2774123,-1.8125 0,-2.5 z m 421.9999993,0 c -0.27741,-0.6875 -0.50439,-0.125 -0.50439,1.25 0,1.375 0.22698,1.9375 0.50439,1.25 0.27741,-0.6875 0.27741,-1.8125 0,-2.5 z M 8.683114,275.8125 c -0.3192263,-0.79773 -0.5561827,-0.56078 -0.6041666,0.60417 -0.043421,1.05416 0.1929276,1.64479 0.5252193,1.3125 0.3322916,-0.33229 0.3678179,-1.1948 0.078947,-1.91667 z M 432.66228,274.75 c -0.27741,-0.6875 -0.50439,-0.125 -0.50439,1.25 0,1.375 0.22698,1.9375 0.50439,1.25 0.27741,-0.6875 0.27741,-1.8125 0,-2.5 z M 7.6893255,268.25 C 7.437798,267.2875 7.2320027,268.075 7.2320027,270 c 0,1.925 0.2057953,2.7125 0.4573228,1.75 0.2515276,-0.9625 0.2515276,-2.5375 0,-3.5 z m 426.0000045,-1 c -0.25153,-0.9625 -0.45733,-0.175 -0.45733,1.75 0,1.925 0.2058,2.7125 0.45733,1.75 0.25152,-0.9625 0.25152,-2.5375 0,-3.5 z M 6.705733,258.75 c -0.2383529,-1.2375 -0.4333689,-0.225 -0.4333689,2.25 0,2.475 0.195016,3.4875 0.4333689,2.25 0.2383529,-1.2375 0.2383529,-3.2625 0,-4.5 z m 427.999997,-1 c -0.23835,-1.2375 -0.43337,-0.225 -0.43337,2.25 0,2.475 0.19502,3.4875 0.43337,2.25 0.23836,-1.2375 0.23836,-3.2625 0,-4.5 z M 5.7441312,233.29571 C 5.5562277,229.00807 5.4013422,232.25 5.3999412,240.5 c -0.0014,8.25 0.1523383,11.75807 0.3416428,7.79571 0.1893045,-3.96237 0.1904508,-10.71237 0.00255,-15 z M 435.7234,244.75 c -0.22183,-1.7875 -0.40333,-0.325 -0.40333,3.25 0,3.575 0.1815,5.0375 0.40333,3.25 0.22182,-1.7875 0.22182,-4.7125 0,-6.5 z M 585.75,240.25021 c -27.3625,-0.14788 -72.1375,-0.14788 -99.5,0 -27.3625,0.14789 -4.975,0.26889 49.75,0.26889 54.725,0 77.1125,-0.121 49.75,-0.26889 z m -150.02527,-9.4823 c -0.22256,-1.79735 -0.40925,-0.56791 -0.41486,2.73209 -0.006,3.3 0.17648,4.77056 0.40466,3.26791 0.22817,-1.50265 0.23276,-4.20265 0.0102,-6 z M 434.71625,218.25 c -0.22912,-1.5125 -0.41659,-0.275 -0.41659,2.75 0,3.025 0.18747,4.2625 0.41659,2.75 0.22913,-1.5125 0.22913,-3.9875 0,-5.5 z M 6.705733,217.75 c -0.2383529,-1.2375 -0.4333689,-0.225 -0.4333689,2.25 0,2.475 0.195016,3.4875 0.4333689,2.25 0.2383529,-1.2375 0.2383529,-3.2625 0,-4.5 z m 0.9835925,-8.5 C 7.437798,208.2875 7.2320027,209.075 7.2320027,211 c 0,1.925 0.2057953,2.7125 0.4573228,1.75 0.2515276,-0.9625 0.2515276,-2.5375 0,-3.5 z m 426.0000045,0 c -0.25153,-0.9625 -0.45733,-0.175 -0.45733,1.75 0,1.925 0.2058,2.7125 0.45733,1.75 0.25152,-0.9625 0.25152,-2.5375 0,-3.5 z M 8.6622807,202.75 c -0.2774123,-0.6875 -0.504386,-0.125 -0.504386,1.25 0,1.375 0.2269737,1.9375 0.504386,1.25 0.2774123,-0.6875 0.2774123,-1.8125 0,-2.5 z m 423.9999993,0 c -0.27741,-0.6875 -0.50439,-0.125 -0.50439,1.25 0,1.375 0.22698,1.9375 0.50439,1.25 0.27741,-0.6875 0.27741,-1.8125 0,-2.5 z m -1.97917,-8.9375 c -0.31922,-0.79773 -0.55618,-0.56078 -0.60416,0.60417 -0.0434,1.05416 0.19293,1.64479 0.52522,1.3125 0.33229,-0.3323 0.36781,-1.1948 0.0789,-1.91667 z M 11.662281,188.75 c -0.277413,-0.6875 -0.504386,-0.125 -0.504386,1.25 0,1.375 0.226973,1.9375 0.504386,1.25 0.277412,-0.6875 0.277412,-1.8125 0,-2.5 z m 30.465274,-67.5 c 1.243871,-1.58606 1.208501,-1.62143 -0.377555,-0.37756 -0.9625,0.75485 -1.75,1.54235 -1.75,1.75 0,0.82304 0.821186,0.29331 2.127555,-1.37244 z M 49.5,111 c 0.995486,-1.1 1.584975,-2 1.309975,-2 -0.275,0 -1.314489,0.9 -2.309975,2 -0.995486,1.1 -1.584975,2 -1.309975,2 0.275,0 1.314489,-0.9 2.309975,-2 z m 4.627555,-5.75 c 1.243871,-1.58606 1.208501,-1.62143 -0.377555,-0.37756 -0.9625,0.75485 -1.75,1.54235 -1.75,1.75 0,0.82304 0.821186,0.29331 2.127555,-1.37244 z M 386,102.62244 c 0,-0.20765 -0.7875,-0.99515 -1.75,-1.75 -1.58606,-1.243866 -1.62143,-1.208496 -0.37756,0.37756 1.30637,1.66575 2.12756,2.19548 2.12756,1.37244 z M 66.5,91 c 2.708649,-2.75 4.699816,-5 4.424816,-5 -0.275,0 -2.716167,2.25 -5.424816,5 -2.708649,2.75 -4.699816,5 -4.424816,5 0.275,0 2.716167,-2.25 5.424816,-5 z M 375,90.654988 c 0,-0.189757 -1.0125,-1.202257 -2.25,-2.25 L 370.5,86.5 l 1.90499,2.25 C 374.19521,90.864445 375,91.455241 375,90.654988 z m -12,-11 c 0,-0.189757 -1.0125,-1.202257 -2.25,-2.25 L 358.5,75.5 l 1.90499,2.25 C 362.19521,79.864445 363,80.455241 363,79.654988 z m -6,-5 c 0,-0.189757 -1.0125,-1.202257 -2.25,-2.25 L 352.5,70.5 l 1.90499,2.25 C 356.19521,74.864445 357,75.455241 357,74.654988 z m -8,-6 c 0,-0.189757 -1.0125,-1.202257 -2.25,-2.25 L 344.5,64.5 l 1.90499,2.25 C 348.19521,68.864445 349,69.455241 349,68.654988 z M 172.25,31.337719 c -0.6875,-0.277412 -1.8125,-0.277412 -2.5,0 -0.6875,0.277413 -0.125,0.504386 1.25,0.504386 1.375,0 1.9375,-0.226973 1.25,-0.504386 z m 94,-1 c -0.6875,-0.277412 -1.8125,-0.277412 -2.5,0 -0.6875,0.277413 -0.125,0.504386 1.25,0.504386 1.375,0 1.9375,-0.226973 1.25,-0.504386 z m -84,-1 c -0.6875,-0.277412 -1.8125,-0.277412 -2.5,0 -0.6875,0.277413 -0.125,0.504386 1.25,0.504386 1.375,0 1.9375,-0.226973 1.25,-0.504386 z m 6,-1 c -0.6875,-0.277412 -1.8125,-0.277412 -2.5,0 -0.6875,0.277413 -0.125,0.504386 1.25,0.504386 1.375,0 1.9375,-0.226973 1.25,-0.504386 z m 68.47917,0.05811 c -0.33229,-0.332291 -1.1948,-0.367818 -1.91667,-0.07895 -0.79773,0.319226 -0.56078,0.556183 0.60417,0.604167 1.05416,0.04342 1.64479,-0.192928 1.3125,-0.52522 z M 195.75,27.310674 c -0.9625,-0.251527 -2.5375,-0.251527 -3.5,0 -0.9625,0.251528 -0.175,0.457323 1.75,0.457323 1.925,0 2.7125,-0.205795 1.75,-0.457323 z m 55,0 c -0.9625,-0.251527 -2.5375,-0.251527 -3.5,0 -0.9625,0.251528 -0.175,0.457323 1.75,0.457323 1.925,0 2.7125,-0.205795 1.75,-0.457323 z m -45.5,-1.016407 c -1.2375,-0.238353 -3.2625,-0.238353 -4.5,0 -1.2375,0.238353 -0.225,0.433369 2.25,0.433369 2.475,0 3.4875,-0.195016 2.25,-0.433369 z m 36.5,-0.01052 c -1.5125,-0.229125 -3.9875,-0.229125 -5.5,0 -1.5125,0.229124 -0.275,0.41659 2.75,0.41659 3.025,0 4.2625,-0.187466 2.75,-0.41659 z m -14.96081,-1.021565 c -3.14095,-0.197808 -8.54095,-0.199425 -12,-0.0036 -3.45906,0.19583 -0.88919,0.357673 5.71081,0.35965 6.6,0.002 9.43013,-0.158247 6.28919,-0.356055 z"
     id="path3805"
     style="fill:#000000" />
</svg>
