<?xml version="1.0" encoding="UTF-8" standalone="no"?>
<!-- Created with Inkscape (http://www.inkscape.org/) -->

<svg
   xmlns:dc="http://purl.org/dc/elements/1.1/"
   xmlns:cc="http://creativecommons.org/ns#"
   xmlns:rdf="http://www.w3.org/1999/02/22-rdf-syntax-ns#"
   xmlns:svg="http://www.w3.org/2000/svg"
   xmlns="http://www.w3.org/2000/svg"
   version="1.1"
   width="640"
   height="480"
   id="svg3039">
  <metadata
     id="metadata3045">
    <rdf:RDF>
      <cc:Work
         rdf:about="">
        <dc:format>image/svg+xml</dc:format>
        <dc:type
           rdf:resource="http://purl.org/dc/dcmitype/StillImage" />
        <dc:title></dc:title>
      </cc:Work>
    </rdf:RDF>
  </metadata>
  <defs
     id="defs3043" />
  <path
     d="m 319,336 0,-141 -94,0 c -82.88889,0 -94,-0.1773 -94,-1.5 0,-1.3227 11.11111,-1.5 94,-1.5 l 94,0 0,-94 c 0,-82.888889 0.1773,-94 1.5,-94 1.3227,0 1.5,11.111111 1.5,94 l 0,94 94,0 c 82.88889,0 94,0.1773 94,1.5 0,1.3227 -11.11111,1.5 -94,1.5 l -94,0 0,141 c 0,124.66667 -0.17376,141 -1.5,141 -1.32624,0 -1.5,-16.33333 -1.5,-141 z m 1.74989,-71.25 c -0.14499,-38.6375 -0.26361,-7.025 -0.26361,70.25 0,77.275 0.11862,108.8875 0.26361,70.25 0.14499,-38.6375 0.14499,-101.8625 0,-140.5 z M 272.75,193.25024 c -25.7125,-0.14851 -67.7875,-0.14851 -93.5,0 -25.7125,0.14851 -4.675,0.27002 46.75,0.27002 51.425,0 72.4625,-0.12151 46.75,-0.27002 z m 189,0 c -25.7125,-0.14851 -67.7875,-0.14851 -93.5,0 -25.7125,0.14851 -4.675,0.27002 46.75,0.27002 51.425,0 72.4625,-0.12151 46.75,-0.27002 z M 320.74976,52.25 c -0.14851,-25.7125 -0.27002,-4.675 -0.27002,46.75 0,51.425 0.12151,72.4625 0.27002,46.75 0.14851,-25.7125 0.14851,-67.7875 0,-93.5 z"
     id="path3049"
     style="fill:#000000" />
</svg>
