<?xml version="1.0" encoding="UTF-8" standalone="no"?>
<!-- Created with Inkscape (http://www.inkscape.org/) -->

<svg
   xmlns:dc="http://purl.org/dc/elements/1.1/"
   xmlns:cc="http://creativecommons.org/ns#"
   xmlns:rdf="http://www.w3.org/1999/02/22-rdf-syntax-ns#"
   xmlns:svg="http://www.w3.org/2000/svg"
   xmlns="http://www.w3.org/2000/svg"
   version="1.1"
   width="640"
   height="480"
   id="svg3149">
  <metadata
     id="metadata3155">
    <rdf:RDF>
      <cc:Work
         rdf:about="">
        <dc:format>image/svg+xml</dc:format>
        <dc:type
           rdf:resource="http://purl.org/dc/dcmitype/StillImage" />
        <dc:title></dc:title>
      </cc:Work>
    </rdf:RDF>
  </metadata>
  <defs
     id="defs3153" />
  <path
     d="m 318,424 0,-54 -4.92764,0 c -6.27484,0 -18.83484,-1.70053 -26.57236,-3.5977 -6.03523,-1.47978 -6.85423,-1.76282 -13.78393,-4.76369 C 270.63491,360.73737 268.51915,360 268.01437,360 c -1.35464,0 -25.11356,-13.94918 -27.93126,-16.39882 -4.21518,-3.66456 -18.46926,-18.03041 -21.46594,-21.63426 -1.58556,-1.9068 -3.34529,-4.47942 -3.91051,-5.71692 C 214.14143,315.0125 213.3401,314 212.92593,314 212.1323,314 204,300.37968 204,299.05047 c 0,-0.42561 -1.41521,-3.87358 -3.14492,-7.66215 -5.21262,-11.41722 -9.85106,-31.48838 -9.85371,-42.63832 L 191,243 l -54,0 c -47.333333,0 -54,-0.18519 -54,-1.5 0,-1.31481 6.666667,-1.5 54,-1.5 l 54,0 0.001,-5.75 c 0.003,-13.53874 4.80525,-32.69479 11.96996,-47.75 5.80209,-12.19195 6.49804,-13.5 7.18268,-13.5 0.38457,0 2.07066,-2.3625 3.74687,-5.25 1.67621,-2.8875 4.74674,-7.08904 6.82339,-9.33676 2.07665,-2.24772 5.15837,-5.62272 6.84826,-7.5 C 235.54165,142.06043 259.65727,125 264.20197,125 c 0.74416,0 2.33838,-0.69017 3.5427,-1.53372 5.8046,-4.06569 26.51749,-9.25422 40.50533,-10.14647 l 9.75,-0.62193 0,-53.848941 C 318,11.649882 318.18524,5 319.5,5 c 1.31476,0 1.5,6.649882 1.5,53.848939 l 0,53.848941 9.89432,0.60279 c 13.10598,0.79845 31.94736,5.55901 41.97981,10.60685 1.99423,1.0034 6.10087,3.07379 9.12587,4.60088 6.2768,3.16867 11.07622,6.5162 21.30544,14.86025 9.2021,7.50622 13.60694,12.39287 24.00555,26.63135 10.7119,14.66744 19.17937,39.3103 20.35875,59.25 l 0.63584,10.75 53.84721,0 C 549.35031,240 556,240.18524 556,241.5 c 0,1.31481 -6.66667,1.5 -54,1.5 l -54,0 -0.003,6.25 c -0.007,14.49857 -5.43014,34.85557 -13.65203,51.25 -5.38993,10.7475 -9.29416,16.48532 -18.0316,26.5 -5.83175,6.68424 -20.747,20 -22.40241,20 -0.34967,0 -2.38514,1.39913 -4.52327,3.10917 -12.13174,9.70281 -44.39462,19.86389 -63.1375,19.88493 L 321,370 l 0,54 c 0,47.33333 -0.18519,54 -1.5,54 -1.31481,0 -1.5,-6.66667 -1.5,-54 z m 1.74929,-27.75 c -0.15585,-14.7125 -0.28337,-2.675 -0.28337,26.75 0,29.425 0.12752,41.4625 0.28337,26.75 0.15586,-14.7125 0.15586,-38.7875 0,-53.5 z m -3.98138,-27.96453 c -1.50265,-0.22817 -4.20265,-0.23276 -6,-0.0102 -1.79735,0.22256 -0.56791,0.40925 2.73209,0.41486 3.3,0.006 4.77056,-0.17648 3.26791,-0.40466 z m 14,0 c -1.50265,-0.22817 -4.20265,-0.23276 -6,-0.0102 -1.79735,0.22256 -0.56791,0.40925 2.73209,0.41486 3.3,0.006 4.77056,-0.17648 3.26791,-0.40466 z M 303.75,367.31067 c -0.9625,-0.25152 -2.5375,-0.25152 -3.5,0 -0.9625,0.25153 -0.175,0.45733 1.75,0.45733 1.925,0 2.7125,-0.2058 1.75,-0.45733 z m 35,0 c -0.9625,-0.25152 -2.5375,-0.25152 -3.5,0 -0.9625,0.25153 -0.175,0.45733 1.75,0.45733 1.925,0 2.7125,-0.2058 1.75,-0.45733 z m -42.5,-0.97295 c -0.6875,-0.27741 -1.8125,-0.27741 -2.5,0 -0.6875,0.27741 -0.125,0.50439 1.25,0.50439 1.375,0 1.9375,-0.22698 1.25,-0.50439 z M 339,365.54494 c 15.22755,-2.31343 39.99951,-11.56581 47.55777,-17.76294 1.61823,-1.3268 4.62973,-3.43224 6.69223,-4.67875 2.0625,-1.2465 3.75,-2.64934 3.75,-3.11742 0,-0.46808 0.7875,-1.10897 1.75,-1.42419 3.73391,-1.22289 19.66302,-18.29269 24.13053,-25.85854 1.36503,-2.3117 2.83829,-4.34909 3.27392,-4.52752 1.42158,-0.58226 9.63193,-18.46018 12.71103,-27.67808 8.66312,-25.93481 8.08083,-58.92341 -1.46503,-82.9975 C 431.54401,182.73042 427.76184,176.16506 417.52571,163 408.26392,151.08807 392.37948,137.75784 380,131.5084 c -3.025,-1.52709 -7.13164,-3.59748 -9.12587,-4.60088 -4.70341,-2.36652 -13.2546,-5.2521 -23.87413,-8.05626 -7.24821,-1.91394 -11.15084,-2.25235 -26.5,-2.29787 -11.78107,-0.0349 -20.24573,0.42699 -24.5,1.337 -8.55563,1.83011 -23.73718,6.81212 -26.36308,8.65137 -1.14507,0.80203 -2.69079,1.45824 -3.43495,1.45824 -2.14576,0 -14.93047,7.80012 -23.42358,14.29104 -8.35267,6.38358 -21.91171,20.69316 -25.78186,27.20896 -1.30672,2.2 -3.64051,5.56503 -5.18619,7.47784 -1.54569,1.91282 -2.81034,4.12328 -2.81034,4.91215 0,0.78886 -1.0867,3.28862 -2.4149,5.55501 -4.41502,7.53366 -8.68791,20.92642 -11.16251,34.98725 -3.6385,20.67426 -0.18757,48.07553 8.43249,66.95607 1.72971,3.78857 3.14492,7.25196 3.14492,7.69642 0,1.13272 7.11609,13.20032 8.50047,14.41526 0.62671,0.55 1.83998,2.13696 2.69616,3.52658 3.04882,4.94836 16.92508,19.65543 24.37101,25.83015 3.30752,2.74285 26.09087,16.14327 27.44673,16.14327 0.50478,0 2.62054,0.73737 4.7017,1.63861 6.60808,2.86159 7.68739,3.25274 12.28393,4.45175 14.89278,3.8848 36.02122,4.88213 52,2.45458 z m 6.25,0.79278 c -0.6875,-0.27741 -1.8125,-0.27741 -2.5,0 -0.6875,0.27741 -0.125,0.50439 1.25,0.50439 1.375,0 1.9375,-0.22698 1.25,-0.50439 z M 389.12756,348.25 c 1.24387,-1.58606 1.2085,-1.62143 -0.37756,-0.37756 -1.66575,1.30637 -2.19548,2.12756 -1.37244,2.12756 0.20765,0 0.99515,-0.7875 1.75,-1.75 z M 404.5,337 c 0.99549,-1.1 1.58498,-2 1.30998,-2 -0.275,0 -1.31449,0.9 -2.30998,2 -0.99549,1.1 -1.58498,2 -1.30998,2 0.275,0 1.31449,-0.9 2.30998,-2 z M 234,335.69617 c 0,-0.16711 -1.6875,-1.85461 -3.75,-3.75 L 226.5,328.5 l 3.44617,3.75 C 233.15378,335.74042 234,336.45979 234,335.69617 z M 412.5,329 c 0.99549,-1.1 1.58498,-2 1.30998,-2 -0.275,0 -1.31449,0.9 -2.30998,2 -0.99549,1.1 -1.58498,2 -1.30998,2 0.275,0 1.31449,-0.9 2.30998,-2 z m 8,-9 c 0.99549,-1.1 1.58498,-2 1.30998,-2 -0.275,0 -1.31449,0.9 -2.30998,2 -0.99549,1.1 -1.58498,2 -1.30998,2 0.275,0 1.31449,-0.9 2.30998,-2 z m 24.16228,-55.25 c -0.27741,-0.6875 -0.50439,-0.125 -0.50439,1.25 0,1.375 0.22698,1.9375 0.50439,1.25 0.27741,-0.6875 0.27741,-1.8125 0,-2.5 z m -250,-1 c -0.27741,-0.6875 -0.50439,-0.125 -0.50439,1.25 0,1.375 0.22698,1.9375 0.50439,1.25 0.27741,-0.6875 0.27741,-1.8125 0,-2.5 z m 251,-5 c -0.27741,-0.6875 -0.50439,-0.125 -0.50439,1.25 0,1.375 0.22698,1.9375 0.50439,1.25 0.27741,-0.6875 0.27741,-1.8125 0,-2.5 z m -252,-1 c -0.27741,-0.6875 -0.50439,-0.125 -0.50439,1.25 0,1.375 0.22698,1.9375 0.50439,1.25 0.27741,-0.6875 0.27741,-1.8125 0,-2.5 z M 446.7298,246.2723 c -0.21648,-2.07476 -0.39722,-0.6223 -0.40166,3.2277 -0.004,3.85 0.17268,5.54754 0.39359,3.7723 0.22091,-1.77523 0.22454,-4.92523 0.008,-7 z M 192.7234,245.75 c -0.22183,-1.7875 -0.40333,-0.325 -0.40333,3.25 0,3.575 0.1815,5.0375 0.40333,3.25 0.22182,-1.7875 0.22182,-4.7125 0,-6.5 z M 164.75,241.25071 c -14.7125,-0.15586 -38.7875,-0.15586 -53.5,0 -14.7125,0.15585 -2.675,0.28337 26.75,0.28337 29.425,0 41.4625,-0.12752 26.75,-0.28337 z m 363,0 c -14.7125,-0.15586 -38.7875,-0.15586 -53.5,0 -14.7125,0.15585 -2.675,0.28337 26.75,0.28337 29.425,0 41.4625,-0.12752 26.75,-0.28337 z M 192.7234,230.75 c -0.22183,-1.7875 -0.40333,-0.325 -0.40333,3.25 0,3.575 0.1815,5.0375 0.40333,3.25 0.22182,-1.7875 0.22182,-4.7125 0,-6.5 z m 254.0064,-0.4777 c -0.21648,-2.07476 -0.39722,-0.6223 -0.40166,3.2277 -0.004,3.85 0.17268,5.54754 0.39359,3.7723 0.22091,-1.77523 0.22454,-4.92523 0.008,-7 z M 193.66228,222.75 c -0.27741,-0.6875 -0.50439,-0.125 -0.50439,1.25 0,1.375 0.22698,1.9375 0.50439,1.25 0.27741,-0.6875 0.27741,-1.8125 0,-2.5 z m 252.02705,-2.5 c -0.25153,-0.9625 -0.45733,-0.175 -0.45733,1.75 0,1.925 0.2058,2.7125 0.45733,1.75 0.25152,-0.9625 0.25152,-2.5375 0,-3.5 z m -251.02705,-3.5 c -0.27741,-0.6875 -0.50439,-0.125 -0.50439,1.25 0,1.375 0.22698,1.9375 0.50439,1.25 0.27741,-0.6875 0.27741,-1.8125 0,-2.5 z M 429,174.62244 c 0,-0.20765 -0.7875,-0.99515 -1.75,-1.75 -1.58606,-1.24387 -1.62143,-1.2085 -0.37756,0.37756 1.30637,1.66575 2.12756,2.19548 2.12756,1.37244 z m -7,-9.96745 c 0,-0.18976 -1.0125,-1.20226 -2.25,-2.25 L 417.5,160.5 l 1.90499,2.25 C 421.19521,164.86444 422,165.45524 422,164.65499 z M 220.5,162 c 0.99549,-1.1 1.58498,-2 1.30998,-2 -0.275,0 -1.31449,0.9 -2.30998,2 -0.99549,1.1 -1.58498,2 -1.30998,2 0.275,0 1.31449,-0.9 2.30998,-2 z M 417,158.65499 c 0,-0.18976 -1.0125,-1.20226 -2.25,-2.25 L 412.5,154.5 l 1.90499,2.25 C 416.19521,158.86444 417,159.45524 417,158.65499 z M 228.5,153 c 0.99549,-1.1 1.58498,-2 1.30998,-2 -0.275,0 -1.31449,0.9 -2.30998,2 -0.99549,1.1 -1.58498,2 -1.30998,2 0.275,0 1.31449,-0.9 2.30998,-2 z m 6,-6 c 0.99549,-1.1 1.58498,-2 1.30998,-2 -0.275,0 -1.31449,0.9 -2.30998,2 -0.99549,1.1 -1.58498,2 -1.30998,2 0.275,0 1.31449,-0.9 2.30998,-2 z m 172.5,1.65499 c 0,-0.18976 -1.0125,-1.20226 -2.25,-2.25 L 402.5,144.5 l 1.90499,2.25 c 1.79022,2.11444 2.59501,2.70524 2.59501,1.90499 z m -6,-5 c 0,-0.18976 -1.0125,-1.20226 -2.25,-2.25 L 396.5,139.5 l 1.90499,2.25 C 400.19521,143.86444 401,144.45524 401,143.65499 z M 248.12756,136.25 c 1.24387,-1.58606 1.2085,-1.62143 -0.37756,-0.37756 -1.66575,1.30637 -2.19548,2.12756 -1.37244,2.12756 0.20765,0 0.99515,-0.7875 1.75,-1.75 z M 393,137.62244 c 0,-0.20765 -0.7875,-0.99515 -1.75,-1.75 -1.58606,-1.24387 -1.62143,-1.2085 -0.37756,0.37756 1.30637,1.66575 2.12756,2.19548 2.12756,1.37244 z M 291.25,117.33772 c -0.6875,-0.27741 -1.8125,-0.27741 -2.5,0 -0.6875,0.27741 -0.125,0.50439 1.25,0.50439 1.375,0 1.9375,-0.22698 1.25,-0.50439 z m 11.5,-2.02705 c -0.9625,-0.25152 -2.5375,-0.25152 -3.5,0 -0.9625,0.25153 -0.175,0.45733 1.75,0.45733 1.925,0 2.7125,-0.2058 1.75,-0.45733 z m 37,0 c -0.9625,-0.25152 -2.5375,-0.25152 -3.5,0 -0.9625,0.25153 -0.175,0.45733 1.75,0.45733 1.925,0 2.7125,-0.2058 1.75,-0.45733 z m -24.5,-1.03407 c -1.7875,-0.22182 -4.7125,-0.22182 -6.5,0 -1.7875,0.22183 -0.325,0.40333 3.25,0.40333 3.575,0 5.0375,-0.1815 3.25,-0.40333 z m 15,0 c -1.7875,-0.22182 -4.7125,-0.22182 -6.5,0 -1.7875,0.22183 -0.325,0.40333 3.25,0.40333 3.575,0 5.0375,-0.1815 3.25,-0.40333 z M 319.74929,33.25 c -0.15585,-14.7125 -0.28337,-2.675 -0.28337,26.75 0,29.425 0.12752,41.4625 0.28337,26.75 0.15586,-14.7125 0.15586,-38.7875 0,-53.5 z"
     id="path3159"
     style="fill:#000000" />
</svg>
