<?xml version="1.0" encoding="UTF-8" standalone="no"?>
<!-- Created with Inkscape (http://www.inkscape.org/) -->

<svg
   xmlns:dc="http://purl.org/dc/elements/1.1/"
   xmlns:cc="http://creativecommons.org/ns#"
   xmlns:rdf="http://www.w3.org/1999/02/22-rdf-syntax-ns#"
   xmlns:svg="http://www.w3.org/2000/svg"
   xmlns="http://www.w3.org/2000/svg"
   version="1.1"
   width="640"
   height="480"
   id="svg3259">
  <metadata
     id="metadata3265">
    <rdf:RDF>
      <cc:Work
         rdf:about="">
        <dc:format>image/svg+xml</dc:format>
        <dc:type
           rdf:resource="http://purl.org/dc/dcmitype/StillImage" />
        <dc:title></dc:title>
      </cc:Work>
    </rdf:RDF>
  </metadata>
  <defs
     id="defs3263" />
  <path
     d="m 278,476.5 c 0,-1.28455 2.94444,-1.5 20.5,-1.5 l 20.5,0 0,-57.29953 0,-57.29954 -10.75,-1.21033 c -12.98303,-1.46174 -26.52362,-4.99766 -36.25,-9.46613 -9.30201,-4.2735 -12.59771,-6.05617 -16,-8.6545 -1.925,-1.47012 -5.075,-3.65179 -7,-4.84814 -4.47707,-2.78243 -20.12796,-18.71288 -22.56869,-22.97183 -1.02439,-1.7875 -2.16752,-3.25 -2.54029,-3.25 -0.85519,0 -9.88971,-15.86977 -9.89476,-17.38084 -0.002,-0.61554 -0.79632,-2.46916 -1.76503,-4.11916 -3.15523,-5.37428 -7.63847,-21.57109 -8.71913,-31.5 -0.32923,-3.025 -0.83172,-7.4125 -1.11663,-9.75 L 201.87745,243 144.43873,243 87,243 l 0,20.5 c 0,17.55556 -0.215447,20.5 -1.5,20.5 -1.309804,0 -1.5,-5.38889 -1.5,-42.5 0,-37.11111 0.190196,-42.5 1.5,-42.5 1.284553,0 1.5,2.94444 1.5,20.5 l 0,20.5 57.43873,0 57.43872,0 0.58125,-4.75 c 2.31867,-18.94848 5.99435,-35.10305 8.57403,-37.68273 0.532,-0.532 0.96727,-1.64143 0.96727,-2.46541 0,-2.08829 9.37192,-18.468 14.36245,-25.10186 14.62788,-19.44469 37.28341,-34.96292 61.13755,-41.87704 8.65767,-2.50943 17.57922,-4.11863 22.93366,-4.13661 2.23649,-0.008 5.07884,-0.285 6.31634,-0.61664 L 319,122.76674 319,65.383369 319,8 298.5,8 C 280.94444,8 278,7.7845528 278,6.5 278,5.1901961 283.38889,5 320.5,5 357.61111,5 363,5.1901961 363,6.5 363,7.7845528 360.05556,8 342.5,8 l -20.5,0 0,57.454687 0,57.454683 3.25,0.49428 c 1.7875,0.27185 6.175,0.75183 9.75,1.06661 7.88652,0.69442 22.72217,4.41451 29.37712,7.36642 2.68241,1.18983 5.3039,2.16332 5.82553,2.16332 1.5692,0 14.78431,8.01009 21.24918,12.87979 8.34208,6.28373 21.61685,19.80925 26.22022,26.71549 2.10537,3.1586 4.81451,7.12932 6.0203,8.82382 1.2058,1.69449 2.21998,3.7559 2.25374,4.5809 0.0338,0.825 1.00846,3.05355 2.166,4.95234 4.32553,7.09547 9.09581,25.61394 10.3805,40.29766 l 0.67805,7.75 57.41468,0 57.41468,0 0,-20.5 c 0,-17.55556 0.21545,-20.5 1.5,-20.5 1.3098,0 1.5,5.38889 1.5,42.5 0,37.11111 -0.1902,42.5 -1.5,42.5 -1.28455,0 -1.5,-2.94444 -1.5,-20.5 l 0,-20.5 -57.5,0 -57.5,0 0,2.62166 c 0,5.96059 -3.22803,24.38913 -5.49637,31.37834 -4.02856,12.41275 -4.77559,14.12051 -10.72131,24.50948 -7.98723,13.95611 -21.02739,28.1122 -35.15254,38.16076 -4.20167,2.98905 -6.14093,4.08949 -16.28505,9.24105 -9.59437,4.87237 -27.02516,9.3066 -41.59473,10.5813 l -7.75,0.67805 0,57.41468 0,57.41468 20.5,0 c 17.55556,0 20.5,0.21545 20.5,1.5 0,1.3098 -5.38889,1.5 -42.5,1.5 -37.11111,0 -42.5,-0.1902 -42.5,-1.5 z m 31.80319,-0.24486 c -5.33324,-0.17945 -14.33324,-0.18018 -20,-0.002 -5.66675,0.17857 -1.30319,0.3254 9.69681,0.32628 11,8.9e-4 15.63644,-0.14522 10.30319,-0.32467 z m 42,0 c -5.33324,-0.17945 -14.33324,-0.18018 -20,-0.002 -5.66675,0.17857 -1.30319,0.3254 9.69681,0.32628 11,8.9e-4 15.63644,-0.14522 10.30319,-0.32467 z M 320.74927,388.17861 C 320.59462,372.40537 320.46821,385.6 320.46835,417.5 c 1.4e-4,31.9 0.12666,44.80537 0.28117,28.67861 0.1545,-16.12677 0.15439,-42.22677 -2.5e-4,-58 z m -2.98761,-29.86569 c -0.95609,-0.25029 -2.75609,-0.25937 -4,-0.0202 -1.24391,0.23919 -0.46166,0.44398 1.73834,0.45508 2.2,0.0111 3.21775,-0.18461 2.26166,-0.4349 z m 8.50737,0.0311 c -0.67703,-0.27392 -2.02703,-0.29059 -3,-0.0371 -0.97297,0.25354 -0.41903,0.47766 1.23097,0.49804 1.65,0.0204 2.44606,-0.18706 1.76903,-0.46099 z M 308.75,357.31067 c -0.9625,-0.25152 -2.5375,-0.25152 -3.5,0 -0.9625,0.25153 -0.175,0.45733 1.75,0.45733 1.925,0 2.7125,-0.2058 1.75,-0.45733 z m 26.5,-0.0164 c -1.2375,-0.23836 -3.2625,-0.23836 -4.5,0 -1.2375,0.23835 -0.225,0.43337 2.25,0.43337 2.475,0 3.4875,-0.19502 2.25,-0.43337 z m -34,-0.95655 c -0.6875,-0.27741 -1.8125,-0.27741 -2.5,0 -0.6875,0.27741 -0.125,0.50439 1.25,0.50439 1.375,0 1.9375,-0.22698 1.25,-0.50439 z m 41.58777,-1.93904 c 8.96497,-1.85154 20.81704,-5.60067 26.00696,-8.22672 2.0104,-1.01724 5.44436,-2.70958 7.63102,-3.76074 2.18666,-1.05117 4.67808,-2.60263 5.53647,-3.44769 0.8584,-0.84507 3.34432,-2.62296 5.52425,-3.95089 3.49133,-2.12676 8.30573,-6.11864 13.36453,-11.08123 0.87945,-0.86272 3.53726,-3.78772 5.90625,-6.5 2.36898,-2.71228 5.10999,-5.83141 6.09112,-6.93141 2.14603,-2.40603 12.49738,-20.23758 13.36647,-23.02548 0.33854,-1.08598 1.9407,-5.79952 3.56036,-10.47452 4.06776,-11.74125 6.58052,-29.99113 5.71396,-41.5 -1.14919,-15.2627 -5.86965,-34.07181 -10.42707,-41.54766 -1.15754,-1.89879 -2.13224,-4.12734 -2.166,-4.95234 -0.0338,-0.825 -1.04794,-2.88641 -2.25374,-4.5809 -1.20579,-1.6945 -3.86342,-5.5847 -5.90584,-8.64489 -4.50965,-6.75688 -17.10599,-19.61371 -25.33826,-25.86223 C 383.03921,145.04734 369.79629,137 368.19996,137 c -0.52311,0 -3.36959,-1.05473 -6.32553,-2.34384 -17.56655,-7.66094 -44.77444,-10.04861 -64.3965,-5.65121 -25.77674,5.77668 -49.57632,20.33418 -65.86811,40.28955 C 225.69839,176.53524 215,194.5444 215,197.25466 c 0,0.89502 -0.41385,1.88308 -0.91966,2.19569 -2.2439,1.38681 -6.36865,18.47565 -8.06686,33.42105 -1.77322,15.6055 2.91786,42.89806 9.21775,53.6286 0.96871,1.65 1.76298,3.52297 1.76503,4.16216 0.005,1.7046 7.91674,15.14092 10.65389,18.09435 1.29242,1.39455 2.34985,2.94759 2.34985,3.45122 0,1.32342 17.94695,19.16129 21.5,21.36933 1.65,1.02539 4.575,3.05718 6.5,4.5151 3.41829,2.58888 6.86506,4.44625 16,8.62194 20.67196,9.44941 46.39099,12.32051 68.83777,7.68458 z m -0.58777,1.93904 c -0.6875,-0.27741 -1.8125,-0.27741 -2.5,0 -0.6875,0.27741 -0.125,0.50439 1.25,0.50439 1.375,0 1.9375,-0.22698 1.25,-0.50439 z M 257,339.62244 c 0,-0.20765 -0.7875,-0.99515 -1.75,-1.75 -1.58606,-1.24387 -1.62143,-1.2085 -0.37756,0.37756 1.30637,1.66575 2.12756,2.19548 2.12756,1.37244 z M 398.5,329 c 0.99549,-1.1 1.58498,-2 1.30998,-2 -0.275,0 -1.31449,0.9 -2.30998,2 -0.99549,1.1 -1.58498,2 -1.30998,2 0.275,0 1.31449,-0.9 2.30998,-2 z M 244,329.71584 c 0,-0.15629 -2.5875,-2.74379 -5.75,-5.75 L 232.5,318.5 l 5.46584,5.75 C 243.04378,329.59193 244,330.45809 244,329.71584 z M 406.5,321 c 0.99549,-1.1 1.58498,-2 1.30998,-2 -0.275,0 -1.31449,0.9 -2.30998,2 -0.99549,1.1 -1.58498,2 -1.30998,2 0.275,0 1.31449,-0.9 2.30998,-2 z M 85.74486,252.19681 C 85.565406,246.86356 85.419303,251.5 85.420187,262.5 c 8.84e-4,11 0.147711,15.36356 0.326281,9.69681 0.17857,-5.66676 0.177846,-14.66676 -0.0016,-20 z m 470,0 C 555.56541,246.86356 555.4193,251.5 555.42019,262.5 c 8.8e-4,11 0.14771,15.36356 0.32628,9.69681 0.17857,-5.66676 0.17784,-14.66676 -0.002,-20 z M 434.66228,265.75 c -0.27741,-0.6875 -0.50439,-0.125 -0.50439,1.25 0,1.375 0.22698,1.9375 0.50439,1.25 0.27741,-0.6875 0.27741,-1.8125 0,-2.5 z m 1,-6 c -0.27741,-0.6875 -0.50439,-0.125 -0.50439,1.25 0,1.375 0.22698,1.9375 0.50439,1.25 0.27741,-0.6875 0.27741,-1.8125 0,-2.5 z m -230,-1 c -0.27741,-0.6875 -0.50439,-0.125 -0.50439,1.25 0,1.375 0.22698,1.9375 0.50439,1.25 0.27741,-0.6875 0.27741,-1.8125 0,-2.5 z m 231.02705,-6.5 c -0.25153,-0.9625 -0.45733,-0.175 -0.45733,1.75 0,1.925 0.2058,2.7125 0.45733,1.75 0.25152,-0.9625 0.25152,-2.5375 0,-3.5 z m -231.97175,-2.98625 c -0.22985,-1.52006 -0.42406,-0.51375 -0.43157,2.23625 -0.007,2.75 0.18056,3.99369 0.41792,2.76375 0.23736,-1.22994 0.24351,-3.47994 0.0136,-5 z M 437.68933,244.25 c -0.25153,-0.9625 -0.45733,-0.175 -0.45733,1.75 0,1.925 0.2058,2.7125 0.45733,1.75 0.25152,-0.9625 0.25152,-2.5375 0,-3.5 z m -263.86794,-2.99927 c -15.77323,-0.15464 -41.87323,-0.15475 -58,-2.5e-4 -16.126763,0.15451 -3.22139,0.28103 28.67861,0.28117 31.9,1.4e-4 45.09463,-0.12627 29.32139,-0.28092 z m 352,0 c -15.77323,-0.15464 -41.87323,-0.15475 -58,-2.5e-4 -16.12676,0.15451 -3.22139,0.28103 28.67861,0.28117 31.9,1.4e-4 45.09463,-0.12627 29.32139,-0.28092 z M 85.74486,210.19681 C 85.565406,204.86356 85.419303,209.5 85.420187,220.5 c 8.84e-4,11 0.147711,15.36356 0.326281,9.69681 0.17857,-5.66676 0.177846,-14.66676 -0.0016,-20 z m 351.94813,26.07222 c -0.25354,-0.97297 -0.47766,-0.41903 -0.49804,1.23097 -0.0204,1.65 0.18706,2.44606 0.46099,1.76903 0.27392,-0.67703 0.29059,-2.02703 0.0371,-3 z M 555.74486,210.19681 C 555.56541,204.86356 555.4193,209.5 555.42019,220.5 c 8.8e-4,11 0.14771,15.36356 0.32628,9.69681 0.17857,-5.66676 0.17784,-14.66676 -0.002,-20 z M 204.70573,229.75 c -0.23835,-1.2375 -0.43337,-0.225 -0.43337,2.25 0,2.475 0.19502,3.4875 0.43337,2.25 0.23836,-1.2375 0.23836,-3.2625 0,-4.5 z m 232,-3 c -0.23835,-1.2375 -0.43337,-0.225 -0.43337,2.25 0,2.475 0.19502,3.4875 0.43337,2.25 0.23836,-1.2375 0.23836,-3.2625 0,-4.5 z m -231.04345,-4 c -0.27741,-0.6875 -0.50439,-0.125 -0.50439,1.25 0,1.375 0.22698,1.9375 0.50439,1.25 0.27741,-0.6875 0.27741,-1.8125 0,-2.5 z m 230,-3 c -0.27741,-0.6875 -0.50439,-0.125 -0.50439,1.25 0,1.375 0.22698,1.9375 0.50439,1.25 0.27741,-0.6875 0.27741,-1.8125 0,-2.5 z m -229,-3 c -0.27741,-0.6875 -0.50439,-0.125 -0.50439,1.25 0,1.375 0.22698,1.9375 0.50439,1.25 0.27741,-0.6875 0.27741,-1.8125 0,-2.5 z M 421,180.62244 c 0,-0.20765 -0.7875,-0.99515 -1.75,-1.75 -1.58606,-1.24387 -1.62143,-1.2085 -0.37756,0.37756 1.30637,1.66575 2.12756,2.19548 2.12756,1.37244 z M 228.12756,171.25 c 1.24387,-1.58606 1.2085,-1.62143 -0.37756,-0.37756 -0.9625,0.75485 -1.75,1.54235 -1.75,1.75 0,0.82304 0.82119,0.29331 2.12756,-1.37244 z M 414,170.65499 c 0,-0.18976 -1.0125,-1.20226 -2.25,-2.25 L 409.5,166.5 l 1.90499,2.25 C 413.19521,170.86444 414,171.45524 414,170.65499 z M 237.12756,160.25 c 1.24387,-1.58606 1.2085,-1.62143 -0.37756,-0.37756 -0.9625,0.75485 -1.75,1.54235 -1.75,1.75 0,0.82304 0.82119,0.29331 2.12756,-1.37244 z M 406,161.65499 c 0,-0.18976 -1.0125,-1.20226 -2.25,-2.25 L 401.5,157.5 l 1.90499,2.25 C 405.19521,161.86444 406,162.45524 406,161.65499 z M 245.5,153 c 0.99549,-1.1 1.58498,-2 1.30998,-2 -0.275,0 -1.31449,0.9 -2.30998,2 -0.99549,1.1 -1.58498,2 -1.30998,2 0.275,0 1.31449,-0.9 2.30998,-2 z m 151.5,0.65499 c 0,-0.18976 -1.0125,-1.20226 -2.25,-2.25 L 392.5,149.5 l 1.90499,2.25 C 396.19521,153.86444 397,154.45524 397,153.65499 z M 251.12756,148.25 c 1.24387,-1.58606 1.2085,-1.62143 -0.37756,-0.37756 -0.9625,0.75485 -1.75,1.54235 -1.75,1.75 0,0.82304 0.82119,0.29331 2.12756,-1.37244 z M 388,146.62244 c 0,-0.20765 -0.7875,-0.99515 -1.75,-1.75 -1.58606,-1.24387 -1.62143,-1.2085 -0.37756,0.37756 1.30637,1.66575 2.12756,2.19548 2.12756,1.37244 z m -90.27083,-19.22661 c -0.33229,-0.33229 -1.1948,-0.36781 -1.91667,-0.0789 -0.79773,0.31922 -0.56078,0.55618 0.60417,0.60416 1.05416,0.0434 1.64479,-0.19292 1.3125,-0.52522 z m 5.52083,-1.05811 c -0.6875,-0.27741 -1.8125,-0.27741 -2.5,0 -0.6875,0.27741 -0.125,0.50439 1.25,0.50439 1.375,0 1.9375,-0.22698 1.25,-0.50439 z m 37,0 c -0.6875,-0.27741 -1.8125,-0.27741 -2.5,0 -0.6875,0.27741 -0.125,0.50439 1.25,0.50439 1.375,0 1.9375,-0.22698 1.25,-0.50439 z m -26.5,-1.05397 c -1.5125,-0.22913 -3.9875,-0.22913 -5.5,0 -1.5125,0.22912 -0.275,0.41659 2.75,0.41659 3.025,0 4.2625,-0.18747 2.75,-0.41659 z m 19,0 c -1.5125,-0.22913 -3.9875,-0.22913 -5.5,0 -1.5125,0.22912 -0.275,0.41659 2.75,0.41659 3.025,0 4.2625,-0.18747 2.75,-0.41659 z M 320.74927,36.178607 C 320.59462,20.405373 320.46821,33.6 320.46835,65.5 c 1.4e-4,31.9 0.12666,44.80537 0.28117,28.678607 0.1545,-16.126766 0.15439,-42.226766 -2.5e-4,-58 z M 309.80319,6.2551398 c -5.33324,-0.1794543 -14.33324,-0.1801777 -20,-0.00161 -5.66675,0.1785701 -1.30319,0.3253964 9.69681,0.3262806 11,8.842e-4 15.63644,-0.1452186 10.30319,-0.324673 z m 42,0 c -5.33324,-0.1794543 -14.33324,-0.1801777 -20,-0.00161 -5.66675,0.1785701 -1.30319,0.3253964 9.69681,0.3262806 11,8.842e-4 15.63644,-0.1452186 10.30319,-0.324673 z"
     id="path3269"
     style="fill:#000000" />
</svg>
