<?xml version="1.0" encoding="UTF-8" standalone="no"?>
<!-- Created with Inkscape (http://www.inkscape.org/) -->

<svg
   xmlns:dc="http://purl.org/dc/elements/1.1/"
   xmlns:cc="http://creativecommons.org/ns#"
   xmlns:rdf="http://www.w3.org/1999/02/22-rdf-syntax-ns#"
   xmlns:svg="http://www.w3.org/2000/svg"
   xmlns="http://www.w3.org/2000/svg"
   version="1.1"
   width="640"
   height="480"
   id="svg3589">
  <metadata
     id="metadata3595">
    <rdf:RDF>
      <cc:Work
         rdf:about="">
        <dc:format>image/svg+xml</dc:format>
        <dc:type
           rdf:resource="http://purl.org/dc/dcmitype/StillImage" />
        <dc:title></dc:title>
      </cc:Work>
    </rdf:RDF>
  </metadata>
  <defs
     id="defs3593" />
  <path
     d="m 310,476.0214 c -10.47015,-1.10029 -25.22368,-4.97388 -29.47251,-7.73811 C 279.44262,467.57748 277.94613,467 277.20197,467 275.80899,467 261.89319,459.23268 261,457.95661 c -0.275,-0.39288 -2.525,-2.26066 -5,-4.15062 -9.75013,-7.44541 -16.69229,-15.65234 -24.12107,-28.51563 -5.51757,-9.55393 -6.80957,-12.61937 -10.65918,-25.29036 -2.38769,-7.85908 -2.58241,-9.93265 -2.58241,-27.5 0,-19.8369 0.73542,-24.24149 6.68419,-40.03339 2.03502,-5.40226 10.93721,-20.72535 13.57066,-23.3588 1.1593,-1.1593 2.11171,-2.44531 2.11648,-2.85781 0.0126,-1.09027 5.85287,-7.06207 11.98016,-12.25 2.92315,-2.475 6.11792,-5.25892 7.09949,-6.1865 C 262.66495,285.37862 277.43315,277 279.14826,277 c 0.79846,0 1.88701,-0.43527 2.41901,-0.96727 1.39771,-1.39771 12.33927,-4.75029 21.68045,-6.64306 11.53166,-2.33661 32.91069,-1.44835 45.34646,1.88407 17.44033,4.67349 35.25923,14.77767 47.30682,26.82526 4.25241,4.25241 8.94297,9.69316 10.67687,12.3845 1.05717,1.64092 2.59713,3.67151 3.42213,4.51241 0.825,0.84091 2.58551,3.77334 3.91225,6.51651 1.32674,2.74317 3.02472,6.19976 3.7733,7.68132 2.30294,4.55789 6.15126,17.20535 7.37715,24.24491 1.6096,9.24303 0.67196,38.14475 -1.49434,46.06135 -1.90659,6.96749 -2.33688,8.12133 -5.78027,15.5 -1.41167,3.025 -2.82253,6.27489 -3.13524,7.22198 -0.31272,0.94709 -3.17504,5.4426 -6.36071,9.99002 -6.70698,9.57393 -16.72325,19.8439 -25.00296,25.63625 -6.0781,4.25215 -19.84717,11.24336 -26.77783,13.59638 -11.80368,4.00745 -32.52555,6.04651 -46.51135,4.57677 z m 32.38569,-3.64127 c 9.92777,-1.8834 14.1044,-3.30631 24.66058,-8.40148 10.8625,-5.24302 18.37236,-10.53348 26.74291,-18.83952 6.36561,-6.31655 17.63873,-21.20729 18.86367,-24.91715 0.31271,-0.94709 1.72357,-4.19698 3.13524,-7.22198 3.45249,-7.39817 3.87966,-8.54636 5.76653,-15.5 2.1642,-7.97571 3.06975,-33.09358 1.51496,-42.02183 -1.23174,-7.0732 -5.07628,-19.71703 -7.38403,-24.28443 -0.74858,-1.48156 -2.44656,-4.93815 -3.7733,-7.68132 -1.32674,-2.74317 -3.08725,-5.6756 -3.91225,-6.51651 -0.825,-0.8409 -2.36496,-2.87149 -3.42213,-4.51241 C 402.41678,309.12908 397.23202,303.299 392,298.34011 l -3.5,-3.31729 -0.27746,13.98859 C 387.99393,320.53751 387.68587,323 386.47254,323 385.24352,323 385,320.60206 385,308.5 l 0,-14.5 -14.5,0 c -12.22222,0 -14.5,-0.23563 -14.5,-1.5 0,-1.25951 2.20448,-1.50362 13.75,-1.52259 l 13.75,-0.0226 -5.5,-3.49157 c -10.00256,-6.34994 -21.38646,-11.51572 -31.00742,-14.07052 -12.9003,-3.42562 -30.53205,-4.27507 -41.71262,-2.0096 -9.36921,1.89845 -20.31317,5.25007 -21.71269,6.64959 -0.532,0.532 -1.60428,0.96727 -2.38285,0.96727 -2.01796,0 -18.05581,9.25076 -18.63704,10.75 -0.373,0.96211 2.61732,1.25 12.984,1.25 11.30544,0 13.46862,0.24091 13.46862,1.5 0,1.26437 -2.27778,1.5 -14.5,1.5 l -14.5,0 0,14.5 c 0,12.10206 -0.24352,14.5 -1.47254,14.5 -1.2141,0 -1.52124,-2.4781 -1.75,-14.1193 L 256.5,294.76141 l -4.07156,3.36929 c -2.23936,1.85312 -5.38936,5.0869 -7,7.18618 -1.61064,2.09929 -3.76445,4.7353 -4.78625,5.85781 -2.5722,2.82574 -11.47548,18.39361 -13.32066,23.29192 -5.77352,15.32668 -6.66863,20.43177 -6.66863,38.03339 0,15.39711 0.24276,17.80144 2.57463,25.5 3.83026,12.64537 5.12744,15.72537 10.6514,25.29036 7.42878,12.86329 14.37094,21.07022 24.12107,28.51563 2.475,1.88996 4.725,3.75774 5,4.15062 0.89319,1.27607 14.80899,9.04339 16.20197,9.04339 0.74416,0 2.24065,0.57748 3.32552,1.28329 4.29002,2.79103 19.10164,6.66192 29.47251,7.7024 9.25703,0.92872 20.02649,0.35967 30.38569,-1.60556 z M 257,358 c 0,-13.55556 0.22917,-16 1.5,-16 1.26437,0 1.5,2.27778 1.5,14.5 l 0,14.5 14.5,0 c 12.22222,0 14.5,0.23563 14.5,1.5 0,1.27083 -2.44444,1.5 -16,1.5 l -16,0 0,-16 z m 23.20625,14.25661 c -4.01156,-0.1903 -10.31156,-0.18902 -14,0.003 -3.68844,0.19185 -0.40625,0.34755 7.29375,0.34599 7.7,-0.002 10.71781,-0.15853 6.70625,-0.34883 z m -21.46286,-21.46286 c -0.1903,-4.01156 -0.34727,-0.99375 -0.34883,6.70625 -0.002,7.7 0.15414,10.98219 0.34599,7.29375 0.19186,-3.68844 0.19314,-9.98844 0.003,-14 z M 308,372.5 c 0,-1.26437 2.27778,-1.5 14.5,-1.5 12.22222,0 14.5,0.23563 14.5,1.5 0,1.26437 -2.27778,1.5 -14.5,1.5 -12.22222,0 -14.5,-0.23563 -14.5,-1.5 z m 21.29159,-0.23932 c -3.41463,-0.19467 -9.26463,-0.19611 -13,-0.003 -3.73538,0.19293 -0.94159,0.35221 6.20841,0.35396 7.15,0.002 10.20621,-0.1561 6.79159,-0.35078 z M 356,372.5 c 0,-1.26437 2.27778,-1.5 14.5,-1.5 l 14.5,0 0,-14.5 c 0,-12.22222 0.23563,-14.5 1.5,-14.5 1.27083,0 1.5,2.44444 1.5,16 l 0,16 -16,0 c -13.55556,0 -16,-0.22917 -16,-1.5 z m 22.20625,-0.24339 c -4.01156,-0.1903 -10.31156,-0.18902 -14,0.003 -3.68844,0.19185 -0.40625,0.34755 7.29375,0.34599 7.7,-0.002 10.71781,-0.15853 6.70625,-0.34883 z m 8.53714,-21.46286 c -0.1903,-4.01156 -0.34727,-0.99375 -0.34883,6.70625 -0.002,7.7 0.15414,10.98219 0.34599,7.29375 0.19186,-3.68844 0.19314,-9.98844 0.003,-14 z M 308,292.5 c 0,-1.26437 2.27778,-1.5 14.5,-1.5 12.22222,0 14.5,0.23563 14.5,1.5 0,1.26437 -2.27778,1.5 -14.5,1.5 -12.22222,0 -14.5,-0.23563 -14.5,-1.5 z m 21.29159,-0.23932 c -3.41463,-0.19467 -9.26463,-0.19611 -13,-0.003 -3.73538,0.19293 -0.94159,0.35221 6.20841,0.35396 7.15,0.002 10.20621,-0.1561 6.79159,-0.35078 z m -70.5482,8.53307 c -0.1903,-4.01156 -0.34727,-0.99375 -0.34883,6.70625 -0.002,7.7 0.15414,10.98219 0.34599,7.29375 0.19186,-3.68844 0.19314,-9.98844 0.003,-14 z m 128,0 c -0.1903,-4.01156 -0.34727,-0.99375 -0.34883,6.70625 -0.002,7.7 0.15414,10.98219 0.34599,7.29375 0.19186,-3.68844 0.19314,-9.98844 0.003,-14 z m -106.53714,-8.53714 c -4.01156,-0.1903 -10.31156,-0.18902 -14,0.003 -3.68844,0.19185 -0.40625,0.34755 7.29375,0.34599 7.7,-0.002 10.71781,-0.15853 6.70625,-0.34883 z m 98,0 c -4.01156,-0.1903 -10.31156,-0.18902 -14,0.003 -3.68844,0.19185 -0.40625,0.34755 7.29375,0.34599 7.7,-0.002 10.71781,-0.15853 6.70625,-0.34883 z M 213,109.5 C 213,22.256634 213.22372,5 214.35477,5 c 0.74512,0 16.11742,24.6375 34.16066,54.75 18.04324,30.1125 33.31688,55.50669 33.94143,56.43154 0.95262,1.41068 6.58763,-7.40847 34.98256,-54.750001 C 336.05528,30.394193 351.89699,5 352.64322,5 353.77694,5 354,22.18037 354,109.5 c 0,92.22222 -0.17624,104.5 -1.5,104.5 -1.3234,0 -1.50018,-11.86179 -1.50153,-100.75 l -0.002,-100.75 -32.99486,55 c -20.24395,33.74517 -33.57733,55 -34.50208,55 -0.92475,0 -14.25813,-21.25483 -34.50208,-55 l -32.99486,-55 -0.002,100.75 C 216.00018,202.13821 215.8234,214 214.5,214 213.17624,214 213,201.72222 213,109.5 z m 1.74979,-49.25 c -0.14769,-27.9125 -0.26853,-5.075 -0.26853,50.75 0,55.825 0.12084,78.6625 0.26853,50.75 0.1477,-27.9125 0.1477,-73.5875 0,-101.5 z m 138,0 c -0.14769,-27.9125 -0.26853,-5.075 -0.26853,50.75 0,55.825 0.12084,78.6625 0.26853,50.75 0.1477,-27.9125 0.1477,-73.5875 0,-101.5 z"
     id="path3601"
     style="fill:#000000" />
</svg>
