<?xml version="1.0" encoding="UTF-8" standalone="no"?>
<!-- Created with Inkscape (http://www.inkscape.org/) -->

<svg
   xmlns:dc="http://purl.org/dc/elements/1.1/"
   xmlns:cc="http://creativecommons.org/ns#"
   xmlns:rdf="http://www.w3.org/1999/02/22-rdf-syntax-ns#"
   xmlns:svg="http://www.w3.org/2000/svg"
   xmlns="http://www.w3.org/2000/svg"
   version="1.1"
   width="640"
   height="480"
   id="svg3479">
  <metadata
     id="metadata3485">
    <rdf:RDF>
      <cc:Work
         rdf:about="">
        <dc:format>image/svg+xml</dc:format>
        <dc:type
           rdf:resource="http://purl.org/dc/dcmitype/StillImage" />
        <dc:title></dc:title>
      </cc:Work>
    </rdf:RDF>
  </metadata>
  <defs
     id="defs3483" />
  <path
     d="M 291.24342,448.74353 C 275.70954,433.20248 263,419.92748 263,419.24353 263,418.55959 263.55943,418 264.24318,418 c 0.68375,0 13.28375,12.03437 28,26.74305 L 319,471.48611 319,356.74305 319,242 l -114.74305,0 -114.74306,0 26.74306,26.75682 C 130.96563,283.47307 143,296.07307 143,296.75682 143,297.44057 142.43454,298 141.74342,298 140.27456,298 84,241.96267 84,240.5 c 0,-1.46267 56.27456,-57.5 57.74342,-57.5 0.69112,0 1.25658,0.55943 1.25658,1.24318 0,0.68375 -12.03437,13.28375 -26.74305,28 L 89.51389,239 204.25695,239 319,239 319,124.25695 319,9.5138901 292.24318,36.256945 C 277.52693,50.965625 264.92693,63 264.24318,63 263.55943,63 263,62.434539 263,61.743421 263,60.274563 319.03733,4 320.5,4 321.96267,4 378,60.274563 378,61.743421 378,62.434539 377.44057,63 376.75682,63 c -0.68375,0 -13.28375,-12.034375 -28,-26.743055 L 322,9.5138901 322,124.25695 322,239 l 114.74305,0 114.74306,0 -26.74306,-26.75682 C 510.03437,197.52693 498,184.92693 498,184.24318 498,183.55943 498.56546,183 499.25658,183 500.73383,183 557,239.04169 557,240.51305 557,241.97535 500.7127,298 499.24353,298 498.55959,298 498,297.44057 498,296.75682 c 0,-0.68375 12.03437,-13.28375 26.74305,-28 L 551.48611,242 436.74305,242 322,242 l 0,114.74305 0,114.74306 26.75682,-26.74306 C 363.47307,430.03437 376.07307,418 376.75682,418 377.44057,418 378,418.56546 378,419.25658 378,420.73383 321.95831,477 320.48695,477 319.93689,477 306.7773,464.28459 291.24342,448.74353 z M 319,473.74305 c 0,-0.14131 -12.2625,-12.40381 -27.25,-27.25 L 264.5,419.5 291.49305,446.75 C 316.57733,472.07305 319,474.45046 319,473.74305 z M 349.50695,446.75 376.5,419.5 349.25,446.49305 c -14.9875,14.84619 -27.25,27.10869 -27.25,27.25 0,0.70741 2.42267,-1.67 27.50695,-26.99305 z M 320.74981,299.17288 C 320.6033,267.45279 320.48346,293.7 320.4835,357.5 c 4e-5,63.8 0.11991,89.75279 0.26637,57.67288 0.14647,-32.07992 0.14644,-84.27992 -6e-5,-116 z M 141,295.74305 c 0,-0.14131 -12.2625,-12.40381 -27.25,-27.25 L 86.5,241.5 113.49305,268.75 C 138.57733,294.07305 141,296.45046 141,295.74305 z M 527.50695,268.75 554.5,241.5 527.25,268.49305 C 501.92695,293.57733 499.54954,296 500.25695,296 c 0.14131,0 12.40381,-12.2625 27.25,-27.25 z M 261.82712,240.25019 c -31.72008,-0.1465 -83.92008,-0.14653 -116,-6e-5 -32.07991,0.14646 -6.12712,0.26633 57.67288,0.26637 63.8,4e-5 90.04721,-0.1198 58.32712,-0.26631 z m 234,0 c -31.72008,-0.1465 -83.92008,-0.14653 -116,-6e-5 -32.07991,0.14646 -6.12712,0.26633 57.67288,0.26637 63.8,4e-5 90.04721,-0.1198 58.32712,-0.26631 z M 114.50695,211.75 141.5,184.5 114.25,211.49305 C 99.2625,226.33924 87,238.60174 87,238.74305 c 0,0.70741 2.422666,-1.67 27.50695,-26.99305 z M 320.74981,65.172876 C 320.6033,33.452794 320.48346,59.7 320.4835,123.5 c 4e-5,63.8 0.11991,89.75279 0.26637,57.67288 0.14647,-32.07992 0.14644,-84.279923 -6e-5,-116.000004 z M 554,238.74305 c 0,-0.14131 -12.2625,-12.40381 -27.25,-27.25 L 499.5,184.5 526.49305,211.75 C 551.57733,237.07305 554,239.45046 554,238.74305 z M 292.50695,33.75 319.5,6.5 292.25,33.493055 C 277.2625,48.339235 265,60.601735 265,60.743055 265,61.45046 267.42267,59.073054 292.50695,33.75 z M 376,60.743055 c 0,-0.14132 -12.2625,-12.40382 -27.25,-27.25 L 321.5,6.5 348.49305,33.75 C 373.57733,59.073054 376,61.45046 376,60.743055 z"
     id="path3489"
     style="fill:#000000" />
</svg>
