<?xml version="1.0" encoding="UTF-8" standalone="no"?>
<!-- Created with Inkscape (http://www.inkscape.org/) -->

<svg
   xmlns:dc="http://purl.org/dc/elements/1.1/"
   xmlns:cc="http://creativecommons.org/ns#"
   xmlns:rdf="http://www.w3.org/1999/02/22-rdf-syntax-ns#"
   xmlns:svg="http://www.w3.org/2000/svg"
   xmlns="http://www.w3.org/2000/svg"
   version="1.1"
   width="640"
   height="480"
   id="svg3701">
  <metadata
     id="metadata3707">
    <rdf:RDF>
      <cc:Work
         rdf:about="">
        <dc:format>image/svg+xml</dc:format>
        <dc:type
           rdf:resource="http://purl.org/dc/dcmitype/StillImage" />
        <dc:title></dc:title>
      </cc:Work>
    </rdf:RDF>
  </metadata>
  <defs
     id="defs3705" />
  <path
     d="m 177.56317,473.92132 c -10.92682,-9.59387 -16.10553,-31.87738 -13.64303,-58.70469 0.64199,-6.99415 1.85234,-16.54163 2.68965,-21.21663 2.99754,-16.73623 12.04462,-50.57137 15.98545,-59.78393 0.77262,-1.80616 1.40476,-3.95862 1.40476,-4.78324 0,-0.82462 1.125,-3.7194 2.5,-6.43283 1.375,-2.71343 2.5,-5.56077 2.5,-6.32742 0,-1.66272 19.1205,-46.22112 22.60239,-52.67258 1.33577,-2.475 3.31939,-6.525 4.40804,-9 3.00835,-6.83932 13.71889,-26.92963 22.30641,-41.84128 C 242.54258,205.82102 246,199.6877 246,199.52912 246,199.37055 228.675,189.00453 207.5,176.49353 184.24143,162.75148 169,153.15649 169,152.2565 c 0,-0.96294 0.66132,-1.31682 1.87011,-1.00072 1.02855,0.26898 18.32639,10.22516 38.43962,22.12485 20.11324,11.89969 37.2679,21.9038 38.12147,22.23134 0.97072,0.3725 1.80095,-0.0987 2.21684,-1.25822 0.98315,-2.74105 6.42567,-11.42449 19.87789,-31.71477 C 282.20804,143.51025 284.02635,140.93655 296,125.16658 309.19589,107.78685 313.26872,102.60372 317.43018,97.894279 319.66858,95.361133 323.75,90.663222 326.5,87.454477 336.89995,75.319639 347.82303,63.994321 360.69523,52 367.17579,45.961412 369.94217,43.541894 382.03992,33.331613 386.1947,29.825058 392.94003,25.123889 402,19.420412 419.34196,8.5032141 437.21883,2.9223026 449.80847,4.4952743 456.41704,5.3209603 463,7.9361863 463,9.7359 c 0,1.41324 -4.58123,1.750699 -5.41663,0.398996 C 457.28931,9.6590896 454.36329,8.7414695 451.08111,8.0957409 433.79481,4.6948684 406.52163,17.213879 377.5,41.871153 c -10.89556,9.257051 -39.99832,38.088675 -48,47.552798 -2.75,3.252611 -6.83142,7.975336 -9.06982,10.494944 -4.15146,4.673015 -8.1515,9.758905 -21.43018,27.247685 -11.97365,15.76997 -13.79196,18.34367 -26.47407,37.4724 -14.55111,21.94777 -19.07019,29.19775 -19.91746,31.95365 -0.5749,1.86999 3.18881,4.35643 35.37409,23.3694 C 309.828,232.8669 324,241.82792 324,242.73603 c 0,0.97038 -0.65824,1.3251 -1.8706,1.00806 -1.02883,-0.26904 -14.41633,-7.91624 -29.75,-16.99377 -15.33367,-9.07752 -31.31094,-18.52981 -35.50505,-21.00509 l -7.62566,-4.5005 -8.87434,15.58442 C 230.87386,233.51314 222.27322,249.7 219.03019,257 c -1.09952,2.475 -3.09203,6.525 -4.4278,9 C 211.1205,272.45146 192,317.00986 192,318.67258 c 0,0.76665 -1.125,3.61399 -2.5,6.32742 -1.375,2.71343 -2.5,5.60821 -2.5,6.43283 0,0.82462 -0.63214,2.97708 -1.40476,4.78324 -3.9531,9.24124 -13.01721,43.16034 -15.9759,59.78393 -5.58366,31.37223 -3.53513,55.82949 5.83657,69.68218 1.92823,2.85019 4.86447,5.98472 6.52498,6.9656 1.66051,0.98089 3.01911,2.36141 3.01911,3.06783 0,2.289 -3.84196,1.36204 -7.43683,-1.79429 z M 179,472.62244 c 0,-0.20765 -0.7875,-0.99515 -1.75,-1.75 -1.58606,-1.24387 -1.62143,-1.2085 -0.37756,0.37756 1.30637,1.66575 2.12756,2.19548 2.12756,1.37244 z M 166.66228,445.75 c -0.27741,-0.6875 -0.50439,-0.125 -0.50439,1.25 0,1.375 0.22698,1.9375 0.50439,1.25 0.27741,-0.6875 0.27741,-1.8125 0,-2.5 z m -0.95655,-9 c -0.23835,-1.2375 -0.43337,-0.225 -0.43337,2.25 0,2.475 0.19502,3.4875 0.43337,2.25 0.23836,-1.2375 0.23836,-3.2625 0,-4.5 z m -0.981,-11.98209 c -0.22256,-1.79735 -0.40925,-0.56791 -0.41486,2.73209 -0.006,3.3 0.17648,4.77056 0.40466,3.26791 0.22817,-1.50265 0.23276,-4.20265 0.0102,-6 z m 0.99285,-11.50416 c -0.22985,-1.52006 -0.42406,-0.51375 -0.43157,2.23625 -0.007,2.75 0.18056,3.99369 0.41792,2.76375 0.23736,-1.22994 0.24351,-3.47994 0.0136,-5 z m 0.98968,-9.50209 c -0.23919,-1.24391 -0.44398,-0.46166 -0.45508,1.73834 -0.0111,2.2 0.18461,3.21775 0.4349,2.26166 0.25029,-0.95609 0.25937,-2.75609 0.0202,-4 z m 0.97585,-5.94916 c -0.31922,-0.79773 -0.55618,-0.56078 -0.60416,0.60417 -0.0434,1.05416 0.19292,1.64479 0.52522,1.3125 0.33229,-0.33229 0.36781,-1.1948 0.0789,-1.91667 z m 0.97917,-6.0625 c -0.27741,-0.6875 -0.50439,-0.125 -0.50439,1.25 0,1.375 0.22698,1.9375 0.50439,1.25 0.27741,-0.6875 0.27741,-1.8125 0,-2.5 z m 1,-6 c -0.27741,-0.6875 -0.50439,-0.125 -0.50439,1.25 0,1.375 0.22698,1.9375 0.50439,1.25 0.27741,-0.6875 0.27741,-1.8125 0,-2.5 z m 7.02083,-27.9375 c -0.31922,-0.79773 -0.55618,-0.56078 -0.60416,0.60417 -0.0434,1.05416 0.19292,1.64479 0.52522,1.3125 0.33229,-0.33229 0.36781,-1.1948 0.0789,-1.91667 z m 6,-19 c -0.31922,-0.79773 -0.55618,-0.56078 -0.60416,0.60417 -0.0434,1.05416 0.19292,1.64479 0.52522,1.3125 0.33229,-0.33229 0.36781,-1.1948 0.0789,-1.91667 z m 3,-9 c -0.31922,-0.79773 -0.55618,-0.56078 -0.60416,0.60417 -0.0434,1.05416 0.19292,1.64479 0.52522,1.3125 0.33229,-0.33229 0.36781,-1.1948 0.0789,-1.91667 z m 5,-13 c -0.31922,-0.79773 -0.55618,-0.56078 -0.60416,0.60417 -0.0434,1.05416 0.19292,1.64479 0.52522,1.3125 0.33229,-0.33229 0.36781,-1.1948 0.0789,-1.91667 z M 293.12756,132.25 c 1.24387,-1.58606 1.2085,-1.62143 -0.37756,-0.37756 -1.66575,1.30637 -2.19548,2.12756 -1.37244,2.12756 0.20765,0 0.99515,-0.7875 1.75,-1.75 z M 306.5,115 c 0.99549,-1.1 1.58498,-2 1.30998,-2 -0.275,0 -1.31449,0.9 -2.30998,2 -0.99549,1.1 -1.58498,2 -1.30998,2 0.275,0 1.31449,-0.9 2.30998,-2 z M 319,99.5 c 1.86578,-1.925 3.16733,-3.5 2.89233,-3.5 -0.275,0 -2.02655,1.575 -3.89233,3.5 -1.86578,1.925 -3.16733,3.5 -2.89233,3.5 0.275,0 2.02655,-1.575 3.89233,-3.5 z M 339.5,76 c 2.70865,-2.75 4.69982,-5 4.42482,-5 -0.275,0 -2.71617,2.25 -5.42482,5 -2.70865,2.75 -4.69982,5 -4.42482,5 0.275,0 2.71617,-2.25 5.42482,-5 z M 364,51.291792 c 0,-0.750886 -0.89783,0.04302 -5.04179,4.458208 L 354.5,60.5 l 4.75,-4.458208 c 2.6125,-2.452014 4.75,-4.589514 4.75,-4.75 z M 371.5,45 c 0.99549,-1.1 1.58498,-2 1.30998,-2 -0.275,0 -1.31449,0.9 -2.30998,2 -0.99549,1.1 -1.58498,2 -1.30998,2 0.275,0 1.31449,-0.9 2.30998,-2 z M 384,34.5 c 1.29175,-1.375 2.12363,-2.5 1.84863,-2.5 -0.275,0 -1.55688,1.125 -2.84863,2.5 -1.29175,1.375 -2.12363,2.5 -1.84863,2.5 0.275,0 1.55688,-1.125 2.84863,-2.5 z M 433.72917,7.3958333 c -0.33229,-0.3322916 -1.1948,-0.3678179 -1.91667,-0.078947 -0.79773,0.3192263 -0.56078,0.5561827 0.60417,0.6041666 1.05416,0.043421 1.64479,-0.1929276 1.3125,-0.5252193 z M 439.25,6.3377193 c -0.6875,-0.2774123 -1.8125,-0.2774123 -2.5,0 -0.6875,0.2774123 -0.125,0.504386 1.25,0.504386 1.375,0 1.9375,-0.2269737 1.25,-0.504386 z m 13.47917,0.058114 c -0.33229,-0.3322916 -1.1948,-0.3678179 -1.91667,-0.078947 -0.79773,0.3192263 -0.56078,0.5561827 0.60417,0.6041666 1.05416,0.043421 1.64479,-0.1929276 1.3125,-0.5252193 z M 446.75,5.3106745 c -0.9625,-0.2515276 -2.5375,-0.2515276 -3.5,0 -0.9625,0.2515275 -0.175,0.4573228 1.75,0.4573228 1.925,0 2.7125,-0.2057953 1.75,-0.4573228 z M 422.81108,353.05235 c -8.76121,-1.70444 -19.39245,-8.62479 -26.1963,-17.05235 -5.45293,-6.75425 -8.12902,-16.11003 -8.05718,-28.16841 0.0544,-9.13321 0.27034,-10.10194 3.90073,-17.5 9.48109,-19.32076 29.81836,-28.9101 50.54221,-23.83146 8.84956,2.1687 13.93803,4.93736 20.60597,11.21183 7.7092,7.25429 11.73355,15.73782 12.87975,27.15118 0.65316,6.50395 -0.63873,17.49793 -2.46832,21.00527 -0.46811,0.89738 -1.36311,3.02135 -1.98889,4.71994 -1.52897,4.15019 -9.74513,12.61518 -16.33746,16.83224 -8.23862,5.27018 -22.33148,7.684 -32.88051,5.63176 z m 10.95058,-0.73943 c -0.95609,-0.25029 -2.75609,-0.25937 -4,-0.0202 -1.24391,0.23919 -0.46166,0.44398 1.73834,0.45508 2.2,0.0111 3.21775,-0.18461 2.26166,-0.4349 z m -8.51166,-0.9752 c -0.6875,-0.27741 -1.8125,-0.27741 -2.5,0 -0.6875,0.27741 -0.125,0.50439 1.25,0.50439 1.375,0 1.9375,-0.22698 1.25,-0.50439 z m 15,0 c -0.6875,-0.27741 -1.8125,-0.27741 -2.5,0 -0.6875,0.27741 -0.125,0.50439 1.25,0.50439 1.375,0 1.9375,-0.22698 1.25,-0.50439 z m 0.45651,-1.91213 c 10.20444,-2.10778 17.47986,-6.76886 25.55295,-16.37078 1.51771,-1.80512 3.04226,-4.46841 3.38789,-5.91842 0.34563,-1.45002 0.97691,-3.08639 1.40283,-3.63639 0.42593,-0.55 1.27598,-3.77006 1.88901,-7.15568 2.41428,-13.33341 -2.39487,-27.41541 -12.50486,-36.61631 -6.22976,-5.66959 -10.89998,-8.13656 -19.30059,-10.19524 -8.92152,-2.18633 -16.13142,-1.46058 -24.87492,2.50392 -9.81722,4.45133 -15.43243,9.83038 -20.31574,19.46126 -3.83327,7.55998 -4.22995,9.04015 -4.3314,16.1621 -0.24446,17.16144 8.11088,31.13966 22.99265,38.46593 10.22781,5.03513 14.86317,5.62109 26.10218,3.29961 z M 460.12756,342.25 c 1.24387,-1.58606 1.2085,-1.62143 -0.37756,-0.37756 -1.66575,1.30637 -2.19548,2.12756 -1.37244,2.12756 0.20765,0 0.99515,-0.7875 1.75,-1.75 z m 14.53472,-26.5 c -0.27741,-0.6875 -0.50439,-0.125 -0.50439,1.25 0,1.375 0.22698,1.9375 0.50439,1.25 0.27741,-0.6875 0.27741,-1.8125 0,-2.5 z m -84.9447,-8.48625 c -0.22985,-1.52006 -0.42406,-0.51375 -0.43157,2.23625 -0.007,2.75 0.18056,3.99369 0.41792,2.76375 0.23736,-1.22994 0.24351,-3.47994 0.0136,-5 z m 85.97175,0.98625 c -0.25153,-0.9625 -0.45733,-0.175 -0.45733,1.75 0,1.925 0.2058,2.7125 0.45733,1.75 0.25152,-0.9625 0.25152,-2.5375 0,-3.5 z m -1,-8 c -0.25153,-0.9625 -0.45733,-0.175 -0.45733,1.75 0,1.925 0.2058,2.7125 0.45733,1.75 0.25152,-0.9625 0.25152,-2.5375 0,-3.5 z m -84.02705,-0.5 c -0.27741,-0.6875 -0.50439,-0.125 -0.50439,1.25 0,1.375 0.22698,1.9375 0.50439,1.25 0.27741,-0.6875 0.27741,-1.8125 0,-2.5 z m 10.46528,-19.5 c 1.24387,-1.58606 1.2085,-1.62143 -0.37756,-0.37756 -1.66575,1.30637 -2.19548,2.12756 -1.37244,2.12756 0.20765,0 0.99515,-0.7875 1.75,-1.75 z M 461,277.65499 c 0,-0.18976 -1.0125,-1.20226 -2.25,-2.25 L 456.5,273.5 l 1.90499,2.25 c 1.79022,2.11444 2.59501,2.70524 2.59501,1.90499 z m -35.75,-10.31727 c -0.6875,-0.27741 -1.8125,-0.27741 -2.5,0 -0.6875,0.27741 -0.125,0.50439 1.25,0.50439 1.375,0 1.9375,-0.22698 1.25,-0.50439 z m 10.01375,-1.04165 c -1.22994,-0.23736 -3.47994,-0.24351 -5,-0.0136 -1.52006,0.22985 -0.51375,0.42406 2.23625,0.43157 2.75,0.007 3.99369,-0.18056 2.76375,-0.41792 z"
     id="path3711"
     style="fill:#000000" />
</svg>
