<?xml version="1.0" encoding="UTF-8" standalone="no"?>
<!-- Created with Inkscape (http://www.inkscape.org/) -->

<svg
   xmlns:dc="http://purl.org/dc/elements/1.1/"
   xmlns:cc="http://creativecommons.org/ns#"
   xmlns:rdf="http://www.w3.org/1999/02/22-rdf-syntax-ns#"
   xmlns:svg="http://www.w3.org/2000/svg"
   xmlns="http://www.w3.org/2000/svg"
   version="1.1"
   width="640"
   height="480"
   id="svg3369">
  <metadata
     id="metadata3375">
    <rdf:RDF>
      <cc:Work
         rdf:about="">
        <dc:format>image/svg+xml</dc:format>
        <dc:type
           rdf:resource="http://purl.org/dc/dcmitype/StillImage" />
        <dc:title></dc:title>
      </cc:Work>
    </rdf:RDF>
  </metadata>
  <defs
     id="defs3373" />
  <path
     d="M 63.176676,475.48477 C 63.598399,473.5084 575.08872,4.0052028 576.82332,4.0022515 c 0.72783,-0.00124 1.17783,0.680427 1,1.5148119 C 577.4018,7.4948973 65.9121,476.99638 64.176676,476.99844 c -0.727828,8.6e-4 -1.177828,-0.68029 -1,-1.51367 z M 68,472.5 c 1.291745,-1.375 2.123628,-2.5 1.848628,-2.5 -0.275,0 -1.556883,1.125 -2.848628,2.5 -1.291745,1.375 -2.123628,2.5 -1.848628,2.5 0.275,0 1.556883,-1.125 2.848628,-2.5 z m 9.5,-8.5 c 2.708649,-2.75 4.699816,-5 4.424816,-5 -0.275,0 -2.716167,2.25 -5.424816,5 -2.708649,2.75 -4.699816,5 -4.424816,5 0.275,0 2.716167,-2.25 5.424816,-5 z m 12,-11 c 2.708649,-2.75 4.699816,-5 4.424816,-5 -0.275,0 -2.716167,2.25 -5.424816,5 -2.708649,2.75 -4.699816,5 -4.424816,5 0.275,0 2.716167,-2.25 5.424816,-5 z m 12,-11 c 2.70865,-2.75 4.69982,-5 4.42482,-5 -0.275,0 -2.71617,2.25 -5.42482,5 -2.708649,2.75 -4.699816,5 -4.424816,5 0.275,0 2.716167,-2.25 5.424816,-5 z m 12,-11 c 2.70865,-2.75 4.69982,-5 4.42482,-5 -0.275,0 -2.71617,2.25 -5.42482,5 -2.70865,2.75 -4.69982,5 -4.42482,5 0.275,0 2.71617,-2.25 5.42482,-5 z M 126,419.5 c 2.98742,-3.025 5.20668,-5.5 4.93168,-5.5 -0.275,0 -2.94426,2.475 -5.93168,5.5 -2.98742,3.025 -5.20668,5.5 -4.93168,5.5 0.275,0 2.94426,-2.475 5.93168,-5.5 z M 138.5,408 c 2.70865,-2.75 4.69982,-5 4.42482,-5 -0.275,0 -2.71617,2.25 -5.42482,5 -2.70865,2.75 -4.69982,5 -4.42482,5 0.275,0 2.71617,-2.25 5.42482,-5 z m 12,-11 c 2.70865,-2.75 4.69982,-5 4.42482,-5 -0.275,0 -2.71617,2.25 -5.42482,5 -2.70865,2.75 -4.69982,5 -4.42482,5 0.275,0 2.71617,-2.25 5.42482,-5 z m 12,-11 c 2.70865,-2.75 4.69982,-5 4.42482,-5 -0.275,0 -2.71617,2.25 -5.42482,5 -2.70865,2.75 -4.69982,5 -4.42482,5 0.275,0 2.71617,-2.25 5.42482,-5 z m 12,-11 c 2.70865,-2.75 4.69982,-5 4.42482,-5 -0.275,0 -2.71617,2.25 -5.42482,5 -2.70865,2.75 -4.69982,5 -4.42482,5 0.275,0 2.71617,-2.25 5.42482,-5 z m 12,-11 c 2.70865,-2.75 4.69982,-5 4.42482,-5 -0.275,0 -2.71617,2.25 -5.42482,5 -2.70865,2.75 -4.69982,5 -4.42482,5 0.275,0 2.71617,-2.25 5.42482,-5 z M 199,352.5 c 2.98742,-3.025 5.20668,-5.5 4.93168,-5.5 -0.275,0 -2.94426,2.475 -5.93168,5.5 -2.98742,3.025 -5.20668,5.5 -4.93168,5.5 0.275,0 2.94426,-2.475 5.93168,-5.5 z M 211.5,341 c 2.70865,-2.75 4.69982,-5 4.42482,-5 -0.275,0 -2.71617,2.25 -5.42482,5 -2.70865,2.75 -4.69982,5 -4.42482,5 0.275,0 2.71617,-2.25 5.42482,-5 z m 12,-11 c 2.70865,-2.75 4.69982,-5 4.42482,-5 -0.275,0 -2.71617,2.25 -5.42482,5 -2.70865,2.75 -4.69982,5 -4.42482,5 0.275,0 2.71617,-2.25 5.42482,-5 z m 12,-11 c 2.70865,-2.75 4.69982,-5 4.42482,-5 -0.275,0 -2.71617,2.25 -5.42482,5 -2.70865,2.75 -4.69982,5 -4.42482,5 0.275,0 2.71617,-2.25 5.42482,-5 z m 12,-11 c 2.70865,-2.75 4.69982,-5 4.42482,-5 -0.275,0 -2.71617,2.25 -5.42482,5 -2.70865,2.75 -4.69982,5 -4.42482,5 0.275,0 2.71617,-2.25 5.42482,-5 z M 260,296.5 c 2.98742,-3.025 5.20668,-5.5 4.93168,-5.5 -0.275,0 -2.94426,2.475 -5.93168,5.5 -2.98742,3.025 -5.20668,5.5 -4.93168,5.5 0.275,0 2.94426,-2.475 5.93168,-5.5 z M 272.5,285 c 2.70865,-2.75 4.69982,-5 4.42482,-5 -0.275,0 -2.71617,2.25 -5.42482,5 -2.70865,2.75 -4.69982,5 -4.42482,5 0.275,0 2.71617,-2.25 5.42482,-5 z m 12,-11 c 2.70865,-2.75 4.69982,-5 4.42482,-5 -0.275,0 -2.71617,2.25 -5.42482,5 -2.70865,2.75 -4.69982,5 -4.42482,5 0.275,0 2.71617,-2.25 5.42482,-5 z m 12,-11 c 2.70865,-2.75 4.69982,-5 4.42482,-5 -0.275,0 -2.71617,2.25 -5.42482,5 -2.70865,2.75 -4.69982,5 -4.42482,5 0.275,0 2.71617,-2.25 5.42482,-5 z m 12,-11 c 2.70865,-2.75 4.69982,-5 4.42482,-5 -0.275,0 -2.71617,2.25 -5.42482,5 -2.70865,2.75 -4.69982,5 -4.42482,5 0.275,0 2.71617,-2.25 5.42482,-5 z M 321,240.5 c 2.98742,-3.025 5.20668,-5.5 4.93168,-5.5 -0.275,0 -2.94426,2.475 -5.93168,5.5 -2.98742,3.025 -5.20668,5.5 -4.93168,5.5 0.275,0 2.94426,-2.475 5.93168,-5.5 z M 333.5,229 c 2.70865,-2.75 4.69982,-5 4.42482,-5 -0.275,0 -2.71617,2.25 -5.42482,5 -2.70865,2.75 -4.69982,5 -4.42482,5 0.275,0 2.71617,-2.25 5.42482,-5 z m 12,-11 c 2.70865,-2.75 4.69982,-5 4.42482,-5 -0.275,0 -2.71617,2.25 -5.42482,5 -2.70865,2.75 -4.69982,5 -4.42482,5 0.275,0 2.71617,-2.25 5.42482,-5 z m 12,-11 c 2.70865,-2.75 4.69982,-5 4.42482,-5 -0.275,0 -2.71617,2.25 -5.42482,5 -2.70865,2.75 -4.69982,5 -4.42482,5 0.275,0 2.71617,-2.25 5.42482,-5 z m 12,-11 c 2.70865,-2.75 4.69982,-5 4.42482,-5 -0.275,0 -2.71617,2.25 -5.42482,5 -2.70865,2.75 -4.69982,5 -4.42482,5 0.275,0 2.71617,-2.25 5.42482,-5 z M 382,184.5 c 2.98742,-3.025 5.20668,-5.5 4.93168,-5.5 -0.275,0 -2.94426,2.475 -5.93168,5.5 -2.98742,3.025 -5.20668,5.5 -4.93168,5.5 0.275,0 2.94426,-2.475 5.93168,-5.5 z M 394.5,173 c 2.70865,-2.75 4.69982,-5 4.42482,-5 -0.275,0 -2.71617,2.25 -5.42482,5 -2.70865,2.75 -4.69982,5 -4.42482,5 0.275,0 2.71617,-2.25 5.42482,-5 z m 12,-11 c 2.70865,-2.75 4.69982,-5 4.42482,-5 -0.275,0 -2.71617,2.25 -5.42482,5 -2.70865,2.75 -4.69982,5 -4.42482,5 0.275,0 2.71617,-2.25 5.42482,-5 z m 12,-11 c 2.70865,-2.75 4.69982,-5 4.42482,-5 -0.275,0 -2.71617,2.25 -5.42482,5 -2.70865,2.75 -4.69982,5 -4.42482,5 0.275,0 2.71617,-2.25 5.42482,-5 z m 12,-11 c 2.70865,-2.75 4.69982,-5 4.42482,-5 -0.275,0 -2.71617,2.25 -5.42482,5 -2.70865,2.75 -4.69982,5 -4.42482,5 0.275,0 2.71617,-2.25 5.42482,-5 z m 12,-11 c 2.70865,-2.75 4.69982,-5 4.42482,-5 -0.275,0 -2.71617,2.25 -5.42482,5 -2.70865,2.75 -4.69982,5 -4.42482,5 0.275,0 2.71617,-2.25 5.42482,-5 z M 455,117.5 c 2.98742,-3.025 5.20668,-5.5 4.93168,-5.5 -0.275,0 -2.94426,2.475 -5.93168,5.5 -2.98742,3.025 -5.20668,5.5 -4.93168,5.5 0.275,0 2.94426,-2.475 5.93168,-5.5 z M 467.5,106 c 2.70865,-2.75 4.69982,-5 4.42482,-5 -0.275,0 -2.71617,2.25 -5.42482,5 -2.70865,2.75 -4.69982,5 -4.42482,5 0.275,0 2.71617,-2.25 5.42482,-5 z m 12,-11 c 2.70865,-2.75 4.69982,-5 4.42482,-5 -0.275,0 -2.71617,2.25 -5.42482,5 -2.70865,2.75 -4.69982,5 -4.42482,5 0.275,0 2.71617,-2.25 5.42482,-5 z m 12,-11 c 2.70865,-2.75 4.69982,-5 4.42482,-5 -0.275,0 -2.71617,2.25 -5.42482,5 -2.70865,2.75 -4.69982,5 -4.42482,5 0.275,0 2.71617,-2.25 5.42482,-5 z m 12,-11 c 2.70865,-2.75 4.69982,-5 4.42482,-5 -0.275,0 -2.71617,2.25 -5.42482,5 -2.70865,2.75 -4.69982,5 -4.42482,5 0.275,0 2.71617,-2.25 5.42482,-5 z M 516,61.5 c 2.98742,-3.025 5.20668,-5.5 4.93168,-5.5 -0.275,0 -2.94426,2.475 -5.93168,5.5 -2.98742,3.025 -5.20668,5.5 -4.93168,5.5 0.275,0 2.94426,-2.475 5.93168,-5.5 z M 528.5,50 c 2.70865,-2.75 4.69982,-5 4.42482,-5 -0.275,0 -2.71617,2.25 -5.42482,5 -2.70865,2.75 -4.69982,5 -4.42482,5 0.275,0 2.71617,-2.25 5.42482,-5 z m 12,-11 c 2.70865,-2.75 4.69982,-5 4.42482,-5 -0.275,0 -2.71617,2.25 -5.42482,5 -2.70865,2.75 -4.69982,5 -4.42482,5 0.275,0 2.71617,-2.25 5.42482,-5 z m 12,-11 c 2.70865,-2.75 4.69982,-5 4.42482,-5 -0.275,0 -2.71617,2.25 -5.42482,5 -2.70865,2.75 -4.69982,5 -4.42482,5 0.275,0 2.71617,-2.25 5.42482,-5 z m 12,-11 c 2.70865,-2.75 4.69982,-5 4.42482,-5 -0.275,0 -2.71617,2.25 -5.42482,5 -2.70865,2.75 -4.69982,5 -4.42482,5 0.275,0 2.71617,-2.25 5.42482,-5 z M 574,8.5 c 1.29175,-1.375 2.12363,-2.5 1.84863,-2.5 -0.275,0 -1.55688,1.125 -2.84863,2.5 -1.29175,1.375 -2.12363,2.5 -1.84863,2.5 0.275,0 1.55688,-1.125 2.84863,-2.5 z"
     id="path3379"
     style="fill:#000000" />
</svg>
