<?xml version="1.0" encoding="UTF-8" standalone="no"?>
<!-- Created with Inkscape (http://www.inkscape.org/) -->

<svg
   xmlns:dc="http://purl.org/dc/elements/1.1/"
   xmlns:cc="http://creativecommons.org/ns#"
   xmlns:rdf="http://www.w3.org/1999/02/22-rdf-syntax-ns#"
   xmlns:svg="http://www.w3.org/2000/svg"
   xmlns="http://www.w3.org/2000/svg"
   version="1.1"
   width="640"
   height="480"
   id="svg3811">
  <metadata
     id="metadata3817">
    <rdf:RDF>
      <cc:Work
         rdf:about="">
        <dc:format>image/svg+xml</dc:format>
        <dc:type
           rdf:resource="http://purl.org/dc/dcmitype/StillImage" />
        <dc:title></dc:title>
      </cc:Work>
    </rdf:RDF>
  </metadata>
  <defs
     id="defs3815" />
  <path
     d="m 191,475.50382 c 0,-1.31905 15.02003,-1.52624 126.86805,-1.75 L 444.73609,473.5 440.8847,468 c -2.11826,-3.025 -5.09638,-7.47492 -6.61804,-9.88871 -1.52166,-2.41379 -3.78235,-5.63254 -5.02374,-7.15277 -3.48706,-4.27032 -22.22571,-37.16518 -28.17418,-49.45852 -4.93635,-10.20165 -6.30977,-13.15948 -11.14397,-24 -0.98107,-2.2 -2.98843,-7.15 -4.4608,-11 -1.47238,-3.85 -3.12361,-8.125 -3.66941,-9.5 -1.78333,-4.49263 -8.60757,-25.32696 -10.80909,-33 -11.17672,-38.95463 -16.65911,-74.82336 -17.69364,-115.76121 -0.53416,-21.13799 -0.72485,-23.05482 -2.08913,-21 -8.04501,12.1171 -18.95633,17.48927 -33.61187,16.54873 -12.48812,-0.80144 -21.53094,-6.41193 -27.90045,-17.31045 -5.78093,-9.89145 -6.78933,-20.05808 -3.10082,-31.26251 2.78814,-8.46941 9.46798,-15.73592 18.41044,-20.02738 4.79868,-2.30287 6.77644,-2.64248 15.51026,-2.66331 10.00138,-0.0238 10.01703,-0.02 17.62673,4.33394 8.58575,4.91239 13.71211,10.7295 16.4495,18.66601 1.46742,4.25446 1.68768,8.60205 1.51871,29.97618 -0.45326,57.33449 7.55978,108.49899 24.58829,157 1.35172,3.85 3.28699,9.53134 4.30061,12.6252 3.17394,9.68785 8.32157,21.61169 19.15699,44.3748 7.26988,15.27259 27.67913,49.85301 36.29709,61.5 C 448.52748,471.919 450,474.15567 450,475.50865 450,476.82277 434.6105,477 320.5,477 206.20235,477 191,476.82436 191,475.50382 z m 192.75,-0.25369 c -35.0625,-0.14571 -92.4375,-0.14571 -127.5,0 -35.0625,0.14572 -6.375,0.26494 63.75,0.26494 70.125,0 98.8125,-0.11922 63.75,-0.26494 z M 448,473.62244 c 0,-0.20765 -0.7875,-0.99515 -1.75,-1.75 -1.58606,-1.24387 -1.62143,-1.2085 -0.37756,0.37756 1.30637,1.66575 2.12756,2.19548 2.12756,1.37244 z m -7,-9.96745 c 0,-0.18976 -1.0125,-1.20226 -2.25,-2.25 L 436.5,459.5 l 1.90499,2.25 C 440.19521,463.86444 441,464.45524 441,463.65499 z M 362.66228,279.75 c -0.27741,-0.6875 -0.50439,-0.125 -0.50439,1.25 0,1.375 0.22698,1.9375 0.50439,1.25 0.27741,-0.6875 0.27741,-1.8125 0,-2.5 z m -2,-12 c -0.27741,-0.6875 -0.50439,-0.125 -0.50439,1.25 0,1.375 0.22698,1.9375 0.50439,1.25 0.27741,-0.6875 0.27741,-1.8125 0,-2.5 z m -1,-6 c -0.27741,-0.6875 -0.50439,-0.125 -0.50439,1.25 0,1.375 0.22698,1.9375 0.50439,1.25 0.27741,-0.6875 0.27741,-1.8125 0,-2.5 z m -0.97295,-7.5 c -0.25153,-0.9625 -0.45733,-0.175 -0.45733,1.75 0,1.925 0.2058,2.7125 0.45733,1.75 0.25152,-0.9625 0.25152,-2.5375 0,-3.5 z m -1,-8 c -0.25153,-0.9625 -0.45733,-0.175 -0.45733,1.75 0,1.925 0.2058,2.7125 0.45733,1.75 0.25152,-0.9625 0.25152,-2.5375 0,-3.5 z m -0.9836,-9.5 c -0.23835,-1.2375 -0.43337,-0.225 -0.43337,2.25 0,2.475 0.19502,3.4875 0.43337,2.25 0.23836,-1.2375 0.23836,-3.2625 0,-4.5 z m -0.98948,-13.5 c -0.22912,-1.5125 -0.41659,-0.275 -0.41659,2.75 0,3.025 0.18747,4.2625 0.41659,2.75 0.22913,-1.5125 0.22913,-3.9875 0,-5.5 z m -0.97118,-33.5 c -0.18149,-5.0875 -0.32999,-0.925 -0.32999,9.25 0,10.175 0.1485,14.3375 0.32999,9.25 0.18149,-5.0875 0.18149,-13.4125 0,-18.5 z m -30.97716,12.53547 c -1.50265,-0.22817 -4.20265,-0.23276 -6,-0.0102 -1.79735,0.22256 -0.56791,0.40925 2.73209,0.41486 3.3,0.006 4.77056,-0.17648 3.26791,-0.40466 z m 5.03927,-2.45142 c 6.01057,-1.49334 10.72338,-4.46515 15.54556,-9.80273 5.97231,-6.61064 8.6286,-13.24335 8.62294,-21.53132 -0.009,-13.38642 -4.97753,-21.78798 -16.96542,-28.68864 -7.15384,-4.11801 -7.84898,-4.30948 -15.5,-4.26934 -10.56794,0.0554 -17.00644,2.93514 -24.22479,10.83482 -5.0305,5.50532 -6.51344,8.56937 -8.28725,17.12316 -2.2968,11.07574 5.77482,27.31092 16.50178,33.19152 7.58274,4.15691 15.89767,5.2319 24.30718,3.14253 z M 301,196.65499 c 0,-0.18976 -1.0125,-1.20226 -2.25,-2.25 L 296.5,192.5 l 1.90499,2.25 C 300.19521,196.86444 301,197.45524 301,196.65499 z M 344.5,193 c 2.14824,-2.2 3.6809,-4 3.4059,-4 -0.275,0 -2.25766,1.8 -4.4059,4 -2.14824,2.2 -3.6809,4 -3.4059,4 0.275,0 2.25766,-1.8 4.4059,-4 z m 10.16228,-20.25 c -0.27741,-0.6875 -0.50439,-0.125 -0.50439,1.25 0,1.375 0.22698,1.9375 0.50439,1.25 0.27741,-0.6875 0.27741,-1.8125 0,-2.5 z m -68,-1 c -0.27741,-0.6875 -0.50439,-0.125 -0.50439,1.25 0,1.375 0.22698,1.9375 0.50439,1.25 0.27741,-0.6875 0.27741,-1.8125 0,-2.5 z m -0.97917,-4.9375 c -0.31922,-0.79773 -0.55618,-0.56078 -0.60416,0.60417 -0.0434,1.05416 0.19293,1.64479 0.52522,1.3125 0.33229,-0.3323 0.36781,-1.1948 0.0789,-1.91667 z m 69.00622,-5.5625 c -0.25153,-0.9625 -0.45733,-0.175 -0.45733,1.75 0,1.925 0.2058,2.7125 0.45733,1.75 0.25152,-0.9625 0.25152,-2.5375 0,-3.5 z m -68.02705,-0.5 c -0.27741,-0.6875 -0.50439,-0.125 -0.50439,1.25 0,1.375 0.22698,1.9375 0.50439,1.25 0.27741,-0.6875 0.27741,-1.8125 0,-2.5 z M 349,147.62244 c 0,-0.20765 -0.7875,-0.99515 -1.75,-1.75 -1.58606,-1.24387 -1.62143,-1.2085 -0.37756,0.37756 1.30637,1.66575 2.12756,2.19548 2.12756,1.37244 z M 299.5,141 c 0.99549,-1.1 1.58498,-2 1.30998,-2 -0.275,0 -1.31449,0.9 -2.30998,2 -0.99549,1.1 -1.58498,2 -1.30998,2 0.275,0 1.31449,-0.9 2.30998,-2 z m 24.26791,-7.71453 c -1.50265,-0.22817 -4.20265,-0.23276 -6,-0.0102 -1.79735,0.22256 -0.56791,0.40925 2.73209,0.41486 3.3,0.006 4.77056,-0.17648 3.26791,-0.40466 z M 204,282.62037 C 204,280.99946 265.22266,221 266.87661,221 267.49448,221 268,221.62084 268,222.37963 268,224.00054 206.77734,284 205.12339,284 204.50552,284 204,283.37916 204,282.62037 z M 221,267.5 c 7.96077,-7.975 14.24913,-14.5 13.97413,-14.5 -0.275,0 -7.01336,6.525 -14.97413,14.5 -7.96077,7.975 -14.24913,14.5 -13.97413,14.5 0.275,0 7.01336,-6.525 14.97413,-14.5 z m 31,-30 c 7.96077,-7.975 14.24913,-14.5 13.97413,-14.5 -0.275,0 -7.01336,6.525 -14.97413,14.5 -7.96077,7.975 -14.24913,14.5 -13.97413,14.5 0.275,0 7.01336,-6.525 14.97413,-14.5 z m 151.71116,16.21156 C 386.7773,237.0952 372.9398,222.9375 372.96116,222.25 c 0.0214,-0.6875 0.54436,-1.25 1.16223,-1.25 1.65395,0 62.87661,59.99946 62.87661,61.62037 0,0.75879 -0.5625,1.36233 -1.25,1.34119 -0.6875,-0.0211 -15.10498,-13.63364 -32.03884,-30.25 z M 435,281.73707 c 0,-0.14462 -6.6375,-6.78212 -14.75,-14.75 L 405.5,252.5 419.98707,267.25 C 433.44515,280.95235 435,282.45273 435,281.73707 z m -31,-30 c 0,-0.14462 -6.6375,-6.78212 -14.75,-14.75 L 374.5,222.5 388.98707,237.25 C 402.44515,250.95235 404,252.45273 404,251.73707 z M 157,167.5 c 0,-1.31061 5.55556,-1.5 44,-1.5 38.44444,0 44,0.18939 44,1.5 0,1.31061 -5.55556,1.5 -44,1.5 -38.44444,0 -44,-0.18939 -44,-1.5 z m 65.25,-0.24891 c -11.6875,-0.15998 -30.8125,-0.15998 -42.5,0 -11.6875,0.15998 -2.125,0.29087 21.25,0.29087 23.375,0 32.9375,-0.13089 21.25,-0.29087 z M 396,167.5 c 0,-1.31061 5.55556,-1.5 44,-1.5 38.44444,0 44,0.18939 44,1.5 0,1.31061 -5.55556,1.5 -44,1.5 -38.44444,0 -44,-0.18939 -44,-1.5 z m 65.25,-0.24891 c -11.6875,-0.15998 -30.8125,-0.15998 -42.5,0 -11.6875,0.15998 -2.125,0.29087 21.25,0.29087 23.375,0 32.9375,-0.13089 21.25,-0.29087 z M 234.71116,84.71156 C 217.7773,68.095202 203.9398,53.9375 203.96116,53.25 203.98252,52.5625 204.50552,52 205.12339,52 206.77734,52 268,111.99946 268,113.62037 c 0,0.75879 -0.5625,1.36233 -1.25,1.34119 -0.6875,-0.0211 -15.10498,-13.63364 -32.03884,-30.25 z M 266,112.73707 c 0,-0.14462 -6.6375,-6.78212 -14.75,-14.750005 L 236.5,83.5 250.98707,98.25 C 264.44515,111.95235 266,113.45273 266,112.73707 z M 235,82.737065 c 0,-0.144614 -6.6375,-6.782114 -14.75,-14.75 L 205.5,53.5 219.98707,68.25 C 233.44515,81.952345 235,83.452731 235,82.737065 z M 373,113.62037 C 373,111.99946 434.22266,52 435.87661,52 436.49448,52 437,52.620835 437,53.379634 437,55.000536 375.77734,115 374.12339,115 373.50552,115 373,114.37916 373,113.62037 z M 390,98.5 c 7.96077,-7.975 14.24913,-14.5 13.97413,-14.5 -0.275,0 -7.01336,6.525 -14.97413,14.5 -7.96077,7.975 -14.24913,14.5 -13.97413,14.5 0.275,0 7.01336,-6.525 14.97413,-14.5 z m 31,-30 C 428.96077,60.525 435.24913,54 434.97413,54 434.69913,54 427.96077,60.525 420,68.5 412.03923,76.475 405.75087,83 406.02587,83 406.30087,83 413.03923,76.475 421,68.5 z M 319,48.5 C 319,9.6111111 319.18914,4 320.5,4 321.81086,4 322,9.6111111 322,48.5 322,87.388889 321.81086,93 320.5,93 319.18914,93 319,87.388889 319,48.5 z m 1.74914,-21.18235 C 320.58951,15.317943 320.45871,24.85 320.45848,48.5 c -2.4e-4,23.65 0.13037,33.467943 0.29023,21.81765 0.15987,-11.650292 0.16007,-31.000292 4.3e-4,-43 z"
     id="path3821"
     style="fill:#000000" />
</svg>
