<?xml version="1.0" encoding="UTF-8" standalone="no"?>
<!-- Created with Inkscape (http://www.inkscape.org/) -->

<svg
   xmlns:dc="http://purl.org/dc/elements/1.1/"
   xmlns:cc="http://creativecommons.org/ns#"
   xmlns:rdf="http://www.w3.org/1999/02/22-rdf-syntax-ns#"
   xmlns:svg="http://www.w3.org/2000/svg"
   xmlns="http://www.w3.org/2000/svg"
   version="1.1"
   width="640"
   height="480"
   id="svg3921">
  <metadata
     id="metadata3927">
    <rdf:RDF>
      <cc:Work
         rdf:about="">
        <dc:format>image/svg+xml</dc:format>
        <dc:type
           rdf:resource="http://purl.org/dc/dcmitype/StillImage" />
        <dc:title></dc:title>
      </cc:Work>
    </rdf:RDF>
  </metadata>
  <defs
     id="defs3925" />
  <path
     d="M 127.62606,433.13986 C 103.49539,408.99694 83.920392,388.73904 84.126059,388.1223 84.331727,387.50557 136.48093,354.26325 200.01318,314.25048 263.54543,274.23772 315.52636,241.05 315.52636,240.5 c 0,-0.55 -51.98093,-33.73772 -115.51318,-73.75048 C 136.48093,126.73675 84.331727,93.494433 84.126059,92.877696 83.632179,91.396692 171.13012,3.885117 172.75799,4.2319629 c 0.69189,0.1474204 34.0719,52.3760021 74.17779,116.0635171 40.10589,63.68751 73.20979,115.79547 73.56422,115.79547 0.35443,0 33.45833,-52.10796 73.56422,-115.79547 C 434.17011,56.607965 467.55012,4.3793833 468.24201,4.2319629 469.87218,3.8846262 557.36741,91.397755 556.87298,92.881056 556.66679,93.499641 504.29851,126.8806 440.49904,167.06097 376.69957,207.24133 324.5,240.2889 324.5,240.5 c 0,0.2111 52.2,33.25516 116,73.43124 63.8,40.17607 116.12062,73.61471 116.26804,74.30808 0.34703,1.63224 -87.16449,89.12853 -88.6491,88.63366 C 467.50036,476.66679 434.1194,424.29851 393.93903,360.49904 353.75867,296.69957 320.7111,244.5 320.5,244.5 c -0.2111,0 -33.25516,52.2 -73.43124,116 -40.17607,63.8 -73.61471,116.12062 -74.30808,116.26804 -0.69338,0.14742 -21.00395,-19.48526 -45.13462,-43.62818 z M 172,474.74564 c 0,-0.1399 -19.4625,-19.6024 -43.25,-43.25 L 85.5,388.5 128.49564,431.75 C 168.45858,471.94936 172,475.44937 172,474.74564 z M 512.5,432 c 23.6452,-23.65 42.76628,-43 42.49128,-43 -0.275,0 -19.84608,19.35 -43.49128,43 -23.6452,23.65 -42.76628,43 -42.49128,43 0.275,0 19.84608,-19.35 43.49128,-43 z M 241.49387,362.5 c 37.72746,-59.95 69.94016,-110.94673 71.58377,-113.32607 l 2.98838,-4.32607 -3.28301,2.41997 C 310.97736,248.59882 260.225,280.65819 200,318.51088 139.775,356.36358 90.062265,387.71905 89.527257,388.18972 88.539656,389.05856 170.83122,472.23887 172.19585,471.75113 172.58229,471.61301 203.7664,422.45 241.49387,362.5 z m 269.48339,68.02274 c 25.1333,-25.13877 41.08505,-41.81527 40.49548,-42.33536 C 550.93773,387.71542 500.55,355.92179 439.5,317.53486 378.45,279.14793 327.67029,247.0159 326.6562,246.13035 c -1.01409,-0.88556 -0.33909,0.64077 1.5,3.39184 1.83909,2.75106 34.15102,53.93401 71.80428,113.73987 C 437.61375,423.06793 468.66578,472 468.965,472 c 0.29922,0 19.20474,-18.66477 42.01226,-41.47726 z M 318,244 c 0,-0.55 -0.47656,-1 -1.05902,-1 -0.58246,0 -0.7809,0.45 -0.44098,1 0.33992,0.55 0.81648,1 1.05902,1 0.24254,0 0.44098,-0.45 0.44098,-1 z m 6.5,0 c 0.33992,-0.55 0.14148,-1 -0.44098,-1 -0.58246,0 -1.05902,0.45 -1.05902,1 0,0.55 0.19844,1 0.44098,1 0.24254,0 0.7191,-0.45 1.05902,-1 z m -3.05279,-4.08541 c -0.32197,-0.52097 -1.01165,-0.68378 -1.53262,-0.3618 -0.52097,0.32197 -0.68378,1.01165 -0.3618,1.53262 0.32197,0.52097 1.01165,0.68378 1.53262,0.3618 0.52097,-0.32197 0.68378,-1.01165 0.3618,-1.53262 z M 318,237 c 0,-0.55 -0.19844,-1 -0.44098,-1 -0.24254,0 -0.7191,0.45 -1.05902,1 -0.33992,0.55 -0.14148,1 0.44098,1 0.58246,0 1.05902,-0.45 1.05902,-1 z m 7,0.55902 c 0,-0.24254 -0.45,-0.7191 -1,-1.05902 -0.55,-0.33992 -1,-0.14148 -1,0.44098 0,0.58246 0.45,1.05902 1,1.05902 0.55,0 1,-0.19844 1,-0.44098 z M 313.0231,231.75 C 311.40847,229.4125 279.21879,178.45 241.49048,118.5 203.76217,58.55 172.57848,9.3869917 172.19339,9.2488704 170.83079,8.7601458 88.540541,91.942213 89.527257,92.810893 90.062265,93.281901 140.45,125.06962 201.5,163.45026 c 61.05,38.38065 111.65893,70.40551 112.46429,71.16637 2.36725,2.23644 2.17111,1.63905 -0.94119,-2.86663 z M 439.5,163.46514 C 500.55,125.07821 550.93773,93.284579 551.47274,92.81262 552.45938,91.94226 470.17037,8.7597294 468.80661,9.2488704 468.42152,9.3869917 437.23783,58.55 399.50952,118.5 361.78121,178.45 329.52141,229.525 327.82107,232 c -1.70034,2.475 -2.24317,3.7709 -1.2063,2.87978 C 327.65165,233.98866 378.45,201.85207 439.5,163.46514 z M 129.5,49 C 153.1452,25.35 172.26628,6 171.99128,6 171.71628,6 152.1452,25.35 128.5,49 104.8548,72.65 85.733721,92 86.008721,92 86.283721,92 105.8548,72.65 129.5,49 z M 555,91.745639 c 0,-0.139898 -19.4625,-19.602398 -43.25,-43.25 L 468.5,5.5 511.49564,48.75 C 551.45858,88.949357 555,92.449368 555,91.745639 z"
     id="path3931"
     style="fill:#000000" />
</svg>
