<?xml version="1.0" encoding="UTF-8" standalone="no"?>
<!-- Created with Inkscape (http://www.inkscape.org/) -->

<svg
   xmlns:dc="http://purl.org/dc/elements/1.1/"
   xmlns:cc="http://creativecommons.org/ns#"
   xmlns:rdf="http://www.w3.org/1999/02/22-rdf-syntax-ns#"
   xmlns:svg="http://www.w3.org/2000/svg"
   xmlns="http://www.w3.org/2000/svg"
   version="1.1"
   width="640"
   height="480"
   id="svg4031">
  <metadata
     id="metadata4037">
    <rdf:RDF>
      <cc:Work
         rdf:about="">
        <dc:format>image/svg+xml</dc:format>
        <dc:type
           rdf:resource="http://purl.org/dc/dcmitype/StillImage" />
        <dc:title></dc:title>
      </cc:Work>
    </rdf:RDF>
  </metadata>
  <defs
     id="defs4035" />
  <path
     d="m 307,476.32793 c -18.79543,-1.34768 -41.09446,-3.50729 -44,-4.2613 -1.925,-0.49956 -5.3,-1.38255 -7.5,-1.96221 -5.11702,-1.34824 -15.46544,-7.4652 -21.30939,-12.59599 -6.50806,-5.71385 -13.79881,-17.31702 -15.26073,-24.28732 -1.91833,-9.14645 -0.4498,-37.94113 3.03936,-59.59508 3.54407,-21.99477 5.79596,-45.47433 9.55499,-99.62603 0.85903,-12.375 1.76292,-23.17752 2.00864,-24.00561 0.24572,-0.82808 0.89076,-7.12808 1.4334,-14 1.04256,-13.20251 1.63444,-17.37605 5.53015,-38.99439 1.33802,-7.425 2.69476,-15.525 3.015,-18 0.32023,-2.475 2.65007,-13.725 5.17742,-25 2.52735,-11.275 4.9588,-22.75 5.40322,-25.5 1.5673,-9.69808 4.73581,-24.42165 6.8864,-32 0.62432,-2.2 1.55736,-5.66762 2.07344,-7.705822 0.51608,-2.038202 1.56081,-5.188202 2.32163,-7 C 266.13435,79.98238 267.53435,75.8 268.48464,72.5 c 0.95029,-3.3 2.17949,-7.125 2.73155,-8.5 2.95156,-7.351383 8.18365,-24.80755 10.26835,-34.258932 0.81995,-3.717413 2.60914,-8.965837 3.97598,-11.663165 3.13845,-6.193422 9.02846,-9.2954337 23.12337,-12.1780723 8.70154,-1.7796058 10.8263,-1.8851895 17.34722,-0.8620194 19.06227,2.9909791 24.90142,6.0664817 29.02056,15.2852307 1.518,3.397327 3.30692,9.101958 3.97537,12.676958 0.66846,3.575 2.47105,10.325 4.00575,15 1.53471,4.675 5.1593,15.925 8.05464,25 2.89535,9.075 5.85119,18.3 6.56853,20.5 1.57304,4.824313 3.14698,12.19648 14.83811,69.5 7.5063,36.79175 7.87859,39.01961 11.02918,66 3.06189,26.22088 4.22837,39.10212 6.11256,67.5 2.46814,37.19908 4.17227,53.867 7.51465,73.5 2.65633,15.60313 3.23078,21.98143 3.66857,40.73309 l 0.51908,22.2331 -3.501,7.2669 c -4.49015,9.32007 -11.5587,17.0896 -21.40905,23.53217 -11.80445,7.72064 -19.72041,9.32889 -60.32806,12.25658 -12.97487,0.93544 -19.29262,1.00213 -29,0.30609 z m 15.7277,-1.05773 c -2.07477,-0.21647 -5.22477,-0.21284 -7,0.008 -1.77524,0.22091 -0.0777,0.39803 3.7723,0.39359 3.85,-0.004 5.30246,-0.18518 3.2277,-0.40166 z m -15,-1 c -2.07477,-0.21647 -5.22477,-0.21284 -7,0.008 -1.77524,0.22091 -0.0777,0.39803 3.7723,0.39359 3.85,-0.004 5.30246,-0.18518 3.2277,-0.40166 z m 30,0 c -2.07477,-0.21647 -5.22477,-0.21284 -7,0.008 -1.77524,0.22091 -0.0777,0.39803 3.7723,0.39359 3.85,-0.004 5.30246,-0.18518 3.2277,-0.40166 z M 293.75,473.28375 c -1.5125,-0.22913 -3.9875,-0.22913 -5.5,0 -1.5125,0.22912 -0.275,0.41659 2.75,0.41659 3.025,0 4.2625,-0.18747 2.75,-0.41659 z M 334,473.02184 c 41.00129,-2.95607 48.55909,-4.51119 60.58372,-12.46591 9.60856,-6.35641 16.19737,-13.72663 20.50989,-22.94229 l 3.15552,-6.74318 -0.53519,-20.18523 c -0.43087,-16.2507 -1.14703,-23.79127 -3.67408,-38.68523 -3.33368,-19.64804 -5.03969,-36.35794 -7.50405,-73.5 -1.88419,-28.39788 -3.05067,-41.27912 -6.11256,-67.5 -3.15059,-26.98039 -3.52288,-29.20825 -11.02918,-66 -11.69113,-57.30352 -13.26507,-64.67569 -14.83811,-69.5 -0.71734,-2.2 -3.67318,-11.425 -6.56853,-20.5 -2.89534,-9.075 -6.52659,-20.325 -8.06944,-25 -1.54285,-4.675 -3.35864,-11.539119 -4.0351,-15.253597 -0.67646,-3.714478 -2.61434,-9.534231 -4.3064,-12.932784 -3.81193,-7.656341 -7.90533,-10.019343 -22.12801,-12.7738611 -9.73657,-1.8856888 -9.98041,-1.8851462 -19.40448,0.043183 -5.2492,1.0740781 -11.84679,3.0736951 -14.66131,4.4435931 -4.4714,2.176343 -5.43802,3.215406 -7.65819,8.232095 C 286.32701,24.916383 284.65802,30.2 284.01562,33.5 c -0.64241,3.3 -1.58745,7.35 -2.10009,9 -2.93476,9.44578 -6.82977,21.334164 -7.69934,23.5 -0.55206,1.375 -1.78126,5.2 -2.73155,8.5 -0.95029,3.3 -2.35029,7.48238 -3.11111,9.294178 -0.76082,1.811798 -1.80555,4.961798 -2.32163,7 C 265.53582,92.83238 264.60278,96.3 263.97846,98.5 c -2.15059,7.57835 -5.3191,22.30192 -6.8864,32 -0.44442,2.75 -2.87587,14.225 -5.40322,25.5 -2.52735,11.275 -4.85719,22.525 -5.17742,25 -0.32024,2.475 -1.67698,10.575 -3.015,18 -3.89571,21.61834 -4.48759,25.79188 -5.53015,38.99439 -0.54264,6.87192 -1.18768,13.17192 -1.4334,14 -0.24572,0.82809 -1.14961,11.63061 -2.00864,24.00561 -3.79718,54.70129 -6.01917,77.7267 -9.65018,100 -2.50567,15.37021 -3.04618,21.71438 -3.19497,37.5 -0.17764,18.84735 -0.15716,19.04419 2.54937,24.5 7.24034,14.59505 22.24071,26.98041 36.4394,30.08694 8.10041,1.77228 41.33504,5.17627 56.33215,5.76971 1.925,0.0762 9.575,-0.29949 17,-0.83481 z m 17.76791,0.26363 c -1.50265,-0.22817 -4.20265,-0.23276 -6,-0.0102 -1.79735,0.22256 -0.56791,0.40925 2.73209,0.41486 3.3,0.006 4.77056,-0.17648 3.26791,-0.40466 z M 282.25,472.29427 c -1.2375,-0.23836 -3.2625,-0.23836 -4.5,0 -1.2375,0.23835 -0.225,0.43337 2.25,0.43337 2.475,0 3.4875,-0.19502 2.25,-0.43337 z m 79.51166,0.0187 c -0.95609,-0.25029 -2.75609,-0.25937 -4,-0.0202 -1.24391,0.23919 -0.46166,0.44398 1.73834,0.45508 2.2,0.0111 3.21775,-0.18461 2.26166,-0.4349 z M 272.25,471.29427 c -1.2375,-0.23836 -3.2625,-0.23836 -4.5,0 -1.2375,0.23835 -0.225,0.43337 2.25,0.43337 2.475,0 3.4875,-0.19502 2.25,-0.43337 z m 99,0 c -1.2375,-0.23836 -3.2625,-0.23836 -4.5,0 -1.2375,0.23835 -0.225,0.43337 2.25,0.43337 2.475,0 3.4875,-0.19502 2.25,-0.43337 z m -110,-1.95655 c -0.6875,-0.27741 -1.8125,-0.27741 -2.5,0 -0.6875,0.27741 -0.125,0.50439 1.25,0.50439 1.375,0 1.9375,-0.22698 1.25,-0.50439 z m 119.47917,0.0581 c -0.33229,-0.33229 -1.1948,-0.36781 -1.91667,-0.0789 -0.79773,0.31922 -0.56078,0.55618 0.60417,0.60416 1.05416,0.0434 1.64479,-0.19293 1.3125,-0.52522 z M 237,457.69617 c 0,-0.16711 -1.6875,-1.85461 -3.75,-3.75 L 229.5,450.5 l 3.44617,3.75 C 236.15378,457.74042 237,458.45979 237,457.69617 z M 406,454.5 c 1.86578,-1.925 3.16733,-3.5 2.89233,-3.5 -0.275,0 -2.02655,1.575 -3.89233,3.5 -1.86578,1.925 -3.16733,3.5 -2.89233,3.5 0.275,0 2.02655,-1.575 3.89233,-3.5 z m 6.12756,-7.25 c 1.24387,-1.58606 1.2085,-1.62143 -0.37756,-0.37756 -1.66575,1.30637 -2.19548,2.12756 -1.37244,2.12756 0.20765,0 0.99515,-0.7875 1.75,-1.75 z M 220.68311,431.8125 c -0.31922,-0.79773 -0.55618,-0.56078 -0.60416,0.60417 -0.0434,1.05416 0.19292,1.64479 0.52522,1.3125 0.33229,-0.33229 0.36781,-1.1948 0.0789,-1.91667 z m 199.06263,-26.01192 c -0.18186,-5.11532 -0.33151,-1.20058 -0.33256,8.69942 -0.001,9.9 0.14774,14.08526 0.33065,9.30058 0.18291,-4.78468 0.18377,-12.88468 0.002,-18 z M 219.73899,412.25 c -0.19845,-3.1625 -0.36082,-0.575 -0.36082,5.75 0,6.325 0.16237,8.9125 0.36082,5.75 0.19845,-3.1625 0.19845,-8.3375 0,-11.5 z m 0.98948,-18 c -0.21575,-2.0625 -0.39226,-0.375 -0.39226,3.75 0,4.125 0.17651,5.8125 0.39226,3.75 0.21574,-2.0625 0.21574,-5.4375 0,-7.5 z m 197.97879,-4.48834 c -0.23919,-1.24391 -0.44398,-0.46166 -0.45508,1.73834 -0.0111,2.2 0.18461,3.21775 0.4349,2.26166 0.25029,-0.95609 0.25937,-2.75609 0.0202,-4 z M 221.66228,385.75 c -0.27741,-0.6875 -0.50439,-0.125 -0.50439,1.25 0,1.375 0.22698,1.9375 0.50439,1.25 0.27741,-0.6875 0.27741,-1.8125 0,-2.5 z m 196,-3 c -0.27741,-0.6875 -0.50439,-0.125 -0.50439,1.25 0,1.375 0.22698,1.9375 0.50439,1.25 0.27741,-0.6875 0.27741,-1.8125 0,-2.5 z m -195,-3 c -0.27741,-0.6875 -0.50439,-0.125 -0.50439,1.25 0,1.375 0.22698,1.9375 0.50439,1.25 0.27741,-0.6875 0.27741,-1.8125 0,-2.5 z m 194.03071,-3.48097 c -0.25354,-0.97297 -0.47766,-0.41903 -0.49804,1.23097 -0.0204,1.65 0.18706,2.44606 0.46099,1.76903 0.27392,-0.67703 0.29059,-2.02703 0.0371,-3 z m -193,-3 c -0.25354,-0.97297 -0.47766,-0.41903 -0.49804,1.23097 -0.0204,1.65 0.18706,2.44606 0.46099,1.76903 0.27392,-0.67703 0.29059,-2.02703 0.0371,-3 z M 415.66228,369.75 c -0.27741,-0.6875 -0.50439,-0.125 -0.50439,1.25 0,1.375 0.22698,1.9375 0.50439,1.25 0.27741,-0.6875 0.27741,-1.8125 0,-2.5 z m -191,-3 c -0.27741,-0.6875 -0.50439,-0.125 -0.50439,1.25 0,1.375 0.22698,1.9375 0.50439,1.25 0.27741,-0.6875 0.27741,-1.8125 0,-2.5 z m 190,-3 c -0.27741,-0.6875 -0.50439,-0.125 -0.50439,1.25 0,1.375 0.22698,1.9375 0.50439,1.25 0.27741,-0.6875 0.27741,-1.8125 0,-2.5 z m -189,-3 c -0.27741,-0.6875 -0.50439,-0.125 -0.50439,1.25 0,1.375 0.22698,1.9375 0.50439,1.25 0.27741,-0.6875 0.27741,-1.8125 0,-2.5 z m 188,-3 c -0.27741,-0.6875 -0.50439,-0.125 -0.50439,1.25 0,1.375 0.22698,1.9375 0.50439,1.25 0.27741,-0.6875 0.27741,-1.8125 0,-2.5 z m -186.95502,-4.98834 c -0.23919,-1.24391 -0.44398,-0.46166 -0.45508,1.73834 -0.0111,2.2 0.18461,3.21775 0.4349,2.26166 0.25029,-0.95609 0.25937,-2.75609 0.0202,-4 z m 185.98573,-1.49263 c -0.25354,-0.97297 -0.47766,-0.41903 -0.49804,1.23097 -0.0204,1.65 0.18706,2.44606 0.46099,1.76903 0.27392,-0.67703 0.29059,-2.02703 0.0371,-3 z M 227.70573,342.75 c -0.23835,-1.2375 -0.43337,-0.225 -0.43337,2.25 0,2.475 0.19502,3.4875 0.43337,2.25 0.23836,-1.2375 0.23836,-3.2625 0,-4.5 z m 184.01052,-2.5 c -0.22912,-1.5125 -0.41659,-0.275 -0.41659,2.75 0,3.025 0.18747,4.2625 0.41659,2.75 0.22913,-1.5125 0.22913,-3.9875 0,-5.5 z m -183,-9 c -0.22912,-1.5125 -0.41659,-0.275 -0.41659,2.75 0,3.025 0.18747,4.2625 0.41659,2.75 0.22913,-1.5125 0.22913,-3.9875 0,-5.5 z m 182,-3 c -0.22912,-1.5125 -0.41659,-0.275 -0.41659,2.75 0,3.025 0.18747,4.2625 0.41659,2.75 0.22913,-1.5125 0.22913,-3.9875 0,-5.5 z m -181,-9 c -0.22912,-1.5125 -0.41659,-0.275 -0.41659,2.75 0,3.025 0.18747,4.2625 0.41659,2.75 0.22913,-1.5125 0.22913,-3.9875 0,-5.5 z m 180,-3 c -0.22912,-1.5125 -0.41659,-0.275 -0.41659,2.75 0,3.025 0.18747,4.2625 0.41659,2.75 0.22913,-1.5125 0.22913,-3.9875 0,-5.5 z m -179,-9 c -0.22912,-1.5125 -0.41659,-0.275 -0.41659,2.75 0,3.025 0.18747,4.2625 0.41659,2.75 0.22913,-1.5125 0.22913,-3.9875 0,-5.5 z m 178.01355,-4.9777 c -0.21648,-2.07476 -0.39722,-0.6223 -0.40166,3.2277 -0.004,3.85 0.17268,5.54754 0.39359,3.7723 0.22091,-1.77523 0.22454,-4.92523 0.008,-7 z m -177,-9 c -0.21648,-2.07476 -0.39722,-0.6223 -0.40166,3.2277 -0.004,3.85 0.17268,5.54754 0.39359,3.7723 0.22091,-1.77523 0.22454,-4.92523 0.008,-7 z m 176,-6 c -0.21648,-2.07476 -0.39722,-0.6223 -0.40166,3.2277 -0.004,3.85 0.17268,5.54754 0.39359,3.7723 0.22091,-1.77523 0.22454,-4.92523 0.008,-7 z m -175,-9 c -0.21648,-2.07476 -0.39722,-0.6223 -0.40166,3.2277 -0.004,3.85 0.17268,5.54754 0.39359,3.7723 0.22091,-1.77523 0.22454,-4.92523 0.008,-7 z m 174,-6 c -0.21648,-2.07476 -0.39722,-0.6223 -0.40166,3.2277 -0.004,3.85 0.17268,5.54754 0.39359,3.7723 0.22091,-1.77523 0.22454,-4.92523 0.008,-7 z m -173.00507,-7.50439 c -0.22256,-1.79735 -0.40925,-0.56791 -0.41486,2.73209 -0.006,3.3 0.17648,4.77056 0.40466,3.26791 0.22817,-1.50265 0.23276,-4.20265 0.0102,-6 z m 171.981,-4.01791 c -0.23835,-1.2375 -0.43337,-0.225 -0.43337,2.25 0,2.475 0.19502,3.4875 0.43337,2.25 0.23836,-1.2375 0.23836,-3.2625 0,-4.5 z m -171,-7 c -0.23835,-1.2375 -0.43337,-0.225 -0.43337,2.25 0,2.475 0.19502,3.4875 0.43337,2.25 0.23836,-1.2375 0.23836,-3.2625 0,-4.5 z m 170.01185,-3.48625 c -0.22985,-1.52006 -0.42406,-0.51375 -0.43157,2.23625 -0.007,2.75 0.18056,3.99369 0.41792,2.76375 0.23736,-1.22994 0.24351,-3.47994 0.0136,-5 z m -169.02459,-3.99472 c -0.25354,-0.97297 -0.47766,-0.41903 -0.49804,1.23097 -0.0204,1.65 0.18706,2.44606 0.46099,1.76903 0.27392,-0.67703 0.29059,-2.02703 0.0371,-3 z M 403.68933,241.25 c -0.25153,-0.9625 -0.45733,-0.175 -0.45733,1.75 0,1.925 0.2058,2.7125 0.45733,1.75 0.25152,-0.9625 0.25152,-2.5375 0,-3.5 z m -166.96593,-7.5 c -0.22183,-1.7875 -0.40333,-0.325 -0.40333,3.25 0,3.575 0.1815,5.0375 0.40333,3.25 0.22182,-1.7875 0.22182,-4.7125 0,-6.5 z m 165.98386,-0.98834 c -0.23919,-1.24391 -0.44398,-0.46166 -0.45508,1.73834 -0.0111,2.2 0.18461,3.21775 0.4349,2.26166 0.25029,-0.95609 0.25937,-2.75609 0.0202,-4 z m -165,-9 c -0.23919,-1.24391 -0.44398,-0.46166 -0.45508,1.73834 -0.0111,2.2 0.18461,3.21775 0.4349,2.26166 0.25029,-0.95609 0.25937,-2.75609 0.0202,-4 z m 164,0 c -0.23919,-1.24391 -0.44398,-0.46166 -0.45508,1.73834 -0.0111,2.2 0.18461,3.21775 0.4349,2.26166 0.25029,-0.95609 0.25937,-2.75609 0.0202,-4 z m -1,-9 c -0.23919,-1.24391 -0.44398,-0.46166 -0.45508,1.73834 -0.0111,2.2 0.18461,3.21775 0.4349,2.26166 0.25029,-0.95609 0.25937,-2.75609 0.0202,-4 z M 239.70573,209.75 c -0.23835,-1.2375 -0.43337,-0.225 -0.43337,2.25 0,2.475 0.19502,3.4875 0.43337,2.25 0.23836,-1.2375 0.23836,-3.2625 0,-4.5 z m 159.97738,-0.9375 c -0.31922,-0.79773 -0.55618,-0.56078 -0.60416,0.60417 -0.0434,1.05416 0.19293,1.64479 0.52522,1.3125 0.33229,-0.3323 0.36781,-1.1948 0.0789,-1.91667 z m -159,-5 c -0.31922,-0.79773 -0.55618,-0.56078 -0.60416,0.60417 -0.0434,1.05416 0.19292,1.64479 0.52522,1.3125 0.33229,-0.3323 0.36781,-1.1948 0.0789,-1.91667 z m 158,0 c -0.31922,-0.79773 -0.55618,-0.56078 -0.60416,0.60417 -0.0434,1.05416 0.19293,1.64479 0.52522,1.3125 0.33229,-0.3323 0.36781,-1.1948 0.0789,-1.91667 z m -0.97585,-8.05084 c -0.23919,-1.24391 -0.44398,-0.46166 -0.45508,1.73834 -0.0111,2.2 0.18461,3.21775 0.4349,2.26166 0.25029,-0.95609 0.25937,-2.75609 0.0202,-4 z M 242.68311,194.8125 c -0.31922,-0.79773 -0.55618,-0.56078 -0.60416,0.60417 -0.0434,1.05416 0.19292,1.64479 0.52522,1.3125 0.33229,-0.3323 0.36781,-1.1948 0.0789,-1.91667 z m 1,-5 c -0.31922,-0.79773 -0.55618,-0.56078 -0.60416,0.60417 -0.0434,1.05416 0.19292,1.64479 0.52522,1.3125 0.33229,-0.3323 0.36781,-1.1948 0.0789,-1.91667 z m 153,0 c -0.31922,-0.79773 -0.55618,-0.56078 -0.60416,0.60417 -0.0434,1.05416 0.19293,1.64479 0.52522,1.3125 0.33229,-0.3323 0.36781,-1.1948 0.0789,-1.91667 z m -151.97585,-8.05084 c -0.23919,-1.24391 -0.44398,-0.46166 -0.45508,1.73834 -0.0111,2.2 0.18461,3.21775 0.4349,2.26166 0.25029,-0.95609 0.25937,-2.75609 0.0202,-4 z m 150.97585,3.05084 c -0.31922,-0.79773 -0.55618,-0.56078 -0.60416,0.60417 -0.0434,1.05416 0.19293,1.64479 0.52522,1.3125 0.33229,-0.3323 0.36781,-1.1948 0.0789,-1.91667 z m -1,-5 c -0.31922,-0.79773 -0.55618,-0.56078 -0.60416,0.60417 -0.0434,1.05416 0.19293,1.64479 0.52522,1.3125 0.33229,-0.3323 0.36781,-1.1948 0.0789,-1.91667 z m -149,-4 c -0.31922,-0.79773 -0.55618,-0.56078 -0.60416,0.60417 -0.0434,1.05416 0.19292,1.64479 0.52522,1.3125 0.33229,-0.3323 0.36781,-1.1948 0.0789,-1.91667 z m 1,-5 c -0.31922,-0.79773 -0.55618,-0.56078 -0.60416,0.60417 -0.0434,1.05416 0.19292,1.64479 0.52522,1.3125 0.33229,-0.3323 0.36781,-1.1948 0.0789,-1.91667 z m 146,0 c -0.31922,-0.79773 -0.55618,-0.56078 -0.60416,0.60417 -0.0434,1.05416 0.19293,1.64479 0.52522,1.3125 0.33229,-0.3323 0.36781,-1.1948 0.0789,-1.91667 z m -1,-5 c -0.31922,-0.79773 -0.55618,-0.56078 -0.60416,0.60417 -0.0434,1.05416 0.19293,1.64479 0.52522,1.3125 0.33229,-0.3323 0.36781,-1.1948 0.0789,-1.91667 z m -143,-4 c -0.31922,-0.79773 -0.55618,-0.56078 -0.60416,0.60417 -0.0434,1.05416 0.19292,1.64479 0.52522,1.3125 0.33229,-0.3323 0.36781,-1.1948 0.0789,-1.91667 z m 1,-5 c -0.31922,-0.79773 -0.55618,-0.56078 -0.60416,0.60417 -0.0434,1.05416 0.19292,1.64479 0.52522,1.3125 0.33229,-0.3323 0.36781,-1.1948 0.0789,-1.91667 z m 140,0 c -0.31922,-0.79773 -0.55618,-0.56078 -0.60416,0.60417 -0.0434,1.05416 0.19293,1.64479 0.52522,1.3125 0.33229,-0.3323 0.36781,-1.1948 0.0789,-1.91667 z m -1,-5 c -0.31922,-0.79773 -0.55618,-0.56078 -0.60416,0.60417 -0.0434,1.05416 0.19293,1.64479 0.52522,1.3125 0.33229,-0.3323 0.36781,-1.1948 0.0789,-1.91667 z m -137,-4 c -0.31922,-0.79773 -0.55618,-0.56078 -0.60416,0.60417 -0.0434,1.05416 0.19292,1.64479 0.52522,1.3125 0.33229,-0.3323 0.36781,-1.1948 0.0789,-1.91667 z m 135,-5 c -0.31922,-0.79773 -0.55618,-0.56078 -0.60416,0.60417 -0.0434,1.05416 0.19293,1.64479 0.52522,1.3125 0.33229,-0.3323 0.36781,-1.1948 0.0789,-1.91667 z M 384.68933,131.25 c -0.25153,-0.9625 -0.45733,-0.175 -0.45733,1.75 0,1.925 0.2058,2.7125 0.45733,1.75 0.25152,-0.9625 0.25152,-2.5375 0,-3.5 z m -129,-3 c -0.25153,-0.9625 -0.45733,-0.175 -0.45733,1.75 0,1.925 0.2058,2.7125 0.45733,1.75 0.25152,-0.9625 0.25152,-2.5375 0,-3.5 z m 2.00366,-10.98097 c -0.25354,-0.97297 -0.47766,-0.41903 -0.49804,1.23097 -0.0204,1.65 0.18706,2.44606 0.46099,1.76903 0.27392,-0.67703 0.29059,-2.02703 0.0371,-3 z m 124,0 c -0.25354,-0.97297 -0.47766,-0.41903 -0.49804,1.23097 -0.0204,1.65 0.18706,2.44606 0.46099,1.76903 0.27392,-0.67703 0.29059,-2.02703 0.0371,-3 z m -1.00988,-5.45653 c -0.31922,-0.79773 -0.55618,-0.56078 -0.60416,0.60417 -0.0434,1.05416 0.19293,1.64479 0.52522,1.3125 0.33229,-0.3323 0.36781,-1.1948 0.0789,-1.91667 z M 259.66228,108.75 c -0.27741,-0.6875 -0.50439,-0.125 -0.50439,1.25 0,1.375 0.22698,1.9375 0.50439,1.25 0.27741,-0.6875 0.27741,-1.8125 0,-2.5 z m 1.02083,-4.9375 c -0.31922,-0.79773 -0.55618,-0.56078 -0.60416,0.60417 -0.0434,1.05416 0.19293,1.64479 0.52522,1.3125 0.33229,-0.3323 0.36781,-1.1948 0.0789,-1.91667 z m 118,0 c -0.31922,-0.79773 -0.55618,-0.56078 -0.60416,0.60417 -0.0434,1.05416 0.19293,1.64479 0.52522,1.3125 0.33229,-0.3323 0.36781,-1.1948 0.0789,-1.91667 z m -1,-5 c -0.31922,-0.797733 -0.55618,-0.560776 -0.60416,0.604167 -0.0434,1.054163 0.19293,1.644793 0.52522,1.312503 0.33229,-0.3323 0.36781,-1.194795 0.0789,-1.91667 z m -115,-2 c -0.31922,-0.797733 -0.55618,-0.560776 -0.60416,0.604167 -0.0434,1.054166 0.19293,1.644791 0.52522,1.3125 0.33229,-0.332292 0.36781,-1.194792 0.0789,-1.916667 z m 2,-7 c -0.31922,-0.797733 -0.55618,-0.560776 -0.60416,0.604167 -0.0434,1.054166 0.19293,1.644791 0.52522,1.3125 0.33229,-0.332292 0.36781,-1.194792 0.0789,-1.916667 z m 110,-1 c -0.31922,-0.797733 -0.55618,-0.560776 -0.60416,0.604167 -0.0434,1.054166 0.19293,1.644791 0.52522,1.3125 0.33229,-0.332292 0.36781,-1.194792 0.0789,-1.916667 z m -106,-11 c -0.31922,-0.797733 -0.55618,-0.560776 -0.60416,0.604167 -0.0434,1.054166 0.19293,1.644791 0.52522,1.3125 0.33229,-0.332292 0.36781,-1.194792 0.0789,-1.916667 z m 3,-10 c -0.31922,-0.797733 -0.55618,-0.560776 -0.60416,0.604167 -0.0434,1.054166 0.19293,1.644791 0.52522,1.3125 0.33229,-0.332292 0.36781,-1.194792 0.0789,-1.916667 z m 93,-10 c -0.31922,-0.797733 -0.55618,-0.560776 -0.60416,0.604167 -0.0434,1.054166 0.19293,1.644791 0.52522,1.3125 0.33229,-0.332292 0.36781,-1.194792 0.0789,-1.916667 z m -85,-14 c -0.31922,-0.797733 -0.55618,-0.560776 -0.60416,0.604167 -0.0434,1.054166 0.19293,1.644791 0.52522,1.3125 0.33229,-0.332292 0.36781,-1.194792 0.0789,-1.916667 z m 79,-5 c -0.31922,-0.797733 -0.55618,-0.560776 -0.60416,0.604167 -0.0434,1.054166 0.19293,1.644791 0.52522,1.3125 0.33229,-0.332292 0.36781,-1.194792 0.0789,-1.916667 z m -77,-2 c -0.31922,-0.797733 -0.55618,-0.560776 -0.60416,0.604167 -0.0434,1.054166 0.19293,1.644791 0.52522,1.3125 0.33229,-0.332292 0.36781,-1.194792 0.0789,-1.916667 z m 76,-3 c -0.31922,-0.797733 -0.55618,-0.560776 -0.60416,0.604167 -0.0434,1.054166 0.19293,1.644791 0.52522,1.3125 0.33229,-0.332292 0.36781,-1.194792 0.0789,-1.916667 z m -75,-2 c -0.31922,-0.797733 -0.55618,-0.560776 -0.60416,0.604167 -0.0434,1.054166 0.19293,1.644791 0.52522,1.3125 0.33229,-0.332292 0.36781,-1.194792 0.0789,-1.916667 z m 74,-3 c -0.31922,-0.797733 -0.55618,-0.560776 -0.60416,0.604167 -0.0434,1.054166 0.19293,1.644791 0.52522,1.3125 0.33229,-0.332292 0.36781,-1.194792 0.0789,-1.916667 z M 336.72917,8.3958333 c -0.33229,-0.3322916 -1.1948,-0.3678179 -1.91667,-0.078947 -0.79773,0.3192263 -0.56078,0.5561827 0.60417,0.6041666 1.05416,0.043421 1.64479,-0.1929276 1.3125,-0.5252193 z m -26,-1 c -0.33229,-0.3322916 -1.1948,-0.3678179 -1.91667,-0.078947 -0.79773,0.3192263 -0.56078,0.5561827 0.60417,0.6041666 1.05416,0.043421 1.64479,-0.1929276 1.3125,-0.5252193 z m 21,0 c -0.33229,-0.3322916 -1.1948,-0.3678179 -1.91667,-0.078947 -0.79773,0.3192263 -0.56078,0.5561827 0.60417,0.6041666 1.05416,0.043421 1.64479,-0.1929276 1.3125,-0.5252193 z m -16,-1 c -0.33229,-0.3322916 -1.1948,-0.3678179 -1.91667,-0.078947 -0.79773,0.3192263 -0.56078,0.5561827 0.60417,0.6041666 1.05416,0.043421 1.64479,-0.1929276 1.3125,-0.5252193 z M 326.25,6.3377193 c -0.6875,-0.2774123 -1.8125,-0.2774123 -2.5,0 -0.6875,0.2774123 -0.125,0.504386 1.25,0.504386 1.375,0 1.9375,-0.2269737 1.25,-0.504386 z m -5.52083,-0.941886 c -0.33229,-0.3322916 -1.1948,-0.3678179 -1.91667,-0.078947 -0.79773,0.3192263 -0.56078,0.5561827 0.60417,0.6041666 1.05416,0.043421 1.64479,-0.1929276 1.3125,-0.5252193 z"
     id="path4041"
     style="fill:#000000" />
</svg>
