<?xml version="1.0" encoding="UTF-8" standalone="no"?>
<!-- Created with Inkscape (http://www.inkscape.org/) -->

<svg
   xmlns:dc="http://purl.org/dc/elements/1.1/"
   xmlns:cc="http://creativecommons.org/ns#"
   xmlns:rdf="http://www.w3.org/1999/02/22-rdf-syntax-ns#"
   xmlns:svg="http://www.w3.org/2000/svg"
   xmlns="http://www.w3.org/2000/svg"
   version="1.1"
   width="640"
   height="480"
   id="svg4141">
  <metadata
     id="metadata4147">
    <rdf:RDF>
      <cc:Work
         rdf:about="">
        <dc:format>image/svg+xml</dc:format>
        <dc:type
           rdf:resource="http://purl.org/dc/dcmitype/StillImage" />
        <dc:title></dc:title>
      </cc:Work>
    </rdf:RDF>
  </metadata>
  <defs
     id="defs4145" />
  <path
     d="M 72,475.74062 C 72,475.04797 81,465.48969 92,454.5 L 112,434.51875 112,228.48592 112,22.45308 104,14.5 C 96.351596,6.896454 94.496061,4 97.27346,4 c 0.700403,0 4.85235,3.6 9.22654,8 l 7.95308,8 L 320.5,20 526.54692,20 534.5,12 C 542.10238,4.3527702 545,2.4961061 545,5.2720778 545,5.9717205 541.175,10.349286 536.5,15 L 528,23.455844 528,228.48707 528,433.5183 548.5,454 C 559.775,465.26494 569,475.04832 569,475.74085 569,476.43338 568.43338,477 567.74085,477 567.04832,477 557.26494,467.775 546,456.5 L 525.5183,436 320.5,436 115.4817,436 95,456.5 C 83.735062,467.775 73.951679,477 73.259148,477 72.566616,477 72,476.43328 72,475.74062 z M 94.009617,455.25 113.5,435.5 93.75,454.99038 C 82.8875,465.71009 74,474.59759 74,474.74038 74,475.45152 75.900537,473.6003 94.009617,455.25 z M 567,474.74062 c 0,-0.14265 -9.1125,-9.25515 -20.25,-20.25 L 526.5,434.5 546.49062,454.75 C 565.06475,473.56513 567,475.45142 567,474.74062 z M 526,228 l 0,-206 -206,0 -206,0 0,206 0,206 206,0 206,0 0,-206 z M 106,13.5 C 101.90253,9.375 98.325055,6 98.050055,6 c -0.275,0 2.852475,3.375 6.949945,7.5 4.09747,4.125 7.67494,7.5 7.94994,7.5 0.275,0 -2.85247,-3.375 -6.94994,-7.5 z M 536.02503,13.25 543.5,5.5 535.75,12.974972 C 528.55197,19.917562 527.54373,21 528.27503,21 c 0.15126,0 3.63876,-3.4875 7.75,-7.75 z"
     id="path4151"
     style="fill:#000000" />
</svg>
