<?xml version="1.0" encoding="UTF-8" standalone="no"?>
<!-- Created with Inkscape (http://www.inkscape.org/) -->

<svg
   xmlns:dc="http://purl.org/dc/elements/1.1/"
   xmlns:cc="http://creativecommons.org/ns#"
   xmlns:rdf="http://www.w3.org/1999/02/22-rdf-syntax-ns#"
   xmlns:svg="http://www.w3.org/2000/svg"
   xmlns="http://www.w3.org/2000/svg"
   version="1.1"
   width="640"
   height="480"
   id="svg4339">
  <metadata
     id="metadata4345">
    <rdf:RDF>
      <cc:Work
         rdf:about="">
        <dc:format>image/svg+xml</dc:format>
        <dc:type
           rdf:resource="http://purl.org/dc/dcmitype/StillImage" />
        <dc:title></dc:title>
      </cc:Work>
    </rdf:RDF>
  </metadata>
  <defs
     id="defs4343" />
  <path
     d="m 195.97259,475.47637 c -7.44161,-1.16058 -26.45878,-6.72984 -31.67168,-9.27518 -9.48029,-4.62902 -15.90541,-8.14637 -19.04656,-10.42678 -2.06489,-1.49907 -5.39751,-3.83923 -7.40582,-5.20035 -7.61694,-5.16231 -24.99536,-23.50972 -29.9293,-31.59809 -1.83721,-3.01178 -3.69425,-5.62552 -4.12678,-5.8083 -0.43252,-0.18277 -2.72104,-4.45777 -5.085606,-9.5 C 92.000109,389.36615 91.316836,387.72476 90.518012,383.99599 90.106085,382.0732 89.421441,380.05 88.99658,379.5 c -0.424861,-0.55 -1.610399,-5.05 -2.634528,-10 -1.452597,-7.02095 -1.856067,-13.28794 -1.834836,-28.5 0.0293,-20.99475 1.13379,-28.68463 6.104221,-42.5 1.385135,-3.85 2.786947,-7.9 3.115137,-9 0.984192,-3.29873 15.276106,-27.73249 18.425136,-31.5 8.90422,-10.65305 11.97041,-13.85635 18.32829,-19.14785 3.85,-3.20426 7.77024,-6.48957 8.71166,-7.30069 C 141.91051,229.22612 161.49112,218 162.84813,218 c 0.67223,0 2.237,-0.6649 3.47726,-1.47755 2.95243,-1.9345 16.10398,-6.09719 26.17461,-8.28471 11.28778,-2.4519 42.71222,-2.4519 54,0 9.85849,2.14144 21.10344,5.7303 28.88743,9.21952 7.7868,3.49048 24.61257,13.42607 24.61257,14.53369 0,0.48085 0.7875,1.13807 1.75,1.46049 0.9625,0.32241 4.21928,2.83205 7.23729,5.57697 l 5.48729,4.99076 59.22262,-59.21634 c 32.57244,-32.56899 59.12816,-59.30211 59.01271,-59.40694 C 432.54306,125.24441 337.45288,99.580157 320.25,95.043661 317.69995,94.371199 316,93.338345 316,92.461456 316,91.657655 316.57759,91 317.28354,91 c 0.70595,0 27.12304,6.957918 58.70463,15.46204 31.5816,8.50412 57.53692,15.3462 57.6785,15.20463 0.14157,-0.14158 -6.70051,-26.096904 -15.20463,-57.678499 C 409.95792,32.406576 403,5.9894936 403,5.2835442 403,3.3541124 405.78999,3.7400855 406.37176,5.75 c 0.27859,0.9625 7.36884,27.313128 15.75611,58.556951 L 437.37745,121.1139 479.94304,78.556951 C 503.35411,55.150628 523.06918,36 523.75431,36 524.43944,36 525,36.56056 525,37.245689 c 0,0.685129 -19.15063,20.400202 -42.55695,43.811274 l -42.55695,42.565587 56.80695,15.24958 c 31.24382,8.38727 57.59445,15.47752 58.55695,15.75611 2.00991,0.58177 2.39589,3.37176 0.46646,3.37176 -0.70595,0 -27.12304,-6.95792 -58.70463,-15.46204 -31.5816,-8.50412 -57.53692,-15.3462 -57.6785,-15.20463 -0.14157,0.14158 6.70051,26.0969 15.20463,57.6785 C 463.04208,216.59342 470,243.01051 470,243.71646 470,244.42241 469.34234,245 468.53854,245 c -0.87689,0 -1.90974,-1.69995 -2.5822,-4.25 -4.5365,-17.20288 -30.20075,-112.29306 -30.35223,-112.45991 -0.10483,-0.11545 -26.8562,26.45853 -59.4475,59.05328 l -59.25691,59.26319 4.60346,4.94672 c 6.92866,7.44529 7.00372,7.54034 10.59745,13.41969 1.83993,3.01013 4.14499,6.27263 5.12236,7.25 0.97737,0.97737 1.77703,2.24299 1.77703,2.81249 0,0.56951 1.97632,5.18201 4.39182,10.25 2.4155,5.068 4.71746,10.78954 5.11547,12.71454 0.39801,1.925 1.07127,3.95 1.49613,4.5 0.42486,0.55 1.6104,5.05 2.63453,10 1.454,7.02774 1.86205,13.38281 1.86205,29 0,15.61719 -0.40805,21.97226 -1.86205,29 -1.02413,4.95 -2.20967,9.45 -2.63453,10 -0.42486,0.55 -1.10143,2.53644 -1.50349,4.41431 -1.5385,7.18576 -13.61573,30.21724 -20.40381,38.91041 C 322.72064,430.70884 312.24051,441.43041 305,447.45294 297.42699,453.75204 279.36417,465 276.82163,465 c -0.75714,0 -2.32084,0.66136 -3.47489,1.46969 -3.66538,2.56733 -18.40534,6.93006 -30.76034,9.10444 -10.05704,1.76995 -34.97312,1.7177 -46.61381,-0.0978 z m 32.32312,-0.21795 c -3.96237,-0.18931 -10.71237,-0.19045 -15,-0.003 -4.28764,0.1879 -1.04571,0.34279 7.20429,0.34419 8.25,0.001 11.75807,-0.15234 7.79571,-0.34164 z M 202.75,474.31067 c -0.9625,-0.25152 -2.5375,-0.25152 -3.5,0 -0.9625,0.25153 -0.175,0.45733 1.75,0.45733 1.925,0 2.7125,-0.2058 1.75,-0.45733 z m 37.5,0.027 c -0.6875,-0.27741 -1.8125,-0.27741 -2.5,0 -0.6875,0.27741 -0.125,0.50439 1.25,0.50439 1.375,0 1.9375,-0.22698 1.25,-0.50439 z m -45,-1 c -0.6875,-0.27741 -1.8125,-0.27741 -2.5,0 -0.6875,0.27741 -0.125,0.50439 1.25,0.50439 1.375,0 1.9375,-0.22698 1.25,-0.50439 z m 45.3364,-0.76359 c 12.355,-2.17438 27.09496,-6.53711 30.76034,-9.10444 1.15405,-0.80833 2.71775,-1.46969 3.47489,-1.46969 1.45567,0 19.62496,-10.34656 22.17837,-12.62955 0.825,-0.73763 4.425,-3.76354 8,-6.72426 6.11329,-5.06285 14.20819,-13.47367 20.09612,-20.8804 6.63041,-8.34074 18.85514,-31.6182 20.40381,-38.85148 0.40206,-1.87787 1.07863,-3.86431 1.50349,-4.41431 0.42486,-0.55 1.6104,-5.05 2.63453,-10 1.41377,-6.83329 1.86205,-13.33342 1.86205,-27 0,-13.66658 -0.44828,-20.16671 -1.86205,-27 -1.02413,-4.95 -2.20967,-9.45 -2.63453,-10 -0.42486,-0.55 -1.09812,-2.575 -1.49613,-4.5 -0.39801,-1.925 -2.64324,-7.55 -4.9894,-12.5 -2.34617,-4.95 -4.57781,-10.0125 -4.95921,-11.25 -0.3814,-1.2375 -1.06054,-2.25 -1.50919,-2.25 -0.44866,0 -2.39581,-2.65248 -4.32702,-5.8944 -1.9312,-3.24192 -4.34629,-6.85553 -5.36687,-8.03025 C 319.79539,254.82641 301.65088,237 300.86849,237 c -0.47767,0 -1.78841,-0.91992 -2.91276,-2.04427 -2.64163,-2.64163 -16.91712,-11.06931 -24.53001,-14.48154 -7.82046,-3.50526 -19.05229,-7.09177 -28.92572,-9.23645 -11.15791,-2.42369 -38.84209,-2.42369 -50,0 -10.07063,2.18752 -23.22218,6.35021 -26.17461,8.28471 -1.24026,0.81265 -2.78914,1.47755 -3.44194,1.47755 -1.5137,0 -16.03526,8.28063 -21.70582,12.37731 -16.81196,12.14575 -27.51258,24.18101 -38.4446,43.2396 -4.06436,7.0857 -7.658265,13.78309 -7.986456,14.88309 -0.32819,1.1 -1.730002,5.15 -3.115137,9 -4.812578,13.37662 -6.059457,21.65946 -6.096775,40.5 -0.02632,13.28751 0.413559,19.66642 1.82739,26.5 1.024129,4.95 2.209667,9.45 2.634528,10 0.424861,0.55 1.109505,2.5732 1.521432,4.49599 0.411926,1.9228 1.453315,5.0728 2.314197,7 5.011371,11.21865 9.696661,20.63323 10.701741,21.50401 0.63483,0.55 2.50331,3.25 4.15219,6 4.82203,8.04222 21.71116,26.00032 29.31386,31.16924 1.925,1.30877 5.18946,3.6061 7.25435,5.10517 3.14115,2.28041 9.56627,5.79776 19.04656,10.42678 5.2129,2.54534 24.23007,8.1146 31.67168,9.27518 11.51817,1.79635 32.68632,1.84491 42.61381,0.0978 z m 5.6636,0.76359 c -0.6875,-0.27741 -1.8125,-0.27741 -2.5,0 -0.6875,0.27741 -0.125,0.50439 1.25,0.50439 1.375,0 1.9375,-0.22698 1.25,-0.50439 z M 145,453.65499 c 0,-0.18976 -1.0125,-1.20226 -2.25,-2.25 L 140.5,449.5 l 1.90499,2.25 c 1.79022,2.11444 2.59501,2.70524 2.59501,1.90499 z m -8,-6 c 0,-0.18976 -1.0125,-1.20226 -2.25,-2.25 L 132.5,443.5 l 1.90499,2.25 C 136.19521,447.86444 137,448.45524 137,447.65499 z M 304.5,446 c 0.99549,-1.1 1.58498,-2 1.30998,-2 -0.275,0 -1.31449,0.9 -2.30998,2 -0.99549,1.1 -1.58498,2 -1.30998,2 0.275,0 1.31449,-0.9 2.30998,-2 z m 10,-9 c 3.26557,-3.3 5.71239,-6 5.43739,-6 -0.275,0 -3.17182,2.7 -6.43739,6 -3.26557,3.3 -5.71239,6 -5.43739,6 0.275,0 3.17182,-2.7 6.43739,-6 z M 128,439.65499 c 0,-0.18976 -1.0125,-1.20226 -2.25,-2.25 L 123.5,435.5 l 1.90499,2.25 c 1.79022,2.11444 2.59501,2.70524 2.59501,1.90499 z m -8,-9 c 0,-0.18976 -1.0125,-1.20226 -2.25,-2.25 L 115.5,426.5 l 1.90499,2.25 C 119.19521,430.86444 120,431.45524 120,430.65499 z M 327.5,422 c 0.99549,-1.1 1.58498,-2 1.30998,-2 -0.275,0 -1.31449,0.9 -2.30998,2 -0.99549,1.1 -1.58498,2 -1.30998,2 0.275,0 1.31449,-0.9 2.30998,-2 z m 23.16228,-51.25 c -0.27741,-0.6875 -0.50439,-0.125 -0.50439,1.25 0,1.375 0.22698,1.9375 0.50439,1.25 0.27741,-0.6875 0.27741,-1.8125 0,-2.5 z m -261.999999,-1 c -0.277413,-0.6875 -0.504386,-0.125 -0.504386,1.25 0,1.375 0.226973,1.9375 0.504386,1.25 0.277412,-0.6875 0.277412,-1.8125 0,-2.5 z m 264.027049,-10.5 c -0.25153,-0.9625 -0.45733,-0.175 -0.45733,1.75 0,1.925 0.2058,2.7125 0.45733,1.75 0.25152,-0.9625 0.25152,-2.5375 0,-3.5 z m -266.000004,-1 c -0.251528,-0.9625 -0.457323,-0.175 -0.457323,1.75 0,1.925 0.205795,2.7125 0.457323,1.75 0.251527,-0.9625 0.251527,-2.5375 0,-3.5 z M 353.74413,334.29571 c -0.1879,-4.28764 -0.34279,-1.04571 -0.34419,7.20429 -0.001,8.25 0.15234,11.75807 0.34164,7.79571 0.18931,-3.96237 0.19045,-10.71237 0.003,-15 z M 85.74339,334.79375 C 85.553092,330.78219 85.396118,333.8 85.394557,341.5 c -0.0016,7.7 0.154138,10.98219 0.345996,7.29375 0.191858,-3.68844 0.193134,-9.98844 0.0028,-14 z M 86.689326,321.25 c -0.251528,-0.9625 -0.457323,-0.175 -0.457323,1.75 0,1.925 0.205795,2.7125 0.457323,1.75 0.251527,-0.9625 0.251527,-2.5375 0,-3.5 z m 266.000004,-1 c -0.25153,-0.9625 -0.45733,-0.175 -0.45733,1.75 0,1.925 0.2058,2.7125 0.45733,1.75 0.25152,-0.9625 0.25152,-2.5375 0,-3.5 z m -264.027049,-9.5 c -0.277413,-0.6875 -0.504386,-0.125 -0.504386,1.25 0,1.375 0.226973,1.9375 0.504386,1.25 0.277412,-0.6875 0.277412,-1.8125 0,-2.5 z m 261.999999,-1 c -0.27741,-0.6875 -0.50439,-0.125 -0.50439,1.25 0,1.375 0.22698,1.9375 0.50439,1.25 0.27741,-0.6875 0.27741,-1.8125 0,-2.5 z M 113.5,260 c 0.99549,-1.1 1.58498,-2 1.30998,-2 -0.275,0 -1.31449,0.9 -2.30998,2 -0.99549,1.1 -1.58498,2 -1.30998,2 0.275,0 1.31449,-0.9 2.30998,-2 z m 12,-14 c 2.70865,-2.75 4.69982,-5 4.42482,-5 -0.275,0 -2.71617,2.25 -5.42482,5 -2.70865,2.75 -4.69982,5 -4.42482,5 0.275,0 2.71617,-2.25 5.42482,-5 z m 250,-60 c 32.99656,-33 59.76875,-60 59.49375,-60 -0.275,0 -27.49719,27 -60.49375,60 -32.99656,33 -59.76875,60 -59.49375,60 0.275,0 27.49719,-27 60.49375,-60 z m -241,52 c 0.99549,-1.1 1.58498,-2 1.30998,-2 -0.275,0 -1.31449,0.9 -2.30998,2 -0.99549,1.1 -1.58498,2 -1.30998,2 0.275,0 1.31449,-0.9 2.30998,-2 z m 172.5,1.65499 c 0,-0.18976 -1.0125,-1.20226 -2.25,-2.25 L 302.5,235.5 l 1.90499,2.25 C 306.19521,239.86444 307,240.45524 307,239.65499 z M 196.25,209.33772 c -0.6875,-0.27741 -1.8125,-0.27741 -2.5,0 -0.6875,0.27741 -0.125,0.50439 1.25,0.50439 1.375,0 1.9375,-0.22698 1.25,-0.50439 z m 49,0 c -0.6875,-0.27741 -1.8125,-0.27741 -2.5,0 -0.6875,0.27741 -0.125,0.50439 1.25,0.50439 1.375,0 1.9375,-0.22698 1.25,-0.50439 z m -43,-1 c -0.6875,-0.27741 -1.8125,-0.27741 -2.5,0 -0.6875,0.27741 -0.125,0.50439 1.25,0.50439 1.375,0 1.9375,-0.22698 1.25,-0.50439 z m 37,0 c -0.6875,-0.27741 -1.8125,-0.27741 -2.5,0 -0.6875,0.27741 -0.125,0.50439 1.25,0.50439 1.375,0 1.9375,-0.22698 1.25,-0.50439 z m -11.95429,-1.0793 c -3.96237,-0.18931 -10.71237,-0.19045 -15,-0.003 -4.28764,0.1879 -1.04571,0.34279 7.20429,0.34419 8.25,10e-4 11.75807,-0.15234 7.79571,-0.34164 z M 439.81148,125.6189 c 1.22455,-0.36556 1.14212,-0.44799 -0.3,-0.3 -1.09368,0.11224 -2.03701,0.8739 -2.09629,1.69258 -0.0593,0.81869 0.0757,0.95369 0.3,0.3 0.22428,-0.65368 1.16761,-1.41534 2.09629,-1.69258 z m -4.13038,-4.13038 c 0.14799,-1.44212 0.0656,-1.52455 -0.3,-0.3 -0.27724,0.92868 -1.2639,1.91534 -2.19258,2.19258 -1.22455,0.36556 -1.14212,0.44799 0.3,0.3 1.16554,-0.11961 2.07297,-1.02704 2.19258,-2.19258 z M 481,80.5 C 504.37015,57.125 523.26618,38 522.99118,38 522.71618,38 503.37015,57.125 480,80.5 456.62985,103.875 437.73382,123 438.00882,123 438.28382,123 457.62985,103.875 481,80.5 z"
     id="path4349"
     style="fill:#000000" />
</svg>
