<?xml version="1.0" encoding="UTF-8" standalone="no"?>
<!-- Created with Inkscape (http://www.inkscape.org/) -->

<svg
   xmlns:dc="http://purl.org/dc/elements/1.1/"
   xmlns:cc="http://creativecommons.org/ns#"
   xmlns:rdf="http://www.w3.org/1999/02/22-rdf-syntax-ns#"
   xmlns:svg="http://www.w3.org/2000/svg"
   xmlns="http://www.w3.org/2000/svg"
   version="1.1"
   width="640"
   height="480"
   id="svg4559">
  <metadata
     id="metadata4565">
    <rdf:RDF>
      <cc:Work
         rdf:about="">
        <dc:format>image/svg+xml</dc:format>
        <dc:type
           rdf:resource="http://purl.org/dc/dcmitype/StillImage" />
        <dc:title></dc:title>
      </cc:Work>
    </rdf:RDF>
  </metadata>
  <defs
     id="defs4563" />
  <path
     d="m 562,396 c 0,-71.33333 0.17901,-81 1.5,-81 1.32099,0 1.5,9.66667 1.5,81 0,71.33333 -0.17901,81 -1.5,81 -1.32099,0 -1.5,-9.66667 -1.5,-81 z m 1.74967,-39.75 c -0.1503,-21.8625 -0.27328,-3.975 -0.27328,39.75 0,43.725 0.12298,61.6125 0.27328,39.75 0.1503,-21.8625 0.1503,-57.6375 0,-79.5 z M 427.36419,317.50669 c -0.34636,-0.90262 -0.15025,-2.12063 0.43581,-2.70669 1.52361,-1.52361 4.41041,-0.13109 4.01242,1.93549 -0.4433,2.30188 -3.64766,2.85743 -4.44823,0.7712 z M 562,85 c 0,-71.333333 0.17901,-81 1.5,-81 1.32099,0 1.5,9.666667 1.5,81 0,71.33333 -0.17901,81 -1.5,81 -1.32099,0 -1.5,-9.66667 -1.5,-81 z m 1.74967,-39.75 c -0.1503,-21.8625 -0.27328,-3.975 -0.27328,39.75 0,43.725 0.12298,61.6125 0.27328,39.75 0.1503,-21.8625 0.1503,-57.6375 0,-79.5 z M 111,110.3708 c -9.64343,-2.53793 -18.300056,-5.36117 -25.5,-8.31647 -3.85,-1.58028 -7.7875,-3.124861 -8.75,-3.432399 C 74.258546,97.82586 74.154751,87 76.638573,87 c 2.515132,0 42.328037,22.32941 42.345797,23.75 0.019,1.52064 -0.93823,1.47518 -7.98437,-0.3792 z m -3.08333,-3.72423 C 106.93953,105.81774 78.119753,90 77.586765,90 77.264044,90 77,91.364123 77,93.031385 c 0,2.007353 0.591167,3.220275 1.75,3.590546 0.9625,0.307538 4.9,1.851139 8.75,3.430229 9.862842,4.04526 22.05336,7.9827 20.41667,6.59441 z"
     id="path4569"
     style="fill:#000000" />
</svg>
