<?xml version="1.0" encoding="UTF-8" standalone="no"?>
<!-- Created with Inkscape (http://www.inkscape.org/) -->

<svg
   xmlns:dc="http://purl.org/dc/elements/1.1/"
   xmlns:cc="http://creativecommons.org/ns#"
   xmlns:rdf="http://www.w3.org/1999/02/22-rdf-syntax-ns#"
   xmlns:svg="http://www.w3.org/2000/svg"
   xmlns="http://www.w3.org/2000/svg"
   version="1.1"
   width="640"
   height="480"
   id="svg4449">
  <metadata
     id="metadata4455">
    <rdf:RDF>
      <cc:Work
         rdf:about="">
        <dc:format>image/svg+xml</dc:format>
        <dc:type
           rdf:resource="http://purl.org/dc/dcmitype/StillImage" />
        <dc:title></dc:title>
      </cc:Work>
    </rdf:RDF>
  </metadata>
  <defs
     id="defs4453" />
  <path
     d="m 476,409.68003 0,-67.31997 -10.25,-1.21742 c -16.23427,-1.92819 -27.73645,-5.79287 -41.10516,-13.81114 -16.57382,-9.94064 -31.52211,-26.71528 -38.68072,-43.40664 -1.75141,-4.08367 -3.57104,-8.32486 -4.04362,-9.42486 -3.35896,-7.81841 -5.27258,-19.63345 -5.34483,-33 -0.0772,-14.29193 0.95561,-21.64433 4.63581,-33 2.4226,-7.47521 10.65823,-24.5 11.85172,-24.5 0.48699,0 1.5267,-1.2375 2.31045,-2.75 0.78376,-1.5125 2.48282,-3.89499 3.77568,-5.29443 1.29287,-1.39943 3.47818,-3.87443 4.85624,-5.5 8.96919,-10.58007 26.82095,-21.58363 43.85565,-27.03197 5.41692,-1.73254 20.52663,-4.41612 24.88878,-4.42041 L 476,139 476,71.5 C 476,12.166667 476.18148,4 477.5,4 c 1.31849,0 1.5,8.152319 1.5,67.370875 l 0,67.370875 7.97186,0.69539 c 7.62074,0.66477 19.97856,3.64418 28.52814,6.87799 11.43092,4.32366 28.90436,16.33151 36.56567,25.12813 1.88888,2.16879 4.44683,5.047 5.68433,6.39602 1.2375,1.34902 2.25,2.77134 2.25,3.16072 0,0.38938 1.10553,1.90085 2.45674,3.35883 2.87227,3.09922 8.4722,14.55543 11.59262,23.7159 6.31979,18.55269 6.45671,43.65904 0.34658,63.55061 -2.82604,9.20019 -9.10588,22.05219 -13.16892,26.95083 -1.49986,1.80832 -4.30202,5.37758 -6.22702,7.93168 -4.64108,6.15781 -16.85365,16.32089 -26.38024,21.95317 -12.27343,7.25625 -23.34687,10.82868 -39.36976,12.70119 l -10.25,1.19785 0,67.31997 C 479,468.85334 478.81848,477 477.5,477 c -1.31848,0 -1.5,-8.14666 -1.5,-67.31997 z m 1.74963,-34.35714 C 477.59721,356.7203 477.4724,371.65 477.4723,408.5 c -1.1e-4,36.85 0.12461,52.0703 0.27714,33.82289 0.15254,-18.24741 0.15262,-48.39741 1.9e-4,-67 z M 474.75,340.31067 c -0.9625,-0.25152 -2.5375,-0.25152 -3.5,0 -0.9625,0.25153 -0.175,0.45733 1.75,0.45733 1.925,0 2.7125,-0.2058 1.75,-0.45733 z m 9,0 c -0.9625,-0.25152 -2.5375,-0.25152 -3.5,0 -0.9625,0.25153 -0.175,0.45733 1.75,0.45733 1.925,0 2.7125,-0.2058 1.75,-0.45733 z m -17,-1 c -0.9625,-0.25152 -2.5375,-0.25152 -3.5,0 -0.9625,0.25153 -0.175,0.45733 1.75,0.45733 1.925,0 2.7125,-0.2058 1.75,-0.45733 z m 25,0 c -0.9625,-0.25152 -2.5375,-0.25152 -3.5,0 -0.9625,0.25153 -0.175,0.45733 1.75,0.45733 1.925,0 2.7125,-0.2058 1.75,-0.45733 z m -32.5,-0.97295 c -0.6875,-0.27741 -1.8125,-0.27741 -2.5,0 -0.6875,0.27741 -0.125,0.50439 1.25,0.50439 1.375,0 1.9375,-0.22698 1.25,-0.50439 z M 492,337.52689 c 5.225,-0.80372 10.85,-1.89094 12.5,-2.41605 18.49442,-5.88575 33.07069,-14.98596 45.72529,-28.54706 2.5989,-2.78508 4.7364,-5.3587 4.75,-5.71917 0.0136,-0.36046 1.51997,-2.44509 3.34751,-4.63252 1.82754,-2.18742 4.96303,-7.29669 6.96774,-11.35392 11.34593,-22.96237 13.63209,-50.52283 6.10391,-73.58475 C 568.50405,202.4189 561.21573,187 559.92071,187 c -0.47814,0 -1.51061,-1.2375 -2.29436,-2.75 -0.78376,-1.5125 -2.48282,-3.89499 -3.77568,-5.29443 -1.29287,-1.39943 -3.47818,-3.87443 -4.85624,-5.5 -6.63584,-7.82764 -24.54965,-20.03325 -35.37968,-24.10601 -30.16873,-11.3453 -59.08165,-8.97576 -86.04468,7.05174 -12.7621,7.58611 -21.11893,15.55925 -32.25645,30.77542 -5.58397,7.62887 -11.61685,22.60568 -14.43013,35.82328 -2.13191,10.01629 -1.65783,28.72956 0.98801,39 1.20437,4.675 2.57642,9.4 3.049,10.5 0.47258,1.1 2.29221,5.34119 4.04362,9.42486 1.75141,4.08367 5.28847,10.37631 7.86013,13.98364 4.1199,5.77907 12.85382,15.92605 15.67575,18.21191 0.55,0.44552 2.575,2.09602 4.5,3.66779 7.79106,6.3614 22.56793,14.04948 32.5,16.90901 14.363,4.13525 28.0767,5.04832 42.5,2.82968 z m 6.25,0.81083 c -0.6875,-0.27741 -1.8125,-0.27741 -2.5,0 -0.6875,0.27741 -0.125,0.50439 1.25,0.50439 1.375,0 1.9375,-0.22698 1.25,-0.50439 z M 419,321.65499 c 0,-0.18976 -1.0125,-1.20226 -2.25,-2.25 L 414.5,317.5 l 1.90499,2.25 C 418.19521,321.86444 419,322.45524 419,321.65499 z M 538.12756,320.25 c 1.24387,-1.58606 1.2085,-1.62143 -0.37756,-0.37756 -0.9625,0.75485 -1.75,1.54235 -1.75,1.75 0,0.82304 0.82119,0.29331 2.12756,-1.37244 z M 543.5,316 c 0.99549,-1.1 1.58498,-2 1.30998,-2 -0.275,0 -1.31449,0.9 -2.30998,2 -0.99549,1.1 -1.58498,2 -1.30998,2 0.275,0 1.31449,-0.9 2.30998,-2 z M 410,313.69617 c 0,-0.16711 -1.6875,-1.85461 -3.75,-3.75 L 402.5,306.5 l 3.44617,3.75 C 409.15378,313.74042 410,314.45979 410,313.69617 z M 554.5,305 c 0.99549,-1.1 1.58498,-2 1.30998,-2 -0.275,0 -1.31449,0.9 -2.30998,2 -0.99549,1.1 -1.58498,2 -1.30998,2 0.275,0 1.31449,-0.9 2.30998,-2 z m 6,-8 c 0.99549,-1.1 1.58498,-2 1.30998,-2 -0.275,0 -1.31449,0.9 -2.30998,2 -0.99549,1.1 -1.58498,2 -1.30998,2 0.275,0 1.31449,-0.9 2.30998,-2 z m 15.16228,-37.25 c -0.27741,-0.6875 -0.50439,-0.125 -0.50439,1.25 0,1.375 0.22698,1.9375 0.50439,1.25 0.27741,-0.6875 0.27741,-1.8125 0,-2.5 z m 1.02705,-7.5 c -0.25153,-0.9625 -0.45733,-0.175 -0.45733,1.75 0,1.925 0.2058,2.7125 0.45733,1.75 0.25152,-0.9625 0.25152,-2.5375 0,-3.5 z m -198,-1 c -0.25153,-0.9625 -0.45733,-0.175 -0.45733,1.75 0,1.925 0.2058,2.7125 0.45733,1.75 0.25152,-0.9625 0.25152,-2.5375 0,-3.5 z m 199.0414,-15.53017 c -0.20972,-2.32091 -0.37882,-0.16983 -0.37577,4.78017 0.003,4.95 0.17464,6.84892 0.38131,4.21983 0.20668,-2.6291 0.20418,-6.6791 -0.006,-9 z m -199.99723,1.0566 c -0.21125,-2.35204 -0.38706,-0.67643 -0.39069,3.72357 -0.004,4.4 0.16921,6.32439 0.38408,4.27643 0.21488,-2.04796 0.21785,-5.64796 0.007,-8 z M 378.68933,226.25 c -0.25153,-0.9625 -0.45733,-0.175 -0.45733,1.75 0,1.925 0.2058,2.7125 0.45733,1.75 0.25152,-0.9625 0.25152,-2.5375 0,-3.5 z m 198,-1 c -0.25153,-0.9625 -0.45733,-0.175 -0.45733,1.75 0,1.925 0.2058,2.7125 0.45733,1.75 0.25152,-0.9625 0.25152,-2.5375 0,-3.5 z m -1.02705,-6.5 c -0.27741,-0.6875 -0.50439,-0.125 -0.50439,1.25 0,1.375 0.22698,1.9375 0.50439,1.25 0.27741,-0.6875 0.27741,-1.8125 0,-2.5 z m -195,-3 c -0.27741,-0.6875 -0.50439,-0.125 -0.50439,1.25 0,1.375 0.22698,1.9375 0.50439,1.25 0.27741,-0.6875 0.27741,-1.8125 0,-2.5 z M 553,174.65499 c 0,-0.18976 -1.0125,-1.20226 -2.25,-2.25 L 548.5,170.5 l 1.90499,2.25 C 552.19521,174.86444 553,175.45524 553,174.65499 z M 405.5,172 c 0.99549,-1.1 1.58498,-2 1.30998,-2 -0.275,0 -1.31449,0.9 -2.30998,2 -0.99549,1.1 -1.58498,2 -1.30998,2 0.275,0 1.31449,-0.9 2.30998,-2 z m 6,-6 c 0.99549,-1.1 1.58498,-2 1.30998,-2 -0.275,0 -1.31449,0.9 -2.30998,2 -0.99549,1.1 -1.58498,2 -1.30998,2 0.275,0 1.31449,-0.9 2.30998,-2 z m 134.5,1.65499 c 0,-0.18976 -1.0125,-1.20226 -2.25,-2.25 L 541.5,163.5 l 1.90499,2.25 C 545.19521,167.86444 546,168.45524 546,167.65499 z M 417.12756,161.25 c 1.24387,-1.58606 1.2085,-1.62143 -0.37756,-0.37756 -1.66575,1.30637 -2.19548,2.12756 -1.37244,2.12756 0.20765,0 0.99515,-0.7875 1.75,-1.75 z M 540,162.62244 c 0,-0.20765 -0.7875,-0.99515 -1.75,-1.75 -1.58606,-1.24387 -1.62143,-1.2085 -0.37756,0.37756 1.30637,1.66575 2.12756,2.19548 2.12756,1.37244 z m -79.75,-20.28472 c -0.6875,-0.27741 -1.8125,-0.27741 -2.5,0 -0.6875,0.27741 -0.125,0.50439 1.25,0.50439 1.375,0 1.9375,-0.22698 1.25,-0.50439 z m 6,-1 c -0.6875,-0.27741 -1.8125,-0.27741 -2.5,0 -0.6875,0.27741 -0.125,0.50439 1.25,0.50439 1.375,0 1.9375,-0.22698 1.25,-0.50439 z m 26.5,-0.0271 c -0.9625,-0.25152 -2.5375,-0.25152 -3.5,0 -0.9625,0.25153 -0.175,0.45733 1.75,0.45733 1.925,0 2.7125,-0.2058 1.75,-0.45733 z m -17.98834,-0.99775 c -0.95609,-0.25029 -2.75609,-0.25937 -4,-0.0202 -1.24391,0.23919 -0.46166,0.44398 1.73834,0.45508 2.2,0.0111 3.21775,-0.18461 2.26166,-0.4349 z m 10,0 c -0.95609,-0.25029 -2.75609,-0.25937 -4,-0.0202 -1.24391,0.23919 -0.46166,0.44398 1.73834,0.45508 2.2,0.0111 3.21775,-0.18461 2.26166,-0.4349 z M 477.74963,39.322888 C 477.59721,20.7203 477.4724,35.65 477.4723,72.5 c -1.1e-4,36.85 0.12461,52.0703 0.27714,33.82289 0.15254,-18.247413 0.15262,-48.397413 1.9e-4,-67.000002 z M 89,129.04576 C 81.232615,126.92622 65.792966,121.31226 63.25,119.68289 62.557878,119.23942 62,116.89995 62,114.44098 62,111.01412 62.369891,110 63.619812,110 c 2.500334,0 35.32177,18.33585 35.352779,19.75 0.03541,1.61472 -2.001572,1.47087 -9.972591,-0.70424 z M 77.5,119.8686 C 63.813326,112.25691 64,112.32652 64,114.83399 c 0,2.23365 0.946123,3.05804 5.5,4.79233 1.65,0.62838 5.925,2.27729 9.5,3.66424 10.631475,4.12457 10.167904,3.06702 -1.5,-3.42196 z"
     id="path4459"
     style="fill:#000000" />
</svg>
