<?xml version="1.0" encoding="UTF-8" standalone="no"?>
<!-- Created with Inkscape (http://www.inkscape.org/) -->

<svg
   xmlns:dc="http://purl.org/dc/elements/1.1/"
   xmlns:cc="http://creativecommons.org/ns#"
   xmlns:rdf="http://www.w3.org/1999/02/22-rdf-syntax-ns#"
   xmlns:svg="http://www.w3.org/2000/svg"
   xmlns="http://www.w3.org/2000/svg"
   version="1.1"
   width="640"
   height="480"
   id="svg4669">
  <metadata
     id="metadata4675">
    <rdf:RDF>
      <cc:Work
         rdf:about="">
        <dc:format>image/svg+xml</dc:format>
        <dc:type
           rdf:resource="http://purl.org/dc/dcmitype/StillImage" />
        <dc:title></dc:title>
      </cc:Work>
    </rdf:RDF>
  </metadata>
  <defs
     id="defs4673" />
  <path
     d="m 300.5,476.39455 c -17.08891,-1.75222 -41.04694,-5.86746 -43,-7.38606 -0.55,-0.42765 -2.575,-1.11215 -4.5,-1.5211 -7.82093,-1.66152 -21.70794,-6.70806 -29.13615,-10.58809 C 221.86396,455.85468 219.69575,455 219.0456,455 217.1906,455 184.77683,436.01706 182.11364,433.37101 180.80114,432.06695 179.36182,431 178.91516,431 c -0.44666,0 -1.92938,-1.0125 -3.29493,-2.25 -1.36554,-1.2375 -4.16818,-3.6 -6.22808,-5.25 -3.45075,-2.76409 -13.62634,-11.89681 -17.32408,-15.54857 -0.86244,-0.85172 -4.26807,-4.62882 -7.56807,-8.39356 -3.3,-3.76475 -6.64529,-7.50604 -7.43398,-8.31399 -0.78869,-0.80794 -3.5909,-4.45584 -6.22714,-8.10643 -2.63623,-3.6506 -5.42035,-7.31245 -6.18692,-8.13745 -1.69974,-1.82928 -16.41087,-27.11277 -17.26323,-29.66968 -0.51794,-1.5537 -3.543,-8.29042 -6.51633,-14.51164 -1.912554,-4.00171 -7.230834,-20.07514 -9.53082,-28.80498 -10.067319,-38.21156 -10.762408,-73.86603 -2.232209,-114.50075 1.153087,-5.49288 2.687387,-11.56788 3.409556,-13.5 0.72217,-1.93212 2.104283,-6.21295 3.071363,-9.51295 0.96708,-3.3 2.354888,-6.88763 3.084019,-7.97251 C 99.403439,155.44262 100,153.98828 100,153.29563 c 0,-0.69265 1.88525,-5.20502 4.18943,-10.02749 2.30419,-4.82248 4.50472,-9.74119 4.89008,-10.93047 1.26032,-3.88967 16.74821,-28.67165 20.20993,-32.33767 0.77903,-0.825 2.27009,-2.842573 3.31349,-4.483495 1.04339,-1.640923 2.57207,-3.68778 3.39707,-4.548573 0.825,-0.860792 4.2,-4.634707 7.5,-8.386476 5.88529,-6.690988 16.55663,-17.33589 21.5,-21.446735 9.22954,-7.675172 15.59041,-12.386867 24.91812,-18.457617 12.63195,-8.221239 16.59894,-10.599816 17.74235,-10.638174 0.63825,-0.02141 4.33695,-1.83893 8.21932,-4.03893 3.88238,-2.2 7.46667,-4 7.96511,-4 0.49843,0 3.54973,-1.170213 6.78067,-2.600474 31.66348,-14.0166868 76.99187,-20.3116288 114.58981,-15.913562 13.49293,1.5783537 36.82556,5.993912 39.61436,7.496778 0.91864,0.49505 4.59526,1.793862 8.17026,2.886247 10.59162,3.236401 18.01255,6.084177 26.5,10.169351 9.89492,4.76262 34.87406,19.3262 39.19733,22.853213 C 460.45586,50.326199 463.73448,52.85 465.98314,54.5 474.91959,61.057285 501,86.003437 501,87.993944 c 0,0.392706 1.15373,2.017221 2.56386,3.610033 1.41012,1.592813 3.35593,3.796023 4.32402,4.896023 0.96809,1.1 2.61138,3.4625 3.65175,5.25 1.04037,1.7875 2.20279,3.25 2.58315,3.25 1.20688,0 17.56464,29.11604 21.83974,38.8737 8.83219,20.15896 14.15856,38.54914 17.70411,61.1263 2.55597,16.27584 2.56866,54.82824 0.0234,71 -2.97573,18.90655 -6.94244,33.09626 -16.26288,58.17557 -0.7513,2.02156 -2.27806,5.17156 -3.39282,7 -1.11475,1.82844 -2.02851,3.8513 -2.03056,4.49525 -0.005,1.46557 -10.26453,19.45262 -14.16261,24.82918 -1.59504,2.2 -5.17118,7.15 -7.947,11 -11.1462,15.45955 -28.39267,33.30972 -43.39413,44.91311 -19.73652,15.26588 -24.89008,18.31803 -55,32.57323 -11.97632,5.67006 -34.84362,11.99887 -56.5,15.63709 -8.20271,1.37803 -46.26893,2.61509 -54.5,1.77112 z m 27.79571,-1.13613 c -3.96237,-0.18931 -10.71237,-0.19045 -15,-0.003 -4.28764,0.1879 -1.04571,0.34279 7.20429,0.34419 8.25,0.001 11.75807,-0.15234 7.79571,-0.34164 z M 301.75,474.28375 c -1.5125,-0.22913 -3.9875,-0.22913 -5.5,0 -1.5125,0.22912 -0.275,0.41659 2.75,0.41659 3.025,0 4.2625,-0.18747 2.75,-0.41659 z m 43,0 c -1.5125,-0.22913 -3.9875,-0.22913 -5.5,0 -1.5125,0.22912 -0.275,0.41659 2.75,0.41659 3.025,0 4.2625,-0.18747 2.75,-0.41659 z m -54,-0.97308 c -0.9625,-0.25152 -2.5375,-0.25152 -3.5,0 -0.9625,0.25153 -0.175,0.45733 1.75,0.45733 1.925,0 2.7125,-0.2058 1.75,-0.45733 z M 353,471.60965 c 21.42445,-3.56452 44.35644,-9.9004 56.5,-15.61037 2.2,-1.03446 8.05,-3.78358 13,-6.10918 10.00141,-4.69882 22.46058,-11.63146 24,-13.35428 0.55,-0.61552 2.63705,-2.11841 4.6379,-3.33975 11.06426,-6.75377 31.97575,-25.24589 43.3621,-38.34527 7.7166,-8.87754 6.99525,-7.94306 20.34113,-26.3508 3.89808,-5.37656 14.15793,-23.36361 14.16261,-24.82918 0.002,-0.64395 0.91581,-2.66681 2.03056,-4.49525 2.11299,-3.46576 2.46249,-4.32841 8.37665,-20.67557 7.34358,-20.29822 12.01989,-43.3105 13.25941,-65.25 L 553.30595,242 319.65297,242 86,242 l 8.36e-4,2.75 c 0.0037,12.22755 4.168697,39.73752 8.44049,55.75 2.23715,8.38578 7.598514,24.48435 9.431074,28.31868 2.97333,6.22122 5.99839,12.95794 6.51633,14.51164 0.84414,2.53226 15.30817,27.31986 17.18031,29.44261 0.83775,0.94989 3.63993,4.64637 6.22707,8.21441 2.58714,3.56804 5.37889,7.1899 6.20389,8.04857 0.825,0.85868 4.2,4.63943 7.5,8.40166 7.3312,8.35808 15.30419,15.99103 24.08984,23.06243 2.04999,1.65 4.84662,4.0125 6.21473,5.25 1.36811,1.2375 2.80605,2.25 3.19543,2.25 0.38938,0 1.96698,1.16682 3.50578,2.59294 C 187.65395,433.51056 219.21367,452 221.0456,452 c 0.65015,0 2.81836,0.85468 4.81825,1.8993 7.42821,3.88003 21.31522,8.92657 29.13615,10.58809 1.925,0.40895 3.95,1.09345 4.5,1.5211 1.95202,1.51779 25.81598,5.61791 43,7.38793 7.88809,0.8125 42.16687,-0.40034 50.5,-1.78677 z m -0.75,1.72807 c -0.6875,-0.27741 -1.8125,-0.27741 -2.5,0 -0.6875,0.27741 -0.125,0.50439 1.25,0.50439 1.375,0 1.9375,-0.22698 1.25,-0.50439 z m -69,-1 c -0.6875,-0.27741 -1.8125,-0.27741 -2.5,0 -0.6875,0.27741 -0.125,0.50439 1.25,0.50439 1.375,0 1.9375,-0.22698 1.25,-0.50439 z m 76.5,-0.027 c -0.9625,-0.25152 -2.5375,-0.25152 -3.5,0 -0.9625,0.25153 -0.175,0.45733 1.75,0.45733 1.925,0 2.7125,-0.2058 1.75,-0.45733 z m -82.5,-0.97295 c -0.6875,-0.27741 -1.8125,-0.27741 -2.5,0 -0.6875,0.27741 -0.125,0.50439 1.25,0.50439 1.375,0 1.9375,-0.22698 1.25,-0.50439 z m 92,-1 c -0.6875,-0.27741 -1.8125,-0.27741 -2.5,0 -0.6875,0.27741 -0.125,0.50439 1.25,0.50439 1.375,0 1.9375,-0.22698 1.25,-0.50439 z m -102,-1 c -0.6875,-0.27741 -1.8125,-0.27741 -2.5,0 -0.6875,0.27741 -0.125,0.50439 1.25,0.50439 1.375,0 1.9375,-0.22698 1.25,-0.50439 z M 460.12756,429.25 c 1.24387,-1.58606 1.2085,-1.62143 -0.37756,-0.37756 -0.9625,0.75485 -1.75,1.54235 -1.75,1.75 0,0.82304 0.82119,0.29331 2.12756,-1.37244 z m 5,-4 c 1.24387,-1.58606 1.2085,-1.62143 -0.37756,-0.37756 -1.66575,1.30637 -2.19548,2.12756 -1.37244,2.12756 0.20765,0 0.99515,-0.7875 1.75,-1.75 z M 476.5,416 c 0.99549,-1.1 1.58498,-2 1.30998,-2 -0.275,0 -1.31449,0.9 -2.30998,2 -0.99549,1.1 -1.58498,2 -1.30998,2 0.275,0 1.31449,-0.9 2.30998,-2 z M 162,414.69617 c 0,-0.16711 -1.6875,-1.85461 -3.75,-3.75 L 154.5,407.5 l 3.44617,3.75 c 3.20761,3.49042 4.05383,4.20979 4.05383,3.44617 z m -10,-10.04118 c 0,-0.18976 -1.0125,-1.20226 -2.25,-2.25 L 147.5,400.5 l 1.90499,2.25 C 151.19521,404.86444 152,405.45524 152,404.65499 z M 494.5,398 c 0.99549,-1.1 1.58498,-2 1.30998,-2 -0.275,0 -1.31449,0.9 -2.30998,2 -0.99549,1.1 -1.58498,2 -1.30998,2 0.275,0 1.31449,-0.9 2.30998,-2 z M 144,395.65499 c 0,-0.18976 -1.0125,-1.20226 -2.25,-2.25 L 139.5,391.5 l 1.90499,2.25 c 1.79022,2.11444 2.59501,2.70524 2.59501,1.90499 z m -10,-12.03255 c 0,-0.20765 -0.7875,-0.99515 -1.75,-1.75 -1.58606,-1.24387 -1.62143,-1.2085 -0.37756,0.37756 1.30637,1.66575 2.12756,2.19548 2.12756,1.37244 z M 509.12756,380.25 c 1.24387,-1.58606 1.2085,-1.62143 -0.37756,-0.37756 -1.66575,1.30637 -2.19548,2.12756 -1.37244,2.12756 0.20765,0 0.99515,-0.7875 1.75,-1.75 z m 7,-10 c 1.24387,-1.58606 1.2085,-1.62143 -0.37756,-0.37756 -0.9625,0.75485 -1.75,1.54235 -1.75,1.75 0,0.82304 0.82119,0.29331 2.12756,-1.37244 z M 89.662281,285.75 c -0.277413,-0.6875 -0.504386,-0.125 -0.504386,1.25 0,1.375 0.226973,1.9375 0.504386,1.25 0.277412,-0.6875 0.277412,-1.8125 0,-2.5 z m 460.999999,-2 c -0.27741,-0.6875 -0.50439,-0.125 -0.50439,1.25 0,1.375 0.22698,1.9375 0.50439,1.25 0.27741,-0.6875 0.27741,-1.8125 0,-2.5 z M 88.683114,280.8125 c -0.319226,-0.79773 -0.556183,-0.56078 -0.604167,0.60417 -0.04342,1.05416 0.192928,1.64479 0.52522,1.3125 0.332291,-0.33229 0.367818,-1.1948 0.07895,-1.91667 z M 551.66228,277.75 c -0.27741,-0.6875 -0.50439,-0.125 -0.50439,1.25 0,1.375 0.22698,1.9375 0.50439,1.25 0.27741,-0.6875 0.27741,-1.8125 0,-2.5 z m -463.999999,-3 c -0.277413,-0.6875 -0.504386,-0.125 -0.504386,1.25 0,1.375 0.226973,1.9375 0.504386,1.25 0.277412,-0.6875 0.277412,-1.8125 0,-2.5 z m 465.027049,-4.5 c -0.25153,-0.9625 -0.45733,-0.175 -0.45733,1.75 0,1.925 0.2058,2.7125 0.45733,1.75 0.25152,-0.9625 0.25152,-2.5375 0,-3.5 z m -466.000004,-3 c -0.251528,-0.9625 -0.457323,-0.175 -0.457323,1.75 0,1.925 0.205795,2.7125 0.457323,1.75 0.251527,-0.9625 0.251527,-2.5375 0,-3.5 z m 467.017934,-5.48834 c -0.23919,-1.24391 -0.44398,-0.46166 -0.45508,1.73834 -0.0111,2.2 0.18461,3.21775 0.4349,2.26166 0.25029,-0.95609 0.25937,-2.75609 0.0202,-4 z M 85.716254,256.25 c -0.229124,-1.5125 -0.41659,-0.275 -0.41659,2.75 0,3.025 0.187466,4.2625 0.41659,2.75 0.229125,-1.5125 0.229125,-3.9875 0,-5.5 z m 469.015956,-10.5 c -0.21054,-2.3375 -0.3828,-0.425 -0.3828,4.25 0,4.675 0.17226,6.5875 0.3828,4.25 0.21053,-2.3375 0.21053,-6.1625 0,-8.5 z m -470.015956,-1.5 c -0.229124,-1.5125 -0.41659,-0.275 -0.41659,2.75 0,3.025 0.187466,4.2625 0.41659,2.75 0.229125,-1.5125 0.229125,-3.9875 0,-5.5 z m 352.113936,-3.99995 c -64.16839,-0.14208 -169.46839,-0.14209 -234,-2e-5 -64.5316,0.14207 -12.03019,0.25832 116.66981,0.25833 128.7,1e-5 181.49859,-0.11623 117.33019,-0.25831 z M 84.716254,231.25 c -0.229124,-1.5125 -0.41659,-0.275 -0.41659,2.75 0,3.025 0.187466,4.2625 0.41659,2.75 0.229125,-1.5125 0.229125,-3.9875 0,-5.5 z m 467.963306,-3.19139 c -1.67329,-29.24508 -8.17172,-56.08439 -20.08523,-82.95438 -4.96036,-11.18769 -18.39882,-34.71121 -22.12925,-38.73641 C 509.10929,104.9049 508,103.38938 508,103 c 0,-0.38938 -1.15373,-2.01116 -2.56386,-3.603977 C 500.55818,93.886084 499.4288,92.489228 497.83927,90 494.43745,84.672678 475.18774,66.231791 464,57.582572 c -2.475,-1.913418 -5.85,-4.562809 -7.5,-5.887535 -4.26266,-3.422338 -29.5042,-18.086181 -39,-22.656697 -8.48745,-4.085174 -15.90838,-6.93295 -26.5,-10.169351 -3.575,-1.092385 -7.25162,-2.391197 -8.17026,-2.886247 -2.7888,-1.502866 -26.12143,-5.918424 -39.61436,-7.496778 -16.11471,-1.8850385 -31.346,-1.8867361 -47.22151,-0.00526 -24.86038,2.946303 -46.13858,8.291626 -63.3683,15.918822 C 229.39463,25.829787 226.34333,27 225.8449,27 c -0.49844,0 -4.08273,1.8 -7.96511,4 -3.88237,2.2 -7.58107,4.017519 -8.21932,4.03893 -1.13987,0.03824 -4.97264,2.334713 -17.74235,10.630655 C 165.29964,62.962488 148.35394,79.92105 124.13915,113.5 120.92592,117.95582 112,133.31163 112,134.38373 c 0,0.37796 -2.025,4.90635 -4.5,10.06311 -2.475,5.15675 -4.5,9.99066 -4.5,10.74203 0,0.75136 -0.59656,2.25375 -1.32569,3.33862 -0.72913,1.08488 -2.11694,4.67251 -3.08402,7.97251 -0.96708,3.3 -2.376313,7.64861 -3.131629,9.66357 -3.185823,8.49885 -7.73125,35.42279 -9.046716,53.58643 l -0.669914,9.25 233.781769,0 233.78178,0 -0.62602,-10.94139 z m 2.05394,-0.28218 c -0.21125,-2.35204 -0.38706,-0.67643 -0.39069,3.72357 -0.004,4.4 0.16921,6.32439 0.38408,4.27643 0.21488,-2.04796 0.21785,-5.64796 0.007,-8 z M 85.716254,219.25 c -0.229124,-1.5125 -0.41659,-0.275 -0.41659,2.75 0,3.025 0.187466,4.2625 0.41659,2.75 0.229125,-1.5125 0.229125,-3.9875 0,-5.5 z m 467.989476,-3.5 c -0.23835,-1.2375 -0.43337,-0.225 -0.43337,2.25 0,2.475 0.19502,3.4875 0.43337,2.25 0.23836,-1.2375 0.23836,-3.2625 0,-4.5 z m -467.016404,-5.5 c -0.251528,-0.9625 -0.457323,-0.175 -0.457323,1.75 0,1.925 0.205795,2.7125 0.457323,1.75 0.251527,-0.9625 0.251527,-2.5375 0,-3.5 z m 466.000004,-3 c -0.25153,-0.9625 -0.45733,-0.175 -0.45733,1.75 0,1.925 0.2058,2.7125 0.45733,1.75 0.25152,-0.9625 0.25152,-2.5375 0,-3.5 z m -465.027049,-3.5 c -0.277413,-0.6875 -0.504386,-0.125 -0.504386,1.25 0,1.375 0.226973,1.9375 0.504386,1.25 0.277412,-0.6875 0.277412,-1.8125 0,-2.5 z m 463.999999,-3 c -0.27741,-0.6875 -0.50439,-0.125 -0.50439,1.25 0,1.375 0.22698,1.9375 0.50439,1.25 0.27741,-0.6875 0.27741,-1.8125 0,-2.5 z m -462.999999,-3 c -0.277413,-0.6875 -0.504386,-0.125 -0.504386,1.25 0,1.375 0.226973,1.9375 0.504386,1.25 0.277412,-0.6875 0.277412,-1.8125 0,-2.5 z m 461.999999,-3 c -0.27741,-0.6875 -0.50439,-0.125 -0.50439,1.25 0,1.375 0.22698,1.9375 0.50439,1.25 0.27741,-0.6875 0.27741,-1.8125 0,-2.5 z m -459.999999,-7 c -0.277413,-0.6875 -0.504386,-0.125 -0.504386,1.25 0,1.375 0.226973,1.9375 0.504386,1.25 0.277412,-0.6875 0.277412,-1.8125 0,-2.5 z m 458.020829,-1.9375 c -0.31922,-0.79773 -0.55618,-0.56078 -0.60416,0.60417 -0.0434,1.05416 0.19293,1.64479 0.52522,1.3125 0.33229,-0.3323 0.36781,-1.1948 0.0789,-1.91667 z M 124.12756,111.25 c 1.24387,-1.58606 1.2085,-1.62143 -0.37756,-0.37756 -0.9625,0.75485 -1.75,1.54235 -1.75,1.75 0,0.82304 0.82119,0.29331 2.12756,-1.37244 z M 141.5,88 c 0.99549,-1.1 1.58498,-2 1.30998,-2 -0.275,0 -1.31449,0.9 -2.30998,2 -0.99549,1.1 -1.58498,2 -1.30998,2 0.275,0 1.31449,-0.9 2.30998,-2 z M 499,87.654988 c 0,-0.189757 -1.0125,-1.202257 -2.25,-2.25 L 494.5,83.5 l 1.90499,2.25 C 498.19521,87.864445 499,88.455241 499,87.654988 z M 149.5,79 c 0.99549,-1.1 1.58498,-2 1.30998,-2 -0.275,0 -1.31449,0.9 -2.30998,2 -0.99549,1.1 -1.58498,2 -1.30998,2 0.275,0 1.31449,-0.9 2.30998,-2 z m 9.5,-9.5 c 2.98742,-3.025 5.20668,-5.5 4.93168,-5.5 -0.275,0 -2.94426,2.475 -5.93168,5.5 -2.98742,3.025 -5.20668,5.5 -4.93168,5.5 0.275,0 2.94426,-2.475 5.93168,-5.5 z m 319,-2.845012 c 0,-0.189757 -1.0125,-1.202257 -2.25,-2.25 L 473.5,62.5 l 1.90499,2.25 C 477.19521,66.864445 478,67.455241 478,66.654988 z M 173.5,57 c 0.99549,-1.1 1.58498,-2 1.30998,-2 -0.275,0 -1.31449,0.9 -2.30998,2 -0.99549,1.1 -1.58498,2 -1.30998,2 0.275,0 1.31449,-0.9 2.30998,-2 z M 467,57.654988 c 0,-0.189757 -1.0125,-1.202257 -2.25,-2.25 L 462.5,53.5 l 1.90499,2.25 C 466.19521,57.864445 467,58.455241 467,57.654988 z M 182.12756,50.25 c 1.24387,-1.586056 1.2085,-1.621426 -0.37756,-0.377555 C 180.08425,51.178814 179.55452,52 180.37756,52 c 0.20765,0 0.99515,-0.7875 1.75,-1.75 z M 459,51.654988 c 0,-0.189757 -1.0125,-1.202257 -2.25,-2.25 L 454.5,47.5 l 1.90499,2.25 C 458.19521,51.864445 459,52.455241 459,51.654988 z M 197.12756,40.25 c 1.24387,-1.586056 1.2085,-1.621426 -0.37756,-0.377555 -0.9625,0.754844 -1.75,1.542344 -1.75,1.75 0,0.823034 0.82119,0.293303 2.12756,-1.372445 z M 373.25,11.337719 c -0.6875,-0.277412 -1.8125,-0.277412 -2.5,0 -0.6875,0.277413 -0.125,0.504386 1.25,0.504386 1.375,0 1.9375,-0.226973 1.25,-0.504386 z m -100,-1 c -0.6875,-0.277412 -1.8125,-0.277412 -2.5,0 -0.6875,0.277413 -0.125,0.504386 1.25,0.504386 1.375,0 1.9375,-0.226973 1.25,-0.504386 z m 5.47917,-0.9418857 c -0.33229,-0.3322916 -1.1948,-0.3678179 -1.91667,-0.078947 -0.79773,0.3192263 -0.56078,0.5561827 0.60417,0.6041666 1.05416,0.043421 1.64479,-0.1929276 1.3125,-0.5252193 z M 363.25,9.3377193 c -0.6875,-0.2774123 -1.8125,-0.2774123 -2.5,0 -0.6875,0.2774123 -0.125,0.504386 1.25,0.504386 1.375,0 1.9375,-0.2269737 1.25,-0.504386 z m -79,-1 c -0.6875,-0.2774123 -1.8125,-0.2774123 -2.5,0 -0.6875,0.2774123 -0.125,0.504386 1.25,0.504386 1.375,0 1.9375,-0.2269737 1.25,-0.504386 z m 73,0 c -0.6875,-0.2774123 -1.8125,-0.2774123 -2.5,0 -0.6875,0.2774123 -0.125,0.504386 1.25,0.504386 1.375,0 1.9375,-0.2269737 1.25,-0.504386 z m -65.5,-1.0270448 c -0.9625,-0.2515276 -2.5375,-0.2515276 -3.5,0 -0.9625,0.2515275 -0.175,0.4573228 1.75,0.4573228 1.925,0 2.7125,-0.2057953 1.75,-0.4573228 z m 59,0 c -0.9625,-0.2515276 -2.5375,-0.2515276 -3.5,0 -0.9625,0.2515275 -0.175,0.4573228 1.75,0.4573228 1.925,0 2.7125,-0.2057953 1.75,-0.4573228 z M 301.25,6.294267 c -1.2375,-0.2383529 -3.2625,-0.2383529 -4.5,0 -1.2375,0.2383529 -0.225,0.4333689 2.25,0.4333689 2.475,0 3.4875,-0.195016 2.25,-0.4333689 z m 41,0 c -1.2375,-0.2383529 -3.2625,-0.2383529 -4.5,0 -1.2375,0.2383529 -0.225,0.4333689 2.25,0.4333689 2.475,0 3.4875,-0.195016 2.25,-0.4333689 z M 327.29571,5.258416 c -3.96237,-0.1893045 -10.71237,-0.1904508 -15,-0.00255 -4.28764,0.1879035 -1.04571,0.342789 7.20429,0.34419 8.25,0.0014 11.75807,-0.1523383 7.79571,-0.3416428 z"
     id="path4679"
     style="fill:#000000" />
</svg>
