<?xml version="1.0" encoding="UTF-8" standalone="no"?>
<!-- Created with Inkscape (http://www.inkscape.org/) -->

<svg
   xmlns:dc="http://purl.org/dc/elements/1.1/"
   xmlns:cc="http://creativecommons.org/ns#"
   xmlns:rdf="http://www.w3.org/1999/02/22-rdf-syntax-ns#"
   xmlns:svg="http://www.w3.org/2000/svg"
   xmlns="http://www.w3.org/2000/svg"
   version="1.1"
   width="640"
   height="480"
   id="svg4779">
  <metadata
     id="metadata4785">
    <rdf:RDF>
      <cc:Work
         rdf:about="">
        <dc:format>image/svg+xml</dc:format>
        <dc:type
           rdf:resource="http://purl.org/dc/dcmitype/StillImage" />
        <dc:title></dc:title>
      </cc:Work>
    </rdf:RDF>
  </metadata>
  <defs
     id="defs4783" />
  <path
     d="m 319,336 0,-141 -45.82071,0 -45.82071,0 -1.1955,7.68976 c -0.93866,6.03769 -2.17922,9.36773 -5.77433,15.5 -2.51836,4.29563 -4.87819,7.81024 -5.24407,7.81024 -0.36589,0 -2.46062,1.70339 -4.65496,3.78531 -8.54818,8.11021 -16.41538,10.73391 -31.98972,10.66848 -15.21012,-0.0639 -25.53419,-4.0681 -34.17411,-13.2545 -9.20694,-9.78929 -12.71435,-19.20256 -12.77988,-34.29893 -0.0253,-5.8298 0.43248,-11.6798 1.01731,-13 8.96544,-20.23878 18.58962,-29.33917 35.31238,-33.39053 5.5195,-1.33718 9.39101,-1.63147 15.38358,-1.16935 14.61398,1.12694 30.69899,11.26009 37.55633,23.65952 3.11732,5.63675 6.18439,15.75105 6.18439,20.39434 l 0,2.60566 46,0 46,0 0,-45.87083 0,-45.87084 -5.85513,-0.66243 C 295.01404,97.54463 280.7529,86.060393 274.72461,68.656763 c -1.63742,-4.727208 -2.14328,-8.617921 -2.1786,-16.7564 -0.0253,-5.8298 0.43248,-11.6798 1.01731,-13 C 282.52876,18.661583 292.15294,9.5611912 308.8757,5.5098341 320.15049,2.7783346 329.95416,3.8339319 340.38358,8.9024034 361.60104,19.213631 371.3348,39.262634 366.92284,63.566341 365.92887,69.041694 357.90406,85 356.14468,85 c -0.36589,0 -2.46062,1.722241 -4.65496,3.827202 -6.28437,6.028385 -14.58314,9.680369 -24.73972,10.887045 l -4.75,0.564333 0,45.86071 0,45.86071 45.38478,0 45.38477,0 0.7073,-5.661 c 0.38901,-3.11355 1.03864,-6.37605 1.44361,-7.25 9.32864,-20.13146 18.37419,-28.56214 34.95524,-32.57917 11.27479,-2.7315 21.07846,-1.6759 31.50788,3.39257 21.21746,10.31123 30.95122,30.36023 26.53926,54.66394 C 506.92887,210.04169 498.90406,226 497.14468,226 c -0.36589,0 -2.46062,1.70339 -4.65496,3.78531 -5.23876,4.97035 -7.77917,6.45864 -14.98972,8.78167 -8.07532,2.60163 -25.75611,2.637 -33,0.066 -17.24239,-6.11963 -28.54733,-20.39779 -31.18204,-39.383 L 412.72815,195 367.36408,195 322,195 l 0,141 c 0,124.66667 -0.17376,141 -1.5,141 -1.32624,0 -1.5,-16.33333 -1.5,-141 z m 1.74989,-71.25 c -0.14499,-38.6375 -0.26361,-7.025 -0.26361,70.25 0,77.275 0.11862,108.8875 0.26361,70.25 0.14499,-38.6375 0.14499,-101.8625 0,-140.5 z M 193.5,236.59182 c 6.91838,-2.30614 10.34665,-4.31068 14.98972,-8.76462 2.19434,-2.10496 4.28907,-3.8272 4.65496,-3.8272 0.36588,0 2.74138,-3.54132 5.27888,-7.86961 13.8706,-23.65949 4.73166,-51.66914 -20.92356,-64.12791 -10.32604,-5.01457 -17.58078,-5.92541 -27.69013,-3.47651 -16.65039,4.0334 -26.30459,13.17453 -35.2443,33.37122 -0.58359,1.31845 -1.03383,6.26845 -1.00052,11 0.16146,22.9404 15.04094,41.00516 37.43495,45.44871 4.64823,0.92233 17.46937,-0.0772 22.5,-1.75408 z m 282,0 c 6.91838,-2.30614 10.34665,-4.31068 14.98972,-8.76462 2.19434,-2.10496 4.28907,-3.8272 4.65496,-3.8272 0.36588,0 2.74138,-3.54132 5.27888,-7.86961 8.07506,-13.77387 8.59121,-28.13991 1.53588,-42.74833 -6.20468,-12.8471 -22.50925,-24.38976 -36.64957,-25.94571 -17.28771,-1.90227 -36.00328,8.78039 -44.27654,25.27262 -5.44924,10.86272 -5.53178,11.16745 -5.46828,20.18822 0.16146,22.9404 15.04094,41.00516 37.43495,45.44871 4.64823,0.92233 17.46937,-0.0772 22.5,-1.75408 z m -179.25,-43.3409 c -12.7875,-0.15828 -33.7125,-0.15828 -46.5,0 -12.7875,0.15828 -2.325,0.28778 23.25,0.28778 25.575,0 36.0375,-0.1295 23.25,-0.28778 z m 94.56858,2.1e-4 c -12.47479,-0.15858 -33.17479,-0.15875 -46,-3.8e-4 -12.82522,0.15837 -2.61858,0.28812 22.68142,0.28833 25.3,2.1e-4 35.79336,-0.12936 23.31858,-0.28795 z M 320.74908,122.75 c -0.15828,-12.7875 -0.28778,-2.325 -0.28778,23.25 0,25.575 0.1295,36.0375 0.28778,23.25 0.15828,-12.7875 0.15828,-33.7125 0,-46.5 z M 334.5,95.591823 c 6.91838,-2.306141 10.34665,-4.310679 14.98972,-8.764621 C 351.68406,84.722241 353.77879,83 354.14468,83 c 0.36588,0 2.74138,-3.541323 5.27888,-7.869607 8.07506,-13.77387 8.59121,-28.139917 1.53588,-42.748338 -6.20468,-12.8471 -22.50925,-24.3897591 -36.64957,-25.945703 -17.28771,-1.9022708 -36.00328,8.780392 -44.27654,25.272616 -5.44924,10.862727 -5.53178,11.167449 -5.46828,20.18822 0.16146,22.940405 15.04094,41.005163 37.43495,45.448716 4.64823,0.922331 17.46937,-0.0772 22.5,-1.754081 z"
     id="path4789"
     style="fill:#000000" />
</svg>
