<?xml version="1.0" encoding="UTF-8" standalone="no"?>
<!-- Created with Inkscape (http://www.inkscape.org/) -->

<svg
   xmlns:dc="http://purl.org/dc/elements/1.1/"
   xmlns:cc="http://creativecommons.org/ns#"
   xmlns:rdf="http://www.w3.org/1999/02/22-rdf-syntax-ns#"
   xmlns:svg="http://www.w3.org/2000/svg"
   xmlns="http://www.w3.org/2000/svg"
   version="1.1"
   width="640"
   height="480"
   id="svg4889">
  <metadata
     id="metadata4895">
    <rdf:RDF>
      <cc:Work
         rdf:about="">
        <dc:format>image/svg+xml</dc:format>
        <dc:type
           rdf:resource="http://purl.org/dc/dcmitype/StillImage" />
        <dc:title></dc:title>
      </cc:Work>
    </rdf:RDF>
  </metadata>
  <defs
     id="defs4893" />
  <path
     d="m 301,477.31089 c -14.04705,-1.06037 -32.46702,-4.41076 -46.5,-8.45784 -11.77033,-3.39453 -30.33018,-10.28323 -31.87933,-11.83238 -0.56137,-0.56137 -1.71817,-1.02293 -2.57067,-1.0257 -1.70149,-0.006 -33.93981,-18.45858 -35.55,-20.34865 -0.55,-0.6456 -2.35,-2.02132 -4,-3.05715 -1.65,-1.03582 -3.675,-2.47878 -4.5,-3.20656 -0.825,-0.72778 -4.65746,-3.96726 -8.51658,-7.19885 C 155.36723,412.03781 142.19596,398.25498 133.383,386.5 c -2.06174,-2.75 -4.94686,-6.575 -6.41139,-8.5 -4.70461,-6.1838 -18.0129,-29.83522 -22.56552,-40.10329 -4.0139,-9.05305 -7.328306,-18.21054 -11.803949,-32.61361 -2.610149,-8.39971 -6.361175,-28.82886 -7.666855,-41.75586 C 83.457999,248.90124 84.22463,220.74267 86.501493,206 89.921352,183.85644 97.630355,158.39393 105.61628,142.86467 106.92733,140.31524 108,137.75562 108,137.17662 c 0,-1.58787 14.51846,-25.83159 19.56854,-32.67662 2.43465,-3.3 5.21533,-7.171741 6.17929,-8.603868 C 138.18567,89.302941 155.4797,71.085682 164.97682,63 c 2.90704,-2.475 6.41721,-5.5125 7.80038,-6.75 C 174.16036,55.0125 175.61062,54 176,54 c 0.38938,0 1.84373,-1.052597 3.23189,-2.339105 1.38816,-1.286507 4.94138,-3.821924 7.89602,-5.634258 2.95465,-1.812335 6.51165,-4.247238 7.90445,-5.410896 3.62725,-3.030499 29.76133,-15.880333 40.96764,-20.143324 2.475,-0.941515 5.4,-2.076228 6.5,-2.521585 2.05156,-0.830614 11.73749,-3.66532 21.5,-6.292235 13.78218,-3.708536 38.6826,-6.6391483 56.50613,-6.6503922 26.49992,-0.016717 62.54572,6.2949632 79.99387,14.0070632 1.1,0.486201 4.02544,1.538281 6.50097,2.337955 4.82364,1.558184 6.40887,2.278183 17.99903,8.175031 23.11457,11.760241 47.21915,28.58599 60.95143,42.546 10.00312,10.169007 18.37351,19.731135 24.00766,27.425746 2.41633,3.3 5.57752,7.575 7.02488,9.5 2.99329,3.98111 16.01603,26.26551 16.01603,27.4065 0,0.41237 1.54697,3.9771 3.4377,7.92163 1.89074,3.94453 4.1634,9.42187 5.05037,12.17187 0.88696,2.75 1.99458,5.9 2.46137,7 2.29723,5.41342 6.16035,19.63119 8.96647,33 3.60339,17.16714 5.01159,47.55721 3.08144,66.5 -1.81625,17.82502 -6.29518,41.57617 -8.95743,47.5 -0.49436,1.1 -1.86672,5.25828 -3.04971,9.24063 -1.18298,3.98235 -2.56473,7.49641 -3.07055,7.80902 -0.50581,0.31261 -0.92568,1.32933 -0.93303,2.25937 C 539.97927,330.73906 537.73529,336 535,341.5 c -2.73529,5.5 -4.99925,10.45 -5.03103,11 -0.0596,1.03069 -6.50436,11.67396 -13.37232,22.0837 C 511.75619,381.92038 495.42546,401.57454 488,409 c -7.40996,7.40996 -27.06739,23.74693 -34.40887,28.59665 -8.89528,5.87614 -22.98684,14.36658 -23.87659,14.38611 -0.43201,0.009 -5.00462,2.04224 -10.16138,4.51724 -5.15675,2.475 -10.06423,4.5 -10.90552,4.5 -0.84128,0 -1.78538,0.41385 -2.09799,0.91966 -0.31261,0.50582 -3.82667,1.88757 -7.80902,3.07055 -3.98235,1.18299 -8.14063,2.55535 -9.24063,3.04971 -5.73054,2.57538 -28.63685,6.94014 -47,8.95578 -8.38154,0.92001 -31.1928,1.09326 -41.5,0.31519 z m 27.25,-1.0534 c -3.9875,-0.18981 -10.5125,-0.18981 -14.5,0 -3.9875,0.18982 -0.725,0.34512 7.25,0.34512 7.975,0 11.2375,-0.1553 7.25,-0.34512 z m -25.5,-0.97374 c -1.5125,-0.22913 -3.9875,-0.22913 -5.5,0 -1.5125,0.22912 -0.275,0.41659 2.75,0.41659 3.025,0 4.2625,-0.18747 2.75,-0.41659 z m 40.5,0.0105 c -1.2375,-0.23836 -3.2625,-0.23836 -4.5,0 -1.2375,0.23835 -0.225,0.43337 2.25,0.43337 2.475,0 3.4875,-0.19502 2.25,-0.43337 z m -51.5,-0.9836 c -0.9625,-0.25152 -2.5375,-0.25152 -3.5,0 -0.9625,0.25153 -0.175,0.45733 1.75,0.45733 1.925,0 2.7125,-0.2058 1.75,-0.45733 z m 48.75,-0.31497 c 18.36315,-2.01564 41.26946,-6.3804 47,-8.95578 1.1,-0.49436 5.25828,-1.86672 9.24063,-3.04971 3.98235,-1.18298 7.49641,-2.56473 7.80902,-3.07055 0.31261,-0.50581 1.25671,-0.91966 2.09799,-0.91966 0.84129,0 5.74877,-2.025 10.90552,-4.5 5.15676,-2.475 9.68982,-4.5 10.07349,-4.5 1.06376,0 16.73438,-9.16033 17.87335,-10.44794 0.55,-0.62178 3.475,-2.63042 6.5,-4.46364 3.025,-1.83323 6.175,-3.95367 7,-4.71208 0.825,-0.75842 4.65932,-3.96586 8.52072,-7.12764 15.4502,-12.65091 21.07707,-18.27778 33.72798,-33.72798 3.16178,-3.8614 6.36922,-7.69572 7.12764,-8.52072 0.75841,-0.825 2.87885,-3.975 4.71208,-7 1.83322,-3.025 3.83565,-5.95 4.44984,-6.5 1.37079,-1.22754 9.45657,-15.03065 9.47511,-16.17483 C 527.02073,349.87133 529.26471,345 532,339.5 c 2.73529,-5.5 4.97927,-10.76094 4.98663,-11.69098 0.007,-0.93004 0.42722,-1.94676 0.93303,-2.25937 0.50582,-0.31261 1.88757,-3.82667 3.07055,-7.80902 1.18299,-3.98235 2.55535,-8.14063 3.04971,-9.24063 2.66225,-5.92383 7.14118,-29.67498 8.95743,-47.5 2.47055,-24.24635 0.30404,-49.63481 -6.61341,-77.5 -2.39665,-9.65432 -3.6387,-13.76821 -5.4345,-18 -0.46679,-1.1 -1.57441,-4.25 -2.46137,-7 -0.88697,-2.75 -3.15963,-8.22734 -5.05037,-12.17187 C 531.54697,142.3836 530,138.81887 530,138.4065 530,137.26551 516.97726,114.98111 513.98397,111 c -1.44736,-1.925 -4.62335,-6.18393 -7.05776,-9.46428 C 504.49179,98.255363 501.825,94.815106 501,93.890702 500.175,92.966298 498.43942,90.925225 497.14315,89.354984 489.4241,80.004441 474.15522,65.694301 461.64457,56.08537 451.45272,48.257417 430.60166,36.027055 412.50097,27.259788 c -1.64946,-0.798937 -5.02446,-2.106891 -7.5,-2.906565 C 402.52544,23.553549 399.6,22.501469 398.5,22.015268 381.65524,14.56987 345.01695,7.9899325 320.50613,8.0082048 304.61855,8.0200487 279.10006,11.133605 266,14.658597 c -9.76251,2.626915 -19.44844,5.461621 -21.5,6.292235 -1.1,0.445357 -4.025,1.58007 -6.5,2.521585 -7.57238,2.88061 -10.00419,3.99214 -24.5,11.198445 -7.7,3.827904 -16.025,8.418439 -18.5,10.201191 -22.06774,15.895472 -26.95275,19.936737 -40.21823,33.271704 -8.09502,8.137427 -15.86436,16.49653 -17.2652,18.575783 -1.40083,2.079253 -4.5332,6.48046 -6.96082,9.78046 C 125.49497,113.37941 111,137.59974 111,139.17662 c 0,0.579 -1.07267,3.13862 -2.38372,5.68805 -8.003,15.56248 -15.730278,41.10674 -19.098763,63.13533 -2.313663,15.13046 -3.027744,39.22638 -1.58547,53.5 1.308715,12.95184 5.058418,33.37847 7.670094,41.7831 4.475639,14.40307 7.790049,23.56056 11.803949,32.61361 4.55262,10.26807 17.86091,33.91949 22.56552,40.10329 1.46453,1.925 4.237,5.60476 6.16105,8.17725 8.28634,11.07899 21.99094,25.4309 33.36734,34.9434 3.85,3.21922 7.75741,6.50394 8.68314,7.29937 0.92572,0.79544 2.95072,2.23235 4.5,3.19315 1.54927,0.96079 3.27275,2.28109 3.82995,2.93399 1.63192,1.91224 33.83591,20.4423 35.53691,20.44781 0.8525,0.003 2.0093,0.46433 2.57067,1.0257 1.54915,1.54915 20.109,8.43785 31.87933,11.83238 14.03298,4.04708 32.45295,7.39747 46.5,8.45784 10.18493,0.76884 29.07029,0.6101 37.5,-0.31519 z m 11.25,0.31497 c -0.9625,-0.25152 -2.5375,-0.25152 -3.5,0 -0.9625,0.25153 -0.175,0.45733 1.75,0.45733 1.925,0 2.7125,-0.2058 1.75,-0.45733 z m -67.5,-0.97295 c -0.6875,-0.27741 -1.8125,-0.27741 -2.5,0 -0.6875,0.27741 -0.125,0.50439 1.25,0.50439 1.375,0 1.9375,-0.22698 1.25,-0.50439 z m 74,0 c -0.6875,-0.27741 -1.8125,-0.27741 -2.5,0 -0.6875,0.27741 -0.125,0.50439 1.25,0.50439 1.375,0 1.9375,-0.22698 1.25,-0.50439 z m -80,-1 c -0.6875,-0.27741 -1.8125,-0.27741 -2.5,0 -0.6875,0.27741 -0.125,0.50439 1.25,0.50439 1.375,0 1.9375,-0.22698 1.25,-0.50439 z m 86,0 c -0.6875,-0.27741 -1.8125,-0.27741 -2.5,0 -0.6875,0.27741 -0.125,0.50439 1.25,0.50439 1.375,0 1.9375,-0.22698 1.25,-0.50439 z m 6,-1 c -0.6875,-0.27741 -1.8125,-0.27741 -2.5,0 -0.6875,0.27741 -0.125,0.50439 1.25,0.50439 1.375,0 1.9375,-0.22698 1.25,-0.50439 z m -106,-2 c -0.6875,-0.27741 -1.8125,-0.27741 -2.5,0 -0.6875,0.27741 -0.125,0.50439 1.25,0.50439 1.375,0 1.9375,-0.22698 1.25,-0.50439 z M 466.5,426 c 0.99549,-1.1 1.58498,-2 1.30998,-2 -0.275,0 -1.31449,0.9 -2.30998,2 -0.99549,1.1 -1.58498,2 -1.30998,2 0.275,0 1.31449,-0.9 2.30998,-2 z M 173,424.65499 c 0,-0.18976 -1.0125,-1.20226 -2.25,-2.25 L 168.5,420.5 l 1.90499,2.25 C 172.19521,424.86444 173,425.45524 173,424.65499 z M 472.5,421 c 0.99549,-1.1 1.58498,-2 1.30998,-2 -0.275,0 -1.31449,0.9 -2.30998,2 -0.99549,1.1 -1.58498,2 -1.30998,2 0.275,0 1.31449,-0.9 2.30998,-2 z M 167,419.69617 c 0,-0.16711 -1.6875,-1.85461 -3.75,-3.75 L 159.5,412.5 l 3.44617,3.75 C 166.15378,419.74042 167,420.45979 167,419.69617 z M 481.5,413 c 0.99549,-1.1 1.58498,-2 1.30998,-2 -0.275,0 -1.31449,0.9 -2.30998,2 -0.99549,1.1 -1.58498,2 -1.30998,2 0.275,0 1.31449,-0.9 2.30998,-2 z m 11,-11 c 0.99549,-1.1 1.58498,-2 1.30998,-2 -0.275,0 -1.31449,0.9 -2.30998,2 -0.99549,1.1 -1.58498,2 -1.30998,2 0.275,0 1.31449,-0.9 2.30998,-2 z M 150,402.65499 c 0,-0.18976 -1.0125,-1.20226 -2.25,-2.25 L 145.5,398.5 l 1.90499,2.25 C 149.19521,402.86444 150,403.45524 150,402.65499 z M 500.5,393 c 0.99549,-1.1 1.58498,-2 1.30998,-2 -0.275,0 -1.31449,0.9 -2.30998,2 -0.99549,1.1 -1.58498,2 -1.30998,2 0.275,0 1.31449,-0.9 2.30998,-2 z M 142,393.65499 c 0,-0.18976 -1.0125,-1.20226 -2.25,-2.25 L 137.5,389.5 l 1.90499,2.25 C 141.19521,393.86444 142,394.45524 142,393.65499 z M 505.5,387 c 0.99549,-1.1 1.58498,-2 1.30998,-2 -0.275,0 -1.31449,0.9 -2.30998,2 -0.99549,1.1 -1.58498,2 -1.30998,2 0.275,0 1.31449,-0.9 2.30998,-2 z M 137,387.62244 c 0,-0.20765 -0.7875,-0.99515 -1.75,-1.75 -1.58606,-1.24387 -1.62143,-1.2085 -0.37756,0.37756 1.30637,1.66575 2.12756,2.19548 2.12756,1.37244 z m -8,-11 c 0,-0.20765 -0.7875,-0.99515 -1.75,-1.75 -1.58606,-1.24387 -1.62143,-1.2085 -0.37756,0.37756 1.30637,1.66575 2.12756,2.19548 2.12756,1.37244 z M 91.662281,292.75 c -0.277413,-0.6875 -0.504386,-0.125 -0.504386,1.25 0,1.375 0.226973,1.9375 0.504386,1.25 0.277412,-0.6875 0.277412,-1.8125 0,-2.5 z m 458.999999,-4 c -0.27741,-0.6875 -0.50439,-0.125 -0.50439,1.25 0,1.375 0.22698,1.9375 0.50439,1.25 0.27741,-0.6875 0.27741,-1.8125 0,-2.5 z M 89.683114,283.8125 c -0.319226,-0.79773 -0.556183,-0.56078 -0.604167,0.60417 -0.04342,1.05416 0.192928,1.64479 0.52522,1.3125 0.332291,-0.33229 0.367818,-1.1948 0.07895,-1.91667 z M 551.66228,282.75 c -0.27741,-0.6875 -0.50439,-0.125 -0.50439,1.25 0,1.375 0.22698,1.9375 0.50439,1.25 0.27741,-0.6875 0.27741,-1.8125 0,-2.5 z m -462.999999,-5 c -0.277413,-0.6875 -0.504386,-0.125 -0.504386,1.25 0,1.375 0.226973,1.9375 0.504386,1.25 0.277412,-0.6875 0.277412,-1.8125 0,-2.5 z m 463.999999,-1 c -0.27741,-0.6875 -0.50439,-0.125 -0.50439,1.25 0,1.375 0.22698,1.9375 0.50439,1.25 0.27741,-0.6875 0.27741,-1.8125 0,-2.5 z m -464.972954,-6.5 c -0.251528,-0.9625 -0.457323,-0.175 -0.457323,1.75 0,1.925 0.205795,2.7125 0.457323,1.75 0.251527,-0.9625 0.251527,-2.5375 0,-3.5 z m 466.000004,-1 c -0.25153,-0.9625 -0.45733,-0.175 -0.45733,1.75 0,1.925 0.2058,2.7125 0.45733,1.75 0.25152,-0.9625 0.25152,-2.5375 0,-3.5 z m -466.983597,-8.5 c -0.238353,-1.2375 -0.433369,-0.225 -0.433369,2.25 0,2.475 0.195016,3.4875 0.433369,2.25 0.238353,-1.2375 0.238353,-3.2625 0,-4.5 z m 468.011847,-1.48625 c -0.22985,-1.52006 -0.42406,-0.51375 -0.43157,2.23625 -0.008,2.75 0.18056,3.99369 0.41792,2.76375 0.23736,-1.22994 0.24351,-3.47994 0.0136,-5 z M 85.744755,233.79748 C 85.55904,229.23387 85.406055,232.7 85.40479,241.5 c -0.0013,8.8 0.150683,12.53387 0.337664,8.29748 0.186981,-4.23638 0.188016,-11.43638 0.0023,-16 z M 555.74251,233.75 c -0.18982,-3.9875 -0.34512,-0.725 -0.34512,7.25 0,7.975 0.1553,11.2375 0.34512,7.25 0.18981,-3.9875 0.18981,-10.5125 0,-14.5 z m -1.03678,-15 c -0.23835,-1.2375 -0.43337,-0.225 -0.43337,2.25 0,2.475 0.19502,3.4875 0.43337,2.25 0.23836,-1.2375 0.23836,-3.2625 0,-4.5 z m -467.999997,-1 c -0.238353,-1.2375 -0.433369,-0.225 -0.433369,2.25 0,2.475 0.195016,3.4875 0.433369,2.25 0.238353,-1.2375 0.238353,-3.2625 0,-4.5 z m 466.983597,-7.5 c -0.25153,-0.9625 -0.45733,-0.175 -0.45733,1.75 0,1.925 0.2058,2.7125 0.45733,1.75 0.25152,-0.9625 0.25152,-2.5375 0,-3.5 z m -466.000004,-1 c -0.251528,-0.9625 -0.457323,-0.175 -0.457323,1.75 0,1.925 0.205795,2.7125 0.457323,1.75 0.251527,-0.9625 0.251527,-2.5375 0,-3.5 z m 465.000004,-7 c -0.25153,-0.9625 -0.45733,-0.175 -0.45733,1.75 0,1.925 0.2058,2.7125 0.45733,1.75 0.25152,-0.9625 0.25152,-2.5375 0,-3.5 z m -464.027049,0.5 c -0.277413,-0.6875 -0.504386,-0.125 -0.504386,1.25 0,1.375 0.226973,1.9375 0.504386,1.25 0.277412,-0.6875 0.277412,-1.8125 0,-2.5 z m 1,-6 c -0.277413,-0.6875 -0.504386,-0.125 -0.504386,1.25 0,1.375 0.226973,1.9375 0.504386,1.25 0.277412,-0.6875 0.277412,-1.8125 0,-2.5 z m 460.999999,-5 c -0.27741,-0.6875 -0.50439,-0.125 -0.50439,1.25 0,1.375 0.22698,1.9375 0.50439,1.25 0.27741,-0.6875 0.27741,-1.8125 0,-2.5 z M 518,112.62244 c 0,-0.20765 -0.7875,-0.99515 -1.75,-1.75 -1.58606,-1.24387 -1.62143,-1.2085 -0.37756,0.37756 1.30637,1.66575 2.12756,2.19548 2.12756,1.37244 z M 126.12756,110.25 c 1.24387,-1.58606 1.2085,-1.62143 -0.37756,-0.37756 -0.9625,0.75485 -1.75,1.54235 -1.75,1.75 0,0.82304 0.82119,0.29331 2.12756,-1.37244 z M 133.5,100 c 0.99549,-1.1 1.58498,-2 1.30998,-2 -0.275,0 -1.31449,0.9 -2.30998,2 -0.99549,1.1 -1.58498,2 -1.30998,2 0.275,0 1.31449,-0.9 2.30998,-2 z m 376.5,1.62244 c 0,-0.20765 -0.7875,-0.99515 -1.75,-1.749995 -1.58606,-1.243871 -1.62143,-1.208501 -0.37756,0.377555 1.30637,1.66575 2.12756,2.19548 2.12756,1.37244 z M 139.5,92 c 0.99549,-1.1 1.58498,-2 1.30998,-2 -0.275,0 -1.31449,0.9 -2.30998,2 -0.99549,1.1 -1.58498,2 -1.30998,2 0.275,0 1.31449,-0.9 2.30998,-2 z M 497,85.71584 c 0,-0.156288 -2.5875,-2.743788 -5.75,-5.75 L 485.5,74.5 l 5.46584,5.75 C 496.04378,85.591932 497,86.458093 497,85.71584 z M 147.5,83 c 0.99549,-1.1 1.58498,-2 1.30998,-2 -0.275,0 -1.31449,0.9 -2.30998,2 -0.99549,1.1 -1.58498,2 -1.30998,2 0.275,0 1.31449,-0.9 2.30998,-2 z M 483,71.654988 c 0,-0.189757 -1.0125,-1.202257 -2.25,-2.25 L 478.5,67.5 l 1.90499,2.25 C 482.19521,71.864445 483,72.455241 483,71.654988 z M 163.5,67 c 0.99549,-1.1 1.58498,-2 1.30998,-2 -0.275,0 -1.31449,0.9 -2.30998,2 -0.99549,1.1 -1.58498,2 -1.30998,2 0.275,0 1.31449,-0.9 2.30998,-2 z M 474,63.654988 c 0,-0.189757 -1.0125,-1.202257 -2.25,-2.25 L 469.5,59.5 l 1.90499,2.25 C 473.19521,63.864445 474,64.455241 474,63.654988 z m -6,-5.032543 c 0,-0.207656 -0.7875,-0.995156 -1.75,-1.75 C 464.66394,55.628574 464.62857,55.663944 465.87244,57.25 467.17881,58.915748 468,59.445479 468,58.622445 z m -8,-6 c 0,-0.207656 -0.7875,-0.995156 -1.75,-1.75 C 456.66394,49.628574 456.62857,49.663944 457.87244,51.25 459.17881,52.915748 460,53.445479 460,52.622445 z M 196.12756,42.25 c 1.24387,-1.586056 1.2085,-1.621426 -0.37756,-0.377555 C 194.08425,43.178814 193.55452,44 194.37756,44 c 0.20765,0 0.99515,-0.7875 1.75,-1.75 z M 374.25,12.337719 c -0.6875,-0.277412 -1.8125,-0.277412 -2.5,0 -0.6875,0.277413 -0.125,0.504386 1.25,0.504386 1.375,0 1.9375,-0.226973 1.25,-0.504386 z m -101,-1 c -0.6875,-0.277412 -1.8125,-0.277412 -2.5,0 -0.6875,0.277413 -0.125,0.504386 1.25,0.504386 1.375,0 1.9375,-0.226973 1.25,-0.504386 z m 6,-1 c -0.6875,-0.277412 -1.8125,-0.277412 -2.5,0 -0.6875,0.277413 -0.125,0.504386 1.25,0.504386 1.375,0 1.9375,-0.226973 1.25,-0.504386 z m 85,0 c -0.6875,-0.277412 -1.8125,-0.277412 -2.5,0 -0.6875,0.277413 -0.125,0.504386 1.25,0.504386 1.375,0 1.9375,-0.226973 1.25,-0.504386 z m -79,-0.9999997 c -0.6875,-0.2774123 -1.8125,-0.2774123 -2.5,0 -0.6875,0.2774123 -0.125,0.504386 1.25,0.504386 1.375,0 1.9375,-0.2269737 1.25,-0.504386 z m 73,0 c -0.6875,-0.2774123 -1.8125,-0.2774123 -2.5,0 -0.6875,0.2774123 -0.125,0.504386 1.25,0.504386 1.375,0 1.9375,-0.2269737 1.25,-0.504386 z m -65.5,-1.0270448 c -0.9625,-0.2515276 -2.5375,-0.2515276 -3.5,0 -0.9625,0.2515275 -0.175,0.4573228 1.75,0.4573228 1.925,0 2.7125,-0.2057953 1.75,-0.4573228 z m 59,0 c -0.9625,-0.2515276 -2.5375,-0.2515276 -3.5,0 -0.9625,0.2515275 -0.175,0.4573228 1.75,0.4573228 1.925,0 2.7125,-0.2057953 1.75,-0.4573228 z M 302.25,7.294267 c -1.2375,-0.2383529 -3.2625,-0.2383529 -4.5,0 -1.2375,0.2383529 -0.225,0.4333689 2.25,0.4333689 2.475,0 3.4875,-0.195016 2.25,-0.4333689 z m 41,0 c -1.2375,-0.2383529 -3.2625,-0.2383529 -4.5,0 -1.2375,0.2383529 -0.225,0.4333689 2.25,0.4333689 2.475,0 3.4875,-0.195016 2.25,-0.4333689 z M 328.29571,6.258416 c -3.96237,-0.1893045 -10.71237,-0.1904508 -15,-0.00255 -4.28764,0.1879035 -1.04571,0.342789 7.20429,0.34419 8.25,0.0014 11.75807,-0.1523383 7.79571,-0.3416428 z"
     id="path4899"
     style="fill:#000000" />
</svg>
