<?xml version="1.0" encoding="UTF-8" standalone="no"?>
<!-- Created with Inkscape (http://www.inkscape.org/) -->

<svg
   xmlns:dc="http://purl.org/dc/elements/1.1/"
   xmlns:cc="http://creativecommons.org/ns#"
   xmlns:rdf="http://www.w3.org/1999/02/22-rdf-syntax-ns#"
   xmlns:svg="http://www.w3.org/2000/svg"
   xmlns="http://www.w3.org/2000/svg"
   version="1.1"
   width="640"
   height="480"
   id="svg4999">
  <metadata
     id="metadata5005">
    <rdf:RDF>
      <cc:Work
         rdf:about="">
        <dc:format>image/svg+xml</dc:format>
        <dc:type
           rdf:resource="http://purl.org/dc/dcmitype/StillImage" />
        <dc:title></dc:title>
      </cc:Work>
    </rdf:RDF>
  </metadata>
  <defs
     id="defs5003" />
  <path
     d="m 4,415.75222 c 0,-0.93128 56.700089,-32.97542 152.75,-86.32689 84.0125,-46.66522 154.38426,-85.76951 156.38169,-86.89841 l 3.63168,-2.05255 -156.38168,-86.87241 C 18.545959,74.810064 -4.2956995,61.597363 5.9668384,64.281077 7.0485996,64.563964 77.704538,103.55785 162.98003,150.93416 c 85.2755,47.3763 155.70396,86.39108 156.50769,86.6995 0.84029,0.32245 67.78566,-36.28585 157.52271,-86.13945 85.83375,-47.68512 156.94521,-86.931356 158.02547,-87.213849 10.25944,-2.682903 -12.59248,10.535604 -154.41759,89.321599 l -156.38168,86.87241 3.63168,2.05255 c 1.99743,1.1289 72.36919,40.23319 156.38169,86.89841 138.48486,76.9222 161.02675,89.97235 150.7859,87.29431 -1.08026,-0.28249 -72.19172,-39.52873 -158.02547,-87.21385 -89.73705,-49.8536 -156.68242,-86.4619 -157.52271,-86.13945 -0.80373,0.30842 -71.23219,39.3232 -156.50769,86.6995 C 77.704538,377.44215 7.0485996,416.43604 5.9668384,416.71892 4.6648736,417.05939 4,416.73261 4,415.75222 z M 321.72917,240.39583 c -0.33229,-0.33229 -1.1948,-0.36781 -1.91667,-0.0789 -0.79773,0.31922 -0.56078,0.55618 0.60417,0.60416 1.05416,0.0434 1.64479,-0.19293 1.3125,-0.52522 z"
     id="path5009"
     style="fill:#000000" />
</svg>
