<?xml version="1.0" encoding="UTF-8" standalone="no"?>
<!-- Created with Inkscape (http://www.inkscape.org/) -->

<svg
   xmlns:dc="http://purl.org/dc/elements/1.1/"
   xmlns:cc="http://creativecommons.org/ns#"
   xmlns:rdf="http://www.w3.org/1999/02/22-rdf-syntax-ns#"
   xmlns:svg="http://www.w3.org/2000/svg"
   xmlns="http://www.w3.org/2000/svg"
   version="1.1"
   width="640"
   height="480"
   id="svg5219">
  <metadata
     id="metadata5225">
    <rdf:RDF>
      <cc:Work
         rdf:about="">
        <dc:format>image/svg+xml</dc:format>
        <dc:type
           rdf:resource="http://purl.org/dc/dcmitype/StillImage" />
        <dc:title></dc:title>
      </cc:Work>
    </rdf:RDF>
  </metadata>
  <defs
     id="defs5223" />
  <path
     d="m 97.423262,475.63069 c -1.692207,-0.62188 -4.926989,-2.94582 -7.188405,-5.16432 -5.23736,-5.13795 -7.656314,-11.88832 -6.968734,-19.44705 0.498738,-5.48274 3.779187,-12.68539 6.550357,-14.38216 0.775056,-0.47456 2.150909,-1.60455 3.057451,-2.51109 4.686655,-4.68666 19.677919,-5.42026 26.360849,-1.28999 l 3.35971,2.07642 53.44925,-53.45625 C 205.44083,352.05531 230.05707,328 230.7465,328 c 0.68942,0 1.2535,0.56408 1.2535,1.2535 0,0.68943 -24.04597,25.29633 -53.4355,54.682 l -53.43549,53.4285 2.43549,4.15586 c 1.95649,3.33848 2.4355,5.54049 2.4355,11.19587 0,3.87201 -0.64106,8.55748 -1.42458,10.41215 -1.84174,4.3596 -8.06375,10.35302 -12.7933,12.32329 -4.2441,1.76805 -13.7825,1.86131 -18.358858,0.17952 z m 11.840488,-0.33462 c -1.22994,-0.23736 -3.47994,-0.24351 -5,-0.0136 -1.52006,0.22985 -0.51375,0.42406 2.23625,0.43157 2.75,0.007 3.99369,-0.18056 2.76375,-0.41792 z m 4.51837,-2.84675 c 4.74447,-1.97886 9.97246,-6.99651 11.79605,-11.32144 0.782,-1.85467 1.42015,-5.67967 1.41809,-8.5 -0.01,-13.1073 -15.04782,-23.47768 -26.69921,-18.41174 -14.886859,6.47269 -18.517852,22.59322 -7.54913,33.5159 6.137389,6.11162 13.65106,7.79669 21.0342,4.71728 z M 123,468.5 c 1.86578,-1.925 3.16733,-3.5 2.89233,-3.5 -0.275,0 -2.02655,1.575 -3.89233,3.5 -1.86578,1.925 -3.16733,3.5 -2.89233,3.5 0.275,0 2.02655,-1.575 3.89233,-3.5 z m 5.7234,-18.75 c -0.22183,-1.7875 -0.40333,-0.325 -0.40333,3.25 0,3.575 0.1815,5.0375 0.40333,3.25 0.22182,-1.7875 0.22182,-4.7125 0,-6.5 z m -44.016139,2.01166 C 84.468068,450.51775 84.263283,451.3 84.252183,453.5 c -0.0111,2.2 0.184605,3.21775 0.434897,2.26166 0.250293,-0.95609 0.259374,-2.75609 0.02018,-4 z M 177,383.5 c 29.42114,-29.425 53.26799,-53.5 52.99299,-53.5 -0.275,0 -24.57185,24.075 -53.99299,53.5 -29.42114,29.425 -53.26799,53.5 -52.99299,53.5 0.275,0 24.57185,-24.075 53.99299,-53.5 z m -67.73625,47.79607 c -1.22994,-0.23736 -3.47994,-0.24351 -5,-0.0136 -1.52006,0.22985 -0.51375,0.42406 2.23625,0.43157 2.75,0.007 3.99369,-0.18056 2.76375,-0.41792 z m 130.03649,44.30034 c -4.93924,-1.79828 -11.9215,-9.47943 -13.32126,-14.65466 -2.27234,-8.40133 0.80762,-21.22484 5.8375,-24.30459 0.77506,-0.47456 2.15091,-1.60455 3.05745,-2.51109 2.86888,-2.86888 9.52227,-4.44836 16.40946,-3.89552 7.02415,0.56383 10.49166,2.27576 15.47118,7.63819 3.87196,4.16971 5.23231,8.50153 5.23985,16.68548 0.005,4.96305 -0.50972,6.85549 -2.85352,10.5 -3.62337,5.6342 -6.6971,8.44457 -11.37243,10.39805 -4.26418,1.78169 -13.76676,1.85585 -18.46823,0.14414 z m 11.96351,-0.30034 c -1.22994,-0.23736 -3.47994,-0.24351 -5,-0.0136 -1.52006,0.22985 -0.51375,0.42406 2.23625,0.43157 2.75,0.007 3.99369,-0.18056 2.76375,-0.41792 z m 4.48177,-2.83421 c 4.73672,-1.97913 6.89781,-3.93292 10.4058,-9.40764 7.60913,-11.87515 -0.62138,-28.01977 -15.16241,-29.74194 -3.07995,-0.36477 -6.15013,-0.0875 -8.20517,0.7411 -15.12782,6.09936 -19.34383,22.78107 -8.44086,33.3984 6.56627,6.39426 13.952,8.12316 21.40264,5.01008 z M 264,469.5 c 1.29175,-1.375 2.12363,-2.5 1.84863,-2.5 -0.275,0 -1.55688,1.125 -2.84863,2.5 -1.29175,1.375 -2.12363,2.5 -1.84863,2.5 0.275,0 1.55688,-1.125 2.84863,-2.5 z m -30,0.15499 c 0,-0.18976 -1.0125,-1.20226 -2.25,-2.25 L 229.5,465.5 l 1.90499,2.25 C 233.19521,469.86444 234,470.45524 234,469.65499 z M 270.71625,451.25 c -0.22912,-1.5125 -0.41659,-0.275 -0.41659,2.75 0,3.025 0.18747,4.2625 0.41659,2.75 0.22913,-1.5125 0.22913,-3.9875 0,-5.5 z m -44.00899,0.51166 c -0.23919,-1.24391 -0.44398,-0.46166 -0.45508,1.73834 -0.0111,2.2 0.18461,3.21775 0.4349,2.26166 0.25029,-0.95609 0.25937,-2.75609 0.0202,-4 z m 24.55649,-20.46559 c -1.22994,-0.23736 -3.47994,-0.24351 -5,-0.0136 -1.52006,0.22985 -0.51375,0.42406 2.23625,0.43157 2.75,0.007 3.99369,-0.18056 2.76375,-0.41792 z m 130.03649,44.30034 c -4.93924,-1.79828 -11.9215,-9.47943 -13.32126,-14.65466 -1.70869,-6.31739 -0.68807,-14.52799 2.50994,-20.19175 1.47514,-2.6125 3.0936,-4.75 3.59657,-4.75 0.50298,0 1.707,-0.79249 2.6756,-1.76109 2.97571,-2.97571 9.54188,-4.56868 16.5223,-4.00836 7.02415,0.56383 10.49166,2.27576 15.47118,7.63819 3.87196,4.16971 5.23231,8.50153 5.23985,16.68548 0.005,4.93503 -0.51793,6.87971 -2.82632,10.51966 -3.60962,5.69178 -8.22441,9.56992 -12.94915,10.88211 -4.7345,1.3149 -12.78973,1.1437 -16.91871,-0.35958 z M 392.25,475.29427 c -1.2375,-0.23836 -3.2625,-0.23836 -4.5,0 -1.2375,0.23835 -0.225,0.43337 2.25,0.43337 2.475,0 3.4875,-0.19502 2.25,-0.43337 z m 5.0662,-2.74308 c 4.76687,-1.70008 7.21298,-3.84409 10.83512,-9.49697 7.69853,-12.01468 -0.77838,-28.28031 -15.49045,-29.72332 -10.68703,-1.04822 -20.50486,6.77058 -22.28634,17.74858 -0.92294,5.68737 1.32315,11.84879 5.96835,16.3723 6.49141,6.32135 13.06537,7.91973 20.97332,5.09941 z M 406,469.5 c 1.29175,-1.375 2.12363,-2.5 1.84863,-2.5 -0.275,0 -1.55688,1.125 -2.84863,2.5 -1.29175,1.375 -2.12363,2.5 -1.84863,2.5 0.275,0 1.55688,-1.125 2.84863,-2.5 z m -30,0.15499 c 0,-0.18976 -1.0125,-1.20226 -2.25,-2.25 L 371.5,465.5 l 1.90499,2.25 C 375.19521,469.86444 376,470.45524 376,469.65499 z M 412.71625,451.25 c -0.22912,-1.5125 -0.41659,-0.275 -0.41659,2.75 0,3.025 0.18747,4.2625 0.41659,2.75 0.22913,-1.5125 0.22913,-3.9875 0,-5.5 z m -44.00899,0.51166 c -0.23919,-1.24391 -0.44398,-0.46166 -0.45508,1.73834 -0.0111,2.2 0.18461,3.21775 0.4349,2.26166 0.25029,-0.95609 0.25937,-2.75609 0.0202,-4 z m 24.55649,-20.46559 c -1.22994,-0.23736 -3.47994,-0.24351 -5,-0.0136 -1.52006,0.22985 -0.51375,0.42406 2.23625,0.43157 2.75,0.007 3.99369,-0.18056 2.76375,-0.41792 z M 524.5,476 c -0.33992,-0.55 -1.37898,-1.00215 -2.30902,-1.00478 -2.28563,-0.006 -8.5847,-5.92495 -10.75333,-10.10364 -0.98366,-1.89538 -1.96371,-6.52931 -2.22159,-10.50416 -0.41649,-6.41973 -0.19125,-7.57362 2.31226,-11.84553 l 2.7737,-4.73295 -53.65101,-53.65791 C 431.14295,354.63918 407,329.93217 407,329.24656 407,328.56095 407.56095,328 408.24656,328 c 0.68561,0 25.40509,24.15543 54.93219,53.67872 48.28997,48.28377 53.85487,53.53826 55.36961,52.28115 5.12837,-4.25617 17.14133,-5.18316 24.45164,-1.88682 10.74912,4.84695 15.48115,16.4516 11.92726,29.24994 -1.45834,5.25184 -9.29591,13.1678 -14.42726,14.57158 -5.0122,1.37118 -15.17633,1.43816 -16,0.10543 z m 9.76375,-0.70393 c -1.22994,-0.23736 -3.47994,-0.24351 -5,-0.0136 -1.52006,0.22985 -0.51375,0.42406 2.23625,0.43157 2.75,0.007 3.99369,-0.18056 2.76375,-0.41792 z M 538.5,472.88996 c 7.48142,-2.05532 14.48885,-11.67495 14.48885,-19.88996 0,-10.27774 -9.67743,-19.94264 -19.98885,-19.96298 -7.90279,-0.0156 -13.96199,3.72286 -18.4036,11.3548 -2.45274,4.21448 -2.77197,5.61815 -2.30553,10.13748 0.29777,2.88512 1.25368,6.62306 2.12424,8.30654 2.0394,3.94377 7.59978,9.15358 9.77587,9.15953 0.93004,0.003 1.9691,0.45463 2.30902,1.00463 0.81617,1.32059 6.99883,1.26389 12,-0.11004 z M 521,472.62244 c 0,-0.20765 -0.7875,-0.99515 -1.75,-1.75 -1.58606,-1.24387 -1.62143,-1.2085 -0.37756,0.37756 1.30637,1.66575 2.12756,2.19548 2.12756,1.37244 z M 548,469.5 c 1.29175,-1.375 2.12363,-2.5 1.84863,-2.5 -0.275,0 -1.55688,1.125 -2.84863,2.5 -1.29175,1.375 -2.12363,2.5 -1.84863,2.5 0.275,0 1.55688,-1.125 2.84863,-2.5 z m -37.28242,-19.23625 c -0.22985,-1.52006 -0.42406,-0.51375 -0.43157,2.23625 -0.007,2.75 0.18056,3.99369 0.41792,2.76375 0.23736,-1.22994 0.24351,-3.47994 0.0136,-5 z m 43.98815,0.48625 c -0.23835,-1.2375 -0.43337,-0.225 -0.43337,2.25 0,2.475 0.19502,3.4875 0.43337,2.25 0.23836,-1.2375 0.23836,-3.2625 0,-4.5 z M 517,437.74653 c 0,-0.13941 -24.4125,-24.55191 -54.25,-54.25 L 408.5,329.5 462.49653,383.75 C 512.68804,434.17712 517,438.44898 517,437.74653 z m 3.12756,-2.49653 c 1.24387,-1.58606 1.2085,-1.62143 -0.37756,-0.37756 -0.9625,0.75485 -1.75,1.54235 -1.75,1.75 0,0.82304 0.82119,0.29331 2.12756,-1.37244 z m 15.13619,-3.95393 c -1.22994,-0.23736 -3.47994,-0.24351 -5,-0.0136 -1.52006,0.22985 -0.51375,0.42406 2.23625,0.43157 2.75,0.007 3.99369,-0.18056 2.76375,-0.41792 z M 97.477597,333.9402 C 93.149148,332.68075 86.35599,325.11844 84.413475,319.39689 80.636091,308.27087 84.71872,297.40402 94.988139,291.25 c 4.394195,-2.63325 6.475511,-3.24714 10.967621,-3.23494 6.83686,0.0186 11.63854,1.62449 16.11334,5.38912 5.93657,4.9944 7.86636,9.17867 7.88463,17.09582 0.0276,11.9567 -2.99135,17.34657 -12.31983,21.99514 -5.32342,2.65278 -13.89393,3.26722 -20.156303,1.44506 z m 11.786153,-0.64413 c -1.22994,-0.23736 -3.47994,-0.24351 -5,-0.0136 -1.52006,0.22985 -0.51375,0.42406 2.23625,0.43157 2.75,0.007 3.99369,-0.18056 2.76375,-0.41792 z m 5.28452,-3.17882 c 8.55181,-3.88446 12.40716,-9.92918 12.43667,-19.49922 0.0318,-10.31652 -9.88475,-19.5756 -20.98494,-19.59359 -2.0712,-0.003 -5.64334,1.22352 -8.750352,3.00537 -12.529162,7.1854 -14.509693,21.1037 -4.539467,31.90138 5.689796,6.162 13.986639,7.75239 21.838089,4.18606 z M 95,330.65499 c 0,-0.18976 -1.0125,-1.20226 -2.25,-2.25 L 90.5,326.5 l 1.904988,2.25 C 94.195206,330.86444 95,331.45524 95,330.65499 z M 128.7234,307.75 c -0.22183,-1.7875 -0.40333,-0.325 -0.40333,3.25 0,3.575 0.1815,5.0375 0.40333,3.25 0.22182,-1.7875 0.22182,-4.7125 0,-6.5 z m -44.016139,2.01166 C 84.468068,308.51775 84.263283,309.3 84.252183,311.5 c -0.0111,2.2 0.184605,3.21775 0.434897,2.26166 0.250293,-0.95609 0.259374,-2.75609 0.02018,-4 z M 91.127555,296.25 c 1.243871,-1.58606 1.208501,-1.62143 -0.377555,-0.37756 -0.9625,0.75485 -1.75,1.54235 -1.75,1.75 0,0.82304 0.821186,0.29331 2.127555,-1.37244 z M 122,295.65499 c 0,-0.18976 -1.0125,-1.20226 -2.25,-2.25 L 117.5,291.5 l 1.90499,2.25 c 1.79022,2.11444 2.59501,2.70524 2.59501,1.90499 z m -12.73625,-6.35892 c -1.22994,-0.23736 -3.47994,-0.24351 -5,-0.0136 -1.52006,0.22985 -0.51375,0.42406 2.23625,0.43157 2.75,0.007 3.99369,-0.18056 2.76375,-0.41792 z M 522,333.46757 c -7.60235,-3.42558 -12.12263,-10.88676 -12.78545,-21.10366 -0.43517,-6.70792 -0.26225,-7.47161 2.88189,-12.72827 9.21419,-15.4051 31.59804,-15.53522 41.38952,-0.2406 1.58065,2.46903 1.99046,4.84586 2.00091,11.60496 0.0116,7.50489 -0.31193,9.05298 -2.76345,13.22342 -4.06166,6.90956 -9.89811,10.02684 -19.60662,10.47199 -5.41936,0.24849 -8.62655,-0.10574 -11.1168,-1.22784 z m 12.26375,-0.1715 c -1.22994,-0.23736 -3.47994,-0.24351 -5,-0.0136 -1.52006,0.22985 -0.51375,0.42406 2.23625,0.43157 2.75,0.007 3.99369,-0.18056 2.76375,-0.41792 z m 8.99739,-4.60322 c 6.18068,-3.62212 9.21789,-9.45659 9.21023,-17.69285 -0.006,-6.71205 -1.49523,-10.27716 -5.97096,-14.29638 -3.19453,-2.8687 -10.35308,-5.70561 -14.33332,-5.68026 -5.62637,0.0358 -13.08247,4.63738 -16.97579,10.47664 -3.0162,4.52374 -3.28977,5.53226 -2.87205,10.58785 0.70494,8.53188 5.13752,15.40112 11.92582,18.48163 4.70413,2.13472 13.68327,1.2486 19.01607,-1.87663 z m -32.54356,-20.4291 c -0.22985,-1.52006 -0.42406,-0.51375 -0.43157,2.23625 -0.007,2.75 0.18056,3.99369 0.41792,2.76375 0.23736,-1.22994 0.24351,-3.47994 0.0136,-5 z m 43.98815,0.48625 c -0.23835,-1.2375 -0.43337,-0.225 -0.43337,2.25 0,2.475 0.19502,3.4875 0.43337,2.25 0.23836,-1.2375 0.23836,-3.2625 0,-4.5 z M 548,295.62244 c 0,-0.20765 -0.7875,-0.99515 -1.75,-1.75 -1.58606,-1.24387 -1.62143,-1.2085 -0.37756,0.37756 1.30637,1.66575 2.12756,2.19548 2.12756,1.37244 z m -12.73625,-6.32637 c -1.22994,-0.23736 -3.47994,-0.24351 -5,-0.0136 -1.52006,0.22985 -0.51375,0.42406 2.23625,0.43157 2.75,0.007 3.99369,-0.18056 2.76375,-0.41792 z M 97.477597,191.9402 c -1.662321,-0.48369 -4.905326,-2.85509 -7.206677,-5.26978 -15.278015,-16.03047 -4.887398,-40.43441 17.29781,-40.62653 6.5965,-0.0571 16.26146,5.50281 19.91443,11.45611 4.00638,6.52925 3.17611,21.35994 -1.5143,27.04937 -0.80787,0.97994 -3.80974,3.28221 -6.67082,5.11617 -4.65101,2.98129 -5.92198,3.32491 -12,3.24427 -3.73892,-0.0496 -8.158121,-0.48593 -9.820443,-0.96961 z m 13.290313,-0.65473 c -1.50265,-0.22817 -4.20265,-0.23276 -6,-0.0102 -1.79735,0.22256 -0.56791,0.40925 2.73209,0.41486 3.3,0.006 4.77056,-0.17648 3.26791,-0.40466 z m 5.50196,-3.92016 c 7.99659,-4.98057 10.68685,-9.66741 10.71507,-18.66719 0.0217,-6.93005 -3.13212,-11.81197 -10.48494,-16.22987 -5.34357,-3.21065 -6.54087,-3.54552 -10.94368,-3.06083 -7.43226,0.81819 -13.480449,4.96639 -16.80632,11.52676 -1.5125,2.98345 -2.743451,6.58126 -2.735447,7.99513 0.04154,7.33753 7.347882,18.17428 13.487725,20.00497 6.055872,1.80565 12.285352,1.22275 16.767592,-1.56897 z M 95,188.65499 c 0,-0.18976 -1.0125,-1.20226 -2.25,-2.25 L 90.5,184.5 l 1.904988,2.25 C 94.195206,188.86444 95,189.45524 95,188.65499 z M 128.7234,165.75 c -0.22183,-1.7875 -0.40333,-0.325 -0.40333,3.25 0,3.575 0.1815,5.0375 0.40333,3.25 0.22182,-1.7875 0.22182,-4.7125 0,-6.5 z m -44.016139,2.01166 C 84.468068,166.51775 84.263283,167.3 84.252183,169.5 c -0.0111,2.2 0.184605,3.21775 0.434897,2.26166 0.250293,-0.95609 0.259374,-2.75609 0.02018,-4 z M 91.127555,154.25 c 1.243871,-1.58606 1.208501,-1.62143 -0.377555,-0.37756 -0.9625,0.75485 -1.75,1.54235 -1.75,1.75 0,0.82304 0.821186,0.29331 2.127555,-1.37244 z m 18.634105,-6.93708 c -0.95609,-0.25029 -2.75609,-0.25937 -4,-0.0202 -1.24391,0.23919 -0.46166,0.44398 1.73834,0.45508 2.2,0.0111 3.21775,-0.18461 2.26166,-0.4349 z M 522,191.4061 c -7.3796,-3.1956 -12.07628,-10.74003 -12.77624,-20.52287 -0.43093,-6.02281 -0.1801,-7.18518 2.72777,-12.64091 4.02542,-7.55246 10.01008,-11.22873 19.52244,-11.99229 5.90765,-0.47421 6.62052,-0.28231 13.13633,3.53626 9.0532,5.3056 10.8897,8.61798 10.8897,19.64108 0,7.03759 -0.35843,8.6824 -2.79554,12.82841 -4.17707,7.10604 -11.03169,10.73469 -20.20446,10.69569 -3.98245,-0.0169 -8.50877,-0.6831 -10.5,-1.54537 z m 13.76791,-0.12063 c -1.50265,-0.22817 -4.20265,-0.23276 -6,-0.0102 -1.79735,0.22256 -0.56791,0.40925 2.73209,0.41486 3.3,0.006 4.77056,-0.17648 3.26791,-0.40466 z m 6.42162,-3.98514 c 6.87901,-3.74403 10.2739,-9.63397 10.29492,-17.8611 0.022,-8.59707 -2.22354,-12.28803 -10.30279,-16.93481 -5.64668,-3.24768 -7.05787,-3.65617 -10.83993,-3.13778 -4.93516,0.67644 -11.05605,3.52764 -13.47522,6.27695 -3.91624,4.45069 -6.11569,10.60465 -5.53687,15.4919 1.83693,15.51002 16.48917,23.44209 29.85989,16.16484 z M 510.70573,166.75 c -0.23835,-1.2375 -0.43337,-0.225 -0.43337,2.25 0,2.475 0.19502,3.4875 0.43337,2.25 0.23836,-1.2375 0.23836,-3.2625 0,-4.5 z m 44,0 c -0.23835,-1.2375 -0.43337,-0.225 -0.43337,2.25 0,2.475 0.19502,3.4875 0.43337,2.25 0.23836,-1.2375 0.23836,-3.2625 0,-4.5 z m -18.94407,-19.43708 c -0.95609,-0.25029 -2.75609,-0.25937 -4,-0.0202 -1.24391,0.23919 -0.46166,0.44398 1.73834,0.45508 2.2,0.0111 3.21775,-0.18461 2.26166,-0.4349 z M 175.89369,99.396015 122.2897,45.792029 l -4.12498,2.603986 c -3.31452,2.092369 -5.35684,2.602889 -10.39485,2.598408 -3.44843,-0.0031 -7.962294,-0.475579 -10.030813,-1.050025 C 93.442283,48.751144 86.224594,41.81204 85.319466,38.004172 84.992083,36.626877 84.275239,34.930348 83.726478,34.234107 82.018355,32.066925 83.524328,20.591782 86.141092,15.835345 90.639078,7.659449 101.17561,2.8401801 110.94446,4.4906166 116.25995,5.3886622 123.70272,10.434278 127.18437,15.5 c 2.34944,3.418372 2.75183,5.017849 2.76735,11 0.0179,6.906106 -1.39669,12.921371 -3.68798,15.682214 -0.95923,1.155805 8.60387,11.191114 52.28114,54.862663 C 207.9452,126.44134 232,151.05707 232,151.7465 232,152.43592 231.43698,153 230.74884,153 230.0607,153 205.37588,128.87821 175.89369,99.396015 z M 230,150.7465 c 0,-0.13943 -24.1875,-24.32693 -53.75,-53.750005 L 122.5,43.5 175.9965,97.25 C 225.72307,147.21222 230,151.44899 230,150.7465 z M 110.76791,49.285474 c -1.50265,-0.228174 -4.20265,-0.232767 -6,-0.0102 -1.79735,0.222561 -0.56791,0.409249 2.73209,0.414862 3.3,0.0056 4.77056,-0.176483 3.26791,-0.404657 z m 5.50196,-3.920159 C 124.3339,40.342727 126.985,35.660598 126.95172,26.5 c -0.023,-6.319972 -3.53414,-11.728894 -10.34871,-15.942015 -12.37997,-7.6539518 -27.917161,0.203959 -30.198651,15.272926 -0.373166,2.464722 -0.197741,5.265572 0.407113,6.5 0.584555,1.192999 1.314301,3.080349 1.621659,4.19411 0.862687,3.126083 7.438639,9.373551 10.932162,10.386074 6.269567,1.8171 12.406247,1.255953 16.904577,-1.54578 z M 91,42.622445 c 0,-0.207656 -0.7875,-0.995156 -1.75,-1.75 C 87.663944,39.628574 87.628574,39.663944 88.872445,41.25 90.178814,42.915748 91,43.445479 91,42.622445 z M 128.7234,23.75 c -0.22183,-1.7875 -0.40333,-0.325 -0.40333,3.25 0,3.575 0.1815,5.0375 0.40333,3.25 0.22182,-1.7875 0.22182,-4.7125 0,-6.5 z M 84.707261,26.761659 C 84.468068,25.517747 84.263283,26.3 84.252183,28.5 c -0.0111,2.2 0.184605,3.217747 0.434897,2.261659 0.250293,-0.956087 0.259374,-2.756087 0.02018,-4 z M 125,14.654988 c 0,-0.189757 -1.0125,-1.202257 -2.25,-2.25 L 120.5,10.5 l 1.90499,2.25 C 124.19521,14.864445 125,15.455241 125,14.654988 z M 91.127555,12.25 C 92.371426,10.663944 92.336056,10.628574 90.75,11.872445 89.7875,12.627289 89,13.414789 89,13.622445 89,14.445479 89.821186,13.915748 91.127555,12.25 z M 108.26903,5.3440633 c -0.67703,-0.2739231 -2.02703,-0.2905974 -3,-0.037054 -0.97297,0.2535434 -0.41903,0.4776623 1.23097,0.498042 1.65,0.02038 2.44606,-0.1870649 1.76903,-0.460988 z M 407,151.7465 c 0,-0.68943 24.02573,-25.27609 53.39051,-54.637026 l 53.39051,-53.383517 -2.38074,-5.112979 C 505.995,27.004381 509.96774,13.101637 520.32694,7.3738119 527.29194,3.5227082 537.40621,3.3413627 543.5,6.9583263 c 9.83539,5.8377877 13.11018,11.8513237 12.25508,22.5041477 -1.08341,13.496906 -9.76944,21.510162 -23.3356,21.528142 -5.44171,0.0072 -8.14431,-0.529174 -11.67664,-2.317464 l -4.59611,-2.326848 -53.31986,53.326848 C 433.50095,129.00292 408.94293,153 408.2535,153 407.56408,153 407,152.43592 407,151.7465 z M 463,97.5 C 492.42114,68.075 516.26799,44 515.99299,44 515.71799,44 491.42114,68.075 462,97.5 432.57886,126.925 408.73201,151 409.00701,151 409.28201,151 433.57886,126.925 463,97.5 z m 72.76791,-48.214526 c -1.50265,-0.228174 -4.20265,-0.232767 -6,-0.0102 -1.79735,0.222561 -0.56791,0.409249 2.73209,0.414862 3.3,0.0056 4.77056,-0.176483 3.26791,-0.404657 z m 6.42162,-3.985149 c 8.71097,-4.741101 12.86929,-15.620868 9.42121,-24.649525 -1.801,-4.715847 -4.10871,-7.174804 -9.73727,-10.37545 -7.23092,-4.1118122 -13.82405,-3.7960824 -20.97243,1.004321 -4.44961,2.988077 -8.8503,11.037404 -8.86791,16.220329 -0.015,4.421463 3.6139,13.050625 6.60489,15.705667 6.05487,5.374789 15.91378,6.251635 23.55151,2.094658 z M 510.71758,25.26375 C 510.48773,23.743687 510.29352,24.75 510.28601,27.5 c -0.007,2.75 0.18056,3.993687 0.41792,2.76375 0.23736,-1.229938 0.24351,-3.479938 0.0136,-5 z M 554.70573,24.75 c -0.23835,-1.2375 -0.43337,-0.225 -0.43337,2.25 0,2.475 0.19502,3.4875 0.43337,2.25 0.23836,-1.2375 0.23836,-3.2625 0,-4.5 z M 551,14.654988 c 0,-0.189757 -1.0125,-1.202257 -2.25,-2.25 L 546.5,10.5 l 1.90499,2.25 C 550.19521,14.864445 551,15.455241 551,14.654988 z M 534.26903,5.3440633 c -0.67703,-0.2739231 -2.02703,-0.2905974 -3,-0.037054 -0.97297,0.2535434 -0.41903,0.4776623 1.23097,0.498042 1.65,0.02038 2.44606,-0.1870649 1.76903,-0.460988 z M 239.32099,49.899614 c -4.54721,-1.315966 -10.66395,-7.612312 -12.78136,-13.15666 -3.67365,-9.619318 -0.25466,-22.039257 7.64165,-27.7593133 7.98241,-5.7824311 17.89116,-6.3696527 26.11889,-1.5478829 8.49655,4.9793122 11.70553,10.6839202 11.69045,20.7821232 -0.0198,13.283955 -9.71339,22.847602 -22.99062,22.682547 -3.575,-0.04444 -7.93056,-0.494809 -9.67901,-1.000814 z M 251.75,49.283746 c -1.5125,-0.229125 -3.9875,-0.229125 -5.5,0 -1.5125,0.229124 -0.275,0.41659 2.75,0.41659 3.025,0 4.2625,-0.187466 2.75,-0.41659 z m 6.78536,-4.190773 C 274.68999,35.826754 271.14835,13.16248 252.73518,7.9754829 238.02528,3.831698 223.54558,21.141623 229.83265,35.354583 c 5.22656,11.815513 17.70212,16.048277 28.70271,9.73839 z M 270.71625,25.25 c -0.22912,-1.5125 -0.41659,-0.275 -0.41659,2.75 0,3.025 0.18747,4.2625 0.41659,2.75 0.22913,-1.5125 0.22913,-3.9875 0,-5.5 z m -44.00899,1.511659 C 226.46807,25.517747 226.26328,26.3 226.25218,28.5 c -0.0111,2.2 0.18461,3.217747 0.4349,2.261659 0.25029,-0.956087 0.25937,-2.756087 0.0202,-4 z M 267,14.654988 c 0,-0.189757 -1.0125,-1.202257 -2.25,-2.25 L 262.5,10.5 l 1.90499,2.25 C 266.19521,14.864445 267,15.455241 267,14.654988 z M 233.12756,12.25 c 1.24387,-1.586056 1.2085,-1.621426 -0.37756,-0.377555 -0.9625,0.754844 -1.75,1.542344 -1.75,1.75 0,0.823034 0.82119,0.293303 2.12756,-1.372445 z m 17.14147,-6.9059367 c -0.67703,-0.2739231 -2.02703,-0.2905974 -3,-0.037054 -0.97297,0.2535434 -0.41903,0.4776623 1.23097,0.498042 1.65,0.02038 2.44606,-0.1870649 1.76903,-0.460988 z M 381.32099,49.899614 c -1.74846,-0.506005 -4.93089,-2.603205 -7.07206,-4.660444 -11.09688,-10.661876 -8.99834,-30.309456 4.0317,-37.7468587 4.42618,-2.5264154 6.28317,-2.9786032 12.21937,-2.9754872 5.8332,0.00306 7.76021,0.4577049 11.56078,2.7275544 8.78649,5.2476475 11.94503,10.8005935 11.92984,20.9735025 -0.0198,13.283955 -9.71339,22.847602 -22.99062,22.682547 -3.575,-0.04444 -7.93056,-0.494809 -9.67901,-1.000814 z M 393.75,49.283746 c -1.5125,-0.229125 -3.9875,-0.229125 -5.5,0 -1.5125,0.229124 -0.275,0.41659 2.75,0.41659 3.025,0 4.2625,-0.187466 2.75,-0.41659 z m 6.78536,-4.190773 C 416.68999,35.826754 413.14835,13.16248 394.73518,7.9754829 380.02528,3.831698 365.54558,21.141623 371.83265,35.354583 c 5.22656,11.815513 17.70212,16.048277 28.70271,9.73839 z M 412.71625,25.25 c -0.22912,-1.5125 -0.41659,-0.275 -0.41659,2.75 0,3.025 0.18747,4.2625 0.41659,2.75 0.22913,-1.5125 0.22913,-3.9875 0,-5.5 z m -44.00899,1.511659 C 368.46807,25.517747 368.26328,26.3 368.25218,28.5 c -0.0111,2.2 0.18461,3.217747 0.4349,2.261659 0.25029,-0.956087 0.25937,-2.756087 0.0202,-4 z M 409,14.654988 c 0,-0.189757 -1.0125,-1.202257 -2.25,-2.25 L 404.5,10.5 l 1.90499,2.25 C 408.19521,14.864445 409,15.455241 409,14.654988 z M 392.26903,5.3440633 c -0.67703,-0.2739231 -2.02703,-0.2905974 -3,-0.037054 -0.97297,0.2535434 -0.41903,0.4776623 1.23097,0.498042 1.65,0.02038 2.44606,-0.1870649 1.76903,-0.460988 z"
     id="path5229"
     style="fill:#000000" />
</svg>
