<?xml version="1.0" encoding="UTF-8" standalone="no"?>
<!-- Created with Inkscape (http://www.inkscape.org/) -->

<svg
   xmlns:dc="http://purl.org/dc/elements/1.1/"
   xmlns:cc="http://creativecommons.org/ns#"
   xmlns:rdf="http://www.w3.org/1999/02/22-rdf-syntax-ns#"
   xmlns:svg="http://www.w3.org/2000/svg"
   xmlns="http://www.w3.org/2000/svg"
   version="1.1"
   width="640"
   height="480"
   id="svg5329">
  <metadata
     id="metadata5335">
    <rdf:RDF>
      <cc:Work
         rdf:about="">
        <dc:format>image/svg+xml</dc:format>
        <dc:type
           rdf:resource="http://purl.org/dc/dcmitype/StillImage" />
        <dc:title></dc:title>
      </cc:Work>
    </rdf:RDF>
  </metadata>
  <defs
     id="defs5333" />
  <path
     d="M 300,477.31089 C 275.46558,475.45885 240.33207,466.50125 223.86385,457.8993 221.86396,456.85468 219.69575,456 219.0456,456 c -1.52264,0 -34.22382,-18.78078 -35.5456,-20.41438 -0.55,-0.67974 -2.35,-2.08761 -4,-3.1286 -1.65,-1.04098 -3.9,-2.66891 -5,-3.61761 -1.1,-0.9487 -4.25,-3.66318 -7,-6.03216 -5.94498,-5.1213 -23.62445,-22.6546 -28.53103,-28.29513 -3.84593,-4.42123 -6.5738,-8.02586 -10.60393,-14.01212 -1.48111,-2.2 -3.24794,-4.45 -3.9263,-5 C 122.87537,374.23245 107,346.546 107,345.08706 c 0,-0.59731 -1.07685,-3.22375 -2.39299,-5.83654 C 95.458729,321.08954 88.515826,296.97596 84.812016,270.5 c -1.633423,-11.6762 -1.620053,-46.46426 0.02229,-58 1.751208,-12.3004 5.953532,-32.87916 7.624355,-37.33643 0.755316,-2.01496 2.157968,-6.36357 3.117006,-9.66357 0.959037,-3.3 2.298324,-7.125 2.976193,-8.5 0.67787,-1.375 2.02444,-4.525 2.99239,-7 5.8055,-14.84449 22.26591,-43.63764 28.70575,-50.213135 0.9625,-0.982776 1.75,-2.136577 1.75,-2.564004 0,-0.427426 1.2375,-2.146565 2.75,-3.820309 1.5125,-1.673743 5.45,-6.103018 8.75,-9.842832 3.3,-3.739814 9.11084,-9.783175 12.91298,-13.429691 9.54353,-9.152916 9.85725,-9.437694 12.26101,-11.130029 1.17182,-0.825 4.76205,-3.539136 7.97829,-6.031414 3.21625,-2.492278 7.64772,-5.598801 9.84772,-6.903384 2.2,-1.304583 4.45,-2.89672 5,-3.538081 2.4283,-2.831671 24.08788,-13.985742 39.5,-20.341381 16.92253,-6.978502 33.77029,-11.530003 57,-15.3988152 4.53932,-0.7560043 16.97419,-1.2487185 31.5,-1.2481428 20.54292,8.141e-4 25.94461,0.3347749 37.5,2.31845 13.52721,2.32217 27.03227,5.388941 31.24926,7.096177 1.23791,0.501164 4.95074,1.695107 8.25074,2.653207 3.3,0.958101 6.88763,2.338562 7.97251,3.067693 1.08487,0.72913 2.58553,1.325691 3.33478,1.325691 1.87875,0 29.99669,13.771273 33.69271,16.501621 1.65,1.218898 6.15,4.134114 10,6.478258 3.85,2.344143 7.675,4.888906 8.5,5.655028 0.825,0.766121 5.88649,4.942309 11.24776,9.280418 11.17274,9.040508 25.19107,22.994545 31.75224,31.606618 2.475,3.248642 5.2875,6.710194 6.25,7.692339 0.9625,0.982148 1.75,2.174358 1.75,2.649358 0,0.475 1.06655,1.9375 2.37012,3.25 2.32001,2.33591 20.62988,33.23054 20.62988,34.80924 0,0.44027 1.31698,3.70503 2.92663,7.25502 7.40047,16.3214 13.33421,37.16508 16.74537,58.8221 2.54956,16.18685 2.55545,54.74727 0.0109,71 -4.81246,30.73785 -15.37189,60.50189 -30.33296,85.5 -2.96251,4.95 -6.3867,10.35 -7.6093,12 -1.2226,1.65 -4.53448,6.15 -7.35974,10 -14.19024,19.33715 -37.2387,41.02565 -57.38603,54 -2.56221,1.65 -7.54673,4.91925 -11.0767,7.26499 -3.52996,2.34575 -7.53403,4.55799 -8.89793,4.91609 -1.36389,0.3581 -5.03961,2.15135 -8.16826,3.98501 -3.12865,1.83365 -6.11925,3.33391 -6.64576,3.33391 -0.52652,0 -3.6008,1.16971 -6.83174,2.59937 -16.62453,7.35616 -45.36916,14.32812 -67.37443,16.34157 -10.68457,0.97762 -31.51901,1.16113 -42,0.36995 z m 13.75,-1.02714 c -1.5125,-0.22913 -3.9875,-0.22913 -5.5,0 -1.5125,0.22912 -0.275,0.41659 2.75,0.41659 3.025,0 4.2625,-0.18747 2.75,-0.41659 z m 16,-0.0122 c -2.0625,-0.21574 -5.4375,-0.21574 -7.5,0 -2.0625,0.21575 -0.375,0.39226 3.75,0.39226 4.125,0 5.8125,-0.17651 3.75,-0.39226 z m -28,-0.98778 c -1.5125,-0.22913 -3.9875,-0.22913 -5.5,0 -1.5125,0.22912 -0.275,0.41659 2.75,0.41659 3.025,0 4.2625,-0.18747 2.75,-0.41659 z m 41,0 c -1.5125,-0.22913 -3.9875,-0.22913 -5.5,0 -1.5125,0.22912 -0.275,0.41659 2.75,0.41659 3.025,0 4.2625,-0.18747 2.75,-0.41659 z m -52,-0.97308 c -0.9625,-0.25152 -2.5375,-0.25152 -3.5,0 -0.9625,0.25153 -0.175,0.45733 1.75,0.45733 1.925,0 2.7125,-0.2058 1.75,-0.45733 z m 143.6558,-118.21646 118.90264,-118.9058 -0.6827,-9.8442 c -1.92381,-27.73999 -8.7242,-56.1671 -18.69911,-78.16631 C 532.31698,145.62791 531,142.3711 531,141.94055 c 0,-0.73478 -9.66239,-17.90683 -10.63371,-18.8983 -0.65328,-0.66682 -319.32835,318.21013 -318.82408,319.02605 0.66347,1.07351 18.30603,10.9317 19.56376,10.9317 0.61695,0 2.75799,0.85468 4.75788,1.8993 19.08615,9.96939 56.95415,18.83218 85.13773,19.92599 L 315.50315,475 434.4058,356.09421 z M 436,357.5 C 500.62324,292.875 553.27181,240 552.99681,240 552.72181,240 499.62324,292.875 435,357.5 370.37676,422.125 317.72819,475 318.00319,475 318.27819,475 371.37676,422.125 436,357.5 z m -96,116.44094 c 22.00527,-2.01345 50.7499,-8.98541 67.37443,-16.34157 3.23094,-1.42966 6.30522,-2.59937 6.83174,-2.59937 0.52651,0 3.51711,-1.50026 6.64576,-3.33391 3.12865,-1.83366 6.80437,-3.62691 8.16826,-3.98501 1.3639,-0.3581 5.36769,-2.57034 8.89732,-4.91609 3.52963,-2.34574 8.25463,-5.42698 10.5,-6.84719 14.38406,-9.09799 33.48223,-25.71779 46.08249,-40.10235 6.49141,-7.41065 7.75849,-8.98923 12.69452,-15.81545 2.58509,-3.575 5.56717,-7.62773 6.62686,-9.00607 1.05969,-1.37834 4.17521,-6.32834 6.92338,-11 14.75223,-25.07754 25.49044,-55.53749 29.71963,-84.30254 C 552.04032,264.97269 553.67813,243 552.90117,243 552.67875,243 500.29822,295.2 436.5,359 l -115.99677,116 3.99839,-0.003 c 2.19911,-0.002 9.17338,-0.47692 15.49838,-1.05564 z m 11.75,0.36973 c -0.9625,-0.25152 -2.5375,-0.25152 -3.5,0 -0.9625,0.25153 -0.175,0.45733 1.75,0.45733 1.925,0 2.7125,-0.2058 1.75,-0.45733 z m -68.5,-0.97295 c -0.6875,-0.27741 -1.8125,-0.27741 -2.5,0 -0.6875,0.27741 -0.125,0.50439 1.25,0.50439 1.375,0 1.9375,-0.22698 1.25,-0.50439 z m 75,0 c -0.6875,-0.27741 -1.8125,-0.27741 -2.5,0 -0.6875,0.27741 -0.125,0.50439 1.25,0.50439 1.375,0 1.9375,-0.22698 1.25,-0.50439 z m -81,-1 c -0.6875,-0.27741 -1.8125,-0.27741 -2.5,0 -0.6875,0.27741 -0.125,0.50439 1.25,0.50439 1.375,0 1.9375,-0.22698 1.25,-0.50439 z m 86.47917,0.0581 c -0.33229,-0.33229 -1.1948,-0.36781 -1.91667,-0.0789 -0.79773,0.31922 -0.56078,0.55618 0.60417,0.60416 1.05416,0.0434 1.64479,-0.19293 1.3125,-0.52522 z m 9.52083,-2.05811 c -0.6875,-0.27741 -1.8125,-0.27741 -2.5,0 -0.6875,0.27741 -0.125,0.50439 1.25,0.50439 1.375,0 1.9375,-0.22698 1.25,-0.50439 z M 445.12756,440.25 c 1.24387,-1.58606 1.2085,-1.62143 -0.37756,-0.37756 -0.9625,0.75485 -1.75,1.54235 -1.75,1.75 0,0.82304 0.82119,0.29331 2.12756,-1.37244 z M 360.5,280 c 88.54872,-88.55 160.77267,-161 160.49767,-161 -0.275,0 -72.94895,72.45 -161.49767,161 -88.54872,88.55 -160.77267,161 -160.49767,161 0.275,0 72.94895,-72.45 161.49767,-161 z m -2.59698,-0.40302 160.40069,-160.40302 -2.68439,-4.58056 c -1.47641,-2.51931 -3.79474,-5.77866 -5.15185,-7.243 C 509.11036,105.90605 508,104.34119 508,103.89293 c 0,-0.44826 -0.80344,-1.62005 -1.78543,-2.60397 -0.98198,-0.98393 -3.73396,-4.372904 -6.11551,-7.531059 -6.07648,-8.057974 -20.54479,-22.446101 -31.40458,-31.230538 -5.05696,-4.090556 -10.01612,-8.166766 -11.02035,-9.058242 -2.08981,-1.855168 -12.85846,-8.46268 -13.79844,-8.46655 -0.34337,-0.0014 -72.70903,72.420289 -160.81257,160.937129 l -160.18825,160.93969 1.81257,2.77373 c 0.99691,1.52555 2.82506,3.86839 4.06256,5.20632 1.2375,1.33793 2.25,2.77432 2.25,3.19197 0,0.41765 1.58884,2.71444 3.53076,5.10398 1.94191,2.38953 5.17624,6.36961 7.18739,8.84461 4.61045,5.67378 21.11164,22.06923 28.18059,28 2.94999,2.475 6.49529,5.5125 7.87846,6.75 1.38316,1.2375 2.83342,2.25 3.2228,2.25 0.38938,0 1.84562,1.05435 3.23609,2.343 2.35612,2.18357 11.64396,8.43176 12.76508,8.58742 0.27564,0.0383 72.68148,-72.11178 160.90185,-160.33344 z M 457.12756,432.25 c 1.24387,-1.58606 1.2085,-1.62143 -0.37756,-0.37756 -1.66575,1.30637 -2.19548,2.12756 -1.37244,2.12756 0.20765,0 0.99515,-0.7875 1.75,-1.75 z m 8,-6 c 1.24387,-1.58606 1.2085,-1.62143 -0.37756,-0.37756 -1.66575,1.30637 -2.19548,2.12756 -1.37244,2.12756 0.20765,0 0.99515,-0.7875 1.75,-1.75 z M 168,420.65499 c 0,-0.18976 -1.0125,-1.20226 -2.25,-2.25 L 163.5,416.5 l 1.90499,2.25 C 167.19521,420.86444 168,421.45524 168,420.65499 z M 476.5,417 c 0.99549,-1.1 1.58498,-2 1.30998,-2 -0.275,0 -1.31449,0.9 -2.30998,2 -0.99549,1.1 -1.58498,2 -1.30998,2 0.275,0 1.31449,-0.9 2.30998,-2 z M 159,412.72318 c 0,-0.15225 -3.2625,-3.41475 -7.25,-7.25 L 144.5,398.5 l 6.97318,7.25 C 157.94987,412.4838 159,413.45669 159,412.72318 z M 484.12756,409.25 c 1.24387,-1.58606 1.2085,-1.62143 -0.37756,-0.37756 -1.66575,1.30637 -2.19548,2.12756 -1.37244,2.12756 0.20765,0 0.99515,-0.7875 1.75,-1.75 z M 494.5,399 c 0.99549,-1.1 1.58498,-2 1.30998,-2 -0.275,0 -1.31449,0.9 -2.30998,2 -0.99549,1.1 -1.58498,2 -1.30998,2 0.275,0 1.31449,-0.9 2.30998,-2 z M 144,396.65499 c 0,-0.18976 -1.0125,-1.20226 -2.25,-2.25 L 139.5,392.5 l 1.90499,2.25 c 1.79022,2.11444 2.59501,2.70524 2.59501,1.90499 z m -9,-11 c 0,-0.18976 -1.0125,-1.20226 -2.25,-2.25 L 130.5,381.5 l 1.90499,2.25 C 134.19521,385.86444 135,386.45524 135,385.65499 z M 509.12756,381.25 c 1.24387,-1.58606 1.2085,-1.62143 -0.37756,-0.37756 -1.66575,1.30637 -2.19548,2.12756 -1.37244,2.12756 0.20765,0 0.99515,-0.7875 1.75,-1.75 z m 7,-10 c 1.24387,-1.58606 1.2085,-1.62143 -0.37756,-0.37756 -0.9625,0.75485 -1.75,1.54235 -1.75,1.75 0,0.82304 0.82119,0.29331 2.12756,-1.37244 z M 202.5,285 c 43.99742,-44 79.77031,-80 79.49531,-80 -0.275,0 -36.49789,36 -80.49531,80 -43.99742,44 -79.77031,80 -79.49531,80 0.275,0 36.49789,-36 80.49531,-80 z M 439.18456,41.190772 C 436.62923,39.204786 407.33298,25 405.79237,25 405.05133,25 403.55738,24.403439 402.47251,23.674309 401.38763,22.945178 397.8,21.564717 394.5,20.606616 c -3.3,-0.9581 -7.01283,-2.152043 -8.25074,-2.653207 -7.28673,-2.950012 -35.13854,-8.1133445 -51.05719,-9.4652823 L 327.88414,7.8674795 206.91002,128.08942 85.935912,248.31135 l 0.580719,6.09433 c 2.884614,30.27242 8.613681,55.14881 17.179179,74.59432 6.02418,13.67617 11.3593,24.41902 15.13265,30.47122 l 2.47593,3.97122 159.78237,-160.47122 C 423.0708,60.375058 440.68148,42.354164 439.18456,41.190772 z M 89.662281,286.75 c -0.277413,-0.6875 -0.504386,-0.125 -0.504386,1.25 0,1.375 0.226973,1.9375 0.504386,1.25 0.277412,-0.6875 0.277412,-1.8125 0,-2.5 z m 460.999999,-2 c -0.27741,-0.6875 -0.50439,-0.125 -0.50439,1.25 0,1.375 0.22698,1.9375 0.50439,1.25 0.27741,-0.6875 0.27741,-1.8125 0,-2.5 z m 1,-6 c -0.27741,-0.6875 -0.50439,-0.125 -0.50439,1.25 0,1.375 0.22698,1.9375 0.50439,1.25 0.27741,-0.6875 0.27741,-1.8125 0,-2.5 z M 87.692991,276.26903 C 87.439447,275.29606 87.215328,275.85 87.194949,277.5 c -0.02038,1.65 0.187065,2.44606 0.460988,1.76903 0.273923,-0.67703 0.290597,-2.02703 0.03705,-3 z M 552.68933,271.25 c -0.25153,-0.9625 -0.45733,-0.175 -0.45733,1.75 0,1.925 0.2058,2.7125 0.45733,1.75 0.25152,-0.9625 0.25152,-2.5375 0,-3.5 z m -466.000004,-3 c -0.251528,-0.9625 -0.457323,-0.175 -0.457323,1.75 0,1.925 0.205795,2.7125 0.457323,1.75 0.251527,-0.9625 0.251527,-2.5375 0,-3.5 z m 467.016404,-6.5 c -0.23835,-1.2375 -0.43337,-0.225 -0.43337,2.25 0,2.475 0.19502,3.4875 0.43337,2.25 0.23836,-1.2375 0.23836,-3.2625 0,-4.5 z m -467.989476,-4.5 c -0.229124,-1.5125 -0.41659,-0.275 -0.41659,2.75 0,3.025 0.187466,4.2625 0.41659,2.75 0.229125,-1.5125 0.229125,-3.9875 0,-5.5 z M 554.73073,244.71983 c -0.20972,-2.32091 -0.37882,-0.16983 -0.37577,4.78017 0.003,4.95 0.17464,6.84892 0.38131,4.21983 0.20668,-2.6291 0.20418,-6.6791 -0.006,-9 z m -470.037739,4.5492 C 84.439447,248.29606 84.215328,248.85 84.194949,250.5 c -0.02038,1.65 0.187065,2.44606 0.460988,1.76903 0.273923,-0.67703 0.290597,-2.02703 0.03705,-3 z M 146,186.5 C 178.72153,153.775 205.2687,127 204.9937,127 204.7187,127 177.72153,153.775 145,186.5 112.27847,219.225 85.731303,246 86.006303,246 86.281303,246 113.27847,219.225 146,186.5 z M 84.733497,233.77643 C 84.522251,231.42439 84.346443,233.1 84.34281,237.5 c -0.0036,4.4 0.169205,6.32439 0.384083,4.27643 0.214877,-2.04796 0.217849,-5.64796 0.0066,-8 z M 322,8.2200359 C 322,7.9295949 316.24279,7.9833432 309.2062,8.3394766 282.43394,9.6944645 256.97222,15.320037 233,25.176657 221.04869,30.090658 200.90112,40.228214 196.52037,43.531941 194.30917,45.199509 190.7,47.660135 188.5,49 c -16.98365,10.343543 -40.04313,32.417356 -56.10637,53.70814 -10.131,13.42798 -21.99468,34.43373 -27.83919,49.29186 -0.97355,2.475 -2.32471,5.625 -3.00258,7 -0.67787,1.375 -2.017156,5.2 -2.976193,8.5 -0.959038,3.3 -2.36169,7.64861 -3.117006,9.66357 C 92.041519,186.27951 87.541163,213.54882 86.408798,232 L 85.703034,243.5 203.85152,126.12406 C 268.83318,61.567286 322,8.5104768 322,8.2200359 z M 554.7298,228.2723 c -0.21648,-2.07476 -0.39722,-0.6223 -0.40166,3.2277 -0.004,3.85 0.17268,5.54754 0.39359,3.7723 0.22091,-1.77523 0.22454,-4.92523 0.008,-7 z M 85.716254,220.25 c -0.229124,-1.5125 -0.41659,-0.275 -0.41659,2.75 0,3.025 0.187466,4.2625 0.41659,2.75 0.229125,-1.5125 0.229125,-3.9875 0,-5.5 z m 467.989476,-3.5 c -0.23835,-1.2375 -0.43337,-0.225 -0.43337,2.25 0,2.475 0.19502,3.4875 0.43337,2.25 0.23836,-1.2375 0.23836,-3.2625 0,-4.5 z m -467.016404,-5.5 c -0.251528,-0.9625 -0.457323,-0.175 -0.457323,1.75 0,1.925 0.205795,2.7125 0.457323,1.75 0.251527,-0.9625 0.251527,-2.5375 0,-3.5 z m 466.000004,-3 c -0.25153,-0.9625 -0.45733,-0.175 -0.45733,1.75 0,1.925 0.2058,2.7125 0.45733,1.75 0.25152,-0.9625 0.25152,-2.5375 0,-3.5 z m -465.027049,-3.5 c -0.277413,-0.6875 -0.504386,-0.125 -0.504386,1.25 0,1.375 0.226973,1.9375 0.504386,1.25 0.277412,-0.6875 0.277412,-1.8125 0,-2.5 z m 463.999999,-3 c -0.27741,-0.6875 -0.50439,-0.125 -0.50439,1.25 0,1.375 0.22698,1.9375 0.50439,1.25 0.27741,-0.6875 0.27741,-1.8125 0,-2.5 z M 363.82077,122.67924 c 73.70865,-73.712916 80.16651,-80.434367 78.49767,-81.701769 -1.56731,-1.190296 -1.64252,-1.184137 -0.5446,0.0446 1.06868,1.196003 -11.65478,14.354984 -78.99767,81.701769 C 318.62684,166.87573 282.72966,203 283.00466,203 c 0.275,0 36.64225,-36.14434 80.81611,-80.32076 z M 88.662281,198.75 c -0.277413,-0.6875 -0.504386,-0.125 -0.504386,1.25 0,1.375 0.226973,1.9375 0.504386,1.25 0.277412,-0.6875 0.277412,-1.8125 0,-2.5 z m 461.999999,-3 c -0.27741,-0.6875 -0.50439,-0.125 -0.50439,1.25 0,1.375 0.22698,1.9375 0.50439,1.25 0.27741,-0.6875 0.27741,-1.8125 0,-2.5 z m -459.999999,-7 c -0.277413,-0.6875 -0.504386,-0.125 -0.504386,1.25 0,1.375 0.226973,1.9375 0.504386,1.25 0.277412,-0.6875 0.277412,-1.8125 0,-2.5 z m 458.020829,-1.9375 c -0.31922,-0.79773 -0.55618,-0.56078 -0.60416,0.60417 -0.0434,1.05416 0.19293,1.64479 0.52522,1.3125 0.33229,-0.3323 0.36781,-1.1948 0.0789,-1.91667 z M 266.5,67 C 298.9465,34.55 325.26864,8 324.99364,8 324.71864,8 297.9465,34.55 265.5,67 c -32.4465,32.45 -58.76864,59 -58.49364,59 0.275,0 27.04714,-26.55 59.49364,-59 z M 503,93.622445 c 0,-0.207656 -0.7875,-0.995156 -1.75,-1.75 C 499.66394,90.628574 499.62857,90.663944 500.87244,92.25 502.17881,93.915748 503,94.445479 503,93.622445 z M 141.5,89 c 0.99549,-1.1 1.58498,-2 1.30998,-2 -0.275,0 -1.31449,0.9 -2.30998,2 -0.99549,1.1 -1.58498,2 -1.30998,2 0.275,0 1.31449,-0.9 2.30998,-2 z M 499,88.654988 c 0,-0.189757 -1.0125,-1.202257 -2.25,-2.25 L 494.5,84.5 l 1.90499,2.25 C 498.19521,88.864445 499,89.455241 499,88.654988 z M 149.5,80 c 0.99549,-1.1 1.58498,-2 1.30998,-2 -0.275,0 -1.31449,0.9 -2.30998,2 -0.99549,1.1 -1.58498,2 -1.30998,2 0.275,0 1.31449,-0.9 2.30998,-2 z m 9.5,-9.5 c 2.98742,-3.025 5.20668,-5.5 4.93168,-5.5 -0.275,0 -2.94426,2.475 -5.93168,5.5 -2.98742,3.025 -5.20668,5.5 -4.93168,5.5 0.275,0 2.94426,-2.475 5.93168,-5.5 z m 319,-2.845012 c 0,-0.189757 -1.0125,-1.202257 -2.25,-2.25 L 473.5,63.5 l 1.90499,2.25 C 477.19521,67.864445 478,68.455241 478,67.654988 z m -6,-5.032543 c 0,-0.207656 -0.7875,-0.995156 -1.75,-1.75 C 468.66394,59.628574 468.62857,59.663944 469.87244,61.25 471.17881,62.915748 472,63.445479 472,62.622445 z M 173.5,58 c 0.99549,-1.1 1.58498,-2 1.30998,-2 -0.275,0 -1.31449,0.9 -2.30998,2 -0.99549,1.1 -1.58498,2 -1.30998,2 0.275,0 1.31449,-0.9 2.30998,-2 z M 467,58.654988 c 0,-0.189757 -1.0125,-1.202257 -2.25,-2.25 L 462.5,54.5 l 1.90499,2.25 C 466.19521,58.864445 467,59.455241 467,58.654988 z M 182.12756,51.25 c 1.24387,-1.586056 1.2085,-1.621426 -0.37756,-0.377555 C 180.08425,52.178814 179.55452,53 180.37756,53 c 0.20765,0 0.99515,-0.7875 1.75,-1.75 z M 273.25,11.337719 c -0.6875,-0.277412 -1.8125,-0.277412 -2.5,0 -0.6875,0.277413 -0.125,0.504386 1.25,0.504386 1.375,0 1.9375,-0.226973 1.25,-0.504386 z m 96,0 c -0.6875,-0.277412 -1.8125,-0.277412 -2.5,0 -0.6875,0.277413 -0.125,0.504386 1.25,0.504386 1.375,0 1.9375,-0.226973 1.25,-0.504386 z m -6,-1 c -0.6875,-0.277412 -1.8125,-0.277412 -2.5,0 -0.6875,0.277413 -0.125,0.504386 1.25,0.504386 1.375,0 1.9375,-0.226973 1.25,-0.504386 z m -79.5,-1.0270445 c -0.9625,-0.2515276 -2.5375,-0.2515276 -3.5,0 -0.9625,0.2515275 -0.175,0.4573228 1.75,0.4573228 1.925,0 2.7125,-0.2057953 1.75,-0.4573228 z m 73.5,0.027045 c -0.6875,-0.2774123 -1.8125,-0.2774123 -2.5,0 -0.6875,0.2774123 -0.125,0.504386 1.25,0.504386 1.375,0 1.9375,-0.2269737 1.25,-0.504386 z m -67,-1 c -0.6875,-0.2774123 -1.8125,-0.2774123 -2.5,0 -0.6875,0.2774123 -0.125,0.504386 1.25,0.504386 1.375,0 1.9375,-0.2269737 1.25,-0.504386 z m 61,0 c -0.6875,-0.2774123 -1.8125,-0.2774123 -2.5,0 -0.6875,0.2774123 -0.125,0.504386 1.25,0.504386 1.375,0 1.9375,-0.2269737 1.25,-0.504386 z m -50.5,-1.0539737 c -1.5125,-0.2291247 -3.9875,-0.2291247 -5.5,0 -1.5125,0.2291246 -0.275,0.4165902 2.75,0.4165902 3.025,0 4.2625,-0.1874656 2.75,-0.4165902 z m 43,0 c -1.5125,-0.2291247 -3.9875,-0.2291247 -5.5,0 -1.5125,0.2291246 -0.275,0.4165902 2.75,0.4165902 3.025,0 4.2625,-0.1874656 2.75,-0.4165902 z m -23.96648,-1.017416 c -2.59406,-0.2052456 -7.09406,-0.207376 -10,-0.00473 C 306.87758,6.4642374 309,6.6321657 314.5,6.6347694 c 5.5,0.0026 7.87758,-0.1631941 5.28352,-0.3684398 z m 12.97814,0.04659 c -0.95609,-0.2502926 -2.75609,-0.2593739 -4,-0.020181 -1.24391,0.2391933 -0.46166,0.4439781 1.73834,0.4550775 2.2,0.011099 3.21775,-0.1846042 2.26166,-0.4348968 z"
     id="path5339"
     style="fill:#000000" />
</svg>
